%TF.GenerationSoftware,KiCad,Pcbnew,(5.1.8)-1*%
%TF.CreationDate,2020-12-04T01:07:56+04:00*%
%TF.ProjectId,6dof_controller,36646f66-5f63-46f6-9e74-726f6c6c6572,ver 1.0*%
%TF.SameCoordinates,Original*%
%TF.FileFunction,Soldermask,Top*%
%TF.FilePolarity,Negative*%
%FSLAX46Y46*%
G04 Gerber Fmt 4.6, Leading zero omitted, Abs format (unit mm)*
G04 Created by KiCad (PCBNEW (5.1.8)-1) date 2020-12-04 01:07:56*
%MOMM*%
%LPD*%
G01*
G04 APERTURE LIST*
%ADD10C,1.600000*%
%ADD11O,3.500000X2.000000*%
%ADD12O,2.000000X3.300000*%
%ADD13R,2.000000X4.000000*%
%ADD14C,2.600000*%
%ADD15R,2.600000X2.600000*%
%ADD16C,3.200000*%
%ADD17O,1.600000X1.600000*%
%ADD18R,1.600000X1.600000*%
%ADD19C,1.700000*%
%ADD20C,1.524000*%
%ADD21R,1.524000X1.524000*%
%ADD22C,1.440000*%
%ADD23C,3.000000*%
%ADD24O,1.800000X2.600000*%
%ADD25R,1.800000X2.600000*%
%ADD26R,2.500000X2.300000*%
%ADD27R,2.200000X2.200000*%
%ADD28O,2.200000X2.200000*%
%ADD29C,6.400000*%
%ADD30C,3.250000*%
%ADD31C,1.500000*%
%ADD32R,1.500000X1.500000*%
%ADD33C,8.000000*%
%ADD34R,1.780000X2.000000*%
G04 APERTURE END LIST*
D10*
%TO.C,J2*%
X34180000Y-113792000D03*
D11*
X36180000Y-118292000D03*
X36180000Y-109292000D03*
D12*
X37180000Y-113792000D03*
D13*
X43180000Y-113792000D03*
%TD*%
%TO.C,C13*%
G36*
G01*
X191524000Y-92423000D02*
X191524000Y-91473000D01*
G75*
G02*
X191774000Y-91223000I250000J0D01*
G01*
X192274000Y-91223000D01*
G75*
G02*
X192524000Y-91473000I0J-250000D01*
G01*
X192524000Y-92423000D01*
G75*
G02*
X192274000Y-92673000I-250000J0D01*
G01*
X191774000Y-92673000D01*
G75*
G02*
X191524000Y-92423000I0J250000D01*
G01*
G37*
G36*
G01*
X189624000Y-92423000D02*
X189624000Y-91473000D01*
G75*
G02*
X189874000Y-91223000I250000J0D01*
G01*
X190374000Y-91223000D01*
G75*
G02*
X190624000Y-91473000I0J-250000D01*
G01*
X190624000Y-92423000D01*
G75*
G02*
X190374000Y-92673000I-250000J0D01*
G01*
X189874000Y-92673000D01*
G75*
G02*
X189624000Y-92423000I0J250000D01*
G01*
G37*
%TD*%
%TO.C,C11*%
G36*
G01*
X224666000Y-92423000D02*
X224666000Y-91473000D01*
G75*
G02*
X224916000Y-91223000I250000J0D01*
G01*
X225416000Y-91223000D01*
G75*
G02*
X225666000Y-91473000I0J-250000D01*
G01*
X225666000Y-92423000D01*
G75*
G02*
X225416000Y-92673000I-250000J0D01*
G01*
X224916000Y-92673000D01*
G75*
G02*
X224666000Y-92423000I0J250000D01*
G01*
G37*
G36*
G01*
X222766000Y-92423000D02*
X222766000Y-91473000D01*
G75*
G02*
X223016000Y-91223000I250000J0D01*
G01*
X223516000Y-91223000D01*
G75*
G02*
X223766000Y-91473000I0J-250000D01*
G01*
X223766000Y-92423000D01*
G75*
G02*
X223516000Y-92673000I-250000J0D01*
G01*
X223016000Y-92673000D01*
G75*
G02*
X222766000Y-92423000I0J250000D01*
G01*
G37*
%TD*%
%TO.C,C9*%
G36*
G01*
X158372000Y-92423000D02*
X158372000Y-91473000D01*
G75*
G02*
X158622000Y-91223000I250000J0D01*
G01*
X159122000Y-91223000D01*
G75*
G02*
X159372000Y-91473000I0J-250000D01*
G01*
X159372000Y-92423000D01*
G75*
G02*
X159122000Y-92673000I-250000J0D01*
G01*
X158622000Y-92673000D01*
G75*
G02*
X158372000Y-92423000I0J250000D01*
G01*
G37*
G36*
G01*
X156472000Y-92423000D02*
X156472000Y-91473000D01*
G75*
G02*
X156722000Y-91223000I250000J0D01*
G01*
X157222000Y-91223000D01*
G75*
G02*
X157472000Y-91473000I0J-250000D01*
G01*
X157472000Y-92423000D01*
G75*
G02*
X157222000Y-92673000I-250000J0D01*
G01*
X156722000Y-92673000D01*
G75*
G02*
X156472000Y-92423000I0J250000D01*
G01*
G37*
%TD*%
%TO.C,C18*%
G36*
G01*
X237523000Y-61598000D02*
X238473000Y-61598000D01*
G75*
G02*
X238723000Y-61848000I0J-250000D01*
G01*
X238723000Y-62348000D01*
G75*
G02*
X238473000Y-62598000I-250000J0D01*
G01*
X237523000Y-62598000D01*
G75*
G02*
X237273000Y-62348000I0J250000D01*
G01*
X237273000Y-61848000D01*
G75*
G02*
X237523000Y-61598000I250000J0D01*
G01*
G37*
G36*
G01*
X237523000Y-59698000D02*
X238473000Y-59698000D01*
G75*
G02*
X238723000Y-59948000I0J-250000D01*
G01*
X238723000Y-60448000D01*
G75*
G02*
X238473000Y-60698000I-250000J0D01*
G01*
X237523000Y-60698000D01*
G75*
G02*
X237273000Y-60448000I0J250000D01*
G01*
X237273000Y-59948000D01*
G75*
G02*
X237523000Y-59698000I250000J0D01*
G01*
G37*
%TD*%
%TO.C,C17*%
G36*
G01*
X151859000Y-32128000D02*
X150909000Y-32128000D01*
G75*
G02*
X150659000Y-31878000I0J250000D01*
G01*
X150659000Y-31378000D01*
G75*
G02*
X150909000Y-31128000I250000J0D01*
G01*
X151859000Y-31128000D01*
G75*
G02*
X152109000Y-31378000I0J-250000D01*
G01*
X152109000Y-31878000D01*
G75*
G02*
X151859000Y-32128000I-250000J0D01*
G01*
G37*
G36*
G01*
X151859000Y-34028000D02*
X150909000Y-34028000D01*
G75*
G02*
X150659000Y-33778000I0J250000D01*
G01*
X150659000Y-33278000D01*
G75*
G02*
X150909000Y-33028000I250000J0D01*
G01*
X151859000Y-33028000D01*
G75*
G02*
X152109000Y-33278000I0J-250000D01*
G01*
X152109000Y-33778000D01*
G75*
G02*
X151859000Y-34028000I-250000J0D01*
G01*
G37*
%TD*%
%TO.C,C7*%
G36*
G01*
X207902000Y-92423000D02*
X207902000Y-91473000D01*
G75*
G02*
X208152000Y-91223000I250000J0D01*
G01*
X208652000Y-91223000D01*
G75*
G02*
X208902000Y-91473000I0J-250000D01*
G01*
X208902000Y-92423000D01*
G75*
G02*
X208652000Y-92673000I-250000J0D01*
G01*
X208152000Y-92673000D01*
G75*
G02*
X207902000Y-92423000I0J250000D01*
G01*
G37*
G36*
G01*
X206002000Y-92423000D02*
X206002000Y-91473000D01*
G75*
G02*
X206252000Y-91223000I250000J0D01*
G01*
X206752000Y-91223000D01*
G75*
G02*
X207002000Y-91473000I0J-250000D01*
G01*
X207002000Y-92423000D01*
G75*
G02*
X206752000Y-92673000I-250000J0D01*
G01*
X206252000Y-92673000D01*
G75*
G02*
X206002000Y-92423000I0J250000D01*
G01*
G37*
%TD*%
%TO.C,C5*%
G36*
G01*
X54069000Y-88384000D02*
X53119000Y-88384000D01*
G75*
G02*
X52869000Y-88134000I0J250000D01*
G01*
X52869000Y-87634000D01*
G75*
G02*
X53119000Y-87384000I250000J0D01*
G01*
X54069000Y-87384000D01*
G75*
G02*
X54319000Y-87634000I0J-250000D01*
G01*
X54319000Y-88134000D01*
G75*
G02*
X54069000Y-88384000I-250000J0D01*
G01*
G37*
G36*
G01*
X54069000Y-90284000D02*
X53119000Y-90284000D01*
G75*
G02*
X52869000Y-90034000I0J250000D01*
G01*
X52869000Y-89534000D01*
G75*
G02*
X53119000Y-89284000I250000J0D01*
G01*
X54069000Y-89284000D01*
G75*
G02*
X54319000Y-89534000I0J-250000D01*
G01*
X54319000Y-90034000D01*
G75*
G02*
X54069000Y-90284000I-250000J0D01*
G01*
G37*
%TD*%
%TO.C,C3*%
G36*
G01*
X174882000Y-92423000D02*
X174882000Y-91473000D01*
G75*
G02*
X175132000Y-91223000I250000J0D01*
G01*
X175632000Y-91223000D01*
G75*
G02*
X175882000Y-91473000I0J-250000D01*
G01*
X175882000Y-92423000D01*
G75*
G02*
X175632000Y-92673000I-250000J0D01*
G01*
X175132000Y-92673000D01*
G75*
G02*
X174882000Y-92423000I0J250000D01*
G01*
G37*
G36*
G01*
X172982000Y-92423000D02*
X172982000Y-91473000D01*
G75*
G02*
X173232000Y-91223000I250000J0D01*
G01*
X173732000Y-91223000D01*
G75*
G02*
X173982000Y-91473000I0J-250000D01*
G01*
X173982000Y-92423000D01*
G75*
G02*
X173732000Y-92673000I-250000J0D01*
G01*
X173232000Y-92673000D01*
G75*
G02*
X172982000Y-92423000I0J250000D01*
G01*
G37*
%TD*%
%TO.C,C2*%
G36*
G01*
X141862000Y-92423000D02*
X141862000Y-91473000D01*
G75*
G02*
X142112000Y-91223000I250000J0D01*
G01*
X142612000Y-91223000D01*
G75*
G02*
X142862000Y-91473000I0J-250000D01*
G01*
X142862000Y-92423000D01*
G75*
G02*
X142612000Y-92673000I-250000J0D01*
G01*
X142112000Y-92673000D01*
G75*
G02*
X141862000Y-92423000I0J250000D01*
G01*
G37*
G36*
G01*
X139962000Y-92423000D02*
X139962000Y-91473000D01*
G75*
G02*
X140212000Y-91223000I250000J0D01*
G01*
X140712000Y-91223000D01*
G75*
G02*
X140962000Y-91473000I0J-250000D01*
G01*
X140962000Y-92423000D01*
G75*
G02*
X140712000Y-92673000I-250000J0D01*
G01*
X140212000Y-92673000D01*
G75*
G02*
X139962000Y-92423000I0J250000D01*
G01*
G37*
%TD*%
D14*
%TO.C,\u002AJ3*%
X35560000Y-37592000D03*
D15*
X35560000Y-32592000D03*
%TD*%
D16*
%TO.C,\u002AXA1*%
X178054000Y-61214000D03*
X178054000Y-33274000D03*
X228854000Y-18034000D03*
X230124000Y-66294000D03*
D17*
X183134000Y-18034000D03*
X180594000Y-18034000D03*
X220214000Y-18034000D03*
X180594000Y-66294000D03*
X217674000Y-18034000D03*
X183134000Y-66294000D03*
X215134000Y-18034000D03*
X185674000Y-66294000D03*
X212594000Y-18034000D03*
X188214000Y-66294000D03*
X210054000Y-18034000D03*
X190754000Y-66294000D03*
X207514000Y-18034000D03*
X193294000Y-66294000D03*
X204974000Y-18034000D03*
X198374000Y-66294000D03*
X202434000Y-18034000D03*
X200914000Y-66294000D03*
X198374000Y-18034000D03*
X203454000Y-66294000D03*
X195834000Y-18034000D03*
X205994000Y-66294000D03*
X193294000Y-18034000D03*
X208534000Y-66294000D03*
X190754000Y-18034000D03*
X211074000Y-66294000D03*
X188214000Y-18034000D03*
X213614000Y-66294000D03*
X185674000Y-18034000D03*
D18*
X216154000Y-66294000D03*
D17*
X222754000Y-18034000D03*
X225294000Y-18034000D03*
%TD*%
%TO.C,U3*%
X154686000Y-61976000D03*
X162306000Y-28956000D03*
X154686000Y-59436000D03*
X162306000Y-31496000D03*
X154686000Y-56896000D03*
X162306000Y-34036000D03*
X154686000Y-54356000D03*
X162306000Y-36576000D03*
X154686000Y-51816000D03*
X162306000Y-39116000D03*
X154686000Y-49276000D03*
X162306000Y-41656000D03*
X154686000Y-46736000D03*
X162306000Y-44196000D03*
X154686000Y-44196000D03*
X162306000Y-46736000D03*
X154686000Y-41656000D03*
X162306000Y-49276000D03*
X154686000Y-39116000D03*
X162306000Y-51816000D03*
X154686000Y-36576000D03*
X162306000Y-54356000D03*
X154686000Y-34036000D03*
X162306000Y-56896000D03*
X154686000Y-31496000D03*
X162306000Y-59436000D03*
X154686000Y-28956000D03*
D18*
X162306000Y-61976000D03*
%TD*%
%TO.C,J7*%
G36*
G01*
X234608000Y-115154000D02*
X234608000Y-113954000D01*
G75*
G02*
X234858000Y-113704000I250000J0D01*
G01*
X236058000Y-113704000D01*
G75*
G02*
X236308000Y-113954000I0J-250000D01*
G01*
X236308000Y-115154000D01*
G75*
G02*
X236058000Y-115404000I-250000J0D01*
G01*
X234858000Y-115404000D01*
G75*
G02*
X234608000Y-115154000I0J250000D01*
G01*
G37*
D19*
X235458000Y-117094000D03*
X235458000Y-119634000D03*
X235458000Y-122174000D03*
X235458000Y-124714000D03*
X237998000Y-114554000D03*
X237998000Y-117094000D03*
X237998000Y-119634000D03*
X237998000Y-122174000D03*
X237998000Y-124714000D03*
%TD*%
D17*
%TO.C,\u002AU3*%
X47244000Y-62992000D03*
X54864000Y-29972000D03*
X47244000Y-60452000D03*
X54864000Y-32512000D03*
X47244000Y-57912000D03*
X54864000Y-35052000D03*
X47244000Y-55372000D03*
X54864000Y-37592000D03*
X47244000Y-52832000D03*
X54864000Y-40132000D03*
X47244000Y-50292000D03*
X54864000Y-42672000D03*
X47244000Y-47752000D03*
X54864000Y-45212000D03*
X47244000Y-45212000D03*
X54864000Y-47752000D03*
X47244000Y-42672000D03*
X54864000Y-50292000D03*
X47244000Y-40132000D03*
X54864000Y-52832000D03*
X47244000Y-37592000D03*
X54864000Y-55372000D03*
X47244000Y-35052000D03*
X54864000Y-57912000D03*
X47244000Y-32512000D03*
X54864000Y-60452000D03*
X47244000Y-29972000D03*
D18*
X54864000Y-62992000D03*
%TD*%
D20*
%TO.C,U1*%
X198628000Y-30480000D03*
X201168000Y-30480000D03*
X203708000Y-30480000D03*
X206248000Y-30480000D03*
X208788000Y-30480000D03*
X211328000Y-30480000D03*
X213868000Y-30480000D03*
X216408000Y-30480000D03*
X218948000Y-30480000D03*
X221488000Y-30480000D03*
X224028000Y-30480000D03*
X226568000Y-30480000D03*
X229108000Y-30480000D03*
X231648000Y-30480000D03*
X234188000Y-30480000D03*
X234188000Y-55880000D03*
X231648000Y-55880000D03*
X229108000Y-55880000D03*
X226568000Y-55880000D03*
X224028000Y-55880000D03*
X221488000Y-55880000D03*
X218948000Y-55880000D03*
X216408000Y-55880000D03*
X213868000Y-55880000D03*
X211328000Y-55880000D03*
X208788000Y-55880000D03*
X206248000Y-55880000D03*
X203708000Y-55880000D03*
X201168000Y-55880000D03*
D21*
X198628000Y-55880000D03*
%TD*%
D22*
%TO.C,RV1*%
X51308000Y-22860000D03*
X53848000Y-20320000D03*
X56388000Y-22860000D03*
%TD*%
D23*
%TO.C,DS1*%
X136556000Y-18034000D03*
X136555480Y-49034700D03*
X61556900Y-49034700D03*
X61556900Y-18034000D03*
D24*
X105156000Y-18034000D03*
X102616000Y-18034000D03*
X100076000Y-18034000D03*
X97536000Y-18034000D03*
X94996000Y-18034000D03*
X92456000Y-18034000D03*
X89916000Y-18034000D03*
X87376000Y-18034000D03*
X84836000Y-18034000D03*
X82296000Y-18034000D03*
X79756000Y-18034000D03*
X77216000Y-18034000D03*
X74676000Y-18034000D03*
X72136000Y-18034000D03*
X69596000Y-18034000D03*
D25*
X67056000Y-18034000D03*
%TD*%
%TO.C,C15*%
G36*
G01*
X229348000Y-59902000D02*
X229348000Y-61002000D01*
G75*
G02*
X229098000Y-61252000I-250000J0D01*
G01*
X226998000Y-61252000D01*
G75*
G02*
X226748000Y-61002000I0J250000D01*
G01*
X226748000Y-59902000D01*
G75*
G02*
X226998000Y-59652000I250000J0D01*
G01*
X229098000Y-59652000D01*
G75*
G02*
X229348000Y-59902000I0J-250000D01*
G01*
G37*
G36*
G01*
X232948000Y-59902000D02*
X232948000Y-61002000D01*
G75*
G02*
X232698000Y-61252000I-250000J0D01*
G01*
X230598000Y-61252000D01*
G75*
G02*
X230348000Y-61002000I0J250000D01*
G01*
X230348000Y-59902000D01*
G75*
G02*
X230598000Y-59652000I250000J0D01*
G01*
X232698000Y-59652000D01*
G75*
G02*
X232948000Y-59902000I0J-250000D01*
G01*
G37*
%TD*%
%TO.C,C1*%
G36*
G01*
X60422000Y-125518000D02*
X60422000Y-124418000D01*
G75*
G02*
X60672000Y-124168000I250000J0D01*
G01*
X62772000Y-124168000D01*
G75*
G02*
X63022000Y-124418000I0J-250000D01*
G01*
X63022000Y-125518000D01*
G75*
G02*
X62772000Y-125768000I-250000J0D01*
G01*
X60672000Y-125768000D01*
G75*
G02*
X60422000Y-125518000I0J250000D01*
G01*
G37*
G36*
G01*
X64022000Y-125518000D02*
X64022000Y-124418000D01*
G75*
G02*
X64272000Y-124168000I250000J0D01*
G01*
X66372000Y-124168000D01*
G75*
G02*
X66622000Y-124418000I0J-250000D01*
G01*
X66622000Y-125518000D01*
G75*
G02*
X66372000Y-125768000I-250000J0D01*
G01*
X64272000Y-125768000D01*
G75*
G02*
X64022000Y-125518000I0J250000D01*
G01*
G37*
%TD*%
%TO.C,D4*%
G36*
G01*
X130322500Y-60400250D02*
X130322500Y-59487750D01*
G75*
G02*
X130566250Y-59244000I243750J0D01*
G01*
X131053750Y-59244000D01*
G75*
G02*
X131297500Y-59487750I0J-243750D01*
G01*
X131297500Y-60400250D01*
G75*
G02*
X131053750Y-60644000I-243750J0D01*
G01*
X130566250Y-60644000D01*
G75*
G02*
X130322500Y-60400250I0J243750D01*
G01*
G37*
G36*
G01*
X128447500Y-60400250D02*
X128447500Y-59487750D01*
G75*
G02*
X128691250Y-59244000I243750J0D01*
G01*
X129178750Y-59244000D01*
G75*
G02*
X129422500Y-59487750I0J-243750D01*
G01*
X129422500Y-60400250D01*
G75*
G02*
X129178750Y-60644000I-243750J0D01*
G01*
X128691250Y-60644000D01*
G75*
G02*
X128447500Y-60400250I0J243750D01*
G01*
G37*
%TD*%
D26*
%TO.C,\u002AD4*%
X41402000Y-22098000D03*
X37102000Y-22098000D03*
%TD*%
%TO.C,\u002AD1*%
G36*
G01*
X237977500Y-87681750D02*
X237977500Y-88594250D01*
G75*
G02*
X237733750Y-88838000I-243750J0D01*
G01*
X237246250Y-88838000D01*
G75*
G02*
X237002500Y-88594250I0J243750D01*
G01*
X237002500Y-87681750D01*
G75*
G02*
X237246250Y-87438000I243750J0D01*
G01*
X237733750Y-87438000D01*
G75*
G02*
X237977500Y-87681750I0J-243750D01*
G01*
G37*
G36*
G01*
X236102500Y-87681750D02*
X236102500Y-88594250D01*
G75*
G02*
X235858750Y-88838000I-243750J0D01*
G01*
X235371250Y-88838000D01*
G75*
G02*
X235127500Y-88594250I0J243750D01*
G01*
X235127500Y-87681750D01*
G75*
G02*
X235371250Y-87438000I243750J0D01*
G01*
X235858750Y-87438000D01*
G75*
G02*
X236102500Y-87681750I0J-243750D01*
G01*
G37*
%TD*%
%TO.C,D1*%
G36*
G01*
X78688250Y-94116500D02*
X77775750Y-94116500D01*
G75*
G02*
X77532000Y-93872750I0J243750D01*
G01*
X77532000Y-93385250D01*
G75*
G02*
X77775750Y-93141500I243750J0D01*
G01*
X78688250Y-93141500D01*
G75*
G02*
X78932000Y-93385250I0J-243750D01*
G01*
X78932000Y-93872750D01*
G75*
G02*
X78688250Y-94116500I-243750J0D01*
G01*
G37*
G36*
G01*
X78688250Y-95991500D02*
X77775750Y-95991500D01*
G75*
G02*
X77532000Y-95747750I0J243750D01*
G01*
X77532000Y-95260250D01*
G75*
G02*
X77775750Y-95016500I243750J0D01*
G01*
X78688250Y-95016500D01*
G75*
G02*
X78932000Y-95260250I0J-243750D01*
G01*
X78932000Y-95747750D01*
G75*
G02*
X78688250Y-95991500I-243750J0D01*
G01*
G37*
%TD*%
%TO.C,\u002AD3*%
G36*
G01*
X128447500Y-68782250D02*
X128447500Y-67869750D01*
G75*
G02*
X128691250Y-67626000I243750J0D01*
G01*
X129178750Y-67626000D01*
G75*
G02*
X129422500Y-67869750I0J-243750D01*
G01*
X129422500Y-68782250D01*
G75*
G02*
X129178750Y-69026000I-243750J0D01*
G01*
X128691250Y-69026000D01*
G75*
G02*
X128447500Y-68782250I0J243750D01*
G01*
G37*
G36*
G01*
X130322500Y-68782250D02*
X130322500Y-67869750D01*
G75*
G02*
X130566250Y-67626000I243750J0D01*
G01*
X131053750Y-67626000D01*
G75*
G02*
X131297500Y-67869750I0J-243750D01*
G01*
X131297500Y-68782250D01*
G75*
G02*
X131053750Y-69026000I-243750J0D01*
G01*
X130566250Y-69026000D01*
G75*
G02*
X130322500Y-68782250I0J243750D01*
G01*
G37*
%TD*%
D27*
%TO.C,D2*%
X61722000Y-113792000D03*
D28*
X51562000Y-113792000D03*
%TD*%
D26*
%TO.C,\u002AD2*%
X66022000Y-118618000D03*
X61722000Y-118618000D03*
%TD*%
%TO.C,D3*%
G36*
G01*
X92984500Y-151840250D02*
X92984500Y-150927750D01*
G75*
G02*
X93228250Y-150684000I243750J0D01*
G01*
X93715750Y-150684000D01*
G75*
G02*
X93959500Y-150927750I0J-243750D01*
G01*
X93959500Y-151840250D01*
G75*
G02*
X93715750Y-152084000I-243750J0D01*
G01*
X93228250Y-152084000D01*
G75*
G02*
X92984500Y-151840250I0J243750D01*
G01*
G37*
G36*
G01*
X91109500Y-151840250D02*
X91109500Y-150927750D01*
G75*
G02*
X91353250Y-150684000I243750J0D01*
G01*
X91840750Y-150684000D01*
G75*
G02*
X92084500Y-150927750I0J-243750D01*
G01*
X92084500Y-151840250D01*
G75*
G02*
X91840750Y-152084000I-243750J0D01*
G01*
X91353250Y-152084000D01*
G75*
G02*
X91109500Y-151840250I0J243750D01*
G01*
G37*
%TD*%
%TO.C,D5*%
G36*
G01*
X222809750Y-72410500D02*
X223722250Y-72410500D01*
G75*
G02*
X223966000Y-72654250I0J-243750D01*
G01*
X223966000Y-73141750D01*
G75*
G02*
X223722250Y-73385500I-243750J0D01*
G01*
X222809750Y-73385500D01*
G75*
G02*
X222566000Y-73141750I0J243750D01*
G01*
X222566000Y-72654250D01*
G75*
G02*
X222809750Y-72410500I243750J0D01*
G01*
G37*
G36*
G01*
X222809750Y-70535500D02*
X223722250Y-70535500D01*
G75*
G02*
X223966000Y-70779250I0J-243750D01*
G01*
X223966000Y-71266750D01*
G75*
G02*
X223722250Y-71510500I-243750J0D01*
G01*
X222809750Y-71510500D01*
G75*
G02*
X222566000Y-71266750I0J243750D01*
G01*
X222566000Y-70779250D01*
G75*
G02*
X222809750Y-70535500I243750J0D01*
G01*
G37*
%TD*%
%TO.C,\u002AD11*%
G36*
G01*
X130322500Y-64210250D02*
X130322500Y-63297750D01*
G75*
G02*
X130566250Y-63054000I243750J0D01*
G01*
X131053750Y-63054000D01*
G75*
G02*
X131297500Y-63297750I0J-243750D01*
G01*
X131297500Y-64210250D01*
G75*
G02*
X131053750Y-64454000I-243750J0D01*
G01*
X130566250Y-64454000D01*
G75*
G02*
X130322500Y-64210250I0J243750D01*
G01*
G37*
G36*
G01*
X128447500Y-64210250D02*
X128447500Y-63297750D01*
G75*
G02*
X128691250Y-63054000I243750J0D01*
G01*
X129178750Y-63054000D01*
G75*
G02*
X129422500Y-63297750I0J-243750D01*
G01*
X129422500Y-64210250D01*
G75*
G02*
X129178750Y-64454000I-243750J0D01*
G01*
X128691250Y-64454000D01*
G75*
G02*
X128447500Y-64210250I0J243750D01*
G01*
G37*
%TD*%
%TO.C,\u002AD8*%
G36*
G01*
X106913500Y-59487750D02*
X106913500Y-60400250D01*
G75*
G02*
X106669750Y-60644000I-243750J0D01*
G01*
X106182250Y-60644000D01*
G75*
G02*
X105938500Y-60400250I0J243750D01*
G01*
X105938500Y-59487750D01*
G75*
G02*
X106182250Y-59244000I243750J0D01*
G01*
X106669750Y-59244000D01*
G75*
G02*
X106913500Y-59487750I0J-243750D01*
G01*
G37*
G36*
G01*
X105038500Y-59487750D02*
X105038500Y-60400250D01*
G75*
G02*
X104794750Y-60644000I-243750J0D01*
G01*
X104307250Y-60644000D01*
G75*
G02*
X104063500Y-60400250I0J243750D01*
G01*
X104063500Y-59487750D01*
G75*
G02*
X104307250Y-59244000I243750J0D01*
G01*
X104794750Y-59244000D01*
G75*
G02*
X105038500Y-59487750I0J-243750D01*
G01*
G37*
%TD*%
%TO.C,\u002AD9*%
G36*
G01*
X105038500Y-63297750D02*
X105038500Y-64210250D01*
G75*
G02*
X104794750Y-64454000I-243750J0D01*
G01*
X104307250Y-64454000D01*
G75*
G02*
X104063500Y-64210250I0J243750D01*
G01*
X104063500Y-63297750D01*
G75*
G02*
X104307250Y-63054000I243750J0D01*
G01*
X104794750Y-63054000D01*
G75*
G02*
X105038500Y-63297750I0J-243750D01*
G01*
G37*
G36*
G01*
X106913500Y-63297750D02*
X106913500Y-64210250D01*
G75*
G02*
X106669750Y-64454000I-243750J0D01*
G01*
X106182250Y-64454000D01*
G75*
G02*
X105938500Y-64210250I0J243750D01*
G01*
X105938500Y-63297750D01*
G75*
G02*
X106182250Y-63054000I243750J0D01*
G01*
X106669750Y-63054000D01*
G75*
G02*
X106913500Y-63297750I0J-243750D01*
G01*
G37*
%TD*%
%TO.C,\u002AD10*%
G36*
G01*
X105038500Y-67869750D02*
X105038500Y-68782250D01*
G75*
G02*
X104794750Y-69026000I-243750J0D01*
G01*
X104307250Y-69026000D01*
G75*
G02*
X104063500Y-68782250I0J243750D01*
G01*
X104063500Y-67869750D01*
G75*
G02*
X104307250Y-67626000I243750J0D01*
G01*
X104794750Y-67626000D01*
G75*
G02*
X105038500Y-67869750I0J-243750D01*
G01*
G37*
G36*
G01*
X106913500Y-67869750D02*
X106913500Y-68782250D01*
G75*
G02*
X106669750Y-69026000I-243750J0D01*
G01*
X106182250Y-69026000D01*
G75*
G02*
X105938500Y-68782250I0J243750D01*
G01*
X105938500Y-67869750D01*
G75*
G02*
X106182250Y-67626000I243750J0D01*
G01*
X106669750Y-67626000D01*
G75*
G02*
X106913500Y-67869750I0J-243750D01*
G01*
G37*
%TD*%
%TO.C,D6*%
G36*
G01*
X231191750Y-70535500D02*
X232104250Y-70535500D01*
G75*
G02*
X232348000Y-70779250I0J-243750D01*
G01*
X232348000Y-71266750D01*
G75*
G02*
X232104250Y-71510500I-243750J0D01*
G01*
X231191750Y-71510500D01*
G75*
G02*
X230948000Y-71266750I0J243750D01*
G01*
X230948000Y-70779250D01*
G75*
G02*
X231191750Y-70535500I243750J0D01*
G01*
G37*
G36*
G01*
X231191750Y-72410500D02*
X232104250Y-72410500D01*
G75*
G02*
X232348000Y-72654250I0J-243750D01*
G01*
X232348000Y-73141750D01*
G75*
G02*
X232104250Y-73385500I-243750J0D01*
G01*
X231191750Y-73385500D01*
G75*
G02*
X230948000Y-73141750I0J243750D01*
G01*
X230948000Y-72654250D01*
G75*
G02*
X231191750Y-72410500I243750J0D01*
G01*
G37*
%TD*%
D29*
%TO.C,H1*%
X238000000Y-13000000D03*
%TD*%
%TO.C,H2*%
X36500000Y-13000000D03*
%TD*%
%TO.C,H3*%
X238000000Y-151000000D03*
%TD*%
%TO.C,H4*%
X36500000Y-151000000D03*
%TD*%
D14*
%TO.C,\u002AJ1*%
X239522000Y-97362000D03*
D15*
X239522000Y-102362000D03*
%TD*%
%TO.C,J1*%
X35814000Y-124460000D03*
D14*
X35814000Y-129460000D03*
X35814000Y-134460000D03*
%TD*%
D15*
%TO.C,\u002AJ2*%
X54102000Y-148793200D03*
D14*
X59102000Y-148793200D03*
%TD*%
D30*
%TO.C,J3*%
X39370000Y-102108000D03*
D23*
X36320000Y-104163000D03*
D30*
X39370000Y-90678000D03*
D31*
X45720000Y-94488000D03*
X45720000Y-97028000D03*
X48260000Y-95758000D03*
X45720000Y-99568000D03*
D32*
X45720000Y-91948000D03*
D31*
X48260000Y-93218000D03*
D23*
X36320000Y-88623000D03*
D31*
X48260000Y-100838000D03*
X48260000Y-98298000D03*
%TD*%
D33*
%TO.C,J4*%
X226318000Y-146354000D03*
X226318000Y-97994000D03*
D19*
X227838000Y-137414000D03*
X227838000Y-134874000D03*
X227838000Y-132334000D03*
X227838000Y-129794000D03*
X227838000Y-127254000D03*
X227838000Y-124714000D03*
X227838000Y-122174000D03*
X227838000Y-119634000D03*
X227838000Y-117094000D03*
X227838000Y-114554000D03*
X227838000Y-112014000D03*
X227838000Y-109474000D03*
X227838000Y-106934000D03*
X225298000Y-137414000D03*
X225298000Y-134874000D03*
X225298000Y-132334000D03*
X225298000Y-129794000D03*
X225298000Y-127254000D03*
X225298000Y-124714000D03*
X225298000Y-122174000D03*
X225298000Y-119634000D03*
X225298000Y-117094000D03*
X225298000Y-114554000D03*
X225298000Y-112014000D03*
X225298000Y-109474000D03*
G36*
G01*
X224448000Y-107534000D02*
X224448000Y-106334000D01*
G75*
G02*
X224698000Y-106084000I250000J0D01*
G01*
X225898000Y-106084000D01*
G75*
G02*
X226148000Y-106334000I0J-250000D01*
G01*
X226148000Y-107534000D01*
G75*
G02*
X225898000Y-107784000I-250000J0D01*
G01*
X224698000Y-107784000D01*
G75*
G02*
X224448000Y-107534000I0J250000D01*
G01*
G37*
%TD*%
%TO.C,J8*%
G36*
G01*
X207938000Y-107534000D02*
X207938000Y-106334000D01*
G75*
G02*
X208188000Y-106084000I250000J0D01*
G01*
X209388000Y-106084000D01*
G75*
G02*
X209638000Y-106334000I0J-250000D01*
G01*
X209638000Y-107534000D01*
G75*
G02*
X209388000Y-107784000I-250000J0D01*
G01*
X208188000Y-107784000D01*
G75*
G02*
X207938000Y-107534000I0J250000D01*
G01*
G37*
X208788000Y-109474000D03*
X208788000Y-112014000D03*
X208788000Y-114554000D03*
X208788000Y-117094000D03*
X208788000Y-119634000D03*
X208788000Y-122174000D03*
X208788000Y-124714000D03*
X208788000Y-127254000D03*
X208788000Y-129794000D03*
X208788000Y-132334000D03*
X208788000Y-134874000D03*
X208788000Y-137414000D03*
X211328000Y-106934000D03*
X211328000Y-109474000D03*
X211328000Y-112014000D03*
X211328000Y-114554000D03*
X211328000Y-117094000D03*
X211328000Y-119634000D03*
X211328000Y-122174000D03*
X211328000Y-124714000D03*
X211328000Y-127254000D03*
X211328000Y-129794000D03*
X211328000Y-132334000D03*
X211328000Y-134874000D03*
X211328000Y-137414000D03*
D33*
X209808000Y-97994000D03*
X209808000Y-146354000D03*
%TD*%
%TO.C,J5*%
X193298000Y-146354000D03*
X193298000Y-97994000D03*
D19*
X194818000Y-137414000D03*
X194818000Y-134874000D03*
X194818000Y-132334000D03*
X194818000Y-129794000D03*
X194818000Y-127254000D03*
X194818000Y-124714000D03*
X194818000Y-122174000D03*
X194818000Y-119634000D03*
X194818000Y-117094000D03*
X194818000Y-114554000D03*
X194818000Y-112014000D03*
X194818000Y-109474000D03*
X194818000Y-106934000D03*
X192278000Y-137414000D03*
X192278000Y-134874000D03*
X192278000Y-132334000D03*
X192278000Y-129794000D03*
X192278000Y-127254000D03*
X192278000Y-124714000D03*
X192278000Y-122174000D03*
X192278000Y-119634000D03*
X192278000Y-117094000D03*
X192278000Y-114554000D03*
X192278000Y-112014000D03*
X192278000Y-109474000D03*
G36*
G01*
X191428000Y-107534000D02*
X191428000Y-106334000D01*
G75*
G02*
X191678000Y-106084000I250000J0D01*
G01*
X192878000Y-106084000D01*
G75*
G02*
X193128000Y-106334000I0J-250000D01*
G01*
X193128000Y-107534000D01*
G75*
G02*
X192878000Y-107784000I-250000J0D01*
G01*
X191678000Y-107784000D01*
G75*
G02*
X191428000Y-107534000I0J250000D01*
G01*
G37*
%TD*%
D33*
%TO.C,J9*%
X176788000Y-146354000D03*
X176788000Y-97994000D03*
D19*
X178308000Y-137414000D03*
X178308000Y-134874000D03*
X178308000Y-132334000D03*
X178308000Y-129794000D03*
X178308000Y-127254000D03*
X178308000Y-124714000D03*
X178308000Y-122174000D03*
X178308000Y-119634000D03*
X178308000Y-117094000D03*
X178308000Y-114554000D03*
X178308000Y-112014000D03*
X178308000Y-109474000D03*
X178308000Y-106934000D03*
X175768000Y-137414000D03*
X175768000Y-134874000D03*
X175768000Y-132334000D03*
X175768000Y-129794000D03*
X175768000Y-127254000D03*
X175768000Y-124714000D03*
X175768000Y-122174000D03*
X175768000Y-119634000D03*
X175768000Y-117094000D03*
X175768000Y-114554000D03*
X175768000Y-112014000D03*
X175768000Y-109474000D03*
G36*
G01*
X174918000Y-107534000D02*
X174918000Y-106334000D01*
G75*
G02*
X175168000Y-106084000I250000J0D01*
G01*
X176368000Y-106084000D01*
G75*
G02*
X176618000Y-106334000I0J-250000D01*
G01*
X176618000Y-107534000D01*
G75*
G02*
X176368000Y-107784000I-250000J0D01*
G01*
X175168000Y-107784000D01*
G75*
G02*
X174918000Y-107534000I0J250000D01*
G01*
G37*
%TD*%
%TO.C,J6*%
G36*
G01*
X158408000Y-107534000D02*
X158408000Y-106334000D01*
G75*
G02*
X158658000Y-106084000I250000J0D01*
G01*
X159858000Y-106084000D01*
G75*
G02*
X160108000Y-106334000I0J-250000D01*
G01*
X160108000Y-107534000D01*
G75*
G02*
X159858000Y-107784000I-250000J0D01*
G01*
X158658000Y-107784000D01*
G75*
G02*
X158408000Y-107534000I0J250000D01*
G01*
G37*
X159258000Y-109474000D03*
X159258000Y-112014000D03*
X159258000Y-114554000D03*
X159258000Y-117094000D03*
X159258000Y-119634000D03*
X159258000Y-122174000D03*
X159258000Y-124714000D03*
X159258000Y-127254000D03*
X159258000Y-129794000D03*
X159258000Y-132334000D03*
X159258000Y-134874000D03*
X159258000Y-137414000D03*
X161798000Y-106934000D03*
X161798000Y-109474000D03*
X161798000Y-112014000D03*
X161798000Y-114554000D03*
X161798000Y-117094000D03*
X161798000Y-119634000D03*
X161798000Y-122174000D03*
X161798000Y-124714000D03*
X161798000Y-127254000D03*
X161798000Y-129794000D03*
X161798000Y-132334000D03*
X161798000Y-134874000D03*
X161798000Y-137414000D03*
D33*
X160278000Y-97994000D03*
X160278000Y-146354000D03*
%TD*%
%TO.C,J10*%
G36*
G01*
X141898000Y-107534000D02*
X141898000Y-106334000D01*
G75*
G02*
X142148000Y-106084000I250000J0D01*
G01*
X143348000Y-106084000D01*
G75*
G02*
X143598000Y-106334000I0J-250000D01*
G01*
X143598000Y-107534000D01*
G75*
G02*
X143348000Y-107784000I-250000J0D01*
G01*
X142148000Y-107784000D01*
G75*
G02*
X141898000Y-107534000I0J250000D01*
G01*
G37*
D19*
X142748000Y-109474000D03*
X142748000Y-112014000D03*
X142748000Y-114554000D03*
X142748000Y-117094000D03*
X142748000Y-119634000D03*
X142748000Y-122174000D03*
X142748000Y-124714000D03*
X142748000Y-127254000D03*
X142748000Y-129794000D03*
X142748000Y-132334000D03*
X142748000Y-134874000D03*
X142748000Y-137414000D03*
X145288000Y-106934000D03*
X145288000Y-109474000D03*
X145288000Y-112014000D03*
X145288000Y-114554000D03*
X145288000Y-117094000D03*
X145288000Y-119634000D03*
X145288000Y-122174000D03*
X145288000Y-124714000D03*
X145288000Y-127254000D03*
X145288000Y-129794000D03*
X145288000Y-132334000D03*
X145288000Y-134874000D03*
X145288000Y-137414000D03*
D33*
X143768000Y-97994000D03*
X143768000Y-146354000D03*
%TD*%
%TO.C,R4*%
G36*
G01*
X225355998Y-72385500D02*
X226256002Y-72385500D01*
G75*
G02*
X226506000Y-72635498I0J-249998D01*
G01*
X226506000Y-73160502D01*
G75*
G02*
X226256002Y-73410500I-249998J0D01*
G01*
X225355998Y-73410500D01*
G75*
G02*
X225106000Y-73160502I0J249998D01*
G01*
X225106000Y-72635498D01*
G75*
G02*
X225355998Y-72385500I249998J0D01*
G01*
G37*
G36*
G01*
X225355998Y-70560500D02*
X226256002Y-70560500D01*
G75*
G02*
X226506000Y-70810498I0J-249998D01*
G01*
X226506000Y-71335502D01*
G75*
G02*
X226256002Y-71585500I-249998J0D01*
G01*
X225355998Y-71585500D01*
G75*
G02*
X225106000Y-71335502I0J249998D01*
G01*
X225106000Y-70810498D01*
G75*
G02*
X225355998Y-70560500I249998J0D01*
G01*
G37*
%TD*%
%TO.C,R3*%
G36*
G01*
X133608500Y-59493998D02*
X133608500Y-60394002D01*
G75*
G02*
X133358502Y-60644000I-249998J0D01*
G01*
X132833498Y-60644000D01*
G75*
G02*
X132583500Y-60394002I0J249998D01*
G01*
X132583500Y-59493998D01*
G75*
G02*
X132833498Y-59244000I249998J0D01*
G01*
X133358502Y-59244000D01*
G75*
G02*
X133608500Y-59493998I0J-249998D01*
G01*
G37*
G36*
G01*
X135433500Y-59493998D02*
X135433500Y-60394002D01*
G75*
G02*
X135183502Y-60644000I-249998J0D01*
G01*
X134658498Y-60644000D01*
G75*
G02*
X134408500Y-60394002I0J249998D01*
G01*
X134408500Y-59493998D01*
G75*
G02*
X134658498Y-59244000I249998J0D01*
G01*
X135183502Y-59244000D01*
G75*
G02*
X135433500Y-59493998I0J-249998D01*
G01*
G37*
%TD*%
%TO.C,\u002AR1*%
G36*
G01*
X238049500Y-90989998D02*
X238049500Y-91890002D01*
G75*
G02*
X237799502Y-92140000I-249998J0D01*
G01*
X237274498Y-92140000D01*
G75*
G02*
X237024500Y-91890002I0J249998D01*
G01*
X237024500Y-90989998D01*
G75*
G02*
X237274498Y-90740000I249998J0D01*
G01*
X237799502Y-90740000D01*
G75*
G02*
X238049500Y-90989998I0J-249998D01*
G01*
G37*
G36*
G01*
X236224500Y-90989998D02*
X236224500Y-91890002D01*
G75*
G02*
X235974502Y-92140000I-249998J0D01*
G01*
X235449498Y-92140000D01*
G75*
G02*
X235199500Y-91890002I0J249998D01*
G01*
X235199500Y-90989998D01*
G75*
G02*
X235449498Y-90740000I249998J0D01*
G01*
X235974502Y-90740000D01*
G75*
G02*
X236224500Y-90989998I0J-249998D01*
G01*
G37*
%TD*%
%TO.C,R1*%
G36*
G01*
X77719500Y-90874002D02*
X77719500Y-89973998D01*
G75*
G02*
X77969498Y-89724000I249998J0D01*
G01*
X78494502Y-89724000D01*
G75*
G02*
X78744500Y-89973998I0J-249998D01*
G01*
X78744500Y-90874002D01*
G75*
G02*
X78494502Y-91124000I-249998J0D01*
G01*
X77969498Y-91124000D01*
G75*
G02*
X77719500Y-90874002I0J249998D01*
G01*
G37*
G36*
G01*
X79544500Y-90874002D02*
X79544500Y-89973998D01*
G75*
G02*
X79794498Y-89724000I249998J0D01*
G01*
X80319502Y-89724000D01*
G75*
G02*
X80569500Y-89973998I0J-249998D01*
G01*
X80569500Y-90874002D01*
G75*
G02*
X80319502Y-91124000I-249998J0D01*
G01*
X79794498Y-91124000D01*
G75*
G02*
X79544500Y-90874002I0J249998D01*
G01*
G37*
%TD*%
%TO.C,\u002AR3*%
G36*
G01*
X135386500Y-67875998D02*
X135386500Y-68776002D01*
G75*
G02*
X135136502Y-69026000I-249998J0D01*
G01*
X134611498Y-69026000D01*
G75*
G02*
X134361500Y-68776002I0J249998D01*
G01*
X134361500Y-67875998D01*
G75*
G02*
X134611498Y-67626000I249998J0D01*
G01*
X135136502Y-67626000D01*
G75*
G02*
X135386500Y-67875998I0J-249998D01*
G01*
G37*
G36*
G01*
X133561500Y-67875998D02*
X133561500Y-68776002D01*
G75*
G02*
X133311502Y-69026000I-249998J0D01*
G01*
X132786498Y-69026000D01*
G75*
G02*
X132536500Y-68776002I0J249998D01*
G01*
X132536500Y-67875998D01*
G75*
G02*
X132786498Y-67626000I249998J0D01*
G01*
X133311502Y-67626000D01*
G75*
G02*
X133561500Y-67875998I0J-249998D01*
G01*
G37*
%TD*%
%TO.C,R2*%
G36*
G01*
X92959500Y-148786002D02*
X92959500Y-147885998D01*
G75*
G02*
X93209498Y-147636000I249998J0D01*
G01*
X93734502Y-147636000D01*
G75*
G02*
X93984500Y-147885998I0J-249998D01*
G01*
X93984500Y-148786002D01*
G75*
G02*
X93734502Y-149036000I-249998J0D01*
G01*
X93209498Y-149036000D01*
G75*
G02*
X92959500Y-148786002I0J249998D01*
G01*
G37*
G36*
G01*
X91134500Y-148786002D02*
X91134500Y-147885998D01*
G75*
G02*
X91384498Y-147636000I249998J0D01*
G01*
X91909502Y-147636000D01*
G75*
G02*
X92159500Y-147885998I0J-249998D01*
G01*
X92159500Y-148786002D01*
G75*
G02*
X91909502Y-149036000I-249998J0D01*
G01*
X91384498Y-149036000D01*
G75*
G02*
X91134500Y-148786002I0J249998D01*
G01*
G37*
%TD*%
%TO.C,\u002AR2*%
G36*
G01*
X75380002Y-73457500D02*
X74479998Y-73457500D01*
G75*
G02*
X74230000Y-73207502I0J249998D01*
G01*
X74230000Y-72682498D01*
G75*
G02*
X74479998Y-72432500I249998J0D01*
G01*
X75380002Y-72432500D01*
G75*
G02*
X75630000Y-72682498I0J-249998D01*
G01*
X75630000Y-73207502D01*
G75*
G02*
X75380002Y-73457500I-249998J0D01*
G01*
G37*
G36*
G01*
X75380002Y-71632500D02*
X74479998Y-71632500D01*
G75*
G02*
X74230000Y-71382502I0J249998D01*
G01*
X74230000Y-70857498D01*
G75*
G02*
X74479998Y-70607500I249998J0D01*
G01*
X75380002Y-70607500D01*
G75*
G02*
X75630000Y-70857498I0J-249998D01*
G01*
X75630000Y-71382502D01*
G75*
G02*
X75380002Y-71632500I-249998J0D01*
G01*
G37*
%TD*%
%TO.C,\u002AR4*%
G36*
G01*
X111309998Y-89450500D02*
X112210002Y-89450500D01*
G75*
G02*
X112460000Y-89700498I0J-249998D01*
G01*
X112460000Y-90225502D01*
G75*
G02*
X112210002Y-90475500I-249998J0D01*
G01*
X111309998Y-90475500D01*
G75*
G02*
X111060000Y-90225502I0J249998D01*
G01*
X111060000Y-89700498D01*
G75*
G02*
X111309998Y-89450500I249998J0D01*
G01*
G37*
G36*
G01*
X111309998Y-87625500D02*
X112210002Y-87625500D01*
G75*
G02*
X112460000Y-87875498I0J-249998D01*
G01*
X112460000Y-88400502D01*
G75*
G02*
X112210002Y-88650500I-249998J0D01*
G01*
X111309998Y-88650500D01*
G75*
G02*
X111060000Y-88400502I0J249998D01*
G01*
X111060000Y-87875498D01*
G75*
G02*
X111309998Y-87625500I249998J0D01*
G01*
G37*
%TD*%
%TO.C,R5*%
G36*
G01*
X208591998Y-70560500D02*
X209492002Y-70560500D01*
G75*
G02*
X209742000Y-70810498I0J-249998D01*
G01*
X209742000Y-71335502D01*
G75*
G02*
X209492002Y-71585500I-249998J0D01*
G01*
X208591998Y-71585500D01*
G75*
G02*
X208342000Y-71335502I0J249998D01*
G01*
X208342000Y-70810498D01*
G75*
G02*
X208591998Y-70560500I249998J0D01*
G01*
G37*
G36*
G01*
X208591998Y-72385500D02*
X209492002Y-72385500D01*
G75*
G02*
X209742000Y-72635498I0J-249998D01*
G01*
X209742000Y-73160502D01*
G75*
G02*
X209492002Y-73410500I-249998J0D01*
G01*
X208591998Y-73410500D01*
G75*
G02*
X208342000Y-73160502I0J249998D01*
G01*
X208342000Y-72635498D01*
G75*
G02*
X208591998Y-72385500I249998J0D01*
G01*
G37*
%TD*%
%TO.C,R6*%
G36*
G01*
X191827998Y-70560500D02*
X192728002Y-70560500D01*
G75*
G02*
X192978000Y-70810498I0J-249998D01*
G01*
X192978000Y-71335502D01*
G75*
G02*
X192728002Y-71585500I-249998J0D01*
G01*
X191827998Y-71585500D01*
G75*
G02*
X191578000Y-71335502I0J249998D01*
G01*
X191578000Y-70810498D01*
G75*
G02*
X191827998Y-70560500I249998J0D01*
G01*
G37*
G36*
G01*
X191827998Y-72385500D02*
X192728002Y-72385500D01*
G75*
G02*
X192978000Y-72635498I0J-249998D01*
G01*
X192978000Y-73160502D01*
G75*
G02*
X192728002Y-73410500I-249998J0D01*
G01*
X191827998Y-73410500D01*
G75*
G02*
X191578000Y-73160502I0J249998D01*
G01*
X191578000Y-72635498D01*
G75*
G02*
X191827998Y-72385500I249998J0D01*
G01*
G37*
%TD*%
%TO.C,R7*%
G36*
G01*
X175063998Y-70560500D02*
X175964002Y-70560500D01*
G75*
G02*
X176214000Y-70810498I0J-249998D01*
G01*
X176214000Y-71335502D01*
G75*
G02*
X175964002Y-71585500I-249998J0D01*
G01*
X175063998Y-71585500D01*
G75*
G02*
X174814000Y-71335502I0J249998D01*
G01*
X174814000Y-70810498D01*
G75*
G02*
X175063998Y-70560500I249998J0D01*
G01*
G37*
G36*
G01*
X175063998Y-72385500D02*
X175964002Y-72385500D01*
G75*
G02*
X176214000Y-72635498I0J-249998D01*
G01*
X176214000Y-73160502D01*
G75*
G02*
X175964002Y-73410500I-249998J0D01*
G01*
X175063998Y-73410500D01*
G75*
G02*
X174814000Y-73160502I0J249998D01*
G01*
X174814000Y-72635498D01*
G75*
G02*
X175063998Y-72385500I249998J0D01*
G01*
G37*
%TD*%
%TO.C,R8*%
G36*
G01*
X158299998Y-70560500D02*
X159200002Y-70560500D01*
G75*
G02*
X159450000Y-70810498I0J-249998D01*
G01*
X159450000Y-71335502D01*
G75*
G02*
X159200002Y-71585500I-249998J0D01*
G01*
X158299998Y-71585500D01*
G75*
G02*
X158050000Y-71335502I0J249998D01*
G01*
X158050000Y-70810498D01*
G75*
G02*
X158299998Y-70560500I249998J0D01*
G01*
G37*
G36*
G01*
X158299998Y-72385500D02*
X159200002Y-72385500D01*
G75*
G02*
X159450000Y-72635498I0J-249998D01*
G01*
X159450000Y-73160502D01*
G75*
G02*
X159200002Y-73410500I-249998J0D01*
G01*
X158299998Y-73410500D01*
G75*
G02*
X158050000Y-73160502I0J249998D01*
G01*
X158050000Y-72635498D01*
G75*
G02*
X158299998Y-72385500I249998J0D01*
G01*
G37*
%TD*%
%TO.C,R9*%
G36*
G01*
X141535998Y-70560500D02*
X142436002Y-70560500D01*
G75*
G02*
X142686000Y-70810498I0J-249998D01*
G01*
X142686000Y-71335502D01*
G75*
G02*
X142436002Y-71585500I-249998J0D01*
G01*
X141535998Y-71585500D01*
G75*
G02*
X141286000Y-71335502I0J249998D01*
G01*
X141286000Y-70810498D01*
G75*
G02*
X141535998Y-70560500I249998J0D01*
G01*
G37*
G36*
G01*
X141535998Y-72385500D02*
X142436002Y-72385500D01*
G75*
G02*
X142686000Y-72635498I0J-249998D01*
G01*
X142686000Y-73160502D01*
G75*
G02*
X142436002Y-73410500I-249998J0D01*
G01*
X141535998Y-73410500D01*
G75*
G02*
X141286000Y-73160502I0J249998D01*
G01*
X141286000Y-72635498D01*
G75*
G02*
X141535998Y-72385500I249998J0D01*
G01*
G37*
%TD*%
%TO.C,\u002AR11*%
G36*
G01*
X108007998Y-72385500D02*
X108908002Y-72385500D01*
G75*
G02*
X109158000Y-72635498I0J-249998D01*
G01*
X109158000Y-73160502D01*
G75*
G02*
X108908002Y-73410500I-249998J0D01*
G01*
X108007998Y-73410500D01*
G75*
G02*
X107758000Y-73160502I0J249998D01*
G01*
X107758000Y-72635498D01*
G75*
G02*
X108007998Y-72385500I249998J0D01*
G01*
G37*
G36*
G01*
X108007998Y-70560500D02*
X108908002Y-70560500D01*
G75*
G02*
X109158000Y-70810498I0J-249998D01*
G01*
X109158000Y-71335502D01*
G75*
G02*
X108908002Y-71585500I-249998J0D01*
G01*
X108007998Y-71585500D01*
G75*
G02*
X107758000Y-71335502I0J249998D01*
G01*
X107758000Y-70810498D01*
G75*
G02*
X108007998Y-70560500I249998J0D01*
G01*
G37*
%TD*%
%TO.C,\u002AR12*%
G36*
G01*
X99625998Y-72385500D02*
X100526002Y-72385500D01*
G75*
G02*
X100776000Y-72635498I0J-249998D01*
G01*
X100776000Y-73160502D01*
G75*
G02*
X100526002Y-73410500I-249998J0D01*
G01*
X99625998Y-73410500D01*
G75*
G02*
X99376000Y-73160502I0J249998D01*
G01*
X99376000Y-72635498D01*
G75*
G02*
X99625998Y-72385500I249998J0D01*
G01*
G37*
G36*
G01*
X99625998Y-70560500D02*
X100526002Y-70560500D01*
G75*
G02*
X100776000Y-70810498I0J-249998D01*
G01*
X100776000Y-71335502D01*
G75*
G02*
X100526002Y-71585500I-249998J0D01*
G01*
X99625998Y-71585500D01*
G75*
G02*
X99376000Y-71335502I0J249998D01*
G01*
X99376000Y-70810498D01*
G75*
G02*
X99625998Y-70560500I249998J0D01*
G01*
G37*
%TD*%
%TO.C,\u002AR13*%
G36*
G01*
X91243998Y-72385500D02*
X92144002Y-72385500D01*
G75*
G02*
X92394000Y-72635498I0J-249998D01*
G01*
X92394000Y-73160502D01*
G75*
G02*
X92144002Y-73410500I-249998J0D01*
G01*
X91243998Y-73410500D01*
G75*
G02*
X90994000Y-73160502I0J249998D01*
G01*
X90994000Y-72635498D01*
G75*
G02*
X91243998Y-72385500I249998J0D01*
G01*
G37*
G36*
G01*
X91243998Y-70560500D02*
X92144002Y-70560500D01*
G75*
G02*
X92394000Y-70810498I0J-249998D01*
G01*
X92394000Y-71335502D01*
G75*
G02*
X92144002Y-71585500I-249998J0D01*
G01*
X91243998Y-71585500D01*
G75*
G02*
X90994000Y-71335502I0J249998D01*
G01*
X90994000Y-70810498D01*
G75*
G02*
X91243998Y-70560500I249998J0D01*
G01*
G37*
%TD*%
%TO.C,\u002AR14*%
G36*
G01*
X135386500Y-63303998D02*
X135386500Y-64204002D01*
G75*
G02*
X135136502Y-64454000I-249998J0D01*
G01*
X134611498Y-64454000D01*
G75*
G02*
X134361500Y-64204002I0J249998D01*
G01*
X134361500Y-63303998D01*
G75*
G02*
X134611498Y-63054000I249998J0D01*
G01*
X135136502Y-63054000D01*
G75*
G02*
X135386500Y-63303998I0J-249998D01*
G01*
G37*
G36*
G01*
X133561500Y-63303998D02*
X133561500Y-64204002D01*
G75*
G02*
X133311502Y-64454000I-249998J0D01*
G01*
X132786498Y-64454000D01*
G75*
G02*
X132536500Y-64204002I0J249998D01*
G01*
X132536500Y-63303998D01*
G75*
G02*
X132786498Y-63054000I249998J0D01*
G01*
X133311502Y-63054000D01*
G75*
G02*
X133561500Y-63303998I0J-249998D01*
G01*
G37*
%TD*%
%TO.C,\u002AR15*%
G36*
G01*
X120592002Y-88650500D02*
X119691998Y-88650500D01*
G75*
G02*
X119442000Y-88400502I0J249998D01*
G01*
X119442000Y-87875498D01*
G75*
G02*
X119691998Y-87625500I249998J0D01*
G01*
X120592002Y-87625500D01*
G75*
G02*
X120842000Y-87875498I0J-249998D01*
G01*
X120842000Y-88400502D01*
G75*
G02*
X120592002Y-88650500I-249998J0D01*
G01*
G37*
G36*
G01*
X120592002Y-90475500D02*
X119691998Y-90475500D01*
G75*
G02*
X119442000Y-90225502I0J249998D01*
G01*
X119442000Y-89700498D01*
G75*
G02*
X119691998Y-89450500I249998J0D01*
G01*
X120592002Y-89450500D01*
G75*
G02*
X120842000Y-89700498I0J-249998D01*
G01*
X120842000Y-90225502D01*
G75*
G02*
X120592002Y-90475500I-249998J0D01*
G01*
G37*
%TD*%
%TO.C,R10*%
G36*
G01*
X233737998Y-70560500D02*
X234638002Y-70560500D01*
G75*
G02*
X234888000Y-70810498I0J-249998D01*
G01*
X234888000Y-71335502D01*
G75*
G02*
X234638002Y-71585500I-249998J0D01*
G01*
X233737998Y-71585500D01*
G75*
G02*
X233488000Y-71335502I0J249998D01*
G01*
X233488000Y-70810498D01*
G75*
G02*
X233737998Y-70560500I249998J0D01*
G01*
G37*
G36*
G01*
X233737998Y-72385500D02*
X234638002Y-72385500D01*
G75*
G02*
X234888000Y-72635498I0J-249998D01*
G01*
X234888000Y-73160502D01*
G75*
G02*
X234638002Y-73410500I-249998J0D01*
G01*
X233737998Y-73410500D01*
G75*
G02*
X233488000Y-73160502I0J249998D01*
G01*
X233488000Y-72635498D01*
G75*
G02*
X233737998Y-72385500I249998J0D01*
G01*
G37*
%TD*%
%TO.C,R11*%
G36*
G01*
X216973998Y-72385500D02*
X217874002Y-72385500D01*
G75*
G02*
X218124000Y-72635498I0J-249998D01*
G01*
X218124000Y-73160502D01*
G75*
G02*
X217874002Y-73410500I-249998J0D01*
G01*
X216973998Y-73410500D01*
G75*
G02*
X216724000Y-73160502I0J249998D01*
G01*
X216724000Y-72635498D01*
G75*
G02*
X216973998Y-72385500I249998J0D01*
G01*
G37*
G36*
G01*
X216973998Y-70560500D02*
X217874002Y-70560500D01*
G75*
G02*
X218124000Y-70810498I0J-249998D01*
G01*
X218124000Y-71335502D01*
G75*
G02*
X217874002Y-71585500I-249998J0D01*
G01*
X216973998Y-71585500D01*
G75*
G02*
X216724000Y-71335502I0J249998D01*
G01*
X216724000Y-70810498D01*
G75*
G02*
X216973998Y-70560500I249998J0D01*
G01*
G37*
%TD*%
%TO.C,R12*%
G36*
G01*
X200209998Y-70560500D02*
X201110002Y-70560500D01*
G75*
G02*
X201360000Y-70810498I0J-249998D01*
G01*
X201360000Y-71335502D01*
G75*
G02*
X201110002Y-71585500I-249998J0D01*
G01*
X200209998Y-71585500D01*
G75*
G02*
X199960000Y-71335502I0J249998D01*
G01*
X199960000Y-70810498D01*
G75*
G02*
X200209998Y-70560500I249998J0D01*
G01*
G37*
G36*
G01*
X200209998Y-72385500D02*
X201110002Y-72385500D01*
G75*
G02*
X201360000Y-72635498I0J-249998D01*
G01*
X201360000Y-73160502D01*
G75*
G02*
X201110002Y-73410500I-249998J0D01*
G01*
X200209998Y-73410500D01*
G75*
G02*
X199960000Y-73160502I0J249998D01*
G01*
X199960000Y-72635498D01*
G75*
G02*
X200209998Y-72385500I249998J0D01*
G01*
G37*
%TD*%
%TO.C,R13*%
G36*
G01*
X183445998Y-72385500D02*
X184346002Y-72385500D01*
G75*
G02*
X184596000Y-72635498I0J-249998D01*
G01*
X184596000Y-73160502D01*
G75*
G02*
X184346002Y-73410500I-249998J0D01*
G01*
X183445998Y-73410500D01*
G75*
G02*
X183196000Y-73160502I0J249998D01*
G01*
X183196000Y-72635498D01*
G75*
G02*
X183445998Y-72385500I249998J0D01*
G01*
G37*
G36*
G01*
X183445998Y-70560500D02*
X184346002Y-70560500D01*
G75*
G02*
X184596000Y-70810498I0J-249998D01*
G01*
X184596000Y-71335502D01*
G75*
G02*
X184346002Y-71585500I-249998J0D01*
G01*
X183445998Y-71585500D01*
G75*
G02*
X183196000Y-71335502I0J249998D01*
G01*
X183196000Y-70810498D01*
G75*
G02*
X183445998Y-70560500I249998J0D01*
G01*
G37*
%TD*%
%TO.C,R14*%
G36*
G01*
X166681998Y-70560500D02*
X167582002Y-70560500D01*
G75*
G02*
X167832000Y-70810498I0J-249998D01*
G01*
X167832000Y-71335502D01*
G75*
G02*
X167582002Y-71585500I-249998J0D01*
G01*
X166681998Y-71585500D01*
G75*
G02*
X166432000Y-71335502I0J249998D01*
G01*
X166432000Y-70810498D01*
G75*
G02*
X166681998Y-70560500I249998J0D01*
G01*
G37*
G36*
G01*
X166681998Y-72385500D02*
X167582002Y-72385500D01*
G75*
G02*
X167832000Y-72635498I0J-249998D01*
G01*
X167832000Y-73160502D01*
G75*
G02*
X167582002Y-73410500I-249998J0D01*
G01*
X166681998Y-73410500D01*
G75*
G02*
X166432000Y-73160502I0J249998D01*
G01*
X166432000Y-72635498D01*
G75*
G02*
X166681998Y-72385500I249998J0D01*
G01*
G37*
%TD*%
%TO.C,R15*%
G36*
G01*
X149917998Y-72385500D02*
X150818002Y-72385500D01*
G75*
G02*
X151068000Y-72635498I0J-249998D01*
G01*
X151068000Y-73160502D01*
G75*
G02*
X150818002Y-73410500I-249998J0D01*
G01*
X149917998Y-73410500D01*
G75*
G02*
X149668000Y-73160502I0J249998D01*
G01*
X149668000Y-72635498D01*
G75*
G02*
X149917998Y-72385500I249998J0D01*
G01*
G37*
G36*
G01*
X149917998Y-70560500D02*
X150818002Y-70560500D01*
G75*
G02*
X151068000Y-70810498I0J-249998D01*
G01*
X151068000Y-71335502D01*
G75*
G02*
X150818002Y-71585500I-249998J0D01*
G01*
X149917998Y-71585500D01*
G75*
G02*
X149668000Y-71335502I0J249998D01*
G01*
X149668000Y-70810498D01*
G75*
G02*
X149917998Y-70560500I249998J0D01*
G01*
G37*
%TD*%
D34*
%TO.C,U4*%
X225806000Y-75753000D03*
X220726000Y-85283000D03*
X223266000Y-75753000D03*
X223266000Y-85283000D03*
X220726000Y-75753000D03*
X225806000Y-85283000D03*
%TD*%
%TO.C,\u002AU1*%
X74930000Y-75692000D03*
X69850000Y-85222000D03*
X72390000Y-75692000D03*
X72390000Y-85222000D03*
X69850000Y-75692000D03*
X74930000Y-85222000D03*
%TD*%
%TO.C,\u002AU2*%
X237490000Y-75692000D03*
X242570000Y-85222000D03*
X240030000Y-75692000D03*
X240030000Y-85222000D03*
X242570000Y-75692000D03*
X237490000Y-85222000D03*
%TD*%
%TO.C,U2*%
X78232000Y-75560000D03*
X83312000Y-85090000D03*
X80772000Y-75560000D03*
X80772000Y-85090000D03*
X83312000Y-75560000D03*
X78232000Y-85090000D03*
%TD*%
%TO.C,\u002AU4*%
X111760000Y-75692000D03*
X116840000Y-85222000D03*
X114300000Y-75692000D03*
X114300000Y-85222000D03*
X116840000Y-75692000D03*
X111760000Y-85222000D03*
%TD*%
%TO.C,U5*%
X209042000Y-85283000D03*
X203962000Y-75753000D03*
X206502000Y-85283000D03*
X206502000Y-75753000D03*
X203962000Y-85283000D03*
X209042000Y-75753000D03*
%TD*%
%TO.C,U6*%
X192278000Y-75753000D03*
X187198000Y-85283000D03*
X189738000Y-75753000D03*
X189738000Y-85283000D03*
X187198000Y-75753000D03*
X192278000Y-85283000D03*
%TD*%
%TO.C,U7*%
X175514000Y-85283000D03*
X170434000Y-75753000D03*
X172974000Y-85283000D03*
X172974000Y-75753000D03*
X170434000Y-85283000D03*
X175514000Y-75753000D03*
%TD*%
%TO.C,U8*%
X158750000Y-75753000D03*
X153670000Y-85283000D03*
X156210000Y-75753000D03*
X156210000Y-85283000D03*
X153670000Y-75753000D03*
X158750000Y-85283000D03*
%TD*%
%TO.C,U9*%
X141986000Y-85283000D03*
X136906000Y-75753000D03*
X139446000Y-85283000D03*
X139446000Y-75753000D03*
X136906000Y-85283000D03*
X141986000Y-75753000D03*
%TD*%
%TO.C,\u002AU8*%
X120142000Y-85283000D03*
X125222000Y-75753000D03*
X122682000Y-85283000D03*
X122682000Y-75753000D03*
X125222000Y-85283000D03*
X120142000Y-75753000D03*
%TD*%
%TO.C,\u002AU5*%
X108458000Y-75692000D03*
X103378000Y-85222000D03*
X105918000Y-75692000D03*
X105918000Y-85222000D03*
X103378000Y-75692000D03*
X108458000Y-85222000D03*
%TD*%
%TO.C,\u002AU6*%
X100076000Y-75692000D03*
X94996000Y-85222000D03*
X97536000Y-75692000D03*
X97536000Y-85222000D03*
X94996000Y-75692000D03*
X100076000Y-85222000D03*
%TD*%
%TO.C,\u002AU7*%
X91694000Y-85222000D03*
X86614000Y-75692000D03*
X89154000Y-85222000D03*
X89154000Y-75692000D03*
X86614000Y-85222000D03*
X91694000Y-75692000D03*
%TD*%
%TO.C,U10*%
X234188000Y-75753000D03*
X229108000Y-85283000D03*
X231648000Y-75753000D03*
X231648000Y-85283000D03*
X229108000Y-75753000D03*
X234188000Y-85283000D03*
%TD*%
%TO.C,U11*%
X217424000Y-85283000D03*
X212344000Y-75753000D03*
X214884000Y-85283000D03*
X214884000Y-75753000D03*
X212344000Y-85283000D03*
X217424000Y-75753000D03*
%TD*%
%TO.C,U12*%
X200660000Y-75753000D03*
X195580000Y-85283000D03*
X198120000Y-75753000D03*
X198120000Y-85283000D03*
X195580000Y-75753000D03*
X200660000Y-85283000D03*
%TD*%
%TO.C,U13*%
X183896000Y-75753000D03*
X178816000Y-85283000D03*
X181356000Y-75753000D03*
X181356000Y-85283000D03*
X178816000Y-75753000D03*
X183896000Y-85283000D03*
%TD*%
%TO.C,U14*%
X167132000Y-85283000D03*
X162052000Y-75753000D03*
X164592000Y-85283000D03*
X164592000Y-75753000D03*
X162052000Y-85283000D03*
X167132000Y-75753000D03*
%TD*%
%TO.C,U15*%
X150368000Y-75753000D03*
X145288000Y-85283000D03*
X147828000Y-75753000D03*
X147828000Y-85283000D03*
X145288000Y-75753000D03*
X150368000Y-85283000D03*
%TD*%
M02*
