M48
; DRILL file {KiCad (5.1.7)-1} date 01/16/21 21:20:18
; FORMAT={-:-/ absolute / inch / decimal}
; #@! TF.CreationDate,2021-01-16T21:20:18+04:00
; #@! TF.GenerationSoftware,Kicad,Pcbnew,(5.1.7)-1
; #@! TF.FileFunction,Plated,1,2,PTH
FMAT,2
INCH
T1C0.0236
T2C0.0300
T3C0.0315
T4C0.0354
T5C0.0394
T6C0.0433
T7C0.0512
T8C0.0630
T9C0.1059
T10C0.1260
%
G90
G05
T1
X4.36Y-3.34
X4.37Y-0.67
X4.37Y-2.97
X4.38Y-6.0
X4.91Y-3.71
X4.98Y-3.46
X5.03Y-2.83
X5.05Y-3.54
X5.11Y-3.49
X5.11Y-4.07
X5.17Y-3.49
X5.17Y-4.39
X5.19Y-5.97
X5.23Y-3.5413
X5.23Y-4.17
X5.29Y-4.27
X5.29Y-4.71
X5.29Y-4.81
X5.29Y-5.58
X5.35Y-4.61
X5.35Y-4.91
X5.35Y-5.48
X5.4Y-3.49
X5.41Y-1.05
X5.41Y-2.83
X5.47Y-1.0
X5.51Y-5.31
X5.52Y-0.75
X5.52Y-3.71
X5.52Y-4.41
X5.57Y-0.95
X5.59Y-2.04
X5.59Y-2.72
X5.72Y-3.49
X5.76Y-2.83
X5.8Y-3.7
X5.81Y-4.91
X5.8108Y-5.53
X5.85Y-1.78
X5.85Y-4.21
X5.85Y-4.31
X5.8508Y-2.56
X5.86Y-5.11
X5.86Y-5.97
X5.9Y-1.84
X5.9Y-2.61
X5.94Y-4.05
X5.94Y-4.71
X5.94Y-4.81
X5.94Y-5.58
X5.95Y-1.94
X5.98Y-5.88
X5.99Y-4.61
X5.99Y-4.91
X5.99Y-5.48
X6.05Y-3.49
X6.14Y-2.83
X6.16Y-0.85
X6.16Y-2.72
X6.1609Y-1.94
X6.17Y-4.41
X6.17Y-5.31
X6.21Y-1.83
X6.22Y-2.24
X6.28Y-2.04
X6.38Y-3.49
X6.44Y-3.7
X6.46Y-4.91
X6.4608Y-5.53
X6.49Y-2.83
X6.5Y-1.34
X6.5Y-4.21
X6.5Y-4.31
X6.5008Y-1.54
X6.51Y-5.11
X6.51Y-5.97
X6.55Y-1.24
X6.55Y-1.64
X6.59Y-3.5413
X6.59Y-4.71
X6.59Y-4.81
X6.59Y-5.58
X6.5992Y-1.59
X6.6Y-1.14
X6.62Y-5.88
X6.65Y-3.5
X6.65Y-4.61
X6.65Y-4.91
X6.65Y-5.48
X6.66Y-1.44
X6.6671Y-1.5036
X6.67Y-2.61
X6.72Y-1.0292
X6.72Y-2.14
X6.72Y-2.5608
X6.77Y-0.93
X6.79Y-1.95
X6.79Y-2.51
X6.8Y-5.31
X6.82Y-4.41
X6.85Y-2.83
X6.87Y-1.85
X6.87Y-2.44
X7.03Y-2.74
X7.04Y-3.52
X7.09Y-3.7
X7.11Y-4.91
X7.1108Y-5.5292
X7.15Y-4.21
X7.15Y-4.31
X7.16Y-5.11
X7.16Y-5.97
X7.2Y-1.33
X7.21Y-2.83
X7.25Y-2.24
X7.25Y-2.34
X7.25Y-3.45
X7.25Y-4.71
X7.25Y-4.81
X7.25Y-5.58
X7.28Y-5.87
X7.3Y-1.95
X7.3Y-4.61
X7.3Y-4.91
X7.3Y-5.48
X7.35Y-1.74
X7.35Y-2.34
X7.38Y-3.46
X7.39Y-2.74
X7.41Y-0.88
X7.43Y-1.08
X7.43Y-1.15
X7.45Y-2.29
X7.46Y-5.31
X7.47Y-4.41
X7.51Y-0.8793
X7.51Y-1.9
X7.57Y-1.85
X7.59Y-2.83
X7.61Y-0.8793
X7.67Y-1.25
X7.7Y-3.53
X7.71Y-0.88
X7.75Y-2.39
X7.76Y-4.92
X7.7608Y-5.53
X7.8Y-4.21
X7.8Y-4.31
X7.81Y-5.11
X7.81Y-5.97
X7.88Y-3.45
X7.88Y-4.71
X7.88Y-4.81
X7.88Y-5.58
X7.91Y-5.88
X7.92Y-1.8
X7.94Y-2.83
X7.94Y-4.61
X7.94Y-4.91
X7.94Y-5.48
X7.95Y-3.48
X8.08Y-0.92
X8.11Y-5.32
X8.12Y-4.41
X8.17Y-1.0022
X8.27Y-1.14
X8.32Y-2.83
X8.37Y-1.0908
X8.39Y-1.56
X8.4Y-2.02
X8.4Y-3.54
X8.41Y-4.91
X8.41Y-5.53
X8.46Y-4.21
X8.46Y-4.31
X8.46Y-5.11
X8.46Y-5.97
X8.47Y-1.0514
X8.52Y-2.3
X8.52Y-2.37
X8.54Y-3.45
X8.54Y-4.71
X8.54Y-4.81
X8.54Y-5.58
X8.56Y-5.88
X8.59Y-4.61
X8.59Y-4.91
X8.59Y-5.4808
X8.68Y-2.83
X8.71Y-3.47
X8.76Y-5.32
X8.77Y-4.41
X8.82Y-1.42
X8.92Y-1.36
X9.02Y-1.012
X9.02Y-1.3
X9.02Y-3.47
X9.05Y-2.83
X9.12Y-4.21
X9.12Y-4.91
X9.12Y-5.53
X9.1692Y-5.11
X9.17Y-5.84
X9.26Y-3.94
X9.32Y-2.6
X9.39Y-2.6
X9.45Y-2.6
X9.52Y-2.83
X9.53Y-3.47
X9.56Y-0.68
X9.56Y-6.01
T2
X7.82Y-1.2
X7.82Y-2.2
X7.92Y-1.2
X7.92Y-2.2
X8.02Y-1.2
X8.02Y-2.2
X8.12Y-1.2
X8.12Y-2.2
X8.22Y-1.2
X8.22Y-2.2
X8.32Y-1.2
X8.32Y-2.2
X8.42Y-1.2
X8.42Y-2.2
X8.52Y-1.2
X8.52Y-2.2
X8.62Y-1.2
X8.62Y-2.2
X8.72Y-1.2
X8.72Y-2.2
X8.82Y-1.2
X8.82Y-2.2
X8.92Y-1.2
X8.92Y-2.2
X9.02Y-1.2
X9.02Y-2.2
X9.12Y-1.2
X9.12Y-2.2
X9.22Y-1.2
X9.22Y-2.2
T3
X4.67Y-3.62
X5.05Y-5.36
X5.43Y-3.62
X5.43Y-4.31
X5.43Y-5.01
X5.96Y-1.44
X5.97Y-0.6699
X6.08Y-3.62
X6.08Y-4.31
X6.08Y-5.01
X6.73Y-3.62
X6.73Y-4.31
X6.73Y-5.01
X7.38Y-3.62
X7.38Y-4.31
X7.38Y-5.01
X8.03Y-3.62
X8.03Y-4.31
X8.03Y-5.01
X8.68Y-3.62
X8.68Y-4.31
X8.68Y-5.01
X9.13Y-0.86
X9.1987Y-3.6
X9.21Y-2.49
X9.32Y-1.53
X6.09Y-1.14
X6.09Y-1.24
X6.09Y-1.34
X6.09Y-1.44
X6.09Y-1.54
X6.09Y-1.64
X6.09Y-1.74
X6.09Y-1.84
X6.09Y-1.94
X6.09Y-2.04
X6.09Y-2.14
X6.09Y-2.24
X6.09Y-2.34
X6.09Y-2.44
X6.39Y-1.14
X6.39Y-1.24
X6.39Y-1.34
X6.39Y-1.44
X6.39Y-1.54
X6.39Y-1.64
X6.39Y-1.74
X6.39Y-1.84
X6.39Y-1.94
X6.39Y-2.04
X6.39Y-2.14
X6.39Y-2.24
X6.39Y-2.34
X6.39Y-2.44
T4
X4.9Y-3.92
X4.9Y-4.02
X4.9Y-4.12
X4.9Y-4.22
X5.0Y-3.97
X5.0Y-4.07
X5.0Y-4.17
X5.0Y-4.27
T5
X9.27Y-4.51
X9.27Y-4.61
X9.27Y-4.71
X9.27Y-4.81
X9.27Y-4.91
X9.37Y-4.51
X9.37Y-4.61
X9.37Y-4.71
X9.37Y-4.81
X9.37Y-4.91
X6.27Y-4.21
X6.27Y-4.31
X6.27Y-4.41
X6.27Y-4.51
X6.27Y-4.61
X6.27Y-4.71
X6.27Y-4.81
X6.27Y-4.91
X6.27Y-5.01
X6.27Y-5.11
X6.27Y-5.21
X6.27Y-5.31
X6.27Y-5.41
X6.37Y-4.21
X6.37Y-4.31
X6.37Y-4.41
X6.37Y-4.51
X6.37Y-4.61
X6.37Y-4.71
X6.37Y-4.81
X6.37Y-4.91
X6.37Y-5.01
X6.37Y-5.11
X6.37Y-5.21
X6.37Y-5.31
X6.37Y-5.41
X7.11Y-0.71
X7.11Y-2.61
X7.21Y-0.71
X7.21Y-2.61
X7.31Y-0.71
X7.31Y-2.61
X7.41Y-0.71
X7.41Y-2.61
X7.51Y-0.71
X7.51Y-2.61
X7.61Y-0.71
X7.61Y-2.61
X7.71Y-0.71
X7.81Y-0.71
X7.81Y-2.61
X7.91Y-2.61
X7.9698Y-0.71
X8.01Y-2.61
X8.0698Y-0.71
X8.11Y-2.61
X8.1698Y-0.71
X8.21Y-2.61
X8.2698Y-0.71
X8.31Y-2.61
X8.3698Y-0.71
X8.41Y-2.61
X8.4698Y-0.71
X8.51Y-2.61
X8.5698Y-0.71
X8.6698Y-0.71
X8.7698Y-0.71
X8.8698Y-0.71
X8.22Y-4.21
X8.22Y-4.31
X8.22Y-4.41
X8.22Y-4.51
X8.22Y-4.61
X8.22Y-4.71
X8.22Y-4.81
X8.22Y-4.91
X8.22Y-5.01
X8.22Y-5.11
X8.22Y-5.21
X8.22Y-5.31
X8.22Y-5.41
X8.32Y-4.21
X8.32Y-4.31
X8.32Y-4.41
X8.32Y-4.51
X8.32Y-4.61
X8.32Y-4.71
X8.32Y-4.81
X8.32Y-4.91
X8.32Y-5.01
X8.32Y-5.11
X8.32Y-5.21
X8.32Y-5.31
X8.32Y-5.41
X5.62Y-4.21
X5.62Y-4.31
X5.62Y-4.41
X5.62Y-4.51
X5.62Y-4.61
X5.62Y-4.71
X5.62Y-4.81
X5.62Y-4.91
X5.62Y-5.01
X5.62Y-5.11
X5.62Y-5.21
X5.62Y-5.31
X5.62Y-5.41
X5.72Y-4.21
X5.72Y-4.31
X5.72Y-4.41
X5.72Y-4.51
X5.72Y-4.61
X5.72Y-4.71
X5.72Y-4.81
X5.72Y-4.91
X5.72Y-5.01
X5.72Y-5.11
X5.72Y-5.21
X5.72Y-5.31
X5.72Y-5.41
X7.57Y-4.21
X7.57Y-4.31
X7.57Y-4.41
X7.57Y-4.51
X7.57Y-4.61
X7.57Y-4.71
X7.57Y-4.81
X7.57Y-4.91
X7.57Y-5.01
X7.57Y-5.11
X7.57Y-5.21
X7.57Y-5.31
X7.57Y-5.41
X7.67Y-4.21
X7.67Y-4.31
X7.67Y-4.41
X7.67Y-4.51
X7.67Y-4.61
X7.67Y-4.71
X7.67Y-4.81
X7.67Y-4.91
X7.67Y-5.01
X7.67Y-5.11
X7.67Y-5.21
X7.67Y-5.31
X7.67Y-5.41
X6.92Y-4.21
X6.92Y-4.31
X6.92Y-4.41
X6.92Y-4.51
X6.92Y-4.61
X6.92Y-4.71
X6.92Y-4.81
X6.92Y-4.91
X6.92Y-5.01
X6.92Y-5.11
X6.92Y-5.21
X6.92Y-5.31
X6.92Y-5.41
X7.02Y-4.21
X7.02Y-4.31
X7.02Y-4.41
X7.02Y-4.51
X7.02Y-4.61
X7.02Y-4.71
X7.02Y-4.81
X7.02Y-4.91
X7.02Y-5.01
X7.02Y-5.11
X7.02Y-5.21
X7.02Y-5.31
X7.02Y-5.41
X8.87Y-4.21
X8.87Y-4.31
X8.87Y-4.41
X8.87Y-4.51
X8.87Y-4.61
X8.87Y-4.71
X8.87Y-4.81
X8.87Y-4.91
X8.87Y-5.01
X8.87Y-5.11
X8.87Y-5.21
X8.87Y-5.31
X8.87Y-5.41
X8.97Y-4.21
X8.97Y-4.31
X8.97Y-4.41
X8.97Y-4.51
X8.97Y-4.61
X8.97Y-4.71
X8.97Y-4.81
X8.97Y-4.91
X8.97Y-5.01
X8.97Y-5.11
X8.97Y-5.21
X8.97Y-5.31
X8.97Y-5.41
T6
X4.65Y-5.64
X5.05Y-5.64
T7
X9.41Y-3.74
X9.41Y-3.9369
X9.41Y-4.1337
X4.52Y-5.24
X4.52Y-5.4369
X4.5276Y-1.2205
X4.5276Y-1.4173
T8
X4.5299Y-3.7891
X4.5299Y-4.4009
T9
X6.3102Y-3.858
X6.3102Y-5.762
X8.2602Y-3.858
X8.2602Y-5.762
X5.6602Y-3.858
X5.6602Y-5.762
X7.6102Y-3.858
X7.6102Y-5.762
X6.9602Y-3.858
X6.9602Y-5.762
X8.9102Y-3.858
X8.9102Y-5.762
T10
X4.5276Y-0.9055
X9.3701Y-5.8268
X9.3701Y-0.9055
X4.5276Y-5.8268
T5
G00X4.5639Y-4.6128
M15
G01X4.5049Y-4.6128
M16
G05
G00X4.5639Y-4.9672
M15
G01X4.5049Y-4.9672
M16
G05
G00X4.5738Y-4.7644
M15
G01X4.5738Y-4.8156
M16
G05
G00X4.81Y-4.7506
M15
G01X4.81Y-4.8294
M16
G05
T0
M30
