%TF.GenerationSoftware,KiCad,Pcbnew,(5.1.8)-1*%
%TF.CreationDate,2020-12-05T14:01:19+04:00*%
%TF.ProjectId,6dof_controller,36646f66-5f63-46f6-9e74-726f6c6c6572,ver 1.0*%
%TF.SameCoordinates,Original*%
%TF.FileFunction,Paste,Bot*%
%TF.FilePolarity,Positive*%
%FSLAX46Y46*%
G04 Gerber Fmt 4.6, Leading zero omitted, Abs format (unit mm)*
G04 Created by KiCad (PCBNEW (5.1.8)-1) date 2020-12-05 14:01:19*
%MOMM*%
%LPD*%
G01*
G04 APERTURE LIST*
%ADD10R,2.500000X2.300000*%
G04 APERTURE END LIST*
%TO.C,C14*%
G36*
G01*
X200022000Y-126779000D02*
X200022000Y-127729000D01*
G75*
G02*
X199772000Y-127979000I-250000J0D01*
G01*
X199272000Y-127979000D01*
G75*
G02*
X199022000Y-127729000I0J250000D01*
G01*
X199022000Y-126779000D01*
G75*
G02*
X199272000Y-126529000I250000J0D01*
G01*
X199772000Y-126529000D01*
G75*
G02*
X200022000Y-126779000I0J-250000D01*
G01*
G37*
G36*
G01*
X201922000Y-126779000D02*
X201922000Y-127729000D01*
G75*
G02*
X201672000Y-127979000I-250000J0D01*
G01*
X201172000Y-127979000D01*
G75*
G02*
X200922000Y-127729000I0J250000D01*
G01*
X200922000Y-126779000D01*
G75*
G02*
X201172000Y-126529000I250000J0D01*
G01*
X201672000Y-126529000D01*
G75*
G02*
X201922000Y-126779000I0J-250000D01*
G01*
G37*
%TD*%
%TO.C,C12*%
G36*
G01*
X216532000Y-126779000D02*
X216532000Y-127729000D01*
G75*
G02*
X216282000Y-127979000I-250000J0D01*
G01*
X215782000Y-127979000D01*
G75*
G02*
X215532000Y-127729000I0J250000D01*
G01*
X215532000Y-126779000D01*
G75*
G02*
X215782000Y-126529000I250000J0D01*
G01*
X216282000Y-126529000D01*
G75*
G02*
X216532000Y-126779000I0J-250000D01*
G01*
G37*
G36*
G01*
X218432000Y-126779000D02*
X218432000Y-127729000D01*
G75*
G02*
X218182000Y-127979000I-250000J0D01*
G01*
X217682000Y-127979000D01*
G75*
G02*
X217432000Y-127729000I0J250000D01*
G01*
X217432000Y-126779000D01*
G75*
G02*
X217682000Y-126529000I250000J0D01*
G01*
X218182000Y-126529000D01*
G75*
G02*
X218432000Y-126779000I0J-250000D01*
G01*
G37*
%TD*%
%TO.C,C10*%
G36*
G01*
X183512000Y-126779000D02*
X183512000Y-127729000D01*
G75*
G02*
X183262000Y-127979000I-250000J0D01*
G01*
X182762000Y-127979000D01*
G75*
G02*
X182512000Y-127729000I0J250000D01*
G01*
X182512000Y-126779000D01*
G75*
G02*
X182762000Y-126529000I250000J0D01*
G01*
X183262000Y-126529000D01*
G75*
G02*
X183512000Y-126779000I0J-250000D01*
G01*
G37*
G36*
G01*
X185412000Y-126779000D02*
X185412000Y-127729000D01*
G75*
G02*
X185162000Y-127979000I-250000J0D01*
G01*
X184662000Y-127979000D01*
G75*
G02*
X184412000Y-127729000I0J250000D01*
G01*
X184412000Y-126779000D01*
G75*
G02*
X184662000Y-126529000I250000J0D01*
G01*
X185162000Y-126529000D01*
G75*
G02*
X185412000Y-126779000I0J-250000D01*
G01*
G37*
%TD*%
%TO.C,C8*%
G36*
G01*
X150492000Y-126779000D02*
X150492000Y-127729000D01*
G75*
G02*
X150242000Y-127979000I-250000J0D01*
G01*
X149742000Y-127979000D01*
G75*
G02*
X149492000Y-127729000I0J250000D01*
G01*
X149492000Y-126779000D01*
G75*
G02*
X149742000Y-126529000I250000J0D01*
G01*
X150242000Y-126529000D01*
G75*
G02*
X150492000Y-126779000I0J-250000D01*
G01*
G37*
G36*
G01*
X152392000Y-126779000D02*
X152392000Y-127729000D01*
G75*
G02*
X152142000Y-127979000I-250000J0D01*
G01*
X151642000Y-127979000D01*
G75*
G02*
X151392000Y-127729000I0J250000D01*
G01*
X151392000Y-126779000D01*
G75*
G02*
X151642000Y-126529000I250000J0D01*
G01*
X152142000Y-126529000D01*
G75*
G02*
X152392000Y-126779000I0J-250000D01*
G01*
G37*
%TD*%
%TO.C,C6*%
G36*
G01*
X167002000Y-126779000D02*
X167002000Y-127729000D01*
G75*
G02*
X166752000Y-127979000I-250000J0D01*
G01*
X166252000Y-127979000D01*
G75*
G02*
X166002000Y-127729000I0J250000D01*
G01*
X166002000Y-126779000D01*
G75*
G02*
X166252000Y-126529000I250000J0D01*
G01*
X166752000Y-126529000D01*
G75*
G02*
X167002000Y-126779000I0J-250000D01*
G01*
G37*
G36*
G01*
X168902000Y-126779000D02*
X168902000Y-127729000D01*
G75*
G02*
X168652000Y-127979000I-250000J0D01*
G01*
X168152000Y-127979000D01*
G75*
G02*
X167902000Y-127729000I0J250000D01*
G01*
X167902000Y-126779000D01*
G75*
G02*
X168152000Y-126529000I250000J0D01*
G01*
X168652000Y-126529000D01*
G75*
G02*
X168902000Y-126779000I0J-250000D01*
G01*
G37*
%TD*%
%TO.C,C4*%
G36*
G01*
X133728000Y-126779000D02*
X133728000Y-127729000D01*
G75*
G02*
X133478000Y-127979000I-250000J0D01*
G01*
X132978000Y-127979000D01*
G75*
G02*
X132728000Y-127729000I0J250000D01*
G01*
X132728000Y-126779000D01*
G75*
G02*
X132978000Y-126529000I250000J0D01*
G01*
X133478000Y-126529000D01*
G75*
G02*
X133728000Y-126779000I0J-250000D01*
G01*
G37*
G36*
G01*
X135628000Y-126779000D02*
X135628000Y-127729000D01*
G75*
G02*
X135378000Y-127979000I-250000J0D01*
G01*
X134878000Y-127979000D01*
G75*
G02*
X134628000Y-127729000I0J250000D01*
G01*
X134628000Y-126779000D01*
G75*
G02*
X134878000Y-126529000I250000J0D01*
G01*
X135378000Y-126529000D01*
G75*
G02*
X135628000Y-126779000I0J-250000D01*
G01*
G37*
%TD*%
%TO.C,C16*%
G36*
G01*
X240251000Y-37462000D02*
X239301000Y-37462000D01*
G75*
G02*
X239051000Y-37212000I0J250000D01*
G01*
X239051000Y-36712000D01*
G75*
G02*
X239301000Y-36462000I250000J0D01*
G01*
X240251000Y-36462000D01*
G75*
G02*
X240501000Y-36712000I0J-250000D01*
G01*
X240501000Y-37212000D01*
G75*
G02*
X240251000Y-37462000I-250000J0D01*
G01*
G37*
G36*
G01*
X240251000Y-39362000D02*
X239301000Y-39362000D01*
G75*
G02*
X239051000Y-39112000I0J250000D01*
G01*
X239051000Y-38612000D01*
G75*
G02*
X239301000Y-38362000I250000J0D01*
G01*
X240251000Y-38362000D01*
G75*
G02*
X240501000Y-38612000I0J-250000D01*
G01*
X240501000Y-39112000D01*
G75*
G02*
X240251000Y-39362000I-250000J0D01*
G01*
G37*
%TD*%
D10*
%TO.C,\u002AD3*%
X236728000Y-42164000D03*
X232428000Y-42164000D03*
%TD*%
M02*
