%TF.GenerationSoftware,KiCad,Pcbnew,(5.1.8)-1*%
%TF.CreationDate,2020-12-05T14:01:19+04:00*%
%TF.ProjectId,6dof_controller,36646f66-5f63-46f6-9e74-726f6c6c6572,ver 1.0*%
%TF.SameCoordinates,Original*%
%TF.FileFunction,Paste,Top*%
%TF.FilePolarity,Positive*%
%FSLAX46Y46*%
G04 Gerber Fmt 4.6, Leading zero omitted, Abs format (unit mm)*
G04 Created by KiCad (PCBNEW (5.1.8)-1) date 2020-12-05 14:01:19*
%MOMM*%
%LPD*%
G01*
G04 APERTURE LIST*
%ADD10R,2.500000X2.300000*%
%ADD11R,1.780000X2.000000*%
G04 APERTURE END LIST*
%TO.C,C13*%
G36*
G01*
X191524000Y-92423000D02*
X191524000Y-91473000D01*
G75*
G02*
X191774000Y-91223000I250000J0D01*
G01*
X192274000Y-91223000D01*
G75*
G02*
X192524000Y-91473000I0J-250000D01*
G01*
X192524000Y-92423000D01*
G75*
G02*
X192274000Y-92673000I-250000J0D01*
G01*
X191774000Y-92673000D01*
G75*
G02*
X191524000Y-92423000I0J250000D01*
G01*
G37*
G36*
G01*
X189624000Y-92423000D02*
X189624000Y-91473000D01*
G75*
G02*
X189874000Y-91223000I250000J0D01*
G01*
X190374000Y-91223000D01*
G75*
G02*
X190624000Y-91473000I0J-250000D01*
G01*
X190624000Y-92423000D01*
G75*
G02*
X190374000Y-92673000I-250000J0D01*
G01*
X189874000Y-92673000D01*
G75*
G02*
X189624000Y-92423000I0J250000D01*
G01*
G37*
%TD*%
%TO.C,C11*%
G36*
G01*
X224666000Y-92423000D02*
X224666000Y-91473000D01*
G75*
G02*
X224916000Y-91223000I250000J0D01*
G01*
X225416000Y-91223000D01*
G75*
G02*
X225666000Y-91473000I0J-250000D01*
G01*
X225666000Y-92423000D01*
G75*
G02*
X225416000Y-92673000I-250000J0D01*
G01*
X224916000Y-92673000D01*
G75*
G02*
X224666000Y-92423000I0J250000D01*
G01*
G37*
G36*
G01*
X222766000Y-92423000D02*
X222766000Y-91473000D01*
G75*
G02*
X223016000Y-91223000I250000J0D01*
G01*
X223516000Y-91223000D01*
G75*
G02*
X223766000Y-91473000I0J-250000D01*
G01*
X223766000Y-92423000D01*
G75*
G02*
X223516000Y-92673000I-250000J0D01*
G01*
X223016000Y-92673000D01*
G75*
G02*
X222766000Y-92423000I0J250000D01*
G01*
G37*
%TD*%
%TO.C,C9*%
G36*
G01*
X158372000Y-92423000D02*
X158372000Y-91473000D01*
G75*
G02*
X158622000Y-91223000I250000J0D01*
G01*
X159122000Y-91223000D01*
G75*
G02*
X159372000Y-91473000I0J-250000D01*
G01*
X159372000Y-92423000D01*
G75*
G02*
X159122000Y-92673000I-250000J0D01*
G01*
X158622000Y-92673000D01*
G75*
G02*
X158372000Y-92423000I0J250000D01*
G01*
G37*
G36*
G01*
X156472000Y-92423000D02*
X156472000Y-91473000D01*
G75*
G02*
X156722000Y-91223000I250000J0D01*
G01*
X157222000Y-91223000D01*
G75*
G02*
X157472000Y-91473000I0J-250000D01*
G01*
X157472000Y-92423000D01*
G75*
G02*
X157222000Y-92673000I-250000J0D01*
G01*
X156722000Y-92673000D01*
G75*
G02*
X156472000Y-92423000I0J250000D01*
G01*
G37*
%TD*%
%TO.C,C18*%
G36*
G01*
X237686000Y-63721000D02*
X237686000Y-62771000D01*
G75*
G02*
X237936000Y-62521000I250000J0D01*
G01*
X238436000Y-62521000D01*
G75*
G02*
X238686000Y-62771000I0J-250000D01*
G01*
X238686000Y-63721000D01*
G75*
G02*
X238436000Y-63971000I-250000J0D01*
G01*
X237936000Y-63971000D01*
G75*
G02*
X237686000Y-63721000I0J250000D01*
G01*
G37*
G36*
G01*
X235786000Y-63721000D02*
X235786000Y-62771000D01*
G75*
G02*
X236036000Y-62521000I250000J0D01*
G01*
X236536000Y-62521000D01*
G75*
G02*
X236786000Y-62771000I0J-250000D01*
G01*
X236786000Y-63721000D01*
G75*
G02*
X236536000Y-63971000I-250000J0D01*
G01*
X236036000Y-63971000D01*
G75*
G02*
X235786000Y-63721000I0J250000D01*
G01*
G37*
%TD*%
%TO.C,C17*%
G36*
G01*
X149984000Y-32037000D02*
X149984000Y-32987000D01*
G75*
G02*
X149734000Y-33237000I-250000J0D01*
G01*
X149234000Y-33237000D01*
G75*
G02*
X148984000Y-32987000I0J250000D01*
G01*
X148984000Y-32037000D01*
G75*
G02*
X149234000Y-31787000I250000J0D01*
G01*
X149734000Y-31787000D01*
G75*
G02*
X149984000Y-32037000I0J-250000D01*
G01*
G37*
G36*
G01*
X151884000Y-32037000D02*
X151884000Y-32987000D01*
G75*
G02*
X151634000Y-33237000I-250000J0D01*
G01*
X151134000Y-33237000D01*
G75*
G02*
X150884000Y-32987000I0J250000D01*
G01*
X150884000Y-32037000D01*
G75*
G02*
X151134000Y-31787000I250000J0D01*
G01*
X151634000Y-31787000D01*
G75*
G02*
X151884000Y-32037000I0J-250000D01*
G01*
G37*
%TD*%
%TO.C,C7*%
G36*
G01*
X207902000Y-92423000D02*
X207902000Y-91473000D01*
G75*
G02*
X208152000Y-91223000I250000J0D01*
G01*
X208652000Y-91223000D01*
G75*
G02*
X208902000Y-91473000I0J-250000D01*
G01*
X208902000Y-92423000D01*
G75*
G02*
X208652000Y-92673000I-250000J0D01*
G01*
X208152000Y-92673000D01*
G75*
G02*
X207902000Y-92423000I0J250000D01*
G01*
G37*
G36*
G01*
X206002000Y-92423000D02*
X206002000Y-91473000D01*
G75*
G02*
X206252000Y-91223000I250000J0D01*
G01*
X206752000Y-91223000D01*
G75*
G02*
X207002000Y-91473000I0J-250000D01*
G01*
X207002000Y-92423000D01*
G75*
G02*
X206752000Y-92673000I-250000J0D01*
G01*
X206252000Y-92673000D01*
G75*
G02*
X206002000Y-92423000I0J250000D01*
G01*
G37*
%TD*%
%TO.C,C5*%
G36*
G01*
X117061000Y-90548000D02*
X116111000Y-90548000D01*
G75*
G02*
X115861000Y-90298000I0J250000D01*
G01*
X115861000Y-89798000D01*
G75*
G02*
X116111000Y-89548000I250000J0D01*
G01*
X117061000Y-89548000D01*
G75*
G02*
X117311000Y-89798000I0J-250000D01*
G01*
X117311000Y-90298000D01*
G75*
G02*
X117061000Y-90548000I-250000J0D01*
G01*
G37*
G36*
G01*
X117061000Y-92448000D02*
X116111000Y-92448000D01*
G75*
G02*
X115861000Y-92198000I0J250000D01*
G01*
X115861000Y-91698000D01*
G75*
G02*
X116111000Y-91448000I250000J0D01*
G01*
X117061000Y-91448000D01*
G75*
G02*
X117311000Y-91698000I0J-250000D01*
G01*
X117311000Y-92198000D01*
G75*
G02*
X117061000Y-92448000I-250000J0D01*
G01*
G37*
%TD*%
%TO.C,C3*%
G36*
G01*
X174882000Y-92423000D02*
X174882000Y-91473000D01*
G75*
G02*
X175132000Y-91223000I250000J0D01*
G01*
X175632000Y-91223000D01*
G75*
G02*
X175882000Y-91473000I0J-250000D01*
G01*
X175882000Y-92423000D01*
G75*
G02*
X175632000Y-92673000I-250000J0D01*
G01*
X175132000Y-92673000D01*
G75*
G02*
X174882000Y-92423000I0J250000D01*
G01*
G37*
G36*
G01*
X172982000Y-92423000D02*
X172982000Y-91473000D01*
G75*
G02*
X173232000Y-91223000I250000J0D01*
G01*
X173732000Y-91223000D01*
G75*
G02*
X173982000Y-91473000I0J-250000D01*
G01*
X173982000Y-92423000D01*
G75*
G02*
X173732000Y-92673000I-250000J0D01*
G01*
X173232000Y-92673000D01*
G75*
G02*
X172982000Y-92423000I0J250000D01*
G01*
G37*
%TD*%
%TO.C,C2*%
G36*
G01*
X141862000Y-92423000D02*
X141862000Y-91473000D01*
G75*
G02*
X142112000Y-91223000I250000J0D01*
G01*
X142612000Y-91223000D01*
G75*
G02*
X142862000Y-91473000I0J-250000D01*
G01*
X142862000Y-92423000D01*
G75*
G02*
X142612000Y-92673000I-250000J0D01*
G01*
X142112000Y-92673000D01*
G75*
G02*
X141862000Y-92423000I0J250000D01*
G01*
G37*
G36*
G01*
X139962000Y-92423000D02*
X139962000Y-91473000D01*
G75*
G02*
X140212000Y-91223000I250000J0D01*
G01*
X140712000Y-91223000D01*
G75*
G02*
X140962000Y-91473000I0J-250000D01*
G01*
X140962000Y-92423000D01*
G75*
G02*
X140712000Y-92673000I-250000J0D01*
G01*
X140212000Y-92673000D01*
G75*
G02*
X139962000Y-92423000I0J250000D01*
G01*
G37*
%TD*%
%TO.C,C15*%
G36*
G01*
X229348000Y-59902000D02*
X229348000Y-61002000D01*
G75*
G02*
X229098000Y-61252000I-250000J0D01*
G01*
X226998000Y-61252000D01*
G75*
G02*
X226748000Y-61002000I0J250000D01*
G01*
X226748000Y-59902000D01*
G75*
G02*
X226998000Y-59652000I250000J0D01*
G01*
X229098000Y-59652000D01*
G75*
G02*
X229348000Y-59902000I0J-250000D01*
G01*
G37*
G36*
G01*
X232948000Y-59902000D02*
X232948000Y-61002000D01*
G75*
G02*
X232698000Y-61252000I-250000J0D01*
G01*
X230598000Y-61252000D01*
G75*
G02*
X230348000Y-61002000I0J250000D01*
G01*
X230348000Y-59902000D01*
G75*
G02*
X230598000Y-59652000I250000J0D01*
G01*
X232698000Y-59652000D01*
G75*
G02*
X232948000Y-59902000I0J-250000D01*
G01*
G37*
%TD*%
%TO.C,C1*%
G36*
G01*
X129570000Y-138388000D02*
X129570000Y-139488000D01*
G75*
G02*
X129320000Y-139738000I-250000J0D01*
G01*
X127220000Y-139738000D01*
G75*
G02*
X126970000Y-139488000I0J250000D01*
G01*
X126970000Y-138388000D01*
G75*
G02*
X127220000Y-138138000I250000J0D01*
G01*
X129320000Y-138138000D01*
G75*
G02*
X129570000Y-138388000I0J-250000D01*
G01*
G37*
G36*
G01*
X125970000Y-138388000D02*
X125970000Y-139488000D01*
G75*
G02*
X125720000Y-139738000I-250000J0D01*
G01*
X123620000Y-139738000D01*
G75*
G02*
X123370000Y-139488000I0J250000D01*
G01*
X123370000Y-138388000D01*
G75*
G02*
X123620000Y-138138000I250000J0D01*
G01*
X125720000Y-138138000D01*
G75*
G02*
X125970000Y-138388000I0J-250000D01*
G01*
G37*
%TD*%
%TO.C,D3*%
G36*
G01*
X144800500Y-29666250D02*
X144800500Y-28753750D01*
G75*
G02*
X145044250Y-28510000I243750J0D01*
G01*
X145531750Y-28510000D01*
G75*
G02*
X145775500Y-28753750I0J-243750D01*
G01*
X145775500Y-29666250D01*
G75*
G02*
X145531750Y-29910000I-243750J0D01*
G01*
X145044250Y-29910000D01*
G75*
G02*
X144800500Y-29666250I0J243750D01*
G01*
G37*
G36*
G01*
X142925500Y-29666250D02*
X142925500Y-28753750D01*
G75*
G02*
X143169250Y-28510000I243750J0D01*
G01*
X143656750Y-28510000D01*
G75*
G02*
X143900500Y-28753750I0J-243750D01*
G01*
X143900500Y-29666250D01*
G75*
G02*
X143656750Y-29910000I-243750J0D01*
G01*
X143169250Y-29910000D01*
G75*
G02*
X142925500Y-29666250I0J243750D01*
G01*
G37*
%TD*%
%TO.C,\u002AD1*%
G36*
G01*
X239852500Y-87681750D02*
X239852500Y-88594250D01*
G75*
G02*
X239608750Y-88838000I-243750J0D01*
G01*
X239121250Y-88838000D01*
G75*
G02*
X238877500Y-88594250I0J243750D01*
G01*
X238877500Y-87681750D01*
G75*
G02*
X239121250Y-87438000I243750J0D01*
G01*
X239608750Y-87438000D01*
G75*
G02*
X239852500Y-87681750I0J-243750D01*
G01*
G37*
G36*
G01*
X237977500Y-87681750D02*
X237977500Y-88594250D01*
G75*
G02*
X237733750Y-88838000I-243750J0D01*
G01*
X237246250Y-88838000D01*
G75*
G02*
X237002500Y-88594250I0J243750D01*
G01*
X237002500Y-87681750D01*
G75*
G02*
X237246250Y-87438000I243750J0D01*
G01*
X237733750Y-87438000D01*
G75*
G02*
X237977500Y-87681750I0J-243750D01*
G01*
G37*
%TD*%
D10*
%TO.C,\u002AD2*%
X123970000Y-148082000D03*
X128270000Y-148082000D03*
%TD*%
%TO.C,D2*%
G36*
G01*
X126725500Y-129591750D02*
X126725500Y-130504250D01*
G75*
G02*
X126481750Y-130748000I-243750J0D01*
G01*
X125994250Y-130748000D01*
G75*
G02*
X125750500Y-130504250I0J243750D01*
G01*
X125750500Y-129591750D01*
G75*
G02*
X125994250Y-129348000I243750J0D01*
G01*
X126481750Y-129348000D01*
G75*
G02*
X126725500Y-129591750I0J-243750D01*
G01*
G37*
G36*
G01*
X128600500Y-129591750D02*
X128600500Y-130504250D01*
G75*
G02*
X128356750Y-130748000I-243750J0D01*
G01*
X127869250Y-130748000D01*
G75*
G02*
X127625500Y-130504250I0J243750D01*
G01*
X127625500Y-129591750D01*
G75*
G02*
X127869250Y-129348000I243750J0D01*
G01*
X128356750Y-129348000D01*
G75*
G02*
X128600500Y-129591750I0J-243750D01*
G01*
G37*
%TD*%
%TO.C,D4*%
G36*
G01*
X222809750Y-72410500D02*
X223722250Y-72410500D01*
G75*
G02*
X223966000Y-72654250I0J-243750D01*
G01*
X223966000Y-73141750D01*
G75*
G02*
X223722250Y-73385500I-243750J0D01*
G01*
X222809750Y-73385500D01*
G75*
G02*
X222566000Y-73141750I0J243750D01*
G01*
X222566000Y-72654250D01*
G75*
G02*
X222809750Y-72410500I243750J0D01*
G01*
G37*
G36*
G01*
X222809750Y-70535500D02*
X223722250Y-70535500D01*
G75*
G02*
X223966000Y-70779250I0J-243750D01*
G01*
X223966000Y-71266750D01*
G75*
G02*
X223722250Y-71510500I-243750J0D01*
G01*
X222809750Y-71510500D01*
G75*
G02*
X222566000Y-71266750I0J243750D01*
G01*
X222566000Y-70779250D01*
G75*
G02*
X222809750Y-70535500I243750J0D01*
G01*
G37*
%TD*%
%TO.C,\u002AD4*%
G36*
G01*
X123423500Y-89205750D02*
X123423500Y-90118250D01*
G75*
G02*
X123179750Y-90362000I-243750J0D01*
G01*
X122692250Y-90362000D01*
G75*
G02*
X122448500Y-90118250I0J243750D01*
G01*
X122448500Y-89205750D01*
G75*
G02*
X122692250Y-88962000I243750J0D01*
G01*
X123179750Y-88962000D01*
G75*
G02*
X123423500Y-89205750I0J-243750D01*
G01*
G37*
G36*
G01*
X125298500Y-89205750D02*
X125298500Y-90118250D01*
G75*
G02*
X125054750Y-90362000I-243750J0D01*
G01*
X124567250Y-90362000D01*
G75*
G02*
X124323500Y-90118250I0J243750D01*
G01*
X124323500Y-89205750D01*
G75*
G02*
X124567250Y-88962000I243750J0D01*
G01*
X125054750Y-88962000D01*
G75*
G02*
X125298500Y-89205750I0J-243750D01*
G01*
G37*
%TD*%
%TO.C,D5*%
G36*
G01*
X231191750Y-70535500D02*
X232104250Y-70535500D01*
G75*
G02*
X232348000Y-70779250I0J-243750D01*
G01*
X232348000Y-71266750D01*
G75*
G02*
X232104250Y-71510500I-243750J0D01*
G01*
X231191750Y-71510500D01*
G75*
G02*
X230948000Y-71266750I0J243750D01*
G01*
X230948000Y-70779250D01*
G75*
G02*
X231191750Y-70535500I243750J0D01*
G01*
G37*
G36*
G01*
X231191750Y-72410500D02*
X232104250Y-72410500D01*
G75*
G02*
X232348000Y-72654250I0J-243750D01*
G01*
X232348000Y-73141750D01*
G75*
G02*
X232104250Y-73385500I-243750J0D01*
G01*
X231191750Y-73385500D01*
G75*
G02*
X230948000Y-73141750I0J243750D01*
G01*
X230948000Y-72654250D01*
G75*
G02*
X231191750Y-72410500I243750J0D01*
G01*
G37*
%TD*%
%TO.C,R3*%
G36*
G01*
X225355998Y-72385500D02*
X226256002Y-72385500D01*
G75*
G02*
X226506000Y-72635498I0J-249998D01*
G01*
X226506000Y-73160502D01*
G75*
G02*
X226256002Y-73410500I-249998J0D01*
G01*
X225355998Y-73410500D01*
G75*
G02*
X225106000Y-73160502I0J249998D01*
G01*
X225106000Y-72635498D01*
G75*
G02*
X225355998Y-72385500I249998J0D01*
G01*
G37*
G36*
G01*
X225355998Y-70560500D02*
X226256002Y-70560500D01*
G75*
G02*
X226506000Y-70810498I0J-249998D01*
G01*
X226506000Y-71335502D01*
G75*
G02*
X226256002Y-71585500I-249998J0D01*
G01*
X225355998Y-71585500D01*
G75*
G02*
X225106000Y-71335502I0J249998D01*
G01*
X225106000Y-70810498D01*
G75*
G02*
X225355998Y-70560500I249998J0D01*
G01*
G37*
%TD*%
%TO.C,R2*%
G36*
G01*
X148086500Y-28759998D02*
X148086500Y-29660002D01*
G75*
G02*
X147836502Y-29910000I-249998J0D01*
G01*
X147311498Y-29910000D01*
G75*
G02*
X147061500Y-29660002I0J249998D01*
G01*
X147061500Y-28759998D01*
G75*
G02*
X147311498Y-28510000I249998J0D01*
G01*
X147836502Y-28510000D01*
G75*
G02*
X148086500Y-28759998I0J-249998D01*
G01*
G37*
G36*
G01*
X149911500Y-28759998D02*
X149911500Y-29660002D01*
G75*
G02*
X149661502Y-29910000I-249998J0D01*
G01*
X149136498Y-29910000D01*
G75*
G02*
X148886500Y-29660002I0J249998D01*
G01*
X148886500Y-28759998D01*
G75*
G02*
X149136498Y-28510000I249998J0D01*
G01*
X149661502Y-28510000D01*
G75*
G02*
X149911500Y-28759998I0J-249998D01*
G01*
G37*
%TD*%
%TO.C,\u002AR1*%
G36*
G01*
X238002500Y-89973998D02*
X238002500Y-90874002D01*
G75*
G02*
X237752502Y-91124000I-249998J0D01*
G01*
X237227498Y-91124000D01*
G75*
G02*
X236977500Y-90874002I0J249998D01*
G01*
X236977500Y-89973998D01*
G75*
G02*
X237227498Y-89724000I249998J0D01*
G01*
X237752502Y-89724000D01*
G75*
G02*
X238002500Y-89973998I0J-249998D01*
G01*
G37*
G36*
G01*
X236177500Y-89973998D02*
X236177500Y-90874002D01*
G75*
G02*
X235927502Y-91124000I-249998J0D01*
G01*
X235402498Y-91124000D01*
G75*
G02*
X235152500Y-90874002I0J249998D01*
G01*
X235152500Y-89973998D01*
G75*
G02*
X235402498Y-89724000I249998J0D01*
G01*
X235927502Y-89724000D01*
G75*
G02*
X236177500Y-89973998I0J-249998D01*
G01*
G37*
%TD*%
%TO.C,R1*%
G36*
G01*
X126750500Y-132645998D02*
X126750500Y-133546002D01*
G75*
G02*
X126500502Y-133796000I-249998J0D01*
G01*
X125975498Y-133796000D01*
G75*
G02*
X125725500Y-133546002I0J249998D01*
G01*
X125725500Y-132645998D01*
G75*
G02*
X125975498Y-132396000I249998J0D01*
G01*
X126500502Y-132396000D01*
G75*
G02*
X126750500Y-132645998I0J-249998D01*
G01*
G37*
G36*
G01*
X128575500Y-132645998D02*
X128575500Y-133546002D01*
G75*
G02*
X128325502Y-133796000I-249998J0D01*
G01*
X127800498Y-133796000D01*
G75*
G02*
X127550500Y-133546002I0J249998D01*
G01*
X127550500Y-132645998D01*
G75*
G02*
X127800498Y-132396000I249998J0D01*
G01*
X128325502Y-132396000D01*
G75*
G02*
X128575500Y-132645998I0J-249998D01*
G01*
G37*
%TD*%
%TO.C,R4*%
G36*
G01*
X208591998Y-70560500D02*
X209492002Y-70560500D01*
G75*
G02*
X209742000Y-70810498I0J-249998D01*
G01*
X209742000Y-71335502D01*
G75*
G02*
X209492002Y-71585500I-249998J0D01*
G01*
X208591998Y-71585500D01*
G75*
G02*
X208342000Y-71335502I0J249998D01*
G01*
X208342000Y-70810498D01*
G75*
G02*
X208591998Y-70560500I249998J0D01*
G01*
G37*
G36*
G01*
X208591998Y-72385500D02*
X209492002Y-72385500D01*
G75*
G02*
X209742000Y-72635498I0J-249998D01*
G01*
X209742000Y-73160502D01*
G75*
G02*
X209492002Y-73410500I-249998J0D01*
G01*
X208591998Y-73410500D01*
G75*
G02*
X208342000Y-73160502I0J249998D01*
G01*
X208342000Y-72635498D01*
G75*
G02*
X208591998Y-72385500I249998J0D01*
G01*
G37*
%TD*%
%TO.C,R5*%
G36*
G01*
X191827998Y-70560500D02*
X192728002Y-70560500D01*
G75*
G02*
X192978000Y-70810498I0J-249998D01*
G01*
X192978000Y-71335502D01*
G75*
G02*
X192728002Y-71585500I-249998J0D01*
G01*
X191827998Y-71585500D01*
G75*
G02*
X191578000Y-71335502I0J249998D01*
G01*
X191578000Y-70810498D01*
G75*
G02*
X191827998Y-70560500I249998J0D01*
G01*
G37*
G36*
G01*
X191827998Y-72385500D02*
X192728002Y-72385500D01*
G75*
G02*
X192978000Y-72635498I0J-249998D01*
G01*
X192978000Y-73160502D01*
G75*
G02*
X192728002Y-73410500I-249998J0D01*
G01*
X191827998Y-73410500D01*
G75*
G02*
X191578000Y-73160502I0J249998D01*
G01*
X191578000Y-72635498D01*
G75*
G02*
X191827998Y-72385500I249998J0D01*
G01*
G37*
%TD*%
%TO.C,R6*%
G36*
G01*
X175063998Y-70560500D02*
X175964002Y-70560500D01*
G75*
G02*
X176214000Y-70810498I0J-249998D01*
G01*
X176214000Y-71335502D01*
G75*
G02*
X175964002Y-71585500I-249998J0D01*
G01*
X175063998Y-71585500D01*
G75*
G02*
X174814000Y-71335502I0J249998D01*
G01*
X174814000Y-70810498D01*
G75*
G02*
X175063998Y-70560500I249998J0D01*
G01*
G37*
G36*
G01*
X175063998Y-72385500D02*
X175964002Y-72385500D01*
G75*
G02*
X176214000Y-72635498I0J-249998D01*
G01*
X176214000Y-73160502D01*
G75*
G02*
X175964002Y-73410500I-249998J0D01*
G01*
X175063998Y-73410500D01*
G75*
G02*
X174814000Y-73160502I0J249998D01*
G01*
X174814000Y-72635498D01*
G75*
G02*
X175063998Y-72385500I249998J0D01*
G01*
G37*
%TD*%
%TO.C,R7*%
G36*
G01*
X158299998Y-70560500D02*
X159200002Y-70560500D01*
G75*
G02*
X159450000Y-70810498I0J-249998D01*
G01*
X159450000Y-71335502D01*
G75*
G02*
X159200002Y-71585500I-249998J0D01*
G01*
X158299998Y-71585500D01*
G75*
G02*
X158050000Y-71335502I0J249998D01*
G01*
X158050000Y-70810498D01*
G75*
G02*
X158299998Y-70560500I249998J0D01*
G01*
G37*
G36*
G01*
X158299998Y-72385500D02*
X159200002Y-72385500D01*
G75*
G02*
X159450000Y-72635498I0J-249998D01*
G01*
X159450000Y-73160502D01*
G75*
G02*
X159200002Y-73410500I-249998J0D01*
G01*
X158299998Y-73410500D01*
G75*
G02*
X158050000Y-73160502I0J249998D01*
G01*
X158050000Y-72635498D01*
G75*
G02*
X158299998Y-72385500I249998J0D01*
G01*
G37*
%TD*%
%TO.C,R8*%
G36*
G01*
X141535998Y-70560500D02*
X142436002Y-70560500D01*
G75*
G02*
X142686000Y-70810498I0J-249998D01*
G01*
X142686000Y-71335502D01*
G75*
G02*
X142436002Y-71585500I-249998J0D01*
G01*
X141535998Y-71585500D01*
G75*
G02*
X141286000Y-71335502I0J249998D01*
G01*
X141286000Y-70810498D01*
G75*
G02*
X141535998Y-70560500I249998J0D01*
G01*
G37*
G36*
G01*
X141535998Y-72385500D02*
X142436002Y-72385500D01*
G75*
G02*
X142686000Y-72635498I0J-249998D01*
G01*
X142686000Y-73160502D01*
G75*
G02*
X142436002Y-73410500I-249998J0D01*
G01*
X141535998Y-73410500D01*
G75*
G02*
X141286000Y-73160502I0J249998D01*
G01*
X141286000Y-72635498D01*
G75*
G02*
X141535998Y-72385500I249998J0D01*
G01*
G37*
%TD*%
%TO.C,\u002AR2*%
G36*
G01*
X120592002Y-88650500D02*
X119691998Y-88650500D01*
G75*
G02*
X119442000Y-88400502I0J249998D01*
G01*
X119442000Y-87875498D01*
G75*
G02*
X119691998Y-87625500I249998J0D01*
G01*
X120592002Y-87625500D01*
G75*
G02*
X120842000Y-87875498I0J-249998D01*
G01*
X120842000Y-88400502D01*
G75*
G02*
X120592002Y-88650500I-249998J0D01*
G01*
G37*
G36*
G01*
X120592002Y-90475500D02*
X119691998Y-90475500D01*
G75*
G02*
X119442000Y-90225502I0J249998D01*
G01*
X119442000Y-89700498D01*
G75*
G02*
X119691998Y-89450500I249998J0D01*
G01*
X120592002Y-89450500D01*
G75*
G02*
X120842000Y-89700498I0J-249998D01*
G01*
X120842000Y-90225502D01*
G75*
G02*
X120592002Y-90475500I-249998J0D01*
G01*
G37*
%TD*%
%TO.C,R9*%
G36*
G01*
X233737998Y-70560500D02*
X234638002Y-70560500D01*
G75*
G02*
X234888000Y-70810498I0J-249998D01*
G01*
X234888000Y-71335502D01*
G75*
G02*
X234638002Y-71585500I-249998J0D01*
G01*
X233737998Y-71585500D01*
G75*
G02*
X233488000Y-71335502I0J249998D01*
G01*
X233488000Y-70810498D01*
G75*
G02*
X233737998Y-70560500I249998J0D01*
G01*
G37*
G36*
G01*
X233737998Y-72385500D02*
X234638002Y-72385500D01*
G75*
G02*
X234888000Y-72635498I0J-249998D01*
G01*
X234888000Y-73160502D01*
G75*
G02*
X234638002Y-73410500I-249998J0D01*
G01*
X233737998Y-73410500D01*
G75*
G02*
X233488000Y-73160502I0J249998D01*
G01*
X233488000Y-72635498D01*
G75*
G02*
X233737998Y-72385500I249998J0D01*
G01*
G37*
%TD*%
%TO.C,R10*%
G36*
G01*
X216973998Y-72385500D02*
X217874002Y-72385500D01*
G75*
G02*
X218124000Y-72635498I0J-249998D01*
G01*
X218124000Y-73160502D01*
G75*
G02*
X217874002Y-73410500I-249998J0D01*
G01*
X216973998Y-73410500D01*
G75*
G02*
X216724000Y-73160502I0J249998D01*
G01*
X216724000Y-72635498D01*
G75*
G02*
X216973998Y-72385500I249998J0D01*
G01*
G37*
G36*
G01*
X216973998Y-70560500D02*
X217874002Y-70560500D01*
G75*
G02*
X218124000Y-70810498I0J-249998D01*
G01*
X218124000Y-71335502D01*
G75*
G02*
X217874002Y-71585500I-249998J0D01*
G01*
X216973998Y-71585500D01*
G75*
G02*
X216724000Y-71335502I0J249998D01*
G01*
X216724000Y-70810498D01*
G75*
G02*
X216973998Y-70560500I249998J0D01*
G01*
G37*
%TD*%
%TO.C,R11*%
G36*
G01*
X200209998Y-70560500D02*
X201110002Y-70560500D01*
G75*
G02*
X201360000Y-70810498I0J-249998D01*
G01*
X201360000Y-71335502D01*
G75*
G02*
X201110002Y-71585500I-249998J0D01*
G01*
X200209998Y-71585500D01*
G75*
G02*
X199960000Y-71335502I0J249998D01*
G01*
X199960000Y-70810498D01*
G75*
G02*
X200209998Y-70560500I249998J0D01*
G01*
G37*
G36*
G01*
X200209998Y-72385500D02*
X201110002Y-72385500D01*
G75*
G02*
X201360000Y-72635498I0J-249998D01*
G01*
X201360000Y-73160502D01*
G75*
G02*
X201110002Y-73410500I-249998J0D01*
G01*
X200209998Y-73410500D01*
G75*
G02*
X199960000Y-73160502I0J249998D01*
G01*
X199960000Y-72635498D01*
G75*
G02*
X200209998Y-72385500I249998J0D01*
G01*
G37*
%TD*%
%TO.C,R12*%
G36*
G01*
X183445998Y-72385500D02*
X184346002Y-72385500D01*
G75*
G02*
X184596000Y-72635498I0J-249998D01*
G01*
X184596000Y-73160502D01*
G75*
G02*
X184346002Y-73410500I-249998J0D01*
G01*
X183445998Y-73410500D01*
G75*
G02*
X183196000Y-73160502I0J249998D01*
G01*
X183196000Y-72635498D01*
G75*
G02*
X183445998Y-72385500I249998J0D01*
G01*
G37*
G36*
G01*
X183445998Y-70560500D02*
X184346002Y-70560500D01*
G75*
G02*
X184596000Y-70810498I0J-249998D01*
G01*
X184596000Y-71335502D01*
G75*
G02*
X184346002Y-71585500I-249998J0D01*
G01*
X183445998Y-71585500D01*
G75*
G02*
X183196000Y-71335502I0J249998D01*
G01*
X183196000Y-70810498D01*
G75*
G02*
X183445998Y-70560500I249998J0D01*
G01*
G37*
%TD*%
%TO.C,R13*%
G36*
G01*
X166681998Y-70560500D02*
X167582002Y-70560500D01*
G75*
G02*
X167832000Y-70810498I0J-249998D01*
G01*
X167832000Y-71335502D01*
G75*
G02*
X167582002Y-71585500I-249998J0D01*
G01*
X166681998Y-71585500D01*
G75*
G02*
X166432000Y-71335502I0J249998D01*
G01*
X166432000Y-70810498D01*
G75*
G02*
X166681998Y-70560500I249998J0D01*
G01*
G37*
G36*
G01*
X166681998Y-72385500D02*
X167582002Y-72385500D01*
G75*
G02*
X167832000Y-72635498I0J-249998D01*
G01*
X167832000Y-73160502D01*
G75*
G02*
X167582002Y-73410500I-249998J0D01*
G01*
X166681998Y-73410500D01*
G75*
G02*
X166432000Y-73160502I0J249998D01*
G01*
X166432000Y-72635498D01*
G75*
G02*
X166681998Y-72385500I249998J0D01*
G01*
G37*
%TD*%
%TO.C,R14*%
G36*
G01*
X149917998Y-72385500D02*
X150818002Y-72385500D01*
G75*
G02*
X151068000Y-72635498I0J-249998D01*
G01*
X151068000Y-73160502D01*
G75*
G02*
X150818002Y-73410500I-249998J0D01*
G01*
X149917998Y-73410500D01*
G75*
G02*
X149668000Y-73160502I0J249998D01*
G01*
X149668000Y-72635498D01*
G75*
G02*
X149917998Y-72385500I249998J0D01*
G01*
G37*
G36*
G01*
X149917998Y-70560500D02*
X150818002Y-70560500D01*
G75*
G02*
X151068000Y-70810498I0J-249998D01*
G01*
X151068000Y-71335502D01*
G75*
G02*
X150818002Y-71585500I-249998J0D01*
G01*
X149917998Y-71585500D01*
G75*
G02*
X149668000Y-71335502I0J249998D01*
G01*
X149668000Y-70810498D01*
G75*
G02*
X149917998Y-70560500I249998J0D01*
G01*
G37*
%TD*%
D11*
%TO.C,U3*%
X225806000Y-75753000D03*
X220726000Y-85283000D03*
X223266000Y-75753000D03*
X223266000Y-85283000D03*
X220726000Y-75753000D03*
X225806000Y-85283000D03*
%TD*%
%TO.C,\u002AU1*%
X237490000Y-75692000D03*
X242570000Y-85222000D03*
X240030000Y-75692000D03*
X240030000Y-85222000D03*
X242570000Y-75692000D03*
X237490000Y-85222000D03*
%TD*%
%TO.C,U4*%
X209042000Y-85283000D03*
X203962000Y-75753000D03*
X206502000Y-85283000D03*
X206502000Y-75753000D03*
X203962000Y-85283000D03*
X209042000Y-75753000D03*
%TD*%
%TO.C,U5*%
X192278000Y-75753000D03*
X187198000Y-85283000D03*
X189738000Y-75753000D03*
X189738000Y-85283000D03*
X187198000Y-75753000D03*
X192278000Y-85283000D03*
%TD*%
%TO.C,U6*%
X175514000Y-85283000D03*
X170434000Y-75753000D03*
X172974000Y-85283000D03*
X172974000Y-75753000D03*
X170434000Y-85283000D03*
X175514000Y-75753000D03*
%TD*%
%TO.C,U7*%
X158750000Y-75753000D03*
X153670000Y-85283000D03*
X156210000Y-75753000D03*
X156210000Y-85283000D03*
X153670000Y-75753000D03*
X158750000Y-85283000D03*
%TD*%
%TO.C,U8*%
X141986000Y-85283000D03*
X136906000Y-75753000D03*
X139446000Y-85283000D03*
X139446000Y-75753000D03*
X136906000Y-85283000D03*
X141986000Y-75753000D03*
%TD*%
%TO.C,\u002AU2*%
X120142000Y-85283000D03*
X125222000Y-75753000D03*
X122682000Y-85283000D03*
X122682000Y-75753000D03*
X125222000Y-85283000D03*
X120142000Y-75753000D03*
%TD*%
%TO.C,U9*%
X234188000Y-75753000D03*
X229108000Y-85283000D03*
X231648000Y-75753000D03*
X231648000Y-85283000D03*
X229108000Y-75753000D03*
X234188000Y-85283000D03*
%TD*%
%TO.C,U10*%
X217424000Y-85283000D03*
X212344000Y-75753000D03*
X214884000Y-85283000D03*
X214884000Y-75753000D03*
X212344000Y-85283000D03*
X217424000Y-75753000D03*
%TD*%
%TO.C,U11*%
X200660000Y-75753000D03*
X195580000Y-85283000D03*
X198120000Y-75753000D03*
X198120000Y-85283000D03*
X195580000Y-75753000D03*
X200660000Y-85283000D03*
%TD*%
%TO.C,U12*%
X183896000Y-75753000D03*
X178816000Y-85283000D03*
X181356000Y-75753000D03*
X181356000Y-85283000D03*
X178816000Y-75753000D03*
X183896000Y-85283000D03*
%TD*%
%TO.C,U13*%
X167132000Y-85283000D03*
X162052000Y-75753000D03*
X164592000Y-85283000D03*
X164592000Y-75753000D03*
X162052000Y-85283000D03*
X167132000Y-75753000D03*
%TD*%
%TO.C,U14*%
X150368000Y-75753000D03*
X145288000Y-85283000D03*
X147828000Y-75753000D03*
X147828000Y-85283000D03*
X145288000Y-75753000D03*
X150368000Y-85283000D03*
%TD*%
M02*
