%TF.GenerationSoftware,KiCad,Pcbnew,(5.1.7)-1*%
%TF.CreationDate,2021-01-16T21:20:15+04:00*%
%TF.ProjectId,6dof_controller,36646f66-5f63-46f6-9e74-726f6c6c6572,ver 1.0*%
%TF.SameCoordinates,Original*%
%TF.FileFunction,Legend,Bot*%
%TF.FilePolarity,Positive*%
%FSLAX46Y46*%
G04 Gerber Fmt 4.6, Leading zero omitted, Abs format (unit mm)*
G04 Created by KiCad (PCBNEW (5.1.7)-1) date 2021-01-16 21:20:15*
%MOMM*%
%LPD*%
G01*
G04 APERTURE LIST*
%ADD10C,0.150000*%
%ADD11C,0.120000*%
%ADD12C,0.010000*%
G04 APERTURE END LIST*
D10*
X199032761Y-21923809D02*
X199080380Y-22066666D01*
X199080380Y-22304761D01*
X199032761Y-22400000D01*
X198985142Y-22447619D01*
X198889904Y-22495238D01*
X198794666Y-22495238D01*
X198699428Y-22447619D01*
X198651809Y-22400000D01*
X198604190Y-22304761D01*
X198556571Y-22114285D01*
X198508952Y-22019047D01*
X198461333Y-21971428D01*
X198366095Y-21923809D01*
X198270857Y-21923809D01*
X198175619Y-21971428D01*
X198128000Y-22019047D01*
X198080380Y-22114285D01*
X198080380Y-22352380D01*
X198128000Y-22495238D01*
X199080380Y-22923809D02*
X198413714Y-22923809D01*
X198080380Y-22923809D02*
X198128000Y-22876190D01*
X198175619Y-22923809D01*
X198128000Y-22971428D01*
X198080380Y-22923809D01*
X198175619Y-22923809D01*
X198413714Y-23828571D02*
X199223238Y-23828571D01*
X199318476Y-23780952D01*
X199366095Y-23733333D01*
X199413714Y-23638095D01*
X199413714Y-23495238D01*
X199366095Y-23400000D01*
X199032761Y-23828571D02*
X199080380Y-23733333D01*
X199080380Y-23542857D01*
X199032761Y-23447619D01*
X198985142Y-23400000D01*
X198889904Y-23352380D01*
X198604190Y-23352380D01*
X198508952Y-23400000D01*
X198461333Y-23447619D01*
X198413714Y-23542857D01*
X198413714Y-23733333D01*
X198461333Y-23828571D01*
X198080380Y-24495238D02*
X198080380Y-24685714D01*
X198128000Y-24780952D01*
X198223238Y-24876190D01*
X198413714Y-24923809D01*
X198747047Y-24923809D01*
X198937523Y-24876190D01*
X199032761Y-24780952D01*
X199080380Y-24685714D01*
X199080380Y-24495238D01*
X199032761Y-24400000D01*
X198937523Y-24304761D01*
X198747047Y-24257142D01*
X198413714Y-24257142D01*
X198223238Y-24304761D01*
X198128000Y-24400000D01*
X198080380Y-24495238D01*
X198413714Y-25780952D02*
X199080380Y-25780952D01*
X198413714Y-25352380D02*
X198937523Y-25352380D01*
X199032761Y-25400000D01*
X199080380Y-25495238D01*
X199080380Y-25638095D01*
X199032761Y-25733333D01*
X198985142Y-25780952D01*
X198413714Y-26114285D02*
X198413714Y-26495238D01*
X198080380Y-26257142D02*
X198937523Y-26257142D01*
X199032761Y-26304761D01*
X199080380Y-26400000D01*
X199080380Y-26495238D01*
X198175619Y-26780952D02*
X198128000Y-26828571D01*
X198080380Y-26923809D01*
X198080380Y-27161904D01*
X198128000Y-27257142D01*
X198175619Y-27304761D01*
X198270857Y-27352380D01*
X198366095Y-27352380D01*
X198508952Y-27304761D01*
X199080380Y-26733333D01*
X199080380Y-27352380D01*
X199080380Y-27780952D02*
X198080380Y-27780952D01*
X199080380Y-28257142D02*
X198080380Y-28257142D01*
X199080380Y-28828571D01*
X198080380Y-28828571D01*
X201096571Y-24344571D02*
X201144190Y-24487428D01*
X201191809Y-24535047D01*
X201287047Y-24582666D01*
X201429904Y-24582666D01*
X201525142Y-24535047D01*
X201572761Y-24487428D01*
X201620380Y-24392190D01*
X201620380Y-24011238D01*
X200620380Y-24011238D01*
X200620380Y-24344571D01*
X200668000Y-24439809D01*
X200715619Y-24487428D01*
X200810857Y-24535047D01*
X200906095Y-24535047D01*
X201001333Y-24487428D01*
X201048952Y-24439809D01*
X201096571Y-24344571D01*
X201096571Y-24011238D01*
X200620380Y-24868380D02*
X200620380Y-25439809D01*
X201620380Y-25154095D02*
X200620380Y-25154095D01*
X201620380Y-25773142D02*
X200620380Y-25773142D01*
X201620380Y-26344571D01*
X200620380Y-26344571D01*
X201620380Y-27344571D02*
X201620380Y-26773142D01*
X201620380Y-27058857D02*
X200620380Y-27058857D01*
X200763238Y-26963619D01*
X200858476Y-26868380D01*
X200906095Y-26773142D01*
X201620380Y-27773142D02*
X200620380Y-27773142D01*
X201620380Y-28249333D02*
X200620380Y-28249333D01*
X201620380Y-28820761D01*
X200620380Y-28820761D01*
X119506952Y-36139428D02*
X118745047Y-36139428D01*
X119126000Y-36520380D02*
X119126000Y-35758476D01*
X121118380Y-29361333D02*
X121118380Y-28885142D01*
X121594571Y-28837523D01*
X121546952Y-28885142D01*
X121499333Y-28980380D01*
X121499333Y-29218476D01*
X121546952Y-29313714D01*
X121594571Y-29361333D01*
X121689809Y-29408952D01*
X121927904Y-29408952D01*
X122023142Y-29361333D01*
X122070761Y-29313714D01*
X122118380Y-29218476D01*
X122118380Y-28980380D01*
X122070761Y-28885142D01*
X122023142Y-28837523D01*
X121118380Y-29694666D02*
X122118380Y-30028000D01*
X121118380Y-30361333D01*
X121451714Y-31313714D02*
X121451714Y-31694666D01*
X122118380Y-31456571D02*
X121261238Y-31456571D01*
X121166000Y-31504190D01*
X121118380Y-31599428D01*
X121118380Y-31694666D01*
X122118380Y-32028000D02*
X121451714Y-32028000D01*
X121642190Y-32028000D02*
X121546952Y-32075619D01*
X121499333Y-32123238D01*
X121451714Y-32218476D01*
X121451714Y-32313714D01*
X122118380Y-32789904D02*
X122070761Y-32694666D01*
X122023142Y-32647047D01*
X121927904Y-32599428D01*
X121642190Y-32599428D01*
X121546952Y-32647047D01*
X121499333Y-32694666D01*
X121451714Y-32789904D01*
X121451714Y-32932761D01*
X121499333Y-33028000D01*
X121546952Y-33075619D01*
X121642190Y-33123238D01*
X121927904Y-33123238D01*
X122023142Y-33075619D01*
X122070761Y-33028000D01*
X122118380Y-32932761D01*
X122118380Y-32789904D01*
X122118380Y-33551809D02*
X121451714Y-33551809D01*
X121546952Y-33551809D02*
X121499333Y-33599428D01*
X121451714Y-33694666D01*
X121451714Y-33837523D01*
X121499333Y-33932761D01*
X121594571Y-33980380D01*
X122118380Y-33980380D01*
X121594571Y-33980380D02*
X121499333Y-34028000D01*
X121451714Y-34123238D01*
X121451714Y-34266095D01*
X121499333Y-34361333D01*
X121594571Y-34408952D01*
X122118380Y-34408952D01*
X121118380Y-35647047D02*
X121927904Y-35647047D01*
X122023142Y-35694666D01*
X122070761Y-35742285D01*
X122118380Y-35837523D01*
X122118380Y-36028000D01*
X122070761Y-36123238D01*
X122023142Y-36170857D01*
X121927904Y-36218476D01*
X121118380Y-36218476D01*
X122070761Y-36647047D02*
X122118380Y-36789904D01*
X122118380Y-37028000D01*
X122070761Y-37123238D01*
X122023142Y-37170857D01*
X121927904Y-37218476D01*
X121832666Y-37218476D01*
X121737428Y-37170857D01*
X121689809Y-37123238D01*
X121642190Y-37028000D01*
X121594571Y-36837523D01*
X121546952Y-36742285D01*
X121499333Y-36694666D01*
X121404095Y-36647047D01*
X121308857Y-36647047D01*
X121213619Y-36694666D01*
X121166000Y-36742285D01*
X121118380Y-36837523D01*
X121118380Y-37075619D01*
X121166000Y-37218476D01*
X121594571Y-37980380D02*
X121642190Y-38123238D01*
X121689809Y-38170857D01*
X121785047Y-38218476D01*
X121927904Y-38218476D01*
X122023142Y-38170857D01*
X122070761Y-38123238D01*
X122118380Y-38028000D01*
X122118380Y-37647047D01*
X121118380Y-37647047D01*
X121118380Y-37980380D01*
X121166000Y-38075619D01*
X121213619Y-38123238D01*
X121308857Y-38170857D01*
X121404095Y-38170857D01*
X121499333Y-38123238D01*
X121546952Y-38075619D01*
X121594571Y-37980380D01*
X121594571Y-37647047D01*
X217228800Y-19913695D02*
X217181180Y-19818457D01*
X217181180Y-19675600D01*
X217228800Y-19532742D01*
X217324038Y-19437504D01*
X217419276Y-19389885D01*
X217609752Y-19342266D01*
X217752609Y-19342266D01*
X217943085Y-19389885D01*
X218038323Y-19437504D01*
X218133561Y-19532742D01*
X218181180Y-19675600D01*
X218181180Y-19770838D01*
X218133561Y-19913695D01*
X218085942Y-19961314D01*
X217752609Y-19961314D01*
X217752609Y-19770838D01*
X218181180Y-20389885D02*
X217181180Y-20389885D01*
X218181180Y-20961314D01*
X217181180Y-20961314D01*
X218181180Y-21437504D02*
X217181180Y-21437504D01*
X217181180Y-21675600D01*
X217228800Y-21818457D01*
X217324038Y-21913695D01*
X217419276Y-21961314D01*
X217609752Y-22008933D01*
X217752609Y-22008933D01*
X217943085Y-21961314D01*
X218038323Y-21913695D01*
X218133561Y-21818457D01*
X218181180Y-21675600D01*
X218181180Y-21437504D01*
X200414000Y-63042895D02*
X200366380Y-62947657D01*
X200366380Y-62804800D01*
X200414000Y-62661942D01*
X200509238Y-62566704D01*
X200604476Y-62519085D01*
X200794952Y-62471466D01*
X200937809Y-62471466D01*
X201128285Y-62519085D01*
X201223523Y-62566704D01*
X201318761Y-62661942D01*
X201366380Y-62804800D01*
X201366380Y-62900038D01*
X201318761Y-63042895D01*
X201271142Y-63090514D01*
X200937809Y-63090514D01*
X200937809Y-62900038D01*
X201366380Y-63519085D02*
X200366380Y-63519085D01*
X201366380Y-64090514D01*
X200366380Y-64090514D01*
X201366380Y-64566704D02*
X200366380Y-64566704D01*
X200366380Y-64804800D01*
X200414000Y-64947657D01*
X200509238Y-65042895D01*
X200604476Y-65090514D01*
X200794952Y-65138133D01*
X200937809Y-65138133D01*
X201128285Y-65090514D01*
X201223523Y-65042895D01*
X201318761Y-64947657D01*
X201366380Y-64804800D01*
X201366380Y-64566704D01*
X203004800Y-62941295D02*
X202957180Y-62846057D01*
X202957180Y-62703200D01*
X203004800Y-62560342D01*
X203100038Y-62465104D01*
X203195276Y-62417485D01*
X203385752Y-62369866D01*
X203528609Y-62369866D01*
X203719085Y-62417485D01*
X203814323Y-62465104D01*
X203909561Y-62560342D01*
X203957180Y-62703200D01*
X203957180Y-62798438D01*
X203909561Y-62941295D01*
X203861942Y-62988914D01*
X203528609Y-62988914D01*
X203528609Y-62798438D01*
X203957180Y-63417485D02*
X202957180Y-63417485D01*
X203957180Y-63988914D01*
X202957180Y-63988914D01*
X203957180Y-64465104D02*
X202957180Y-64465104D01*
X202957180Y-64703200D01*
X203004800Y-64846057D01*
X203100038Y-64941295D01*
X203195276Y-64988914D01*
X203385752Y-65036533D01*
X203528609Y-65036533D01*
X203719085Y-64988914D01*
X203814323Y-64941295D01*
X203909561Y-64846057D01*
X203957180Y-64703200D01*
X203957180Y-64465104D01*
X207875142Y-20083542D02*
X207922761Y-20035923D01*
X207970380Y-19893066D01*
X207970380Y-19797828D01*
X207922761Y-19654971D01*
X207827523Y-19559733D01*
X207732285Y-19512114D01*
X207541809Y-19464495D01*
X207398952Y-19464495D01*
X207208476Y-19512114D01*
X207113238Y-19559733D01*
X207018000Y-19654971D01*
X206970380Y-19797828D01*
X206970380Y-19893066D01*
X207018000Y-20035923D01*
X207065619Y-20083542D01*
X207922761Y-20464495D02*
X207970380Y-20607352D01*
X207970380Y-20845447D01*
X207922761Y-20940685D01*
X207875142Y-20988304D01*
X207779904Y-21035923D01*
X207684666Y-21035923D01*
X207589428Y-20988304D01*
X207541809Y-20940685D01*
X207494190Y-20845447D01*
X207446571Y-20654971D01*
X207398952Y-20559733D01*
X207351333Y-20512114D01*
X207256095Y-20464495D01*
X207160857Y-20464495D01*
X207065619Y-20512114D01*
X207018000Y-20559733D01*
X206970380Y-20654971D01*
X206970380Y-20893066D01*
X207018000Y-21035923D01*
X206970380Y-21654971D02*
X206970380Y-21750209D01*
X207018000Y-21845447D01*
X207065619Y-21893066D01*
X207160857Y-21940685D01*
X207351333Y-21988304D01*
X207589428Y-21988304D01*
X207779904Y-21940685D01*
X207875142Y-21893066D01*
X207922761Y-21845447D01*
X207970380Y-21750209D01*
X207970380Y-21654971D01*
X207922761Y-21559733D01*
X207875142Y-21512114D01*
X207779904Y-21464495D01*
X207589428Y-21416876D01*
X207351333Y-21416876D01*
X207160857Y-21464495D01*
X207065619Y-21512114D01*
X207018000Y-21559733D01*
X206970380Y-21654971D01*
X210513561Y-19440590D02*
X210561180Y-19583447D01*
X210561180Y-19821542D01*
X210513561Y-19916780D01*
X210465942Y-19964400D01*
X210370704Y-20012019D01*
X210275466Y-20012019D01*
X210180228Y-19964400D01*
X210132609Y-19916780D01*
X210084990Y-19821542D01*
X210037371Y-19631066D01*
X209989752Y-19535828D01*
X209942133Y-19488209D01*
X209846895Y-19440590D01*
X209751657Y-19440590D01*
X209656419Y-19488209D01*
X209608800Y-19535828D01*
X209561180Y-19631066D01*
X209561180Y-19869161D01*
X209608800Y-20012019D01*
X210561180Y-20440590D02*
X209561180Y-20440590D01*
X213053561Y-19459676D02*
X213101180Y-19602533D01*
X213101180Y-19840628D01*
X213053561Y-19935866D01*
X213005942Y-19983485D01*
X212910704Y-20031104D01*
X212815466Y-20031104D01*
X212720228Y-19983485D01*
X212672609Y-19935866D01*
X212624990Y-19840628D01*
X212577371Y-19650152D01*
X212529752Y-19554914D01*
X212482133Y-19507295D01*
X212386895Y-19459676D01*
X212291657Y-19459676D01*
X212196419Y-19507295D01*
X212148800Y-19554914D01*
X212101180Y-19650152D01*
X212101180Y-19888247D01*
X212148800Y-20031104D01*
X212101180Y-20650152D02*
X212101180Y-20840628D01*
X212148800Y-20935866D01*
X212244038Y-21031104D01*
X212434514Y-21078723D01*
X212767847Y-21078723D01*
X212958323Y-21031104D01*
X213053561Y-20935866D01*
X213101180Y-20840628D01*
X213101180Y-20650152D01*
X213053561Y-20554914D01*
X212958323Y-20459676D01*
X212767847Y-20412057D01*
X212434514Y-20412057D01*
X212244038Y-20459676D01*
X212148800Y-20554914D01*
X212101180Y-20650152D01*
X215644361Y-19491485D02*
X215691980Y-19634342D01*
X215691980Y-19872438D01*
X215644361Y-19967676D01*
X215596742Y-20015295D01*
X215501504Y-20062914D01*
X215406266Y-20062914D01*
X215311028Y-20015295D01*
X215263409Y-19967676D01*
X215215790Y-19872438D01*
X215168171Y-19681961D01*
X215120552Y-19586723D01*
X215072933Y-19539104D01*
X214977695Y-19491485D01*
X214882457Y-19491485D01*
X214787219Y-19539104D01*
X214739600Y-19586723D01*
X214691980Y-19681961D01*
X214691980Y-19920057D01*
X214739600Y-20062914D01*
X215596742Y-21062914D02*
X215644361Y-21015295D01*
X215691980Y-20872438D01*
X215691980Y-20777200D01*
X215644361Y-20634342D01*
X215549123Y-20539104D01*
X215453885Y-20491485D01*
X215263409Y-20443866D01*
X215120552Y-20443866D01*
X214930076Y-20491485D01*
X214834838Y-20539104D01*
X214739600Y-20634342D01*
X214691980Y-20777200D01*
X214691980Y-20872438D01*
X214739600Y-21015295D01*
X214787219Y-21062914D01*
X215691980Y-21491485D02*
X214691980Y-21491485D01*
X215691980Y-22062914D02*
X215120552Y-21634342D01*
X214691980Y-22062914D02*
X215263409Y-21491485D01*
X205547980Y-63919123D02*
X205547980Y-63442933D01*
X206024171Y-63395314D01*
X205976552Y-63442933D01*
X205928933Y-63538171D01*
X205928933Y-63776266D01*
X205976552Y-63871504D01*
X206024171Y-63919123D01*
X206119409Y-63966742D01*
X206357504Y-63966742D01*
X206452742Y-63919123D01*
X206500361Y-63871504D01*
X206547980Y-63776266D01*
X206547980Y-63538171D01*
X206500361Y-63442933D01*
X206452742Y-63395314D01*
X205547980Y-64252457D02*
X206547980Y-64585790D01*
X205547980Y-64919123D01*
X146552895Y-93162380D02*
X146552895Y-92162380D01*
X146314800Y-92162380D01*
X146171942Y-92210000D01*
X146076704Y-92305238D01*
X146029085Y-92400476D01*
X145981466Y-92590952D01*
X145981466Y-92733809D01*
X146029085Y-92924285D01*
X146076704Y-93019523D01*
X146171942Y-93114761D01*
X146314800Y-93162380D01*
X146552895Y-93162380D01*
X144981466Y-93162380D02*
X145314800Y-92686190D01*
X145552895Y-93162380D02*
X145552895Y-92162380D01*
X145171942Y-92162380D01*
X145076704Y-92210000D01*
X145029085Y-92257619D01*
X144981466Y-92352857D01*
X144981466Y-92495714D01*
X145029085Y-92590952D01*
X145076704Y-92638571D01*
X145171942Y-92686190D01*
X145552895Y-92686190D01*
X144552895Y-93162380D02*
X144552895Y-92162380D01*
X144219561Y-92162380D02*
X143886228Y-93162380D01*
X143552895Y-92162380D01*
X143219561Y-92638571D02*
X142886228Y-92638571D01*
X142743371Y-93162380D02*
X143219561Y-93162380D01*
X143219561Y-92162380D01*
X142743371Y-92162380D01*
X141124323Y-92162380D02*
X141314800Y-92162380D01*
X141410038Y-92210000D01*
X141457657Y-92257619D01*
X141552895Y-92400476D01*
X141600514Y-92590952D01*
X141600514Y-92971904D01*
X141552895Y-93067142D01*
X141505276Y-93114761D01*
X141410038Y-93162380D01*
X141219561Y-93162380D01*
X141124323Y-93114761D01*
X141076704Y-93067142D01*
X141029085Y-92971904D01*
X141029085Y-92733809D01*
X141076704Y-92638571D01*
X141124323Y-92590952D01*
X141219561Y-92543333D01*
X141410038Y-92543333D01*
X141505276Y-92590952D01*
X141552895Y-92638571D01*
X141600514Y-92733809D01*
X162859695Y-93111580D02*
X162859695Y-92111580D01*
X162621600Y-92111580D01*
X162478742Y-92159200D01*
X162383504Y-92254438D01*
X162335885Y-92349676D01*
X162288266Y-92540152D01*
X162288266Y-92683009D01*
X162335885Y-92873485D01*
X162383504Y-92968723D01*
X162478742Y-93063961D01*
X162621600Y-93111580D01*
X162859695Y-93111580D01*
X161288266Y-93111580D02*
X161621600Y-92635390D01*
X161859695Y-93111580D02*
X161859695Y-92111580D01*
X161478742Y-92111580D01*
X161383504Y-92159200D01*
X161335885Y-92206819D01*
X161288266Y-92302057D01*
X161288266Y-92444914D01*
X161335885Y-92540152D01*
X161383504Y-92587771D01*
X161478742Y-92635390D01*
X161859695Y-92635390D01*
X160859695Y-93111580D02*
X160859695Y-92111580D01*
X160526361Y-92111580D02*
X160193028Y-93111580D01*
X159859695Y-92111580D01*
X159526361Y-92587771D02*
X159193028Y-92587771D01*
X159050171Y-93111580D02*
X159526361Y-93111580D01*
X159526361Y-92111580D01*
X159050171Y-92111580D01*
X157383504Y-92111580D02*
X157859695Y-92111580D01*
X157907314Y-92587771D01*
X157859695Y-92540152D01*
X157764457Y-92492533D01*
X157526361Y-92492533D01*
X157431123Y-92540152D01*
X157383504Y-92587771D01*
X157335885Y-92683009D01*
X157335885Y-92921104D01*
X157383504Y-93016342D01*
X157431123Y-93063961D01*
X157526361Y-93111580D01*
X157764457Y-93111580D01*
X157859695Y-93063961D01*
X157907314Y-93016342D01*
X179623695Y-93060780D02*
X179623695Y-92060780D01*
X179385600Y-92060780D01*
X179242742Y-92108400D01*
X179147504Y-92203638D01*
X179099885Y-92298876D01*
X179052266Y-92489352D01*
X179052266Y-92632209D01*
X179099885Y-92822685D01*
X179147504Y-92917923D01*
X179242742Y-93013161D01*
X179385600Y-93060780D01*
X179623695Y-93060780D01*
X178052266Y-93060780D02*
X178385600Y-92584590D01*
X178623695Y-93060780D02*
X178623695Y-92060780D01*
X178242742Y-92060780D01*
X178147504Y-92108400D01*
X178099885Y-92156019D01*
X178052266Y-92251257D01*
X178052266Y-92394114D01*
X178099885Y-92489352D01*
X178147504Y-92536971D01*
X178242742Y-92584590D01*
X178623695Y-92584590D01*
X177623695Y-93060780D02*
X177623695Y-92060780D01*
X177290361Y-92060780D02*
X176957028Y-93060780D01*
X176623695Y-92060780D01*
X176290361Y-92536971D02*
X175957028Y-92536971D01*
X175814171Y-93060780D02*
X176290361Y-93060780D01*
X176290361Y-92060780D01*
X175814171Y-92060780D01*
X174195123Y-92394114D02*
X174195123Y-93060780D01*
X174433219Y-92013161D02*
X174671314Y-92727447D01*
X174052266Y-92727447D01*
X196133695Y-93060780D02*
X196133695Y-92060780D01*
X195895600Y-92060780D01*
X195752742Y-92108400D01*
X195657504Y-92203638D01*
X195609885Y-92298876D01*
X195562266Y-92489352D01*
X195562266Y-92632209D01*
X195609885Y-92822685D01*
X195657504Y-92917923D01*
X195752742Y-93013161D01*
X195895600Y-93060780D01*
X196133695Y-93060780D01*
X194562266Y-93060780D02*
X194895600Y-92584590D01*
X195133695Y-93060780D02*
X195133695Y-92060780D01*
X194752742Y-92060780D01*
X194657504Y-92108400D01*
X194609885Y-92156019D01*
X194562266Y-92251257D01*
X194562266Y-92394114D01*
X194609885Y-92489352D01*
X194657504Y-92536971D01*
X194752742Y-92584590D01*
X195133695Y-92584590D01*
X194133695Y-93060780D02*
X194133695Y-92060780D01*
X193800361Y-92060780D02*
X193467028Y-93060780D01*
X193133695Y-92060780D01*
X192800361Y-92536971D02*
X192467028Y-92536971D01*
X192324171Y-93060780D02*
X192800361Y-93060780D01*
X192800361Y-92060780D01*
X192324171Y-92060780D01*
X191228933Y-92060780D02*
X190609885Y-92060780D01*
X190943219Y-92441733D01*
X190800361Y-92441733D01*
X190705123Y-92489352D01*
X190657504Y-92536971D01*
X190609885Y-92632209D01*
X190609885Y-92870304D01*
X190657504Y-92965542D01*
X190705123Y-93013161D01*
X190800361Y-93060780D01*
X191086076Y-93060780D01*
X191181314Y-93013161D01*
X191228933Y-92965542D01*
X212491295Y-92908380D02*
X212491295Y-91908380D01*
X212253200Y-91908380D01*
X212110342Y-91956000D01*
X212015104Y-92051238D01*
X211967485Y-92146476D01*
X211919866Y-92336952D01*
X211919866Y-92479809D01*
X211967485Y-92670285D01*
X212015104Y-92765523D01*
X212110342Y-92860761D01*
X212253200Y-92908380D01*
X212491295Y-92908380D01*
X210919866Y-92908380D02*
X211253200Y-92432190D01*
X211491295Y-92908380D02*
X211491295Y-91908380D01*
X211110342Y-91908380D01*
X211015104Y-91956000D01*
X210967485Y-92003619D01*
X210919866Y-92098857D01*
X210919866Y-92241714D01*
X210967485Y-92336952D01*
X211015104Y-92384571D01*
X211110342Y-92432190D01*
X211491295Y-92432190D01*
X210491295Y-92908380D02*
X210491295Y-91908380D01*
X210157961Y-91908380D02*
X209824628Y-92908380D01*
X209491295Y-91908380D01*
X209157961Y-92384571D02*
X208824628Y-92384571D01*
X208681771Y-92908380D02*
X209157961Y-92908380D01*
X209157961Y-91908380D01*
X208681771Y-91908380D01*
X207538914Y-92003619D02*
X207491295Y-91956000D01*
X207396057Y-91908380D01*
X207157961Y-91908380D01*
X207062723Y-91956000D01*
X207015104Y-92003619D01*
X206967485Y-92098857D01*
X206967485Y-92194095D01*
X207015104Y-92336952D01*
X207586533Y-92908380D01*
X206967485Y-92908380D01*
X229255295Y-92806780D02*
X229255295Y-91806780D01*
X229017200Y-91806780D01*
X228874342Y-91854400D01*
X228779104Y-91949638D01*
X228731485Y-92044876D01*
X228683866Y-92235352D01*
X228683866Y-92378209D01*
X228731485Y-92568685D01*
X228779104Y-92663923D01*
X228874342Y-92759161D01*
X229017200Y-92806780D01*
X229255295Y-92806780D01*
X227683866Y-92806780D02*
X228017200Y-92330590D01*
X228255295Y-92806780D02*
X228255295Y-91806780D01*
X227874342Y-91806780D01*
X227779104Y-91854400D01*
X227731485Y-91902019D01*
X227683866Y-91997257D01*
X227683866Y-92140114D01*
X227731485Y-92235352D01*
X227779104Y-92282971D01*
X227874342Y-92330590D01*
X228255295Y-92330590D01*
X227255295Y-92806780D02*
X227255295Y-91806780D01*
X226921961Y-91806780D02*
X226588628Y-92806780D01*
X226255295Y-91806780D01*
X225921961Y-92282971D02*
X225588628Y-92282971D01*
X225445771Y-92806780D02*
X225921961Y-92806780D01*
X225921961Y-91806780D01*
X225445771Y-91806780D01*
X223731485Y-92806780D02*
X224302914Y-92806780D01*
X224017200Y-92806780D02*
X224017200Y-91806780D01*
X224112438Y-91949638D01*
X224207676Y-92044876D01*
X224302914Y-92092495D01*
X152719066Y-28600780D02*
X152719066Y-29076971D01*
X153004780Y-28505542D02*
X152004780Y-28838876D01*
X153004780Y-29172209D01*
X153004780Y-29505542D02*
X152004780Y-29505542D01*
X152004780Y-29743638D01*
X152052400Y-29886495D01*
X152147638Y-29981733D01*
X152242876Y-30029352D01*
X152433352Y-30076971D01*
X152576209Y-30076971D01*
X152766685Y-30029352D01*
X152861923Y-29981733D01*
X152957161Y-29886495D01*
X153004780Y-29743638D01*
X153004780Y-29505542D01*
X153004780Y-31076971D02*
X152528590Y-30743638D01*
X153004780Y-30505542D02*
X152004780Y-30505542D01*
X152004780Y-30886495D01*
X152052400Y-30981733D01*
X152100019Y-31029352D01*
X152195257Y-31076971D01*
X152338114Y-31076971D01*
X152433352Y-31029352D01*
X152480971Y-30981733D01*
X152528590Y-30886495D01*
X152528590Y-30505542D01*
X152004780Y-32457923D02*
X152004780Y-32553161D01*
X152052400Y-32648400D01*
X152100019Y-32696019D01*
X152195257Y-32743638D01*
X152385733Y-32791257D01*
X152623828Y-32791257D01*
X152814304Y-32743638D01*
X152909542Y-32696019D01*
X152957161Y-32648400D01*
X153004780Y-32553161D01*
X153004780Y-32457923D01*
X152957161Y-32362685D01*
X152909542Y-32315066D01*
X152814304Y-32267447D01*
X152623828Y-32219828D01*
X152385733Y-32219828D01*
X152195257Y-32267447D01*
X152100019Y-32315066D01*
X152052400Y-32362685D01*
X152004780Y-32457923D01*
X152004780Y-33410304D02*
X152004780Y-33505542D01*
X152052400Y-33600780D01*
X152100019Y-33648400D01*
X152195257Y-33696019D01*
X152385733Y-33743638D01*
X152623828Y-33743638D01*
X152814304Y-33696019D01*
X152909542Y-33648400D01*
X152957161Y-33600780D01*
X153004780Y-33505542D01*
X153004780Y-33410304D01*
X152957161Y-33315066D01*
X152909542Y-33267447D01*
X152814304Y-33219828D01*
X152623828Y-33172209D01*
X152385733Y-33172209D01*
X152195257Y-33219828D01*
X152100019Y-33267447D01*
X152052400Y-33315066D01*
X152004780Y-33410304D01*
X152004780Y-34362685D02*
X152004780Y-34457923D01*
X152052400Y-34553161D01*
X152100019Y-34600780D01*
X152195257Y-34648400D01*
X152385733Y-34696019D01*
X152623828Y-34696019D01*
X152814304Y-34648400D01*
X152909542Y-34600780D01*
X152957161Y-34553161D01*
X153004780Y-34457923D01*
X153004780Y-34362685D01*
X152957161Y-34267447D01*
X152909542Y-34219828D01*
X152814304Y-34172209D01*
X152623828Y-34124590D01*
X152385733Y-34124590D01*
X152195257Y-34172209D01*
X152100019Y-34219828D01*
X152052400Y-34267447D01*
X152004780Y-34362685D01*
X165963504Y-38412800D02*
X166058742Y-38365180D01*
X166201600Y-38365180D01*
X166344457Y-38412800D01*
X166439695Y-38508038D01*
X166487314Y-38603276D01*
X166534933Y-38793752D01*
X166534933Y-38936609D01*
X166487314Y-39127085D01*
X166439695Y-39222323D01*
X166344457Y-39317561D01*
X166201600Y-39365180D01*
X166106361Y-39365180D01*
X165963504Y-39317561D01*
X165915885Y-39269942D01*
X165915885Y-38936609D01*
X166106361Y-38936609D01*
X165487314Y-39365180D02*
X165487314Y-38365180D01*
X164915885Y-39365180D01*
X164915885Y-38365180D01*
X164439695Y-39365180D02*
X164439695Y-38365180D01*
X164201600Y-38365180D01*
X164058742Y-38412800D01*
X163963504Y-38508038D01*
X163915885Y-38603276D01*
X163868266Y-38793752D01*
X163868266Y-38936609D01*
X163915885Y-39127085D01*
X163963504Y-39222323D01*
X164058742Y-39317561D01*
X164201600Y-39365180D01*
X164439695Y-39365180D01*
X243117428Y-108640571D02*
X242974571Y-108688190D01*
X242926952Y-108735809D01*
X242879333Y-108831047D01*
X242879333Y-108973904D01*
X242926952Y-109069142D01*
X242974571Y-109116761D01*
X243069809Y-109164380D01*
X243450761Y-109164380D01*
X243450761Y-108164380D01*
X243117428Y-108164380D01*
X243022190Y-108212000D01*
X242974571Y-108259619D01*
X242926952Y-108354857D01*
X242926952Y-108450095D01*
X242974571Y-108545333D01*
X243022190Y-108592952D01*
X243117428Y-108640571D01*
X243450761Y-108640571D01*
X242593619Y-108164380D02*
X242022190Y-108164380D01*
X242307904Y-109164380D02*
X242307904Y-108164380D01*
X241688857Y-109164380D02*
X241688857Y-108164380D01*
X241117428Y-109164380D01*
X241117428Y-108164380D01*
X240117428Y-109164380D02*
X240688857Y-109164380D01*
X240403142Y-109164380D02*
X240403142Y-108164380D01*
X240498380Y-108307238D01*
X240593619Y-108402476D01*
X240688857Y-108450095D01*
X239688857Y-109164380D02*
X239688857Y-108164380D01*
X239212666Y-109164380D02*
X239212666Y-108164380D01*
X238641238Y-109164380D01*
X238641238Y-108164380D01*
X153241142Y-52319180D02*
X153241142Y-51319180D01*
X153003047Y-51319180D01*
X152860190Y-51366800D01*
X152764952Y-51462038D01*
X152717333Y-51557276D01*
X152669714Y-51747752D01*
X152669714Y-51890609D01*
X152717333Y-52081085D01*
X152764952Y-52176323D01*
X152860190Y-52271561D01*
X153003047Y-52319180D01*
X153241142Y-52319180D01*
X152241142Y-52319180D02*
X152241142Y-51652514D01*
X152241142Y-51319180D02*
X152288761Y-51366800D01*
X152241142Y-51414419D01*
X152193523Y-51366800D01*
X152241142Y-51319180D01*
X152241142Y-51414419D01*
X151764952Y-52319180D02*
X151764952Y-51652514D01*
X151764952Y-51842990D02*
X151717333Y-51747752D01*
X151669714Y-51700133D01*
X151574476Y-51652514D01*
X151479238Y-51652514D01*
X151145904Y-52319180D02*
X151145904Y-51319180D01*
X150812571Y-52033466D01*
X150479238Y-51319180D01*
X150479238Y-52319180D01*
X149574476Y-51319180D02*
X149764952Y-51319180D01*
X149860190Y-51366800D01*
X149907809Y-51414419D01*
X150003047Y-51557276D01*
X150050666Y-51747752D01*
X150050666Y-52128704D01*
X150003047Y-52223942D01*
X149955428Y-52271561D01*
X149860190Y-52319180D01*
X149669714Y-52319180D01*
X149574476Y-52271561D01*
X149526857Y-52223942D01*
X149479238Y-52128704D01*
X149479238Y-51890609D01*
X149526857Y-51795371D01*
X149574476Y-51747752D01*
X149669714Y-51700133D01*
X149860190Y-51700133D01*
X149955428Y-51747752D01*
X150003047Y-51795371D01*
X150050666Y-51890609D01*
X153241142Y-49880780D02*
X153241142Y-48880780D01*
X153003047Y-48880780D01*
X152860190Y-48928400D01*
X152764952Y-49023638D01*
X152717333Y-49118876D01*
X152669714Y-49309352D01*
X152669714Y-49452209D01*
X152717333Y-49642685D01*
X152764952Y-49737923D01*
X152860190Y-49833161D01*
X153003047Y-49880780D01*
X153241142Y-49880780D01*
X152241142Y-49880780D02*
X152241142Y-49214114D01*
X152241142Y-48880780D02*
X152288761Y-48928400D01*
X152241142Y-48976019D01*
X152193523Y-48928400D01*
X152241142Y-48880780D01*
X152241142Y-48976019D01*
X151764952Y-49880780D02*
X151764952Y-49214114D01*
X151764952Y-49404590D02*
X151717333Y-49309352D01*
X151669714Y-49261733D01*
X151574476Y-49214114D01*
X151479238Y-49214114D01*
X151145904Y-49880780D02*
X151145904Y-48880780D01*
X150812571Y-49595066D01*
X150479238Y-48880780D01*
X150479238Y-49880780D01*
X149526857Y-48880780D02*
X150003047Y-48880780D01*
X150050666Y-49356971D01*
X150003047Y-49309352D01*
X149907809Y-49261733D01*
X149669714Y-49261733D01*
X149574476Y-49309352D01*
X149526857Y-49356971D01*
X149479238Y-49452209D01*
X149479238Y-49690304D01*
X149526857Y-49785542D01*
X149574476Y-49833161D01*
X149669714Y-49880780D01*
X149907809Y-49880780D01*
X150003047Y-49833161D01*
X150050666Y-49785542D01*
X153241142Y-47391580D02*
X153241142Y-46391580D01*
X153003047Y-46391580D01*
X152860190Y-46439200D01*
X152764952Y-46534438D01*
X152717333Y-46629676D01*
X152669714Y-46820152D01*
X152669714Y-46963009D01*
X152717333Y-47153485D01*
X152764952Y-47248723D01*
X152860190Y-47343961D01*
X153003047Y-47391580D01*
X153241142Y-47391580D01*
X152241142Y-47391580D02*
X152241142Y-46724914D01*
X152241142Y-46391580D02*
X152288761Y-46439200D01*
X152241142Y-46486819D01*
X152193523Y-46439200D01*
X152241142Y-46391580D01*
X152241142Y-46486819D01*
X151764952Y-47391580D02*
X151764952Y-46724914D01*
X151764952Y-46915390D02*
X151717333Y-46820152D01*
X151669714Y-46772533D01*
X151574476Y-46724914D01*
X151479238Y-46724914D01*
X151145904Y-47391580D02*
X151145904Y-46391580D01*
X150812571Y-47105866D01*
X150479238Y-46391580D01*
X150479238Y-47391580D01*
X149574476Y-46724914D02*
X149574476Y-47391580D01*
X149812571Y-46343961D02*
X150050666Y-47058247D01*
X149431619Y-47058247D01*
X153139542Y-44699180D02*
X153139542Y-43699180D01*
X152901447Y-43699180D01*
X152758590Y-43746800D01*
X152663352Y-43842038D01*
X152615733Y-43937276D01*
X152568114Y-44127752D01*
X152568114Y-44270609D01*
X152615733Y-44461085D01*
X152663352Y-44556323D01*
X152758590Y-44651561D01*
X152901447Y-44699180D01*
X153139542Y-44699180D01*
X152139542Y-44699180D02*
X152139542Y-44032514D01*
X152139542Y-43699180D02*
X152187161Y-43746800D01*
X152139542Y-43794419D01*
X152091923Y-43746800D01*
X152139542Y-43699180D01*
X152139542Y-43794419D01*
X151663352Y-44699180D02*
X151663352Y-44032514D01*
X151663352Y-44222990D02*
X151615733Y-44127752D01*
X151568114Y-44080133D01*
X151472876Y-44032514D01*
X151377638Y-44032514D01*
X151044304Y-44699180D02*
X151044304Y-43699180D01*
X150710971Y-44413466D01*
X150377638Y-43699180D01*
X150377638Y-44699180D01*
X149996685Y-43699180D02*
X149377638Y-43699180D01*
X149710971Y-44080133D01*
X149568114Y-44080133D01*
X149472876Y-44127752D01*
X149425257Y-44175371D01*
X149377638Y-44270609D01*
X149377638Y-44508704D01*
X149425257Y-44603942D01*
X149472876Y-44651561D01*
X149568114Y-44699180D01*
X149853828Y-44699180D01*
X149949066Y-44651561D01*
X149996685Y-44603942D01*
X152641276Y-36129980D02*
X153117466Y-36129980D01*
X153165085Y-36606171D01*
X153117466Y-36558552D01*
X153022228Y-36510933D01*
X152784133Y-36510933D01*
X152688895Y-36558552D01*
X152641276Y-36606171D01*
X152593657Y-36701409D01*
X152593657Y-36939504D01*
X152641276Y-37034742D01*
X152688895Y-37082361D01*
X152784133Y-37129980D01*
X153022228Y-37129980D01*
X153117466Y-37082361D01*
X153165085Y-37034742D01*
X152307942Y-36129980D02*
X151974609Y-37129980D01*
X151641276Y-36129980D01*
X168870000Y-62482361D02*
X168727142Y-62529980D01*
X168489047Y-62529980D01*
X168393809Y-62482361D01*
X168346190Y-62434742D01*
X168298571Y-62339504D01*
X168298571Y-62244266D01*
X168346190Y-62149028D01*
X168393809Y-62101409D01*
X168489047Y-62053790D01*
X168679523Y-62006171D01*
X168774761Y-61958552D01*
X168822380Y-61910933D01*
X168870000Y-61815695D01*
X168870000Y-61720457D01*
X168822380Y-61625219D01*
X168774761Y-61577600D01*
X168679523Y-61529980D01*
X168441428Y-61529980D01*
X168298571Y-61577600D01*
X168012857Y-61863314D02*
X167631904Y-61863314D01*
X167870000Y-61529980D02*
X167870000Y-62387123D01*
X167822380Y-62482361D01*
X167727142Y-62529980D01*
X167631904Y-62529980D01*
X166917619Y-62482361D02*
X167012857Y-62529980D01*
X167203333Y-62529980D01*
X167298571Y-62482361D01*
X167346190Y-62387123D01*
X167346190Y-62006171D01*
X167298571Y-61910933D01*
X167203333Y-61863314D01*
X167012857Y-61863314D01*
X166917619Y-61910933D01*
X166870000Y-62006171D01*
X166870000Y-62101409D01*
X167346190Y-62196647D01*
X166441428Y-61863314D02*
X166441428Y-62863314D01*
X166441428Y-61910933D02*
X166346190Y-61863314D01*
X166155714Y-61863314D01*
X166060476Y-61910933D01*
X166012857Y-61958552D01*
X165965238Y-62053790D01*
X165965238Y-62339504D01*
X166012857Y-62434742D01*
X166060476Y-62482361D01*
X166155714Y-62529980D01*
X166346190Y-62529980D01*
X166441428Y-62482361D01*
X165536666Y-62529980D02*
X165536666Y-61529980D01*
X165203333Y-62244266D01*
X164870000Y-61529980D01*
X164870000Y-62529980D01*
X163870000Y-62529980D02*
X164441428Y-62529980D01*
X164155714Y-62529980D02*
X164155714Y-61529980D01*
X164250952Y-61672838D01*
X164346190Y-61768076D01*
X164441428Y-61815695D01*
X168819200Y-59942361D02*
X168676342Y-59989980D01*
X168438247Y-59989980D01*
X168343009Y-59942361D01*
X168295390Y-59894742D01*
X168247771Y-59799504D01*
X168247771Y-59704266D01*
X168295390Y-59609028D01*
X168343009Y-59561409D01*
X168438247Y-59513790D01*
X168628723Y-59466171D01*
X168723961Y-59418552D01*
X168771580Y-59370933D01*
X168819200Y-59275695D01*
X168819200Y-59180457D01*
X168771580Y-59085219D01*
X168723961Y-59037600D01*
X168628723Y-58989980D01*
X168390628Y-58989980D01*
X168247771Y-59037600D01*
X167962057Y-59323314D02*
X167581104Y-59323314D01*
X167819200Y-58989980D02*
X167819200Y-59847123D01*
X167771580Y-59942361D01*
X167676342Y-59989980D01*
X167581104Y-59989980D01*
X166866819Y-59942361D02*
X166962057Y-59989980D01*
X167152533Y-59989980D01*
X167247771Y-59942361D01*
X167295390Y-59847123D01*
X167295390Y-59466171D01*
X167247771Y-59370933D01*
X167152533Y-59323314D01*
X166962057Y-59323314D01*
X166866819Y-59370933D01*
X166819200Y-59466171D01*
X166819200Y-59561409D01*
X167295390Y-59656647D01*
X166390628Y-59323314D02*
X166390628Y-60323314D01*
X166390628Y-59370933D02*
X166295390Y-59323314D01*
X166104914Y-59323314D01*
X166009676Y-59370933D01*
X165962057Y-59418552D01*
X165914438Y-59513790D01*
X165914438Y-59799504D01*
X165962057Y-59894742D01*
X166009676Y-59942361D01*
X166104914Y-59989980D01*
X166295390Y-59989980D01*
X166390628Y-59942361D01*
X165485866Y-59989980D02*
X165485866Y-58989980D01*
X165152533Y-59704266D01*
X164819200Y-58989980D01*
X164819200Y-59989980D01*
X164390628Y-59085219D02*
X164343009Y-59037600D01*
X164247771Y-58989980D01*
X164009676Y-58989980D01*
X163914438Y-59037600D01*
X163866819Y-59085219D01*
X163819200Y-59180457D01*
X163819200Y-59275695D01*
X163866819Y-59418552D01*
X164438247Y-59989980D01*
X163819200Y-59989980D01*
X168819200Y-57402361D02*
X168676342Y-57449980D01*
X168438247Y-57449980D01*
X168343009Y-57402361D01*
X168295390Y-57354742D01*
X168247771Y-57259504D01*
X168247771Y-57164266D01*
X168295390Y-57069028D01*
X168343009Y-57021409D01*
X168438247Y-56973790D01*
X168628723Y-56926171D01*
X168723961Y-56878552D01*
X168771580Y-56830933D01*
X168819200Y-56735695D01*
X168819200Y-56640457D01*
X168771580Y-56545219D01*
X168723961Y-56497600D01*
X168628723Y-56449980D01*
X168390628Y-56449980D01*
X168247771Y-56497600D01*
X167962057Y-56783314D02*
X167581104Y-56783314D01*
X167819200Y-56449980D02*
X167819200Y-57307123D01*
X167771580Y-57402361D01*
X167676342Y-57449980D01*
X167581104Y-57449980D01*
X166866819Y-57402361D02*
X166962057Y-57449980D01*
X167152533Y-57449980D01*
X167247771Y-57402361D01*
X167295390Y-57307123D01*
X167295390Y-56926171D01*
X167247771Y-56830933D01*
X167152533Y-56783314D01*
X166962057Y-56783314D01*
X166866819Y-56830933D01*
X166819200Y-56926171D01*
X166819200Y-57021409D01*
X167295390Y-57116647D01*
X166390628Y-56783314D02*
X166390628Y-57783314D01*
X166390628Y-56830933D02*
X166295390Y-56783314D01*
X166104914Y-56783314D01*
X166009676Y-56830933D01*
X165962057Y-56878552D01*
X165914438Y-56973790D01*
X165914438Y-57259504D01*
X165962057Y-57354742D01*
X166009676Y-57402361D01*
X166104914Y-57449980D01*
X166295390Y-57449980D01*
X166390628Y-57402361D01*
X165485866Y-57449980D02*
X165485866Y-56449980D01*
X165152533Y-57164266D01*
X164819200Y-56449980D01*
X164819200Y-57449980D01*
X164438247Y-56449980D02*
X163819200Y-56449980D01*
X164152533Y-56830933D01*
X164009676Y-56830933D01*
X163914438Y-56878552D01*
X163866819Y-56926171D01*
X163819200Y-57021409D01*
X163819200Y-57259504D01*
X163866819Y-57354742D01*
X163914438Y-57402361D01*
X164009676Y-57449980D01*
X164295390Y-57449980D01*
X164390628Y-57402361D01*
X164438247Y-57354742D01*
X168717600Y-54709961D02*
X168574742Y-54757580D01*
X168336647Y-54757580D01*
X168241409Y-54709961D01*
X168193790Y-54662342D01*
X168146171Y-54567104D01*
X168146171Y-54471866D01*
X168193790Y-54376628D01*
X168241409Y-54329009D01*
X168336647Y-54281390D01*
X168527123Y-54233771D01*
X168622361Y-54186152D01*
X168669980Y-54138533D01*
X168717600Y-54043295D01*
X168717600Y-53948057D01*
X168669980Y-53852819D01*
X168622361Y-53805200D01*
X168527123Y-53757580D01*
X168289028Y-53757580D01*
X168146171Y-53805200D01*
X167860457Y-54090914D02*
X167479504Y-54090914D01*
X167717600Y-53757580D02*
X167717600Y-54614723D01*
X167669980Y-54709961D01*
X167574742Y-54757580D01*
X167479504Y-54757580D01*
X166765219Y-54709961D02*
X166860457Y-54757580D01*
X167050933Y-54757580D01*
X167146171Y-54709961D01*
X167193790Y-54614723D01*
X167193790Y-54233771D01*
X167146171Y-54138533D01*
X167050933Y-54090914D01*
X166860457Y-54090914D01*
X166765219Y-54138533D01*
X166717600Y-54233771D01*
X166717600Y-54329009D01*
X167193790Y-54424247D01*
X166289028Y-54090914D02*
X166289028Y-55090914D01*
X166289028Y-54138533D02*
X166193790Y-54090914D01*
X166003314Y-54090914D01*
X165908076Y-54138533D01*
X165860457Y-54186152D01*
X165812838Y-54281390D01*
X165812838Y-54567104D01*
X165860457Y-54662342D01*
X165908076Y-54709961D01*
X166003314Y-54757580D01*
X166193790Y-54757580D01*
X166289028Y-54709961D01*
X165384266Y-54757580D02*
X165384266Y-53757580D01*
X165050933Y-54471866D01*
X164717600Y-53757580D01*
X164717600Y-54757580D01*
X163812838Y-54090914D02*
X163812838Y-54757580D01*
X164050933Y-53709961D02*
X164289028Y-54424247D01*
X163669980Y-54424247D01*
X168717600Y-52220761D02*
X168574742Y-52268380D01*
X168336647Y-52268380D01*
X168241409Y-52220761D01*
X168193790Y-52173142D01*
X168146171Y-52077904D01*
X168146171Y-51982666D01*
X168193790Y-51887428D01*
X168241409Y-51839809D01*
X168336647Y-51792190D01*
X168527123Y-51744571D01*
X168622361Y-51696952D01*
X168669980Y-51649333D01*
X168717600Y-51554095D01*
X168717600Y-51458857D01*
X168669980Y-51363619D01*
X168622361Y-51316000D01*
X168527123Y-51268380D01*
X168289028Y-51268380D01*
X168146171Y-51316000D01*
X167860457Y-51601714D02*
X167479504Y-51601714D01*
X167717600Y-51268380D02*
X167717600Y-52125523D01*
X167669980Y-52220761D01*
X167574742Y-52268380D01*
X167479504Y-52268380D01*
X166765219Y-52220761D02*
X166860457Y-52268380D01*
X167050933Y-52268380D01*
X167146171Y-52220761D01*
X167193790Y-52125523D01*
X167193790Y-51744571D01*
X167146171Y-51649333D01*
X167050933Y-51601714D01*
X166860457Y-51601714D01*
X166765219Y-51649333D01*
X166717600Y-51744571D01*
X166717600Y-51839809D01*
X167193790Y-51935047D01*
X166289028Y-51601714D02*
X166289028Y-52601714D01*
X166289028Y-51649333D02*
X166193790Y-51601714D01*
X166003314Y-51601714D01*
X165908076Y-51649333D01*
X165860457Y-51696952D01*
X165812838Y-51792190D01*
X165812838Y-52077904D01*
X165860457Y-52173142D01*
X165908076Y-52220761D01*
X166003314Y-52268380D01*
X166193790Y-52268380D01*
X166289028Y-52220761D01*
X165384266Y-52268380D02*
X165384266Y-51268380D01*
X165050933Y-51982666D01*
X164717600Y-51268380D01*
X164717600Y-52268380D01*
X163765219Y-51268380D02*
X164241409Y-51268380D01*
X164289028Y-51744571D01*
X164241409Y-51696952D01*
X164146171Y-51649333D01*
X163908076Y-51649333D01*
X163812838Y-51696952D01*
X163765219Y-51744571D01*
X163717600Y-51839809D01*
X163717600Y-52077904D01*
X163765219Y-52173142D01*
X163812838Y-52220761D01*
X163908076Y-52268380D01*
X164146171Y-52268380D01*
X164241409Y-52220761D01*
X164289028Y-52173142D01*
X168768400Y-49883961D02*
X168625542Y-49931580D01*
X168387447Y-49931580D01*
X168292209Y-49883961D01*
X168244590Y-49836342D01*
X168196971Y-49741104D01*
X168196971Y-49645866D01*
X168244590Y-49550628D01*
X168292209Y-49503009D01*
X168387447Y-49455390D01*
X168577923Y-49407771D01*
X168673161Y-49360152D01*
X168720780Y-49312533D01*
X168768400Y-49217295D01*
X168768400Y-49122057D01*
X168720780Y-49026819D01*
X168673161Y-48979200D01*
X168577923Y-48931580D01*
X168339828Y-48931580D01*
X168196971Y-48979200D01*
X167911257Y-49264914D02*
X167530304Y-49264914D01*
X167768400Y-48931580D02*
X167768400Y-49788723D01*
X167720780Y-49883961D01*
X167625542Y-49931580D01*
X167530304Y-49931580D01*
X166816019Y-49883961D02*
X166911257Y-49931580D01*
X167101733Y-49931580D01*
X167196971Y-49883961D01*
X167244590Y-49788723D01*
X167244590Y-49407771D01*
X167196971Y-49312533D01*
X167101733Y-49264914D01*
X166911257Y-49264914D01*
X166816019Y-49312533D01*
X166768400Y-49407771D01*
X166768400Y-49503009D01*
X167244590Y-49598247D01*
X166339828Y-49264914D02*
X166339828Y-50264914D01*
X166339828Y-49312533D02*
X166244590Y-49264914D01*
X166054114Y-49264914D01*
X165958876Y-49312533D01*
X165911257Y-49360152D01*
X165863638Y-49455390D01*
X165863638Y-49741104D01*
X165911257Y-49836342D01*
X165958876Y-49883961D01*
X166054114Y-49931580D01*
X166244590Y-49931580D01*
X166339828Y-49883961D01*
X165435066Y-49931580D02*
X165435066Y-48931580D01*
X165101733Y-49645866D01*
X164768400Y-48931580D01*
X164768400Y-49931580D01*
X163863638Y-48931580D02*
X164054114Y-48931580D01*
X164149352Y-48979200D01*
X164196971Y-49026819D01*
X164292209Y-49169676D01*
X164339828Y-49360152D01*
X164339828Y-49741104D01*
X164292209Y-49836342D01*
X164244590Y-49883961D01*
X164149352Y-49931580D01*
X163958876Y-49931580D01*
X163863638Y-49883961D01*
X163816019Y-49836342D01*
X163768400Y-49741104D01*
X163768400Y-49503009D01*
X163816019Y-49407771D01*
X163863638Y-49360152D01*
X163958876Y-49312533D01*
X164149352Y-49312533D01*
X164244590Y-49360152D01*
X164292209Y-49407771D01*
X164339828Y-49503009D01*
X167617542Y-47137580D02*
X167617542Y-46137580D01*
X167379447Y-46137580D01*
X167236590Y-46185200D01*
X167141352Y-46280438D01*
X167093733Y-46375676D01*
X167046114Y-46566152D01*
X167046114Y-46709009D01*
X167093733Y-46899485D01*
X167141352Y-46994723D01*
X167236590Y-47089961D01*
X167379447Y-47137580D01*
X167617542Y-47137580D01*
X166617542Y-47137580D02*
X166617542Y-46470914D01*
X166617542Y-46137580D02*
X166665161Y-46185200D01*
X166617542Y-46232819D01*
X166569923Y-46185200D01*
X166617542Y-46137580D01*
X166617542Y-46232819D01*
X166141352Y-47137580D02*
X166141352Y-46470914D01*
X166141352Y-46661390D02*
X166093733Y-46566152D01*
X166046114Y-46518533D01*
X165950876Y-46470914D01*
X165855638Y-46470914D01*
X165522304Y-47137580D02*
X165522304Y-46137580D01*
X165188971Y-46851866D01*
X164855638Y-46137580D01*
X164855638Y-47137580D01*
X163855638Y-47137580D02*
X164427066Y-47137580D01*
X164141352Y-47137580D02*
X164141352Y-46137580D01*
X164236590Y-46280438D01*
X164331828Y-46375676D01*
X164427066Y-46423295D01*
X167617542Y-44699180D02*
X167617542Y-43699180D01*
X167379447Y-43699180D01*
X167236590Y-43746800D01*
X167141352Y-43842038D01*
X167093733Y-43937276D01*
X167046114Y-44127752D01*
X167046114Y-44270609D01*
X167093733Y-44461085D01*
X167141352Y-44556323D01*
X167236590Y-44651561D01*
X167379447Y-44699180D01*
X167617542Y-44699180D01*
X166617542Y-44699180D02*
X166617542Y-44032514D01*
X166617542Y-43699180D02*
X166665161Y-43746800D01*
X166617542Y-43794419D01*
X166569923Y-43746800D01*
X166617542Y-43699180D01*
X166617542Y-43794419D01*
X166141352Y-44699180D02*
X166141352Y-44032514D01*
X166141352Y-44222990D02*
X166093733Y-44127752D01*
X166046114Y-44080133D01*
X165950876Y-44032514D01*
X165855638Y-44032514D01*
X165522304Y-44699180D02*
X165522304Y-43699180D01*
X165188971Y-44413466D01*
X164855638Y-43699180D01*
X164855638Y-44699180D01*
X164427066Y-43794419D02*
X164379447Y-43746800D01*
X164284209Y-43699180D01*
X164046114Y-43699180D01*
X163950876Y-43746800D01*
X163903257Y-43794419D01*
X163855638Y-43889657D01*
X163855638Y-43984895D01*
X163903257Y-44127752D01*
X164474685Y-44699180D01*
X163855638Y-44699180D01*
X164833276Y-41159180D02*
X165309466Y-41159180D01*
X165357085Y-41635371D01*
X165309466Y-41587752D01*
X165214228Y-41540133D01*
X164976133Y-41540133D01*
X164880895Y-41587752D01*
X164833276Y-41635371D01*
X164785657Y-41730609D01*
X164785657Y-41968704D01*
X164833276Y-42063942D01*
X164880895Y-42111561D01*
X164976133Y-42159180D01*
X165214228Y-42159180D01*
X165309466Y-42111561D01*
X165357085Y-42063942D01*
X164499942Y-41159180D02*
X164166609Y-42159180D01*
X163833276Y-41159180D01*
X165793657Y-37034742D02*
X165841276Y-37082361D01*
X165984133Y-37129980D01*
X166079371Y-37129980D01*
X166222228Y-37082361D01*
X166317466Y-36987123D01*
X166365085Y-36891885D01*
X166412704Y-36701409D01*
X166412704Y-36558552D01*
X166365085Y-36368076D01*
X166317466Y-36272838D01*
X166222228Y-36177600D01*
X166079371Y-36129980D01*
X165984133Y-36129980D01*
X165841276Y-36177600D01*
X165793657Y-36225219D01*
X165412704Y-37082361D02*
X165269847Y-37129980D01*
X165031752Y-37129980D01*
X164936514Y-37082361D01*
X164888895Y-37034742D01*
X164841276Y-36939504D01*
X164841276Y-36844266D01*
X164888895Y-36749028D01*
X164936514Y-36701409D01*
X165031752Y-36653790D01*
X165222228Y-36606171D01*
X165317466Y-36558552D01*
X165365085Y-36510933D01*
X165412704Y-36415695D01*
X165412704Y-36320457D01*
X165365085Y-36225219D01*
X165317466Y-36177600D01*
X165222228Y-36129980D01*
X164984133Y-36129980D01*
X164841276Y-36177600D01*
X164222228Y-36129980D02*
X164126990Y-36129980D01*
X164031752Y-36177600D01*
X163984133Y-36225219D01*
X163936514Y-36320457D01*
X163888895Y-36510933D01*
X163888895Y-36749028D01*
X163936514Y-36939504D01*
X163984133Y-37034742D01*
X164031752Y-37082361D01*
X164126990Y-37129980D01*
X164222228Y-37129980D01*
X164317466Y-37082361D01*
X164365085Y-37034742D01*
X164412704Y-36939504D01*
X164460323Y-36749028D01*
X164460323Y-36510933D01*
X164412704Y-36320457D01*
X164365085Y-36225219D01*
X164317466Y-36177600D01*
X164222228Y-36129980D01*
X166436514Y-34593161D02*
X166293657Y-34640780D01*
X166055561Y-34640780D01*
X165960323Y-34593161D01*
X165912704Y-34545542D01*
X165865085Y-34450304D01*
X165865085Y-34355066D01*
X165912704Y-34259828D01*
X165960323Y-34212209D01*
X166055561Y-34164590D01*
X166246038Y-34116971D01*
X166341276Y-34069352D01*
X166388895Y-34021733D01*
X166436514Y-33926495D01*
X166436514Y-33831257D01*
X166388895Y-33736019D01*
X166341276Y-33688400D01*
X166246038Y-33640780D01*
X166007942Y-33640780D01*
X165865085Y-33688400D01*
X164865085Y-34545542D02*
X164912704Y-34593161D01*
X165055561Y-34640780D01*
X165150800Y-34640780D01*
X165293657Y-34593161D01*
X165388895Y-34497923D01*
X165436514Y-34402685D01*
X165484133Y-34212209D01*
X165484133Y-34069352D01*
X165436514Y-33878876D01*
X165388895Y-33783638D01*
X165293657Y-33688400D01*
X165150800Y-33640780D01*
X165055561Y-33640780D01*
X164912704Y-33688400D01*
X164865085Y-33736019D01*
X164436514Y-34640780D02*
X164436514Y-33640780D01*
X163865085Y-34640780D02*
X164293657Y-34069352D01*
X163865085Y-33640780D02*
X164436514Y-34212209D01*
X164912609Y-31951561D02*
X164769752Y-31999180D01*
X164531657Y-31999180D01*
X164436419Y-31951561D01*
X164388800Y-31903942D01*
X164341180Y-31808704D01*
X164341180Y-31713466D01*
X164388800Y-31618228D01*
X164436419Y-31570609D01*
X164531657Y-31522990D01*
X164722133Y-31475371D01*
X164817371Y-31427752D01*
X164864990Y-31380133D01*
X164912609Y-31284895D01*
X164912609Y-31189657D01*
X164864990Y-31094419D01*
X164817371Y-31046800D01*
X164722133Y-30999180D01*
X164484038Y-30999180D01*
X164341180Y-31046800D01*
X163912609Y-31999180D02*
X163912609Y-30999180D01*
X165350723Y-29411561D02*
X165207866Y-29459180D01*
X164969771Y-29459180D01*
X164874533Y-29411561D01*
X164826914Y-29363942D01*
X164779295Y-29268704D01*
X164779295Y-29173466D01*
X164826914Y-29078228D01*
X164874533Y-29030609D01*
X164969771Y-28982990D01*
X165160247Y-28935371D01*
X165255485Y-28887752D01*
X165303104Y-28840133D01*
X165350723Y-28744895D01*
X165350723Y-28649657D01*
X165303104Y-28554419D01*
X165255485Y-28506800D01*
X165160247Y-28459180D01*
X164922152Y-28459180D01*
X164779295Y-28506800D01*
X164160247Y-28459180D02*
X163969771Y-28459180D01*
X163874533Y-28506800D01*
X163779295Y-28602038D01*
X163731676Y-28792514D01*
X163731676Y-29125847D01*
X163779295Y-29316323D01*
X163874533Y-29411561D01*
X163969771Y-29459180D01*
X164160247Y-29459180D01*
X164255485Y-29411561D01*
X164350723Y-29316323D01*
X164398342Y-29125847D01*
X164398342Y-28792514D01*
X164350723Y-28602038D01*
X164255485Y-28506800D01*
X164160247Y-28459180D01*
X231198800Y-27025695D02*
X231151180Y-26930457D01*
X231151180Y-26787600D01*
X231198800Y-26644742D01*
X231294038Y-26549504D01*
X231389276Y-26501885D01*
X231579752Y-26454266D01*
X231722609Y-26454266D01*
X231913085Y-26501885D01*
X232008323Y-26549504D01*
X232103561Y-26644742D01*
X232151180Y-26787600D01*
X232151180Y-26882838D01*
X232103561Y-27025695D01*
X232055942Y-27073314D01*
X231722609Y-27073314D01*
X231722609Y-26882838D01*
X232151180Y-27501885D02*
X231151180Y-27501885D01*
X232151180Y-28073314D01*
X231151180Y-28073314D01*
X232151180Y-28549504D02*
X231151180Y-28549504D01*
X231151180Y-28787600D01*
X231198800Y-28930457D01*
X231294038Y-29025695D01*
X231389276Y-29073314D01*
X231579752Y-29120933D01*
X231722609Y-29120933D01*
X231913085Y-29073314D01*
X232008323Y-29025695D01*
X232103561Y-28930457D01*
X232151180Y-28787600D01*
X232151180Y-28549504D01*
X231198800Y-52679695D02*
X231151180Y-52584457D01*
X231151180Y-52441600D01*
X231198800Y-52298742D01*
X231294038Y-52203504D01*
X231389276Y-52155885D01*
X231579752Y-52108266D01*
X231722609Y-52108266D01*
X231913085Y-52155885D01*
X232008323Y-52203504D01*
X232103561Y-52298742D01*
X232151180Y-52441600D01*
X232151180Y-52536838D01*
X232103561Y-52679695D01*
X232055942Y-52727314D01*
X231722609Y-52727314D01*
X231722609Y-52536838D01*
X232151180Y-53155885D02*
X231151180Y-53155885D01*
X232151180Y-53727314D01*
X231151180Y-53727314D01*
X232151180Y-54203504D02*
X231151180Y-54203504D01*
X231151180Y-54441600D01*
X231198800Y-54584457D01*
X231294038Y-54679695D01*
X231389276Y-54727314D01*
X231579752Y-54774933D01*
X231722609Y-54774933D01*
X231913085Y-54727314D01*
X232008323Y-54679695D01*
X232103561Y-54584457D01*
X232151180Y-54441600D01*
X232151180Y-54203504D01*
X209291180Y-50738304D02*
X209243561Y-50643066D01*
X209148323Y-50595447D01*
X208291180Y-50595447D01*
X209243561Y-51547828D02*
X209291180Y-51452590D01*
X209291180Y-51262114D01*
X209243561Y-51166876D01*
X209195942Y-51119257D01*
X209100704Y-51071638D01*
X208814990Y-51071638D01*
X208719752Y-51119257D01*
X208672133Y-51166876D01*
X208624514Y-51262114D01*
X208624514Y-51452590D01*
X208672133Y-51547828D01*
X209291180Y-52404971D02*
X208291180Y-52404971D01*
X209243561Y-52404971D02*
X209291180Y-52309733D01*
X209291180Y-52119257D01*
X209243561Y-52024019D01*
X209195942Y-51976400D01*
X209100704Y-51928780D01*
X208814990Y-51928780D01*
X208719752Y-51976400D01*
X208672133Y-52024019D01*
X208624514Y-52119257D01*
X208624514Y-52309733D01*
X208672133Y-52404971D01*
X209291180Y-52881161D02*
X208291180Y-52881161D01*
X208291180Y-53119257D01*
X208338800Y-53262114D01*
X208434038Y-53357352D01*
X208529276Y-53404971D01*
X208719752Y-53452590D01*
X208862609Y-53452590D01*
X209053085Y-53404971D01*
X209148323Y-53357352D01*
X209243561Y-53262114D01*
X209291180Y-53119257D01*
X209291180Y-52881161D01*
X208624514Y-54309733D02*
X209291180Y-54309733D01*
X208243561Y-54071638D02*
X208957847Y-53833542D01*
X208957847Y-54452590D01*
X233792780Y-53708323D02*
X233792780Y-53232133D01*
X234268971Y-53184514D01*
X234221352Y-53232133D01*
X234173733Y-53327371D01*
X234173733Y-53565466D01*
X234221352Y-53660704D01*
X234268971Y-53708323D01*
X234364209Y-53755942D01*
X234602304Y-53755942D01*
X234697542Y-53708323D01*
X234745161Y-53660704D01*
X234792780Y-53565466D01*
X234792780Y-53327371D01*
X234745161Y-53232133D01*
X234697542Y-53184514D01*
X233792780Y-54041657D02*
X234792780Y-54374990D01*
X233792780Y-54708323D01*
X224483561Y-51901885D02*
X224531180Y-52044742D01*
X224531180Y-52282838D01*
X224483561Y-52378076D01*
X224435942Y-52425695D01*
X224340704Y-52473314D01*
X224245466Y-52473314D01*
X224150228Y-52425695D01*
X224102609Y-52378076D01*
X224054990Y-52282838D01*
X224007371Y-52092361D01*
X223959752Y-51997123D01*
X223912133Y-51949504D01*
X223816895Y-51901885D01*
X223721657Y-51901885D01*
X223626419Y-51949504D01*
X223578800Y-51997123D01*
X223531180Y-52092361D01*
X223531180Y-52330457D01*
X223578800Y-52473314D01*
X224435942Y-53473314D02*
X224483561Y-53425695D01*
X224531180Y-53282838D01*
X224531180Y-53187600D01*
X224483561Y-53044742D01*
X224388323Y-52949504D01*
X224293085Y-52901885D01*
X224102609Y-52854266D01*
X223959752Y-52854266D01*
X223769276Y-52901885D01*
X223674038Y-52949504D01*
X223578800Y-53044742D01*
X223531180Y-53187600D01*
X223531180Y-53282838D01*
X223578800Y-53425695D01*
X223626419Y-53473314D01*
X224531180Y-53901885D02*
X223531180Y-53901885D01*
X224531180Y-54473314D02*
X223959752Y-54044742D01*
X223531180Y-54473314D02*
X224102609Y-53901885D01*
X226921961Y-52784476D02*
X226969580Y-52927333D01*
X226969580Y-53165428D01*
X226921961Y-53260666D01*
X226874342Y-53308285D01*
X226779104Y-53355904D01*
X226683866Y-53355904D01*
X226588628Y-53308285D01*
X226541009Y-53260666D01*
X226493390Y-53165428D01*
X226445771Y-52974952D01*
X226398152Y-52879714D01*
X226350533Y-52832095D01*
X226255295Y-52784476D01*
X226160057Y-52784476D01*
X226064819Y-52832095D01*
X226017200Y-52879714D01*
X225969580Y-52974952D01*
X225969580Y-53213047D01*
X226017200Y-53355904D01*
X225969580Y-53974952D02*
X225969580Y-54165428D01*
X226017200Y-54260666D01*
X226112438Y-54355904D01*
X226302914Y-54403523D01*
X226636247Y-54403523D01*
X226826723Y-54355904D01*
X226921961Y-54260666D01*
X226969580Y-54165428D01*
X226969580Y-53974952D01*
X226921961Y-53879714D01*
X226826723Y-53784476D01*
X226636247Y-53736857D01*
X226302914Y-53736857D01*
X226112438Y-53784476D01*
X226017200Y-53879714D01*
X225969580Y-53974952D01*
X229563561Y-53324190D02*
X229611180Y-53467047D01*
X229611180Y-53705142D01*
X229563561Y-53800380D01*
X229515942Y-53848000D01*
X229420704Y-53895619D01*
X229325466Y-53895619D01*
X229230228Y-53848000D01*
X229182609Y-53800380D01*
X229134990Y-53705142D01*
X229087371Y-53514666D01*
X229039752Y-53419428D01*
X228992133Y-53371809D01*
X228896895Y-53324190D01*
X228801657Y-53324190D01*
X228706419Y-53371809D01*
X228658800Y-53419428D01*
X228611180Y-53514666D01*
X228611180Y-53752761D01*
X228658800Y-53895619D01*
X229611180Y-54324190D02*
X228611180Y-54324190D01*
X221845142Y-27195542D02*
X221892761Y-27147923D01*
X221940380Y-27005066D01*
X221940380Y-26909828D01*
X221892761Y-26766971D01*
X221797523Y-26671733D01*
X221702285Y-26624114D01*
X221511809Y-26576495D01*
X221368952Y-26576495D01*
X221178476Y-26624114D01*
X221083238Y-26671733D01*
X220988000Y-26766971D01*
X220940380Y-26909828D01*
X220940380Y-27005066D01*
X220988000Y-27147923D01*
X221035619Y-27195542D01*
X221892761Y-27576495D02*
X221940380Y-27719352D01*
X221940380Y-27957447D01*
X221892761Y-28052685D01*
X221845142Y-28100304D01*
X221749904Y-28147923D01*
X221654666Y-28147923D01*
X221559428Y-28100304D01*
X221511809Y-28052685D01*
X221464190Y-27957447D01*
X221416571Y-27766971D01*
X221368952Y-27671733D01*
X221321333Y-27624114D01*
X221226095Y-27576495D01*
X221130857Y-27576495D01*
X221035619Y-27624114D01*
X220988000Y-27671733D01*
X220940380Y-27766971D01*
X220940380Y-28005066D01*
X220988000Y-28147923D01*
X221940380Y-29100304D02*
X221940380Y-28528876D01*
X221940380Y-28814590D02*
X220940380Y-28814590D01*
X221083238Y-28719352D01*
X221178476Y-28624114D01*
X221226095Y-28528876D01*
X229414342Y-27144742D02*
X229461961Y-27097123D01*
X229509580Y-26954266D01*
X229509580Y-26859028D01*
X229461961Y-26716171D01*
X229366723Y-26620933D01*
X229271485Y-26573314D01*
X229081009Y-26525695D01*
X228938152Y-26525695D01*
X228747676Y-26573314D01*
X228652438Y-26620933D01*
X228557200Y-26716171D01*
X228509580Y-26859028D01*
X228509580Y-26954266D01*
X228557200Y-27097123D01*
X228604819Y-27144742D01*
X229461961Y-27525695D02*
X229509580Y-27668552D01*
X229509580Y-27906647D01*
X229461961Y-28001885D01*
X229414342Y-28049504D01*
X229319104Y-28097123D01*
X229223866Y-28097123D01*
X229128628Y-28049504D01*
X229081009Y-28001885D01*
X229033390Y-27906647D01*
X228985771Y-27716171D01*
X228938152Y-27620933D01*
X228890533Y-27573314D01*
X228795295Y-27525695D01*
X228700057Y-27525695D01*
X228604819Y-27573314D01*
X228557200Y-27620933D01*
X228509580Y-27716171D01*
X228509580Y-27954266D01*
X228557200Y-28097123D01*
X228509580Y-28716171D02*
X228509580Y-28811409D01*
X228557200Y-28906647D01*
X228604819Y-28954266D01*
X228700057Y-29001885D01*
X228890533Y-29049504D01*
X229128628Y-29049504D01*
X229319104Y-29001885D01*
X229414342Y-28954266D01*
X229461961Y-28906647D01*
X229509580Y-28811409D01*
X229509580Y-28716171D01*
X229461961Y-28620933D01*
X229414342Y-28573314D01*
X229319104Y-28525695D01*
X229128628Y-28478076D01*
X228890533Y-28478076D01*
X228700057Y-28525695D01*
X228604819Y-28573314D01*
X228557200Y-28620933D01*
X228509580Y-28716171D01*
D11*
X235762800Y-103378000D02*
X235762800Y-105257600D01*
X235813600Y-101244400D02*
X233629200Y-103428800D01*
X235813600Y-100279200D02*
X235813600Y-101244400D01*
D10*
X232903542Y-134224780D02*
X232570209Y-135224780D01*
X232236876Y-134224780D01*
X231903542Y-135224780D02*
X231903542Y-134558114D01*
X231903542Y-134748590D02*
X231855923Y-134653352D01*
X231808304Y-134605733D01*
X231713066Y-134558114D01*
X231617828Y-134558114D01*
X230903542Y-135177161D02*
X230998780Y-135224780D01*
X231189257Y-135224780D01*
X231284495Y-135177161D01*
X231332114Y-135081923D01*
X231332114Y-134700971D01*
X231284495Y-134605733D01*
X231189257Y-134558114D01*
X230998780Y-134558114D01*
X230903542Y-134605733D01*
X230855923Y-134700971D01*
X230855923Y-134796209D01*
X231332114Y-134891447D01*
X230570209Y-134558114D02*
X230189257Y-134558114D01*
X230427352Y-135224780D02*
X230427352Y-134367638D01*
X230379733Y-134272400D01*
X230284495Y-134224780D01*
X230189257Y-134224780D01*
X235581485Y-132738761D02*
X235438628Y-132786380D01*
X235200533Y-132786380D01*
X235105295Y-132738761D01*
X235057676Y-132691142D01*
X235010057Y-132595904D01*
X235010057Y-132500666D01*
X235057676Y-132405428D01*
X235105295Y-132357809D01*
X235200533Y-132310190D01*
X235391009Y-132262571D01*
X235486247Y-132214952D01*
X235533866Y-132167333D01*
X235581485Y-132072095D01*
X235581485Y-131976857D01*
X235533866Y-131881619D01*
X235486247Y-131834000D01*
X235391009Y-131786380D01*
X235152914Y-131786380D01*
X235010057Y-131834000D01*
X234581485Y-132786380D02*
X234581485Y-132119714D01*
X234581485Y-131786380D02*
X234629104Y-131834000D01*
X234581485Y-131881619D01*
X234533866Y-131834000D01*
X234581485Y-131786380D01*
X234581485Y-131881619D01*
X233676723Y-132119714D02*
X233676723Y-132929238D01*
X233724342Y-133024476D01*
X233771961Y-133072095D01*
X233867200Y-133119714D01*
X234010057Y-133119714D01*
X234105295Y-133072095D01*
X233676723Y-132738761D02*
X233771961Y-132786380D01*
X233962438Y-132786380D01*
X234057676Y-132738761D01*
X234105295Y-132691142D01*
X234152914Y-132595904D01*
X234152914Y-132310190D01*
X234105295Y-132214952D01*
X234057676Y-132167333D01*
X233962438Y-132119714D01*
X233771961Y-132119714D01*
X233676723Y-132167333D01*
X233010057Y-131786380D02*
X232819580Y-131786380D01*
X232724342Y-131834000D01*
X232629104Y-131929238D01*
X232581485Y-132119714D01*
X232581485Y-132453047D01*
X232629104Y-132643523D01*
X232724342Y-132738761D01*
X232819580Y-132786380D01*
X233010057Y-132786380D01*
X233105295Y-132738761D01*
X233200533Y-132643523D01*
X233248152Y-132453047D01*
X233248152Y-132119714D01*
X233200533Y-131929238D01*
X233105295Y-131834000D01*
X233010057Y-131786380D01*
X231724342Y-132119714D02*
X231724342Y-132786380D01*
X232152914Y-132119714D02*
X232152914Y-132643523D01*
X232105295Y-132738761D01*
X232010057Y-132786380D01*
X231867200Y-132786380D01*
X231771961Y-132738761D01*
X231724342Y-132691142D01*
X231391009Y-132119714D02*
X231010057Y-132119714D01*
X231248152Y-131786380D02*
X231248152Y-132643523D01*
X231200533Y-132738761D01*
X231105295Y-132786380D01*
X231010057Y-132786380D01*
X230248152Y-132119714D02*
X230248152Y-132786380D01*
X230486247Y-131738761D02*
X230724342Y-132453047D01*
X230105295Y-132453047D01*
X235530685Y-130198761D02*
X235387828Y-130246380D01*
X235149733Y-130246380D01*
X235054495Y-130198761D01*
X235006876Y-130151142D01*
X234959257Y-130055904D01*
X234959257Y-129960666D01*
X235006876Y-129865428D01*
X235054495Y-129817809D01*
X235149733Y-129770190D01*
X235340209Y-129722571D01*
X235435447Y-129674952D01*
X235483066Y-129627333D01*
X235530685Y-129532095D01*
X235530685Y-129436857D01*
X235483066Y-129341619D01*
X235435447Y-129294000D01*
X235340209Y-129246380D01*
X235102114Y-129246380D01*
X234959257Y-129294000D01*
X234530685Y-130246380D02*
X234530685Y-129579714D01*
X234530685Y-129246380D02*
X234578304Y-129294000D01*
X234530685Y-129341619D01*
X234483066Y-129294000D01*
X234530685Y-129246380D01*
X234530685Y-129341619D01*
X233625923Y-129579714D02*
X233625923Y-130389238D01*
X233673542Y-130484476D01*
X233721161Y-130532095D01*
X233816400Y-130579714D01*
X233959257Y-130579714D01*
X234054495Y-130532095D01*
X233625923Y-130198761D02*
X233721161Y-130246380D01*
X233911638Y-130246380D01*
X234006876Y-130198761D01*
X234054495Y-130151142D01*
X234102114Y-130055904D01*
X234102114Y-129770190D01*
X234054495Y-129674952D01*
X234006876Y-129627333D01*
X233911638Y-129579714D01*
X233721161Y-129579714D01*
X233625923Y-129627333D01*
X232959257Y-129246380D02*
X232768780Y-129246380D01*
X232673542Y-129294000D01*
X232578304Y-129389238D01*
X232530685Y-129579714D01*
X232530685Y-129913047D01*
X232578304Y-130103523D01*
X232673542Y-130198761D01*
X232768780Y-130246380D01*
X232959257Y-130246380D01*
X233054495Y-130198761D01*
X233149733Y-130103523D01*
X233197352Y-129913047D01*
X233197352Y-129579714D01*
X233149733Y-129389238D01*
X233054495Y-129294000D01*
X232959257Y-129246380D01*
X231673542Y-129579714D02*
X231673542Y-130246380D01*
X232102114Y-129579714D02*
X232102114Y-130103523D01*
X232054495Y-130198761D01*
X231959257Y-130246380D01*
X231816400Y-130246380D01*
X231721161Y-130198761D01*
X231673542Y-130151142D01*
X231340209Y-129579714D02*
X230959257Y-129579714D01*
X231197352Y-129246380D02*
X231197352Y-130103523D01*
X231149733Y-130198761D01*
X231054495Y-130246380D01*
X230959257Y-130246380D01*
X230673542Y-129341619D02*
X230625923Y-129294000D01*
X230530685Y-129246380D01*
X230292590Y-129246380D01*
X230197352Y-129294000D01*
X230149733Y-129341619D01*
X230102114Y-129436857D01*
X230102114Y-129532095D01*
X230149733Y-129674952D01*
X230721161Y-130246380D01*
X230102114Y-130246380D01*
X231457428Y-126757180D02*
X231266952Y-126757180D01*
X231171714Y-126804800D01*
X231076476Y-126900038D01*
X231028857Y-127090514D01*
X231028857Y-127423847D01*
X231076476Y-127614323D01*
X231171714Y-127709561D01*
X231266952Y-127757180D01*
X231457428Y-127757180D01*
X231552666Y-127709561D01*
X231647904Y-127614323D01*
X231695523Y-127423847D01*
X231695523Y-127090514D01*
X231647904Y-126900038D01*
X231552666Y-126804800D01*
X231457428Y-126757180D01*
X230695523Y-126757180D02*
X230028857Y-126757180D01*
X230695523Y-127757180D01*
X230028857Y-127757180D01*
X234451257Y-125220361D02*
X234308400Y-125267980D01*
X234070304Y-125267980D01*
X233975066Y-125220361D01*
X233927447Y-125172742D01*
X233879828Y-125077504D01*
X233879828Y-124982266D01*
X233927447Y-124887028D01*
X233975066Y-124839409D01*
X234070304Y-124791790D01*
X234260780Y-124744171D01*
X234356019Y-124696552D01*
X234403638Y-124648933D01*
X234451257Y-124553695D01*
X234451257Y-124458457D01*
X234403638Y-124363219D01*
X234356019Y-124315600D01*
X234260780Y-124267980D01*
X234022685Y-124267980D01*
X233879828Y-124315600D01*
X233451257Y-125267980D02*
X233451257Y-124601314D01*
X233451257Y-124267980D02*
X233498876Y-124315600D01*
X233451257Y-124363219D01*
X233403638Y-124315600D01*
X233451257Y-124267980D01*
X233451257Y-124363219D01*
X232546495Y-124601314D02*
X232546495Y-125410838D01*
X232594114Y-125506076D01*
X232641733Y-125553695D01*
X232736971Y-125601314D01*
X232879828Y-125601314D01*
X232975066Y-125553695D01*
X232546495Y-125220361D02*
X232641733Y-125267980D01*
X232832209Y-125267980D01*
X232927447Y-125220361D01*
X232975066Y-125172742D01*
X233022685Y-125077504D01*
X233022685Y-124791790D01*
X232975066Y-124696552D01*
X232927447Y-124648933D01*
X232832209Y-124601314D01*
X232641733Y-124601314D01*
X232546495Y-124648933D01*
X232070304Y-125267980D02*
X232070304Y-124267980D01*
X231594114Y-124601314D02*
X231594114Y-125267980D01*
X231594114Y-124696552D02*
X231546495Y-124648933D01*
X231451257Y-124601314D01*
X231308400Y-124601314D01*
X231213161Y-124648933D01*
X231165542Y-124744171D01*
X231165542Y-125267980D01*
X230784590Y-124267980D02*
X230165542Y-124267980D01*
X230498876Y-124648933D01*
X230356019Y-124648933D01*
X230260780Y-124696552D01*
X230213161Y-124744171D01*
X230165542Y-124839409D01*
X230165542Y-125077504D01*
X230213161Y-125172742D01*
X230260780Y-125220361D01*
X230356019Y-125267980D01*
X230641733Y-125267980D01*
X230736971Y-125220361D01*
X230784590Y-125172742D01*
X232703523Y-122575580D02*
X232703523Y-121575580D01*
X232322571Y-121575580D01*
X232227333Y-121623200D01*
X232179714Y-121670819D01*
X232132095Y-121766057D01*
X232132095Y-121908914D01*
X232179714Y-122004152D01*
X232227333Y-122051771D01*
X232322571Y-122099390D01*
X232703523Y-122099390D01*
X231751142Y-122289866D02*
X231274952Y-122289866D01*
X231846380Y-122575580D02*
X231513047Y-121575580D01*
X231179714Y-122575580D01*
X230846380Y-122194628D02*
X230084476Y-122194628D01*
X230465428Y-122575580D02*
X230465428Y-121813676D01*
X232601923Y-120035580D02*
X232601923Y-119035580D01*
X232220971Y-119035580D01*
X232125733Y-119083200D01*
X232078114Y-119130819D01*
X232030495Y-119226057D01*
X232030495Y-119368914D01*
X232078114Y-119464152D01*
X232125733Y-119511771D01*
X232220971Y-119559390D01*
X232601923Y-119559390D01*
X231649542Y-119749866D02*
X231173352Y-119749866D01*
X231744780Y-120035580D02*
X231411447Y-119035580D01*
X231078114Y-120035580D01*
X230744780Y-119654628D02*
X229982876Y-119654628D01*
X232825752Y-117444780D02*
X232825752Y-116444780D01*
X232444800Y-116444780D01*
X232349561Y-116492400D01*
X232301942Y-116540019D01*
X232254323Y-116635257D01*
X232254323Y-116778114D01*
X232301942Y-116873352D01*
X232349561Y-116920971D01*
X232444800Y-116968590D01*
X232825752Y-116968590D01*
X231492419Y-116920971D02*
X231349561Y-116968590D01*
X231301942Y-117016209D01*
X231254323Y-117111447D01*
X231254323Y-117254304D01*
X231301942Y-117349542D01*
X231349561Y-117397161D01*
X231444800Y-117444780D01*
X231825752Y-117444780D01*
X231825752Y-116444780D01*
X231492419Y-116444780D01*
X231397180Y-116492400D01*
X231349561Y-116540019D01*
X231301942Y-116635257D01*
X231301942Y-116730495D01*
X231349561Y-116825733D01*
X231397180Y-116873352D01*
X231492419Y-116920971D01*
X231825752Y-116920971D01*
X230825752Y-117063828D02*
X230063847Y-117063828D01*
X230444800Y-117444780D02*
X230444800Y-116682876D01*
X232724152Y-114955580D02*
X232724152Y-113955580D01*
X232343200Y-113955580D01*
X232247961Y-114003200D01*
X232200342Y-114050819D01*
X232152723Y-114146057D01*
X232152723Y-114288914D01*
X232200342Y-114384152D01*
X232247961Y-114431771D01*
X232343200Y-114479390D01*
X232724152Y-114479390D01*
X231390819Y-114431771D02*
X231247961Y-114479390D01*
X231200342Y-114527009D01*
X231152723Y-114622247D01*
X231152723Y-114765104D01*
X231200342Y-114860342D01*
X231247961Y-114907961D01*
X231343200Y-114955580D01*
X231724152Y-114955580D01*
X231724152Y-113955580D01*
X231390819Y-113955580D01*
X231295580Y-114003200D01*
X231247961Y-114050819D01*
X231200342Y-114146057D01*
X231200342Y-114241295D01*
X231247961Y-114336533D01*
X231295580Y-114384152D01*
X231390819Y-114431771D01*
X231724152Y-114431771D01*
X230724152Y-114574628D02*
X229962247Y-114574628D01*
X232700342Y-112567980D02*
X232700342Y-111567980D01*
X232319390Y-111567980D01*
X232224152Y-111615600D01*
X232176533Y-111663219D01*
X232128914Y-111758457D01*
X232128914Y-111901314D01*
X232176533Y-111996552D01*
X232224152Y-112044171D01*
X232319390Y-112091790D01*
X232700342Y-112091790D01*
X231795580Y-111567980D02*
X231128914Y-111567980D01*
X231795580Y-112567980D01*
X231128914Y-112567980D01*
X230747961Y-112187028D02*
X229986057Y-112187028D01*
X232700342Y-109926380D02*
X232700342Y-108926380D01*
X232319390Y-108926380D01*
X232224152Y-108974000D01*
X232176533Y-109021619D01*
X232128914Y-109116857D01*
X232128914Y-109259714D01*
X232176533Y-109354952D01*
X232224152Y-109402571D01*
X232319390Y-109450190D01*
X232700342Y-109450190D01*
X231795580Y-108926380D02*
X231128914Y-108926380D01*
X231795580Y-109926380D01*
X231128914Y-109926380D01*
X230747961Y-109545428D02*
X229986057Y-109545428D01*
X230367009Y-109926380D02*
X230367009Y-109164476D01*
X232724152Y-107538780D02*
X232724152Y-106538780D01*
X232343200Y-106538780D01*
X232247961Y-106586400D01*
X232200342Y-106634019D01*
X232152723Y-106729257D01*
X232152723Y-106872114D01*
X232200342Y-106967352D01*
X232247961Y-107014971D01*
X232343200Y-107062590D01*
X232724152Y-107062590D01*
X231724152Y-107538780D02*
X231724152Y-106538780D01*
X231343200Y-106538780D01*
X231247961Y-106586400D01*
X231200342Y-106634019D01*
X231152723Y-106729257D01*
X231152723Y-106872114D01*
X231200342Y-106967352D01*
X231247961Y-107014971D01*
X231343200Y-107062590D01*
X231724152Y-107062590D01*
X230724152Y-107157828D02*
X229962247Y-107157828D01*
X222894304Y-137733066D02*
X222418114Y-137733066D01*
X222989542Y-138018780D02*
X222656209Y-137018780D01*
X222322876Y-138018780D01*
X221465733Y-137066400D02*
X221560971Y-137018780D01*
X221703828Y-137018780D01*
X221846685Y-137066400D01*
X221941923Y-137161638D01*
X221989542Y-137256876D01*
X222037161Y-137447352D01*
X222037161Y-137590209D01*
X221989542Y-137780685D01*
X221941923Y-137875923D01*
X221846685Y-137971161D01*
X221703828Y-138018780D01*
X221608590Y-138018780D01*
X221465733Y-137971161D01*
X221418114Y-137923542D01*
X221418114Y-137590209D01*
X221608590Y-137590209D01*
X220989542Y-138018780D02*
X220989542Y-137018780D01*
X220418114Y-138018780D01*
X220418114Y-137018780D01*
X219941923Y-138018780D02*
X219941923Y-137018780D01*
X219703828Y-137018780D01*
X219560971Y-137066400D01*
X219465733Y-137161638D01*
X219418114Y-137256876D01*
X219370495Y-137447352D01*
X219370495Y-137590209D01*
X219418114Y-137780685D01*
X219465733Y-137875923D01*
X219560971Y-137971161D01*
X219703828Y-138018780D01*
X219941923Y-138018780D01*
X222932285Y-135329561D02*
X222789428Y-135377180D01*
X222551333Y-135377180D01*
X222456095Y-135329561D01*
X222408476Y-135281942D01*
X222360857Y-135186704D01*
X222360857Y-135091466D01*
X222408476Y-134996228D01*
X222456095Y-134948609D01*
X222551333Y-134900990D01*
X222741809Y-134853371D01*
X222837047Y-134805752D01*
X222884666Y-134758133D01*
X222932285Y-134662895D01*
X222932285Y-134567657D01*
X222884666Y-134472419D01*
X222837047Y-134424800D01*
X222741809Y-134377180D01*
X222503714Y-134377180D01*
X222360857Y-134424800D01*
X221932285Y-135377180D02*
X221932285Y-134710514D01*
X221932285Y-134377180D02*
X221979904Y-134424800D01*
X221932285Y-134472419D01*
X221884666Y-134424800D01*
X221932285Y-134377180D01*
X221932285Y-134472419D01*
X221027523Y-134710514D02*
X221027523Y-135520038D01*
X221075142Y-135615276D01*
X221122761Y-135662895D01*
X221218000Y-135710514D01*
X221360857Y-135710514D01*
X221456095Y-135662895D01*
X221027523Y-135329561D02*
X221122761Y-135377180D01*
X221313238Y-135377180D01*
X221408476Y-135329561D01*
X221456095Y-135281942D01*
X221503714Y-135186704D01*
X221503714Y-134900990D01*
X221456095Y-134805752D01*
X221408476Y-134758133D01*
X221313238Y-134710514D01*
X221122761Y-134710514D01*
X221027523Y-134758133D01*
X220360857Y-134377180D02*
X220170380Y-134377180D01*
X220075142Y-134424800D01*
X219979904Y-134520038D01*
X219932285Y-134710514D01*
X219932285Y-135043847D01*
X219979904Y-135234323D01*
X220075142Y-135329561D01*
X220170380Y-135377180D01*
X220360857Y-135377180D01*
X220456095Y-135329561D01*
X220551333Y-135234323D01*
X220598952Y-135043847D01*
X220598952Y-134710514D01*
X220551333Y-134520038D01*
X220456095Y-134424800D01*
X220360857Y-134377180D01*
X219075142Y-134710514D02*
X219075142Y-135377180D01*
X219503714Y-134710514D02*
X219503714Y-135234323D01*
X219456095Y-135329561D01*
X219360857Y-135377180D01*
X219218000Y-135377180D01*
X219122761Y-135329561D01*
X219075142Y-135281942D01*
X218741809Y-134710514D02*
X218360857Y-134710514D01*
X218598952Y-134377180D02*
X218598952Y-135234323D01*
X218551333Y-135329561D01*
X218456095Y-135377180D01*
X218360857Y-135377180D01*
X218122761Y-134377180D02*
X217503714Y-134377180D01*
X217837047Y-134758133D01*
X217694190Y-134758133D01*
X217598952Y-134805752D01*
X217551333Y-134853371D01*
X217503714Y-134948609D01*
X217503714Y-135186704D01*
X217551333Y-135281942D01*
X217598952Y-135329561D01*
X217694190Y-135377180D01*
X217979904Y-135377180D01*
X218075142Y-135329561D01*
X218122761Y-135281942D01*
X222779885Y-133195961D02*
X222637028Y-133243580D01*
X222398933Y-133243580D01*
X222303695Y-133195961D01*
X222256076Y-133148342D01*
X222208457Y-133053104D01*
X222208457Y-132957866D01*
X222256076Y-132862628D01*
X222303695Y-132815009D01*
X222398933Y-132767390D01*
X222589409Y-132719771D01*
X222684647Y-132672152D01*
X222732266Y-132624533D01*
X222779885Y-132529295D01*
X222779885Y-132434057D01*
X222732266Y-132338819D01*
X222684647Y-132291200D01*
X222589409Y-132243580D01*
X222351314Y-132243580D01*
X222208457Y-132291200D01*
X221779885Y-133243580D02*
X221779885Y-132576914D01*
X221779885Y-132243580D02*
X221827504Y-132291200D01*
X221779885Y-132338819D01*
X221732266Y-132291200D01*
X221779885Y-132243580D01*
X221779885Y-132338819D01*
X220875123Y-132576914D02*
X220875123Y-133386438D01*
X220922742Y-133481676D01*
X220970361Y-133529295D01*
X221065600Y-133576914D01*
X221208457Y-133576914D01*
X221303695Y-133529295D01*
X220875123Y-133195961D02*
X220970361Y-133243580D01*
X221160838Y-133243580D01*
X221256076Y-133195961D01*
X221303695Y-133148342D01*
X221351314Y-133053104D01*
X221351314Y-132767390D01*
X221303695Y-132672152D01*
X221256076Y-132624533D01*
X221160838Y-132576914D01*
X220970361Y-132576914D01*
X220875123Y-132624533D01*
X220208457Y-132243580D02*
X220017980Y-132243580D01*
X219922742Y-132291200D01*
X219827504Y-132386438D01*
X219779885Y-132576914D01*
X219779885Y-132910247D01*
X219827504Y-133100723D01*
X219922742Y-133195961D01*
X220017980Y-133243580D01*
X220208457Y-133243580D01*
X220303695Y-133195961D01*
X220398933Y-133100723D01*
X220446552Y-132910247D01*
X220446552Y-132576914D01*
X220398933Y-132386438D01*
X220303695Y-132291200D01*
X220208457Y-132243580D01*
X218922742Y-132576914D02*
X218922742Y-133243580D01*
X219351314Y-132576914D02*
X219351314Y-133100723D01*
X219303695Y-133195961D01*
X219208457Y-133243580D01*
X219065600Y-133243580D01*
X218970361Y-133195961D01*
X218922742Y-133148342D01*
X218589409Y-132576914D02*
X218208457Y-132576914D01*
X218446552Y-132243580D02*
X218446552Y-133100723D01*
X218398933Y-133195961D01*
X218303695Y-133243580D01*
X218208457Y-133243580D01*
X217351314Y-133243580D02*
X217922742Y-133243580D01*
X217637028Y-133243580D02*
X217637028Y-132243580D01*
X217732266Y-132386438D01*
X217827504Y-132481676D01*
X217922742Y-132529295D01*
X222708742Y-128957485D02*
X222756361Y-128909866D01*
X222803980Y-128767009D01*
X222803980Y-128671771D01*
X222756361Y-128528914D01*
X222661123Y-128433676D01*
X222565885Y-128386057D01*
X222375409Y-128338438D01*
X222232552Y-128338438D01*
X222042076Y-128386057D01*
X221946838Y-128433676D01*
X221851600Y-128528914D01*
X221803980Y-128671771D01*
X221803980Y-128767009D01*
X221851600Y-128909866D01*
X221899219Y-128957485D01*
X221803980Y-129576533D02*
X221803980Y-129767009D01*
X221851600Y-129862247D01*
X221946838Y-129957485D01*
X222137314Y-130005104D01*
X222470647Y-130005104D01*
X222661123Y-129957485D01*
X222756361Y-129862247D01*
X222803980Y-129767009D01*
X222803980Y-129576533D01*
X222756361Y-129481295D01*
X222661123Y-129386057D01*
X222470647Y-129338438D01*
X222137314Y-129338438D01*
X221946838Y-129386057D01*
X221851600Y-129481295D01*
X221803980Y-129576533D01*
X222803980Y-130433676D02*
X221803980Y-130433676D01*
X222518266Y-130767009D01*
X221803980Y-131100342D01*
X222803980Y-131100342D01*
X222795885Y-127757180D02*
X222795885Y-126757180D01*
X222557790Y-126757180D01*
X222414933Y-126804800D01*
X222319695Y-126900038D01*
X222272076Y-126995276D01*
X222224457Y-127185752D01*
X222224457Y-127328609D01*
X222272076Y-127519085D01*
X222319695Y-127614323D01*
X222414933Y-127709561D01*
X222557790Y-127757180D01*
X222795885Y-127757180D01*
X221224457Y-127661942D02*
X221272076Y-127709561D01*
X221414933Y-127757180D01*
X221510171Y-127757180D01*
X221653028Y-127709561D01*
X221748266Y-127614323D01*
X221795885Y-127519085D01*
X221843504Y-127328609D01*
X221843504Y-127185752D01*
X221795885Y-126995276D01*
X221748266Y-126900038D01*
X221653028Y-126804800D01*
X221510171Y-126757180D01*
X221414933Y-126757180D01*
X221272076Y-126804800D01*
X221224457Y-126852419D01*
X220272076Y-127757180D02*
X220843504Y-127757180D01*
X220557790Y-127757180D02*
X220557790Y-126757180D01*
X220653028Y-126900038D01*
X220748266Y-126995276D01*
X220843504Y-127042895D01*
X219891123Y-126852419D02*
X219843504Y-126804800D01*
X219748266Y-126757180D01*
X219510171Y-126757180D01*
X219414933Y-126804800D01*
X219367314Y-126852419D01*
X219319695Y-126947657D01*
X219319695Y-127042895D01*
X219367314Y-127185752D01*
X219938742Y-127757180D01*
X219319695Y-127757180D01*
X222970457Y-125169561D02*
X222827600Y-125217180D01*
X222589504Y-125217180D01*
X222494266Y-125169561D01*
X222446647Y-125121942D01*
X222399028Y-125026704D01*
X222399028Y-124931466D01*
X222446647Y-124836228D01*
X222494266Y-124788609D01*
X222589504Y-124740990D01*
X222779980Y-124693371D01*
X222875219Y-124645752D01*
X222922838Y-124598133D01*
X222970457Y-124502895D01*
X222970457Y-124407657D01*
X222922838Y-124312419D01*
X222875219Y-124264800D01*
X222779980Y-124217180D01*
X222541885Y-124217180D01*
X222399028Y-124264800D01*
X221970457Y-125217180D02*
X221970457Y-124550514D01*
X221970457Y-124217180D02*
X222018076Y-124264800D01*
X221970457Y-124312419D01*
X221922838Y-124264800D01*
X221970457Y-124217180D01*
X221970457Y-124312419D01*
X221065695Y-124550514D02*
X221065695Y-125360038D01*
X221113314Y-125455276D01*
X221160933Y-125502895D01*
X221256171Y-125550514D01*
X221399028Y-125550514D01*
X221494266Y-125502895D01*
X221065695Y-125169561D02*
X221160933Y-125217180D01*
X221351409Y-125217180D01*
X221446647Y-125169561D01*
X221494266Y-125121942D01*
X221541885Y-125026704D01*
X221541885Y-124740990D01*
X221494266Y-124645752D01*
X221446647Y-124598133D01*
X221351409Y-124550514D01*
X221160933Y-124550514D01*
X221065695Y-124598133D01*
X220589504Y-125217180D02*
X220589504Y-124217180D01*
X220113314Y-124550514D02*
X220113314Y-125217180D01*
X220113314Y-124645752D02*
X220065695Y-124598133D01*
X219970457Y-124550514D01*
X219827600Y-124550514D01*
X219732361Y-124598133D01*
X219684742Y-124693371D01*
X219684742Y-125217180D01*
X218779980Y-124550514D02*
X218779980Y-125217180D01*
X219018076Y-124169561D02*
X219256171Y-124883847D01*
X218637123Y-124883847D01*
X222991085Y-122629561D02*
X222848228Y-122677180D01*
X222610133Y-122677180D01*
X222514895Y-122629561D01*
X222467276Y-122581942D01*
X222419657Y-122486704D01*
X222419657Y-122391466D01*
X222467276Y-122296228D01*
X222514895Y-122248609D01*
X222610133Y-122200990D01*
X222800609Y-122153371D01*
X222895847Y-122105752D01*
X222943466Y-122058133D01*
X222991085Y-121962895D01*
X222991085Y-121867657D01*
X222943466Y-121772419D01*
X222895847Y-121724800D01*
X222800609Y-121677180D01*
X222562514Y-121677180D01*
X222419657Y-121724800D01*
X221991085Y-122677180D02*
X221991085Y-122010514D01*
X221991085Y-121677180D02*
X222038704Y-121724800D01*
X221991085Y-121772419D01*
X221943466Y-121724800D01*
X221991085Y-121677180D01*
X221991085Y-121772419D01*
X221086323Y-122010514D02*
X221086323Y-122820038D01*
X221133942Y-122915276D01*
X221181561Y-122962895D01*
X221276800Y-123010514D01*
X221419657Y-123010514D01*
X221514895Y-122962895D01*
X221086323Y-122629561D02*
X221181561Y-122677180D01*
X221372038Y-122677180D01*
X221467276Y-122629561D01*
X221514895Y-122581942D01*
X221562514Y-122486704D01*
X221562514Y-122200990D01*
X221514895Y-122105752D01*
X221467276Y-122058133D01*
X221372038Y-122010514D01*
X221181561Y-122010514D01*
X221086323Y-122058133D01*
X220610133Y-122677180D02*
X220610133Y-121677180D01*
X220133942Y-122677180D02*
X220133942Y-121677180D01*
X219562514Y-122677180D01*
X219562514Y-121677180D01*
X219133942Y-121772419D02*
X219086323Y-121724800D01*
X218991085Y-121677180D01*
X218752990Y-121677180D01*
X218657752Y-121724800D01*
X218610133Y-121772419D01*
X218562514Y-121867657D01*
X218562514Y-121962895D01*
X218610133Y-122105752D01*
X219181561Y-122677180D01*
X218562514Y-122677180D01*
X222970457Y-120038761D02*
X222827600Y-120086380D01*
X222589504Y-120086380D01*
X222494266Y-120038761D01*
X222446647Y-119991142D01*
X222399028Y-119895904D01*
X222399028Y-119800666D01*
X222446647Y-119705428D01*
X222494266Y-119657809D01*
X222589504Y-119610190D01*
X222779980Y-119562571D01*
X222875219Y-119514952D01*
X222922838Y-119467333D01*
X222970457Y-119372095D01*
X222970457Y-119276857D01*
X222922838Y-119181619D01*
X222875219Y-119134000D01*
X222779980Y-119086380D01*
X222541885Y-119086380D01*
X222399028Y-119134000D01*
X221970457Y-120086380D02*
X221970457Y-119419714D01*
X221970457Y-119086380D02*
X222018076Y-119134000D01*
X221970457Y-119181619D01*
X221922838Y-119134000D01*
X221970457Y-119086380D01*
X221970457Y-119181619D01*
X221065695Y-119419714D02*
X221065695Y-120229238D01*
X221113314Y-120324476D01*
X221160933Y-120372095D01*
X221256171Y-120419714D01*
X221399028Y-120419714D01*
X221494266Y-120372095D01*
X221065695Y-120038761D02*
X221160933Y-120086380D01*
X221351409Y-120086380D01*
X221446647Y-120038761D01*
X221494266Y-119991142D01*
X221541885Y-119895904D01*
X221541885Y-119610190D01*
X221494266Y-119514952D01*
X221446647Y-119467333D01*
X221351409Y-119419714D01*
X221160933Y-119419714D01*
X221065695Y-119467333D01*
X220589504Y-120086380D02*
X220589504Y-119086380D01*
X220113314Y-119419714D02*
X220113314Y-120086380D01*
X220113314Y-119514952D02*
X220065695Y-119467333D01*
X219970457Y-119419714D01*
X219827600Y-119419714D01*
X219732361Y-119467333D01*
X219684742Y-119562571D01*
X219684742Y-120086380D01*
X218684742Y-120086380D02*
X219256171Y-120086380D01*
X218970457Y-120086380D02*
X218970457Y-119086380D01*
X219065695Y-119229238D01*
X219160933Y-119324476D01*
X219256171Y-119372095D01*
X222919752Y-117698780D02*
X222919752Y-116698780D01*
X222538800Y-116698780D01*
X222443561Y-116746400D01*
X222395942Y-116794019D01*
X222348323Y-116889257D01*
X222348323Y-117032114D01*
X222395942Y-117127352D01*
X222443561Y-117174971D01*
X222538800Y-117222590D01*
X222919752Y-117222590D01*
X221919752Y-117698780D02*
X221919752Y-116698780D01*
X221681657Y-116698780D01*
X221538800Y-116746400D01*
X221443561Y-116841638D01*
X221395942Y-116936876D01*
X221348323Y-117127352D01*
X221348323Y-117270209D01*
X221395942Y-117460685D01*
X221443561Y-117555923D01*
X221538800Y-117651161D01*
X221681657Y-117698780D01*
X221919752Y-117698780D01*
X220919752Y-117317828D02*
X220157847Y-117317828D01*
X222919752Y-115057180D02*
X222919752Y-114057180D01*
X222538800Y-114057180D01*
X222443561Y-114104800D01*
X222395942Y-114152419D01*
X222348323Y-114247657D01*
X222348323Y-114390514D01*
X222395942Y-114485752D01*
X222443561Y-114533371D01*
X222538800Y-114580990D01*
X222919752Y-114580990D01*
X221919752Y-115057180D02*
X221919752Y-114057180D01*
X221681657Y-114057180D01*
X221538800Y-114104800D01*
X221443561Y-114200038D01*
X221395942Y-114295276D01*
X221348323Y-114485752D01*
X221348323Y-114628609D01*
X221395942Y-114819085D01*
X221443561Y-114914323D01*
X221538800Y-115009561D01*
X221681657Y-115057180D01*
X221919752Y-115057180D01*
X220919752Y-114676228D02*
X220157847Y-114676228D01*
X220538800Y-115057180D02*
X220538800Y-114295276D01*
X222919752Y-112517180D02*
X222919752Y-111517180D01*
X222538800Y-111517180D01*
X222443561Y-111564800D01*
X222395942Y-111612419D01*
X222348323Y-111707657D01*
X222348323Y-111850514D01*
X222395942Y-111945752D01*
X222443561Y-111993371D01*
X222538800Y-112040990D01*
X222919752Y-112040990D01*
X221919752Y-112517180D02*
X221919752Y-111517180D01*
X221538800Y-111517180D01*
X221443561Y-111564800D01*
X221395942Y-111612419D01*
X221348323Y-111707657D01*
X221348323Y-111850514D01*
X221395942Y-111945752D01*
X221443561Y-111993371D01*
X221538800Y-112040990D01*
X221919752Y-112040990D01*
X220919752Y-112136228D02*
X220157847Y-112136228D01*
X220538800Y-112517180D02*
X220538800Y-111755276D01*
X222940476Y-109977180D02*
X222940476Y-108977180D01*
X222559523Y-108977180D01*
X222464285Y-109024800D01*
X222416666Y-109072419D01*
X222369047Y-109167657D01*
X222369047Y-109310514D01*
X222416666Y-109405752D01*
X222464285Y-109453371D01*
X222559523Y-109500990D01*
X222940476Y-109500990D01*
X222083333Y-108977180D02*
X221750000Y-109977180D01*
X221416666Y-108977180D01*
X222453104Y-106535600D02*
X222548342Y-106487980D01*
X222691200Y-106487980D01*
X222834057Y-106535600D01*
X222929295Y-106630838D01*
X222976914Y-106726076D01*
X223024533Y-106916552D01*
X223024533Y-107059409D01*
X222976914Y-107249885D01*
X222929295Y-107345123D01*
X222834057Y-107440361D01*
X222691200Y-107487980D01*
X222595961Y-107487980D01*
X222453104Y-107440361D01*
X222405485Y-107392742D01*
X222405485Y-107059409D01*
X222595961Y-107059409D01*
X221976914Y-107487980D02*
X221976914Y-106487980D01*
X221405485Y-107487980D01*
X221405485Y-106487980D01*
X220929295Y-107487980D02*
X220929295Y-106487980D01*
X220691200Y-106487980D01*
X220548342Y-106535600D01*
X220453104Y-106630838D01*
X220405485Y-106726076D01*
X220357866Y-106916552D01*
X220357866Y-107059409D01*
X220405485Y-107249885D01*
X220453104Y-107345123D01*
X220548342Y-107440361D01*
X220691200Y-107487980D01*
X220929295Y-107487980D01*
D12*
%TO.C,REF\u002A\u002A*%
G36*
X129191643Y-44856997D02*
G01*
X128928323Y-44858439D01*
X128737754Y-44862342D01*
X128607655Y-44869937D01*
X128525743Y-44882450D01*
X128479734Y-44901111D01*
X128457347Y-44927148D01*
X128446298Y-44961788D01*
X128445224Y-44966272D01*
X128428441Y-45047189D01*
X128397375Y-45206842D01*
X128355258Y-45428238D01*
X128305321Y-45694385D01*
X128250797Y-45988290D01*
X128248893Y-45998612D01*
X128194277Y-46286636D01*
X128143178Y-46541115D01*
X128098894Y-46746785D01*
X128064721Y-46888385D01*
X128043957Y-46950650D01*
X128042967Y-46951753D01*
X127981801Y-46982159D01*
X127855690Y-47032828D01*
X127691869Y-47092822D01*
X127690957Y-47093142D01*
X127484612Y-47170704D01*
X127241340Y-47269507D01*
X127012031Y-47368848D01*
X127001178Y-47373760D01*
X126627683Y-47543276D01*
X125800635Y-46978495D01*
X125546923Y-46806320D01*
X125317098Y-46652395D01*
X125124475Y-46525474D01*
X124982368Y-46434309D01*
X124904093Y-46387655D01*
X124896660Y-46384195D01*
X124839776Y-46399600D01*
X124733531Y-46473927D01*
X124573781Y-46610681D01*
X124356384Y-46813368D01*
X124134452Y-47029008D01*
X123920509Y-47241503D01*
X123729031Y-47435410D01*
X123571545Y-47598754D01*
X123459578Y-47719561D01*
X123404657Y-47785855D01*
X123402614Y-47789268D01*
X123396542Y-47834761D01*
X123419416Y-47909056D01*
X123476885Y-48022186D01*
X123574601Y-48184185D01*
X123718216Y-48405086D01*
X123909667Y-48689460D01*
X124079577Y-48939759D01*
X124231462Y-49164250D01*
X124356545Y-49349900D01*
X124446051Y-49483675D01*
X124491200Y-49552542D01*
X124494042Y-49557218D01*
X124488530Y-49623201D01*
X124446745Y-49751448D01*
X124377003Y-49917720D01*
X124352146Y-49970819D01*
X124243689Y-50207377D01*
X124127980Y-50475789D01*
X124033985Y-50708035D01*
X123966255Y-50880407D01*
X123912457Y-51011403D01*
X123881369Y-51079867D01*
X123877504Y-51085142D01*
X123820329Y-51093880D01*
X123685552Y-51117823D01*
X123491094Y-51153562D01*
X123254875Y-51197689D01*
X122994816Y-51246795D01*
X122728837Y-51297472D01*
X122474857Y-51346313D01*
X122250799Y-51389909D01*
X122074580Y-51424851D01*
X121964123Y-51447732D01*
X121937030Y-51454201D01*
X121909044Y-51470167D01*
X121887919Y-51506227D01*
X121872703Y-51574552D01*
X121862447Y-51687315D01*
X121856200Y-51856686D01*
X121853012Y-52094838D01*
X121851933Y-52413942D01*
X121851877Y-52544741D01*
X121851877Y-53608511D01*
X122107337Y-53658933D01*
X122249463Y-53686273D01*
X122461550Y-53726182D01*
X122717807Y-53773845D01*
X122992442Y-53824446D01*
X123068352Y-53838344D01*
X123321779Y-53887617D01*
X123542553Y-53936070D01*
X123712143Y-53979215D01*
X123812020Y-54012563D01*
X123828657Y-54022502D01*
X123869511Y-54092891D01*
X123928087Y-54229283D01*
X123993045Y-54404805D01*
X124005929Y-54442613D01*
X124091066Y-54677030D01*
X124196744Y-54941524D01*
X124300160Y-55179041D01*
X124300670Y-55180144D01*
X124472888Y-55552733D01*
X123906476Y-56385893D01*
X123340065Y-57219053D01*
X124067298Y-57947500D01*
X124287252Y-58164302D01*
X124487868Y-58355414D01*
X124657878Y-58510636D01*
X124786015Y-58619764D01*
X124861011Y-58672595D01*
X124871769Y-58675947D01*
X124934933Y-58649549D01*
X125063820Y-58576160D01*
X125244351Y-58464484D01*
X125462446Y-58323224D01*
X125698246Y-58165027D01*
X125937564Y-58003664D01*
X126150941Y-57863252D01*
X126324825Y-57752431D01*
X126445666Y-57679838D01*
X126499737Y-57654108D01*
X126565706Y-57675880D01*
X126690802Y-57733251D01*
X126849220Y-57814300D01*
X126866013Y-57823309D01*
X127079348Y-57930300D01*
X127225636Y-57982772D01*
X127316620Y-57983330D01*
X127364041Y-57934580D01*
X127364317Y-57933897D01*
X127388020Y-57876164D01*
X127444551Y-57739115D01*
X127529526Y-57533357D01*
X127638562Y-57269498D01*
X127767276Y-56958144D01*
X127911285Y-56609904D01*
X128050749Y-56272744D01*
X128204020Y-55900666D01*
X128344749Y-55555987D01*
X128468718Y-55249271D01*
X128571709Y-54991085D01*
X128649504Y-54791994D01*
X128697886Y-54662565D01*
X128712796Y-54614261D01*
X128675406Y-54558850D01*
X128577602Y-54470538D01*
X128447185Y-54373174D01*
X128075777Y-54065253D01*
X127785470Y-53712304D01*
X127579744Y-53321761D01*
X127462077Y-52901057D01*
X127435949Y-52457629D01*
X127454940Y-52252958D01*
X127558417Y-51828323D01*
X127736627Y-51453336D01*
X127978518Y-51131696D01*
X128273037Y-50867101D01*
X128609129Y-50663250D01*
X128975742Y-50523842D01*
X129361823Y-50452574D01*
X129756319Y-50453145D01*
X130148175Y-50529254D01*
X130526340Y-50684599D01*
X130879760Y-50922879D01*
X131027273Y-51057639D01*
X131310184Y-51403679D01*
X131507168Y-51781826D01*
X131619536Y-52181055D01*
X131648599Y-52590345D01*
X131595669Y-52998672D01*
X131462057Y-53395013D01*
X131249075Y-53768345D01*
X130958034Y-54107645D01*
X130632814Y-54373174D01*
X130497348Y-54474671D01*
X130401651Y-54562025D01*
X130367203Y-54614343D01*
X130385240Y-54671398D01*
X130436538Y-54807698D01*
X130516876Y-55012678D01*
X130622036Y-55275772D01*
X130747796Y-55586416D01*
X130889937Y-55934043D01*
X131029635Y-56272826D01*
X131183759Y-56645222D01*
X131326518Y-56990307D01*
X131453529Y-57297477D01*
X131560411Y-57556125D01*
X131642780Y-57755647D01*
X131696253Y-57885435D01*
X131716067Y-57933897D01*
X131762876Y-57983129D01*
X131853417Y-57982985D01*
X131999342Y-57930877D01*
X132212302Y-57824216D01*
X132213986Y-57823309D01*
X132374330Y-57740536D01*
X132503948Y-57680242D01*
X132577037Y-57654346D01*
X132580263Y-57654108D01*
X132635284Y-57680374D01*
X132756757Y-57753416D01*
X132931129Y-57864595D01*
X133144850Y-58005273D01*
X133381753Y-58165027D01*
X133622945Y-58326779D01*
X133840326Y-58467450D01*
X134019816Y-58578335D01*
X134147336Y-58650730D01*
X134208230Y-58675947D01*
X134264303Y-58642803D01*
X134377040Y-58550173D01*
X134535177Y-58408257D01*
X134727449Y-58227255D01*
X134942591Y-58017369D01*
X135012952Y-57947249D01*
X135740434Y-57218552D01*
X135186705Y-56405900D01*
X135018423Y-56156342D01*
X134870729Y-55932366D01*
X134751910Y-55746949D01*
X134670250Y-55613065D01*
X134634036Y-55543690D01*
X134632975Y-55538755D01*
X134652067Y-55473364D01*
X134703418Y-55341825D01*
X134778140Y-55166181D01*
X134830588Y-55048591D01*
X134928654Y-54823461D01*
X135021007Y-54596015D01*
X135092606Y-54403839D01*
X135112056Y-54345295D01*
X135167314Y-54188956D01*
X135221331Y-54068158D01*
X135251001Y-54022502D01*
X135316476Y-53994561D01*
X135459376Y-53954951D01*
X135661161Y-53908162D01*
X135903288Y-53858683D01*
X136011647Y-53838344D01*
X136286811Y-53787781D01*
X136550746Y-53738822D01*
X136777659Y-53696281D01*
X136941761Y-53664975D01*
X136972662Y-53658933D01*
X137228122Y-53608511D01*
X137228122Y-52544741D01*
X137227548Y-52194950D01*
X137225193Y-51930300D01*
X137220107Y-51738622D01*
X137211339Y-51607744D01*
X137197938Y-51525493D01*
X137178954Y-51479698D01*
X137153438Y-51458188D01*
X137142969Y-51454201D01*
X137079826Y-51440056D01*
X136940325Y-51411834D01*
X136742389Y-51372943D01*
X136503935Y-51326792D01*
X136242886Y-51276788D01*
X135977161Y-51226341D01*
X135724681Y-51178858D01*
X135503365Y-51137748D01*
X135331134Y-51106419D01*
X135225908Y-51088278D01*
X135202495Y-51085142D01*
X135181284Y-51043173D01*
X135134332Y-50931370D01*
X135070419Y-50770888D01*
X135046014Y-50708035D01*
X134947580Y-50465203D01*
X134831666Y-50196918D01*
X134727853Y-49970819D01*
X134651465Y-49797935D01*
X134600644Y-49655877D01*
X134583679Y-49568878D01*
X134586384Y-49557218D01*
X134622239Y-49502170D01*
X134704108Y-49379739D01*
X134823205Y-49202962D01*
X134970742Y-48984877D01*
X135137931Y-48738520D01*
X135170990Y-48689891D01*
X135364980Y-48401773D01*
X135507579Y-48182377D01*
X135604473Y-48021602D01*
X135661346Y-47909346D01*
X135683884Y-47835510D01*
X135677772Y-47789990D01*
X135677616Y-47789700D01*
X135629511Y-47729910D01*
X135523111Y-47614319D01*
X135369948Y-47454909D01*
X135181555Y-47263665D01*
X134969465Y-47052568D01*
X134945547Y-47029008D01*
X134678262Y-46770172D01*
X134471992Y-46580117D01*
X134322592Y-46455337D01*
X134225920Y-46392327D01*
X134183339Y-46384195D01*
X134121196Y-46419672D01*
X133992237Y-46501623D01*
X133809778Y-46621292D01*
X133587133Y-46769926D01*
X133337616Y-46938772D01*
X133279364Y-46978495D01*
X132452316Y-47543276D01*
X132078821Y-47373760D01*
X131851684Y-47274971D01*
X131607872Y-47175617D01*
X131398275Y-47096401D01*
X131389042Y-47093142D01*
X131225095Y-47033129D01*
X131098715Y-46982382D01*
X131037137Y-46951841D01*
X131037032Y-46951753D01*
X131017493Y-46896548D01*
X130984279Y-46760779D01*
X130940687Y-46559709D01*
X130890016Y-46308599D01*
X130835561Y-46022713D01*
X130831106Y-45998612D01*
X130776482Y-45704059D01*
X130726336Y-45436684D01*
X130683898Y-45213480D01*
X130652402Y-45051439D01*
X130635077Y-44967553D01*
X130634775Y-44966272D01*
X130624232Y-44930588D01*
X130603731Y-44903646D01*
X130560989Y-44884218D01*
X130483724Y-44871075D01*
X130359652Y-44862989D01*
X130176491Y-44858732D01*
X129921958Y-44857075D01*
X129583769Y-44856790D01*
X129540000Y-44856790D01*
X129191643Y-44856997D01*
G37*
X129191643Y-44856997D02*
X128928323Y-44858439D01*
X128737754Y-44862342D01*
X128607655Y-44869937D01*
X128525743Y-44882450D01*
X128479734Y-44901111D01*
X128457347Y-44927148D01*
X128446298Y-44961788D01*
X128445224Y-44966272D01*
X128428441Y-45047189D01*
X128397375Y-45206842D01*
X128355258Y-45428238D01*
X128305321Y-45694385D01*
X128250797Y-45988290D01*
X128248893Y-45998612D01*
X128194277Y-46286636D01*
X128143178Y-46541115D01*
X128098894Y-46746785D01*
X128064721Y-46888385D01*
X128043957Y-46950650D01*
X128042967Y-46951753D01*
X127981801Y-46982159D01*
X127855690Y-47032828D01*
X127691869Y-47092822D01*
X127690957Y-47093142D01*
X127484612Y-47170704D01*
X127241340Y-47269507D01*
X127012031Y-47368848D01*
X127001178Y-47373760D01*
X126627683Y-47543276D01*
X125800635Y-46978495D01*
X125546923Y-46806320D01*
X125317098Y-46652395D01*
X125124475Y-46525474D01*
X124982368Y-46434309D01*
X124904093Y-46387655D01*
X124896660Y-46384195D01*
X124839776Y-46399600D01*
X124733531Y-46473927D01*
X124573781Y-46610681D01*
X124356384Y-46813368D01*
X124134452Y-47029008D01*
X123920509Y-47241503D01*
X123729031Y-47435410D01*
X123571545Y-47598754D01*
X123459578Y-47719561D01*
X123404657Y-47785855D01*
X123402614Y-47789268D01*
X123396542Y-47834761D01*
X123419416Y-47909056D01*
X123476885Y-48022186D01*
X123574601Y-48184185D01*
X123718216Y-48405086D01*
X123909667Y-48689460D01*
X124079577Y-48939759D01*
X124231462Y-49164250D01*
X124356545Y-49349900D01*
X124446051Y-49483675D01*
X124491200Y-49552542D01*
X124494042Y-49557218D01*
X124488530Y-49623201D01*
X124446745Y-49751448D01*
X124377003Y-49917720D01*
X124352146Y-49970819D01*
X124243689Y-50207377D01*
X124127980Y-50475789D01*
X124033985Y-50708035D01*
X123966255Y-50880407D01*
X123912457Y-51011403D01*
X123881369Y-51079867D01*
X123877504Y-51085142D01*
X123820329Y-51093880D01*
X123685552Y-51117823D01*
X123491094Y-51153562D01*
X123254875Y-51197689D01*
X122994816Y-51246795D01*
X122728837Y-51297472D01*
X122474857Y-51346313D01*
X122250799Y-51389909D01*
X122074580Y-51424851D01*
X121964123Y-51447732D01*
X121937030Y-51454201D01*
X121909044Y-51470167D01*
X121887919Y-51506227D01*
X121872703Y-51574552D01*
X121862447Y-51687315D01*
X121856200Y-51856686D01*
X121853012Y-52094838D01*
X121851933Y-52413942D01*
X121851877Y-52544741D01*
X121851877Y-53608511D01*
X122107337Y-53658933D01*
X122249463Y-53686273D01*
X122461550Y-53726182D01*
X122717807Y-53773845D01*
X122992442Y-53824446D01*
X123068352Y-53838344D01*
X123321779Y-53887617D01*
X123542553Y-53936070D01*
X123712143Y-53979215D01*
X123812020Y-54012563D01*
X123828657Y-54022502D01*
X123869511Y-54092891D01*
X123928087Y-54229283D01*
X123993045Y-54404805D01*
X124005929Y-54442613D01*
X124091066Y-54677030D01*
X124196744Y-54941524D01*
X124300160Y-55179041D01*
X124300670Y-55180144D01*
X124472888Y-55552733D01*
X123906476Y-56385893D01*
X123340065Y-57219053D01*
X124067298Y-57947500D01*
X124287252Y-58164302D01*
X124487868Y-58355414D01*
X124657878Y-58510636D01*
X124786015Y-58619764D01*
X124861011Y-58672595D01*
X124871769Y-58675947D01*
X124934933Y-58649549D01*
X125063820Y-58576160D01*
X125244351Y-58464484D01*
X125462446Y-58323224D01*
X125698246Y-58165027D01*
X125937564Y-58003664D01*
X126150941Y-57863252D01*
X126324825Y-57752431D01*
X126445666Y-57679838D01*
X126499737Y-57654108D01*
X126565706Y-57675880D01*
X126690802Y-57733251D01*
X126849220Y-57814300D01*
X126866013Y-57823309D01*
X127079348Y-57930300D01*
X127225636Y-57982772D01*
X127316620Y-57983330D01*
X127364041Y-57934580D01*
X127364317Y-57933897D01*
X127388020Y-57876164D01*
X127444551Y-57739115D01*
X127529526Y-57533357D01*
X127638562Y-57269498D01*
X127767276Y-56958144D01*
X127911285Y-56609904D01*
X128050749Y-56272744D01*
X128204020Y-55900666D01*
X128344749Y-55555987D01*
X128468718Y-55249271D01*
X128571709Y-54991085D01*
X128649504Y-54791994D01*
X128697886Y-54662565D01*
X128712796Y-54614261D01*
X128675406Y-54558850D01*
X128577602Y-54470538D01*
X128447185Y-54373174D01*
X128075777Y-54065253D01*
X127785470Y-53712304D01*
X127579744Y-53321761D01*
X127462077Y-52901057D01*
X127435949Y-52457629D01*
X127454940Y-52252958D01*
X127558417Y-51828323D01*
X127736627Y-51453336D01*
X127978518Y-51131696D01*
X128273037Y-50867101D01*
X128609129Y-50663250D01*
X128975742Y-50523842D01*
X129361823Y-50452574D01*
X129756319Y-50453145D01*
X130148175Y-50529254D01*
X130526340Y-50684599D01*
X130879760Y-50922879D01*
X131027273Y-51057639D01*
X131310184Y-51403679D01*
X131507168Y-51781826D01*
X131619536Y-52181055D01*
X131648599Y-52590345D01*
X131595669Y-52998672D01*
X131462057Y-53395013D01*
X131249075Y-53768345D01*
X130958034Y-54107645D01*
X130632814Y-54373174D01*
X130497348Y-54474671D01*
X130401651Y-54562025D01*
X130367203Y-54614343D01*
X130385240Y-54671398D01*
X130436538Y-54807698D01*
X130516876Y-55012678D01*
X130622036Y-55275772D01*
X130747796Y-55586416D01*
X130889937Y-55934043D01*
X131029635Y-56272826D01*
X131183759Y-56645222D01*
X131326518Y-56990307D01*
X131453529Y-57297477D01*
X131560411Y-57556125D01*
X131642780Y-57755647D01*
X131696253Y-57885435D01*
X131716067Y-57933897D01*
X131762876Y-57983129D01*
X131853417Y-57982985D01*
X131999342Y-57930877D01*
X132212302Y-57824216D01*
X132213986Y-57823309D01*
X132374330Y-57740536D01*
X132503948Y-57680242D01*
X132577037Y-57654346D01*
X132580263Y-57654108D01*
X132635284Y-57680374D01*
X132756757Y-57753416D01*
X132931129Y-57864595D01*
X133144850Y-58005273D01*
X133381753Y-58165027D01*
X133622945Y-58326779D01*
X133840326Y-58467450D01*
X134019816Y-58578335D01*
X134147336Y-58650730D01*
X134208230Y-58675947D01*
X134264303Y-58642803D01*
X134377040Y-58550173D01*
X134535177Y-58408257D01*
X134727449Y-58227255D01*
X134942591Y-58017369D01*
X135012952Y-57947249D01*
X135740434Y-57218552D01*
X135186705Y-56405900D01*
X135018423Y-56156342D01*
X134870729Y-55932366D01*
X134751910Y-55746949D01*
X134670250Y-55613065D01*
X134634036Y-55543690D01*
X134632975Y-55538755D01*
X134652067Y-55473364D01*
X134703418Y-55341825D01*
X134778140Y-55166181D01*
X134830588Y-55048591D01*
X134928654Y-54823461D01*
X135021007Y-54596015D01*
X135092606Y-54403839D01*
X135112056Y-54345295D01*
X135167314Y-54188956D01*
X135221331Y-54068158D01*
X135251001Y-54022502D01*
X135316476Y-53994561D01*
X135459376Y-53954951D01*
X135661161Y-53908162D01*
X135903288Y-53858683D01*
X136011647Y-53838344D01*
X136286811Y-53787781D01*
X136550746Y-53738822D01*
X136777659Y-53696281D01*
X136941761Y-53664975D01*
X136972662Y-53658933D01*
X137228122Y-53608511D01*
X137228122Y-52544741D01*
X137227548Y-52194950D01*
X137225193Y-51930300D01*
X137220107Y-51738622D01*
X137211339Y-51607744D01*
X137197938Y-51525493D01*
X137178954Y-51479698D01*
X137153438Y-51458188D01*
X137142969Y-51454201D01*
X137079826Y-51440056D01*
X136940325Y-51411834D01*
X136742389Y-51372943D01*
X136503935Y-51326792D01*
X136242886Y-51276788D01*
X135977161Y-51226341D01*
X135724681Y-51178858D01*
X135503365Y-51137748D01*
X135331134Y-51106419D01*
X135225908Y-51088278D01*
X135202495Y-51085142D01*
X135181284Y-51043173D01*
X135134332Y-50931370D01*
X135070419Y-50770888D01*
X135046014Y-50708035D01*
X134947580Y-50465203D01*
X134831666Y-50196918D01*
X134727853Y-49970819D01*
X134651465Y-49797935D01*
X134600644Y-49655877D01*
X134583679Y-49568878D01*
X134586384Y-49557218D01*
X134622239Y-49502170D01*
X134704108Y-49379739D01*
X134823205Y-49202962D01*
X134970742Y-48984877D01*
X135137931Y-48738520D01*
X135170990Y-48689891D01*
X135364980Y-48401773D01*
X135507579Y-48182377D01*
X135604473Y-48021602D01*
X135661346Y-47909346D01*
X135683884Y-47835510D01*
X135677772Y-47789990D01*
X135677616Y-47789700D01*
X135629511Y-47729910D01*
X135523111Y-47614319D01*
X135369948Y-47454909D01*
X135181555Y-47263665D01*
X134969465Y-47052568D01*
X134945547Y-47029008D01*
X134678262Y-46770172D01*
X134471992Y-46580117D01*
X134322592Y-46455337D01*
X134225920Y-46392327D01*
X134183339Y-46384195D01*
X134121196Y-46419672D01*
X133992237Y-46501623D01*
X133809778Y-46621292D01*
X133587133Y-46769926D01*
X133337616Y-46938772D01*
X133279364Y-46978495D01*
X132452316Y-47543276D01*
X132078821Y-47373760D01*
X131851684Y-47274971D01*
X131607872Y-47175617D01*
X131398275Y-47096401D01*
X131389042Y-47093142D01*
X131225095Y-47033129D01*
X131098715Y-46982382D01*
X131037137Y-46951841D01*
X131037032Y-46951753D01*
X131017493Y-46896548D01*
X130984279Y-46760779D01*
X130940687Y-46559709D01*
X130890016Y-46308599D01*
X130835561Y-46022713D01*
X130831106Y-45998612D01*
X130776482Y-45704059D01*
X130726336Y-45436684D01*
X130683898Y-45213480D01*
X130652402Y-45051439D01*
X130635077Y-44967553D01*
X130634775Y-44966272D01*
X130624232Y-44930588D01*
X130603731Y-44903646D01*
X130560989Y-44884218D01*
X130483724Y-44871075D01*
X130359652Y-44862989D01*
X130176491Y-44858732D01*
X129921958Y-44857075D01*
X129583769Y-44856790D01*
X129540000Y-44856790D01*
X129191643Y-44856997D01*
G36*
X118967601Y-60696233D02*
G01*
X118775083Y-60822057D01*
X118682226Y-60934696D01*
X118608660Y-61139092D01*
X118602817Y-61300830D01*
X118616053Y-61517094D01*
X119114808Y-61735398D01*
X119357315Y-61846930D01*
X119515771Y-61936650D01*
X119598164Y-62014361D01*
X119612482Y-62089867D01*
X119566713Y-62172971D01*
X119516245Y-62228054D01*
X119369395Y-62316389D01*
X119209672Y-62322579D01*
X119062980Y-62253735D01*
X118955219Y-62116972D01*
X118935945Y-62068680D01*
X118843624Y-61917848D01*
X118737412Y-61853567D01*
X118591724Y-61798576D01*
X118591724Y-62007057D01*
X118604604Y-62148926D01*
X118655057Y-62268563D01*
X118760803Y-62405927D01*
X118776520Y-62423777D01*
X118894145Y-62545986D01*
X118995254Y-62611570D01*
X119121750Y-62641742D01*
X119226616Y-62651623D01*
X119414189Y-62654085D01*
X119547716Y-62622892D01*
X119631017Y-62576579D01*
X119761937Y-62474735D01*
X119852561Y-62364591D01*
X119909913Y-62226069D01*
X119941020Y-62039090D01*
X119952906Y-61783577D01*
X119953855Y-61653894D01*
X119950629Y-61498421D01*
X119656834Y-61498421D01*
X119653427Y-61581827D01*
X119644934Y-61595487D01*
X119588890Y-61576931D01*
X119468282Y-61527822D01*
X119307087Y-61458002D01*
X119273378Y-61442995D01*
X119069661Y-61339404D01*
X118957421Y-61248359D01*
X118932753Y-61163081D01*
X118991755Y-61076794D01*
X119040482Y-61038667D01*
X119216306Y-60962417D01*
X119380873Y-60975014D01*
X119518646Y-61068086D01*
X119614087Y-61233256D01*
X119644686Y-61364357D01*
X119656834Y-61498421D01*
X119950629Y-61498421D01*
X119947568Y-61350919D01*
X119924401Y-61126756D01*
X119878510Y-60963526D01*
X119804046Y-60843352D01*
X119695164Y-60748355D01*
X119647695Y-60717655D01*
X119432062Y-60637703D01*
X119195979Y-60632672D01*
X118967601Y-60696233D01*
G37*
X118967601Y-60696233D02*
X118775083Y-60822057D01*
X118682226Y-60934696D01*
X118608660Y-61139092D01*
X118602817Y-61300830D01*
X118616053Y-61517094D01*
X119114808Y-61735398D01*
X119357315Y-61846930D01*
X119515771Y-61936650D01*
X119598164Y-62014361D01*
X119612482Y-62089867D01*
X119566713Y-62172971D01*
X119516245Y-62228054D01*
X119369395Y-62316389D01*
X119209672Y-62322579D01*
X119062980Y-62253735D01*
X118955219Y-62116972D01*
X118935945Y-62068680D01*
X118843624Y-61917848D01*
X118737412Y-61853567D01*
X118591724Y-61798576D01*
X118591724Y-62007057D01*
X118604604Y-62148926D01*
X118655057Y-62268563D01*
X118760803Y-62405927D01*
X118776520Y-62423777D01*
X118894145Y-62545986D01*
X118995254Y-62611570D01*
X119121750Y-62641742D01*
X119226616Y-62651623D01*
X119414189Y-62654085D01*
X119547716Y-62622892D01*
X119631017Y-62576579D01*
X119761937Y-62474735D01*
X119852561Y-62364591D01*
X119909913Y-62226069D01*
X119941020Y-62039090D01*
X119952906Y-61783577D01*
X119953855Y-61653894D01*
X119950629Y-61498421D01*
X119656834Y-61498421D01*
X119653427Y-61581827D01*
X119644934Y-61595487D01*
X119588890Y-61576931D01*
X119468282Y-61527822D01*
X119307087Y-61458002D01*
X119273378Y-61442995D01*
X119069661Y-61339404D01*
X118957421Y-61248359D01*
X118932753Y-61163081D01*
X118991755Y-61076794D01*
X119040482Y-61038667D01*
X119216306Y-60962417D01*
X119380873Y-60975014D01*
X119518646Y-61068086D01*
X119614087Y-61233256D01*
X119644686Y-61364357D01*
X119656834Y-61498421D01*
X119950629Y-61498421D01*
X119947568Y-61350919D01*
X119924401Y-61126756D01*
X119878510Y-60963526D01*
X119804046Y-60843352D01*
X119695164Y-60748355D01*
X119647695Y-60717655D01*
X119432062Y-60637703D01*
X119195979Y-60632672D01*
X118967601Y-60696233D01*
G36*
X120647184Y-60668697D02*
G01*
X120589024Y-60694116D01*
X120450205Y-60804059D01*
X120331495Y-60963030D01*
X120258079Y-61132677D01*
X120246130Y-61216313D01*
X120286191Y-61333078D01*
X120374065Y-61394862D01*
X120468282Y-61432273D01*
X120511423Y-61439167D01*
X120532429Y-61389138D01*
X120573910Y-61280269D01*
X120592108Y-61231076D01*
X120694152Y-61060913D01*
X120841897Y-60976038D01*
X121031345Y-60978648D01*
X121045377Y-60981991D01*
X121146519Y-61029945D01*
X121220876Y-61123432D01*
X121271662Y-61273939D01*
X121302092Y-61492951D01*
X121315382Y-61791956D01*
X121316628Y-61951056D01*
X121317246Y-62201855D01*
X121321295Y-62372825D01*
X121332067Y-62481454D01*
X121352853Y-62545230D01*
X121386945Y-62581643D01*
X121437635Y-62608179D01*
X121440565Y-62609515D01*
X121538182Y-62650787D01*
X121586542Y-62665985D01*
X121593973Y-62620037D01*
X121600334Y-62493034D01*
X121605168Y-62301235D01*
X121608015Y-62060902D01*
X121608582Y-61885024D01*
X121605687Y-61544688D01*
X121594363Y-61286495D01*
X121570654Y-61095374D01*
X121530603Y-60956253D01*
X121470253Y-60854060D01*
X121385647Y-60773724D01*
X121302101Y-60717655D01*
X121101209Y-60643032D01*
X120867404Y-60626202D01*
X120647184Y-60668697D01*
G37*
X120647184Y-60668697D02*
X120589024Y-60694116D01*
X120450205Y-60804059D01*
X120331495Y-60963030D01*
X120258079Y-61132677D01*
X120246130Y-61216313D01*
X120286191Y-61333078D01*
X120374065Y-61394862D01*
X120468282Y-61432273D01*
X120511423Y-61439167D01*
X120532429Y-61389138D01*
X120573910Y-61280269D01*
X120592108Y-61231076D01*
X120694152Y-61060913D01*
X120841897Y-60976038D01*
X121031345Y-60978648D01*
X121045377Y-60981991D01*
X121146519Y-61029945D01*
X121220876Y-61123432D01*
X121271662Y-61273939D01*
X121302092Y-61492951D01*
X121315382Y-61791956D01*
X121316628Y-61951056D01*
X121317246Y-62201855D01*
X121321295Y-62372825D01*
X121332067Y-62481454D01*
X121352853Y-62545230D01*
X121386945Y-62581643D01*
X121437635Y-62608179D01*
X121440565Y-62609515D01*
X121538182Y-62650787D01*
X121586542Y-62665985D01*
X121593973Y-62620037D01*
X121600334Y-62493034D01*
X121605168Y-62301235D01*
X121608015Y-62060902D01*
X121608582Y-61885024D01*
X121605687Y-61544688D01*
X121594363Y-61286495D01*
X121570654Y-61095374D01*
X121530603Y-60956253D01*
X121470253Y-60854060D01*
X121385647Y-60773724D01*
X121302101Y-60717655D01*
X121101209Y-60643032D01*
X120867404Y-60626202D01*
X120647184Y-60668697D01*
G36*
X122349322Y-60660594D02*
G01*
X122209218Y-60724323D01*
X122099250Y-60801543D01*
X122018676Y-60887887D01*
X121963046Y-60999272D01*
X121927911Y-61151616D01*
X121908821Y-61360835D01*
X121901328Y-61642846D01*
X121900536Y-61828555D01*
X121900536Y-62553046D01*
X122024473Y-62609515D01*
X122122090Y-62650787D01*
X122170450Y-62665985D01*
X122179702Y-62620762D01*
X122187042Y-62498824D01*
X122191536Y-62320772D01*
X122192490Y-62179395D01*
X122196590Y-61975146D01*
X122207646Y-61813113D01*
X122223789Y-61713891D01*
X122236613Y-61692805D01*
X122322814Y-61714338D01*
X122458138Y-61769566D01*
X122614830Y-61844436D01*
X122765137Y-61924892D01*
X122881307Y-61996880D01*
X122935587Y-62046346D01*
X122935802Y-62046881D01*
X122931133Y-62138428D01*
X122889268Y-62225820D01*
X122815765Y-62296802D01*
X122708484Y-62320543D01*
X122616798Y-62317777D01*
X122486942Y-62315741D01*
X122418779Y-62346164D01*
X122377841Y-62426543D01*
X122372679Y-62441700D01*
X122354933Y-62556331D01*
X122402391Y-62625934D01*
X122526093Y-62659105D01*
X122659719Y-62665240D01*
X122900183Y-62619763D01*
X123024662Y-62554817D01*
X123178395Y-62402246D01*
X123259927Y-62214971D01*
X123267244Y-62017085D01*
X123198331Y-61832685D01*
X123094672Y-61717134D01*
X122991177Y-61652442D01*
X122828508Y-61570542D01*
X122638946Y-61487486D01*
X122607350Y-61474795D01*
X122399131Y-61382908D01*
X122279102Y-61301923D01*
X122240499Y-61221413D01*
X122276560Y-61130950D01*
X122338467Y-61060238D01*
X122484787Y-60973170D01*
X122645783Y-60966640D01*
X122793427Y-61033735D01*
X122899690Y-61167544D01*
X122913638Y-61202067D01*
X122994840Y-61329042D01*
X123113392Y-61423309D01*
X123262988Y-61500668D01*
X123262988Y-61281307D01*
X123254183Y-61147280D01*
X123216430Y-61041644D01*
X123132721Y-60928939D01*
X123052364Y-60842127D01*
X122927409Y-60719204D01*
X122830323Y-60653171D01*
X122726046Y-60626684D01*
X122608011Y-60622307D01*
X122349322Y-60660594D01*
G37*
X122349322Y-60660594D02*
X122209218Y-60724323D01*
X122099250Y-60801543D01*
X122018676Y-60887887D01*
X121963046Y-60999272D01*
X121927911Y-61151616D01*
X121908821Y-61360835D01*
X121901328Y-61642846D01*
X121900536Y-61828555D01*
X121900536Y-62553046D01*
X122024473Y-62609515D01*
X122122090Y-62650787D01*
X122170450Y-62665985D01*
X122179702Y-62620762D01*
X122187042Y-62498824D01*
X122191536Y-62320772D01*
X122192490Y-62179395D01*
X122196590Y-61975146D01*
X122207646Y-61813113D01*
X122223789Y-61713891D01*
X122236613Y-61692805D01*
X122322814Y-61714338D01*
X122458138Y-61769566D01*
X122614830Y-61844436D01*
X122765137Y-61924892D01*
X122881307Y-61996880D01*
X122935587Y-62046346D01*
X122935802Y-62046881D01*
X122931133Y-62138428D01*
X122889268Y-62225820D01*
X122815765Y-62296802D01*
X122708484Y-62320543D01*
X122616798Y-62317777D01*
X122486942Y-62315741D01*
X122418779Y-62346164D01*
X122377841Y-62426543D01*
X122372679Y-62441700D01*
X122354933Y-62556331D01*
X122402391Y-62625934D01*
X122526093Y-62659105D01*
X122659719Y-62665240D01*
X122900183Y-62619763D01*
X123024662Y-62554817D01*
X123178395Y-62402246D01*
X123259927Y-62214971D01*
X123267244Y-62017085D01*
X123198331Y-61832685D01*
X123094672Y-61717134D01*
X122991177Y-61652442D01*
X122828508Y-61570542D01*
X122638946Y-61487486D01*
X122607350Y-61474795D01*
X122399131Y-61382908D01*
X122279102Y-61301923D01*
X122240499Y-61221413D01*
X122276560Y-61130950D01*
X122338467Y-61060238D01*
X122484787Y-60973170D01*
X122645783Y-60966640D01*
X122793427Y-61033735D01*
X122899690Y-61167544D01*
X122913638Y-61202067D01*
X122994840Y-61329042D01*
X123113392Y-61423309D01*
X123262988Y-61500668D01*
X123262988Y-61281307D01*
X123254183Y-61147280D01*
X123216430Y-61041644D01*
X123132721Y-60928939D01*
X123052364Y-60842127D01*
X122927409Y-60719204D01*
X122830323Y-60653171D01*
X122726046Y-60626684D01*
X122608011Y-60622307D01*
X122349322Y-60660594D01*
G36*
X123573127Y-60668400D02*
G01*
X123565701Y-60796422D01*
X123559882Y-60990985D01*
X123556141Y-61236702D01*
X123554942Y-61494426D01*
X123554942Y-62366545D01*
X123708925Y-62520528D01*
X123815037Y-62615412D01*
X123908184Y-62653845D01*
X124035496Y-62651413D01*
X124086032Y-62645223D01*
X124243983Y-62627210D01*
X124374629Y-62616888D01*
X124406475Y-62615935D01*
X124513834Y-62622171D01*
X124667381Y-62637824D01*
X124726917Y-62645223D01*
X124873143Y-62656668D01*
X124971411Y-62631808D01*
X125068850Y-62555058D01*
X125104024Y-62520528D01*
X125258007Y-62366545D01*
X125258007Y-60735246D01*
X125134070Y-60678776D01*
X125027350Y-60636950D01*
X124964913Y-60622307D01*
X124948904Y-60668583D01*
X124933942Y-60797884D01*
X124921022Y-60995914D01*
X124911143Y-61248380D01*
X124906378Y-61461675D01*
X124893065Y-62301042D01*
X124776920Y-62317464D01*
X124671284Y-62305982D01*
X124619523Y-62268805D01*
X124605055Y-62199298D01*
X124592702Y-62051240D01*
X124583448Y-61843391D01*
X124578272Y-61594512D01*
X124577526Y-61466435D01*
X124576781Y-60729145D01*
X124423543Y-60675726D01*
X124315084Y-60639406D01*
X124256087Y-60622468D01*
X124254386Y-60622307D01*
X124248467Y-60668349D01*
X124241961Y-60796018D01*
X124235414Y-60989632D01*
X124229373Y-61233507D01*
X124225152Y-61461675D01*
X124211839Y-62301042D01*
X123919885Y-62301042D01*
X123906487Y-61535275D01*
X123893090Y-60769508D01*
X123750762Y-60695908D01*
X123645678Y-60645366D01*
X123583483Y-60622431D01*
X123581688Y-60622307D01*
X123573127Y-60668400D01*
G37*
X123573127Y-60668400D02*
X123565701Y-60796422D01*
X123559882Y-60990985D01*
X123556141Y-61236702D01*
X123554942Y-61494426D01*
X123554942Y-62366545D01*
X123708925Y-62520528D01*
X123815037Y-62615412D01*
X123908184Y-62653845D01*
X124035496Y-62651413D01*
X124086032Y-62645223D01*
X124243983Y-62627210D01*
X124374629Y-62616888D01*
X124406475Y-62615935D01*
X124513834Y-62622171D01*
X124667381Y-62637824D01*
X124726917Y-62645223D01*
X124873143Y-62656668D01*
X124971411Y-62631808D01*
X125068850Y-62555058D01*
X125104024Y-62520528D01*
X125258007Y-62366545D01*
X125258007Y-60735246D01*
X125134070Y-60678776D01*
X125027350Y-60636950D01*
X124964913Y-60622307D01*
X124948904Y-60668583D01*
X124933942Y-60797884D01*
X124921022Y-60995914D01*
X124911143Y-61248380D01*
X124906378Y-61461675D01*
X124893065Y-62301042D01*
X124776920Y-62317464D01*
X124671284Y-62305982D01*
X124619523Y-62268805D01*
X124605055Y-62199298D01*
X124592702Y-62051240D01*
X124583448Y-61843391D01*
X124578272Y-61594512D01*
X124577526Y-61466435D01*
X124576781Y-60729145D01*
X124423543Y-60675726D01*
X124315084Y-60639406D01*
X124256087Y-60622468D01*
X124254386Y-60622307D01*
X124248467Y-60668349D01*
X124241961Y-60796018D01*
X124235414Y-60989632D01*
X124229373Y-61233507D01*
X124225152Y-61461675D01*
X124211839Y-62301042D01*
X123919885Y-62301042D01*
X123906487Y-61535275D01*
X123893090Y-60769508D01*
X123750762Y-60695908D01*
X123645678Y-60645366D01*
X123583483Y-60622431D01*
X123581688Y-60622307D01*
X123573127Y-60668400D01*
G36*
X125550143Y-61026093D02*
G01*
X125550761Y-61389769D01*
X125553153Y-61669532D01*
X125558329Y-61878784D01*
X125567296Y-62030926D01*
X125581064Y-62139359D01*
X125600639Y-62217485D01*
X125627032Y-62278707D01*
X125647016Y-62313652D01*
X125812517Y-62503157D01*
X126022352Y-62621942D01*
X126254514Y-62664564D01*
X126486992Y-62625583D01*
X126625428Y-62555532D01*
X126770758Y-62434353D01*
X126869805Y-62286354D01*
X126929565Y-62092534D01*
X126957031Y-61833892D01*
X126960921Y-61644146D01*
X126960397Y-61630510D01*
X126620459Y-61630510D01*
X126618383Y-61848096D01*
X126608870Y-61992134D01*
X126586992Y-62086364D01*
X126547824Y-62154523D01*
X126501024Y-62205936D01*
X126343854Y-62305175D01*
X126175100Y-62313653D01*
X126015607Y-62230799D01*
X126003193Y-62219572D01*
X125950209Y-62161171D01*
X125916986Y-62091686D01*
X125899000Y-61988270D01*
X125891725Y-61828073D01*
X125890574Y-61650965D01*
X125893068Y-61428467D01*
X125903392Y-61280037D01*
X125925809Y-61182489D01*
X125964582Y-61112637D01*
X125996374Y-61075539D01*
X126144061Y-60981975D01*
X126314154Y-60970725D01*
X126476508Y-61042190D01*
X126507840Y-61068720D01*
X126561178Y-61127636D01*
X126594469Y-61197837D01*
X126612344Y-61302418D01*
X126619434Y-61464479D01*
X126620459Y-61630510D01*
X126960397Y-61630510D01*
X126949160Y-61338579D01*
X126909213Y-61108993D01*
X126834087Y-60936387D01*
X126716786Y-60801760D01*
X126625428Y-60732759D01*
X126459373Y-60658214D01*
X126266908Y-60623613D01*
X126088001Y-60632875D01*
X125987892Y-60670238D01*
X125948607Y-60680872D01*
X125922539Y-60641225D01*
X125904342Y-60534981D01*
X125890574Y-60373145D01*
X125875501Y-60192902D01*
X125854564Y-60084458D01*
X125816468Y-60022446D01*
X125749915Y-59981499D01*
X125708103Y-59963366D01*
X125549961Y-59897120D01*
X125550143Y-61026093D01*
G37*
X125550143Y-61026093D02*
X125550761Y-61389769D01*
X125553153Y-61669532D01*
X125558329Y-61878784D01*
X125567296Y-62030926D01*
X125581064Y-62139359D01*
X125600639Y-62217485D01*
X125627032Y-62278707D01*
X125647016Y-62313652D01*
X125812517Y-62503157D01*
X126022352Y-62621942D01*
X126254514Y-62664564D01*
X126486992Y-62625583D01*
X126625428Y-62555532D01*
X126770758Y-62434353D01*
X126869805Y-62286354D01*
X126929565Y-62092534D01*
X126957031Y-61833892D01*
X126960921Y-61644146D01*
X126960397Y-61630510D01*
X126620459Y-61630510D01*
X126618383Y-61848096D01*
X126608870Y-61992134D01*
X126586992Y-62086364D01*
X126547824Y-62154523D01*
X126501024Y-62205936D01*
X126343854Y-62305175D01*
X126175100Y-62313653D01*
X126015607Y-62230799D01*
X126003193Y-62219572D01*
X125950209Y-62161171D01*
X125916986Y-62091686D01*
X125899000Y-61988270D01*
X125891725Y-61828073D01*
X125890574Y-61650965D01*
X125893068Y-61428467D01*
X125903392Y-61280037D01*
X125925809Y-61182489D01*
X125964582Y-61112637D01*
X125996374Y-61075539D01*
X126144061Y-60981975D01*
X126314154Y-60970725D01*
X126476508Y-61042190D01*
X126507840Y-61068720D01*
X126561178Y-61127636D01*
X126594469Y-61197837D01*
X126612344Y-61302418D01*
X126619434Y-61464479D01*
X126620459Y-61630510D01*
X126960397Y-61630510D01*
X126949160Y-61338579D01*
X126909213Y-61108993D01*
X126834087Y-60936387D01*
X126716786Y-60801760D01*
X126625428Y-60732759D01*
X126459373Y-60658214D01*
X126266908Y-60623613D01*
X126088001Y-60632875D01*
X125987892Y-60670238D01*
X125948607Y-60680872D01*
X125922539Y-60641225D01*
X125904342Y-60534981D01*
X125890574Y-60373145D01*
X125875501Y-60192902D01*
X125854564Y-60084458D01*
X125816468Y-60022446D01*
X125749915Y-59981499D01*
X125708103Y-59963366D01*
X125549961Y-59897120D01*
X125550143Y-61026093D01*
G36*
X127763428Y-60638534D02*
G01*
X127542391Y-60720099D01*
X127363317Y-60864366D01*
X127293280Y-60965920D01*
X127216929Y-61152268D01*
X127218515Y-61287010D01*
X127298653Y-61377631D01*
X127328304Y-61393040D01*
X127456326Y-61441084D01*
X127521706Y-61428776D01*
X127543852Y-61348098D01*
X127544980Y-61303533D01*
X127585523Y-61139581D01*
X127691198Y-61024891D01*
X127838076Y-60969497D01*
X128002227Y-60983435D01*
X128135663Y-61055827D01*
X128180731Y-61097120D01*
X128212677Y-61147216D01*
X128234256Y-61222942D01*
X128248227Y-61341128D01*
X128257345Y-61518600D01*
X128264369Y-61772186D01*
X128266188Y-61852479D01*
X128272822Y-62127158D01*
X128280364Y-62320481D01*
X128291675Y-62448388D01*
X128309615Y-62526822D01*
X128337045Y-62571725D01*
X128376823Y-62599038D01*
X128402290Y-62611105D01*
X128510444Y-62652367D01*
X128574110Y-62665985D01*
X128595146Y-62620505D01*
X128607987Y-62483006D01*
X128612700Y-62251902D01*
X128609356Y-61925604D01*
X128608314Y-61875276D01*
X128600965Y-61577581D01*
X128592274Y-61360205D01*
X128579908Y-61206153D01*
X128561530Y-61098430D01*
X128534805Y-61020042D01*
X128497398Y-60953994D01*
X128477830Y-60925691D01*
X128365634Y-60800467D01*
X128240150Y-60703063D01*
X128224787Y-60694561D01*
X127999777Y-60627433D01*
X127763428Y-60638534D01*
G37*
X127763428Y-60638534D02*
X127542391Y-60720099D01*
X127363317Y-60864366D01*
X127293280Y-60965920D01*
X127216929Y-61152268D01*
X127218515Y-61287010D01*
X127298653Y-61377631D01*
X127328304Y-61393040D01*
X127456326Y-61441084D01*
X127521706Y-61428776D01*
X127543852Y-61348098D01*
X127544980Y-61303533D01*
X127585523Y-61139581D01*
X127691198Y-61024891D01*
X127838076Y-60969497D01*
X128002227Y-60983435D01*
X128135663Y-61055827D01*
X128180731Y-61097120D01*
X128212677Y-61147216D01*
X128234256Y-61222942D01*
X128248227Y-61341128D01*
X128257345Y-61518600D01*
X128264369Y-61772186D01*
X128266188Y-61852479D01*
X128272822Y-62127158D01*
X128280364Y-62320481D01*
X128291675Y-62448388D01*
X128309615Y-62526822D01*
X128337045Y-62571725D01*
X128376823Y-62599038D01*
X128402290Y-62611105D01*
X128510444Y-62652367D01*
X128574110Y-62665985D01*
X128595146Y-62620505D01*
X128607987Y-62483006D01*
X128612700Y-62251902D01*
X128609356Y-61925604D01*
X128608314Y-61875276D01*
X128600965Y-61577581D01*
X128592274Y-61360205D01*
X128579908Y-61206153D01*
X128561530Y-61098430D01*
X128534805Y-61020042D01*
X128497398Y-60953994D01*
X128477830Y-60925691D01*
X128365634Y-60800467D01*
X128240150Y-60703063D01*
X128224787Y-60694561D01*
X127999777Y-60627433D01*
X127763428Y-60638534D01*
G36*
X129406759Y-60642601D02*
G01*
X129216095Y-60713403D01*
X129213914Y-60714764D01*
X129095994Y-60801550D01*
X129008940Y-60902973D01*
X128947714Y-61035145D01*
X128907277Y-61214182D01*
X128882591Y-61456195D01*
X128868618Y-61777299D01*
X128867393Y-61823048D01*
X128849800Y-62512869D01*
X128997848Y-62589427D01*
X129104970Y-62641163D01*
X129169649Y-62665678D01*
X129172641Y-62665985D01*
X129183834Y-62620751D01*
X129192725Y-62498736D01*
X129198194Y-62320468D01*
X129199387Y-62176116D01*
X129199414Y-61942271D01*
X129210104Y-61795419D01*
X129247367Y-61725376D01*
X129327112Y-61721958D01*
X129465251Y-61774983D01*
X129673812Y-61872454D01*
X129827171Y-61953409D01*
X129906048Y-62023644D01*
X129929236Y-62100194D01*
X129929272Y-62103982D01*
X129891007Y-62235852D01*
X129777717Y-62307091D01*
X129604336Y-62317410D01*
X129479450Y-62315620D01*
X129413601Y-62351589D01*
X129372536Y-62437985D01*
X129348901Y-62548054D01*
X129382961Y-62610508D01*
X129395786Y-62619446D01*
X129516528Y-62655343D01*
X129685612Y-62660426D01*
X129859739Y-62636631D01*
X129983124Y-62593147D01*
X130153713Y-62448309D01*
X130250681Y-62246694D01*
X130269885Y-62089180D01*
X130255230Y-61947104D01*
X130202199Y-61831127D01*
X130097194Y-61728121D01*
X129926614Y-61624954D01*
X129676862Y-61508496D01*
X129661647Y-61501914D01*
X129436671Y-61397981D01*
X129297843Y-61312743D01*
X129238338Y-61236147D01*
X129251328Y-61158139D01*
X129329988Y-61068664D01*
X129353510Y-61048073D01*
X129511067Y-60968236D01*
X129674323Y-60971597D01*
X129816505Y-61049874D01*
X129910840Y-61194781D01*
X129919605Y-61223224D01*
X130004962Y-61361174D01*
X130113271Y-61427620D01*
X130269885Y-61493471D01*
X130269885Y-61323097D01*
X130222244Y-61075454D01*
X130080841Y-60848307D01*
X130007258Y-60772318D01*
X129839991Y-60674790D01*
X129627274Y-60630640D01*
X129406759Y-60642601D01*
G37*
X129406759Y-60642601D02*
X129216095Y-60713403D01*
X129213914Y-60714764D01*
X129095994Y-60801550D01*
X129008940Y-60902973D01*
X128947714Y-61035145D01*
X128907277Y-61214182D01*
X128882591Y-61456195D01*
X128868618Y-61777299D01*
X128867393Y-61823048D01*
X128849800Y-62512869D01*
X128997848Y-62589427D01*
X129104970Y-62641163D01*
X129169649Y-62665678D01*
X129172641Y-62665985D01*
X129183834Y-62620751D01*
X129192725Y-62498736D01*
X129198194Y-62320468D01*
X129199387Y-62176116D01*
X129199414Y-61942271D01*
X129210104Y-61795419D01*
X129247367Y-61725376D01*
X129327112Y-61721958D01*
X129465251Y-61774983D01*
X129673812Y-61872454D01*
X129827171Y-61953409D01*
X129906048Y-62023644D01*
X129929236Y-62100194D01*
X129929272Y-62103982D01*
X129891007Y-62235852D01*
X129777717Y-62307091D01*
X129604336Y-62317410D01*
X129479450Y-62315620D01*
X129413601Y-62351589D01*
X129372536Y-62437985D01*
X129348901Y-62548054D01*
X129382961Y-62610508D01*
X129395786Y-62619446D01*
X129516528Y-62655343D01*
X129685612Y-62660426D01*
X129859739Y-62636631D01*
X129983124Y-62593147D01*
X130153713Y-62448309D01*
X130250681Y-62246694D01*
X130269885Y-62089180D01*
X130255230Y-61947104D01*
X130202199Y-61831127D01*
X130097194Y-61728121D01*
X129926614Y-61624954D01*
X129676862Y-61508496D01*
X129661647Y-61501914D01*
X129436671Y-61397981D01*
X129297843Y-61312743D01*
X129238338Y-61236147D01*
X129251328Y-61158139D01*
X129329988Y-61068664D01*
X129353510Y-61048073D01*
X129511067Y-60968236D01*
X129674323Y-60971597D01*
X129816505Y-61049874D01*
X129910840Y-61194781D01*
X129919605Y-61223224D01*
X130004962Y-61361174D01*
X130113271Y-61427620D01*
X130269885Y-61493471D01*
X130269885Y-61323097D01*
X130222244Y-61075454D01*
X130080841Y-60848307D01*
X130007258Y-60772318D01*
X129839991Y-60674790D01*
X129627274Y-60630640D01*
X129406759Y-60642601D01*
G36*
X131632337Y-60308429D02*
G01*
X131618077Y-60507313D01*
X131601698Y-60624511D01*
X131579002Y-60675632D01*
X131545788Y-60676286D01*
X131535019Y-60670183D01*
X131391767Y-60625997D01*
X131205425Y-60628577D01*
X131015976Y-60673999D01*
X130897483Y-60732759D01*
X130775991Y-60826631D01*
X130687177Y-60932865D01*
X130626208Y-61067850D01*
X130588250Y-61247976D01*
X130568468Y-61489633D01*
X130562030Y-61809211D01*
X130561914Y-61870516D01*
X130561839Y-62559147D01*
X130715077Y-62612566D01*
X130823913Y-62648908D01*
X130883626Y-62665828D01*
X130885383Y-62665985D01*
X130891264Y-62620100D01*
X130896268Y-62493539D01*
X130900016Y-62302941D01*
X130902127Y-62064948D01*
X130902452Y-61920252D01*
X130903129Y-61634955D01*
X130906614Y-61430480D01*
X130915088Y-61290334D01*
X130930734Y-61198023D01*
X130955731Y-61137053D01*
X130992262Y-61090931D01*
X131015071Y-61068720D01*
X131171751Y-60979214D01*
X131342726Y-60972511D01*
X131497850Y-61048208D01*
X131526537Y-61075539D01*
X131568613Y-61126929D01*
X131597799Y-61187886D01*
X131616429Y-61276025D01*
X131626839Y-61408961D01*
X131631363Y-61604309D01*
X131632337Y-61873652D01*
X131632337Y-62559147D01*
X131785575Y-62612566D01*
X131894411Y-62648908D01*
X131954124Y-62665828D01*
X131955881Y-62665985D01*
X131960375Y-62619414D01*
X131964425Y-62488051D01*
X131967870Y-62284422D01*
X131970547Y-62021054D01*
X131972294Y-61710471D01*
X131972949Y-61365201D01*
X131972950Y-61349843D01*
X131972950Y-60033701D01*
X131656666Y-59900289D01*
X131632337Y-60308429D01*
G37*
X131632337Y-60308429D02*
X131618077Y-60507313D01*
X131601698Y-60624511D01*
X131579002Y-60675632D01*
X131545788Y-60676286D01*
X131535019Y-60670183D01*
X131391767Y-60625997D01*
X131205425Y-60628577D01*
X131015976Y-60673999D01*
X130897483Y-60732759D01*
X130775991Y-60826631D01*
X130687177Y-60932865D01*
X130626208Y-61067850D01*
X130588250Y-61247976D01*
X130568468Y-61489633D01*
X130562030Y-61809211D01*
X130561914Y-61870516D01*
X130561839Y-62559147D01*
X130715077Y-62612566D01*
X130823913Y-62648908D01*
X130883626Y-62665828D01*
X130885383Y-62665985D01*
X130891264Y-62620100D01*
X130896268Y-62493539D01*
X130900016Y-62302941D01*
X130902127Y-62064948D01*
X130902452Y-61920252D01*
X130903129Y-61634955D01*
X130906614Y-61430480D01*
X130915088Y-61290334D01*
X130930734Y-61198023D01*
X130955731Y-61137053D01*
X130992262Y-61090931D01*
X131015071Y-61068720D01*
X131171751Y-60979214D01*
X131342726Y-60972511D01*
X131497850Y-61048208D01*
X131526537Y-61075539D01*
X131568613Y-61126929D01*
X131597799Y-61187886D01*
X131616429Y-61276025D01*
X131626839Y-61408961D01*
X131631363Y-61604309D01*
X131632337Y-61873652D01*
X131632337Y-62559147D01*
X131785575Y-62612566D01*
X131894411Y-62648908D01*
X131954124Y-62665828D01*
X131955881Y-62665985D01*
X131960375Y-62619414D01*
X131964425Y-62488051D01*
X131967870Y-62284422D01*
X131970547Y-62021054D01*
X131972294Y-61710471D01*
X131972949Y-61365201D01*
X131972950Y-61349843D01*
X131972950Y-60033701D01*
X131656666Y-59900289D01*
X131632337Y-60308429D01*
G36*
X135680747Y-60576461D02*
G01*
X135488903Y-60705519D01*
X135340648Y-60891915D01*
X135252084Y-61129109D01*
X135234172Y-61303691D01*
X135236206Y-61376544D01*
X135253240Y-61432324D01*
X135300064Y-61482298D01*
X135391473Y-61537733D01*
X135542258Y-61609896D01*
X135767213Y-61710055D01*
X135768352Y-61710558D01*
X135975415Y-61805396D01*
X136145212Y-61889609D01*
X136260388Y-61954133D01*
X136303590Y-61989900D01*
X136303601Y-61990188D01*
X136265525Y-62068074D01*
X136176484Y-62153924D01*
X136074263Y-62215769D01*
X136022474Y-62228054D01*
X135881184Y-62185564D01*
X135759512Y-62079152D01*
X135700145Y-61962156D01*
X135643033Y-61875905D01*
X135531161Y-61777681D01*
X135399654Y-61692827D01*
X135283632Y-61646681D01*
X135259371Y-61644146D01*
X135232062Y-61685868D01*
X135230416Y-61792519D01*
X135250486Y-61936321D01*
X135288322Y-62089501D01*
X135339977Y-62224283D01*
X135342586Y-62229516D01*
X135498031Y-62446557D01*
X135699493Y-62594185D01*
X135928288Y-62666644D01*
X136165733Y-62658177D01*
X136393146Y-62563027D01*
X136403257Y-62556337D01*
X136582150Y-62394211D01*
X136699780Y-62182682D01*
X136764877Y-61904543D01*
X136773613Y-61826398D01*
X136789086Y-61457549D01*
X136770537Y-61285541D01*
X136303601Y-61285541D01*
X136297534Y-61392838D01*
X136264351Y-61424152D01*
X136181623Y-61400725D01*
X136051221Y-61345348D01*
X135905457Y-61275932D01*
X135901834Y-61274094D01*
X135778283Y-61209108D01*
X135728697Y-61165740D01*
X135740925Y-61120275D01*
X135792412Y-61060536D01*
X135923399Y-60974085D01*
X136064462Y-60967733D01*
X136190995Y-61030649D01*
X136278392Y-61152003D01*
X136303601Y-61285541D01*
X136770537Y-61285541D01*
X136757260Y-61162435D01*
X136675609Y-60928382D01*
X136561939Y-60764413D01*
X136356775Y-60598716D01*
X136130786Y-60516519D01*
X135900075Y-60511281D01*
X135680747Y-60576461D01*
G37*
X135680747Y-60576461D02*
X135488903Y-60705519D01*
X135340648Y-60891915D01*
X135252084Y-61129109D01*
X135234172Y-61303691D01*
X135236206Y-61376544D01*
X135253240Y-61432324D01*
X135300064Y-61482298D01*
X135391473Y-61537733D01*
X135542258Y-61609896D01*
X135767213Y-61710055D01*
X135768352Y-61710558D01*
X135975415Y-61805396D01*
X136145212Y-61889609D01*
X136260388Y-61954133D01*
X136303590Y-61989900D01*
X136303601Y-61990188D01*
X136265525Y-62068074D01*
X136176484Y-62153924D01*
X136074263Y-62215769D01*
X136022474Y-62228054D01*
X135881184Y-62185564D01*
X135759512Y-62079152D01*
X135700145Y-61962156D01*
X135643033Y-61875905D01*
X135531161Y-61777681D01*
X135399654Y-61692827D01*
X135283632Y-61646681D01*
X135259371Y-61644146D01*
X135232062Y-61685868D01*
X135230416Y-61792519D01*
X135250486Y-61936321D01*
X135288322Y-62089501D01*
X135339977Y-62224283D01*
X135342586Y-62229516D01*
X135498031Y-62446557D01*
X135699493Y-62594185D01*
X135928288Y-62666644D01*
X136165733Y-62658177D01*
X136393146Y-62563027D01*
X136403257Y-62556337D01*
X136582150Y-62394211D01*
X136699780Y-62182682D01*
X136764877Y-61904543D01*
X136773613Y-61826398D01*
X136789086Y-61457549D01*
X136770537Y-61285541D01*
X136303601Y-61285541D01*
X136297534Y-61392838D01*
X136264351Y-61424152D01*
X136181623Y-61400725D01*
X136051221Y-61345348D01*
X135905457Y-61275932D01*
X135901834Y-61274094D01*
X135778283Y-61209108D01*
X135728697Y-61165740D01*
X135740925Y-61120275D01*
X135792412Y-61060536D01*
X135923399Y-60974085D01*
X136064462Y-60967733D01*
X136190995Y-61030649D01*
X136278392Y-61152003D01*
X136303601Y-61285541D01*
X136770537Y-61285541D01*
X136757260Y-61162435D01*
X136675609Y-60928382D01*
X136561939Y-60764413D01*
X136356775Y-60598716D01*
X136130786Y-60516519D01*
X135900075Y-60511281D01*
X135680747Y-60576461D01*
G36*
X139459632Y-60545358D02*
G01*
X139231564Y-60665280D01*
X139063248Y-60858278D01*
X139003459Y-60982355D01*
X138956934Y-61168653D01*
X138933118Y-61404045D01*
X138930860Y-61660952D01*
X138949008Y-61911799D01*
X138986411Y-62129009D01*
X139041916Y-62285005D01*
X139058975Y-62311871D01*
X139261030Y-62512415D01*
X139501022Y-62632529D01*
X139761434Y-62667680D01*
X140024753Y-62613337D01*
X140098033Y-62580756D01*
X140240739Y-62480353D01*
X140365986Y-62347225D01*
X140377823Y-62330341D01*
X140425935Y-62248969D01*
X140457738Y-62161984D01*
X140476526Y-62047475D01*
X140485592Y-61883530D01*
X140488229Y-61648240D01*
X140488275Y-61595487D01*
X140488154Y-61578699D01*
X140001685Y-61578699D01*
X139998854Y-61800761D01*
X139987712Y-61948123D01*
X139964291Y-62043308D01*
X139924619Y-62108837D01*
X139904367Y-62130736D01*
X139787940Y-62213953D01*
X139674902Y-62210158D01*
X139560609Y-62137973D01*
X139492441Y-62060911D01*
X139452070Y-61948429D01*
X139429398Y-61771055D01*
X139427843Y-61750367D01*
X139423973Y-61428911D01*
X139464417Y-61190167D01*
X139548626Y-61035600D01*
X139676053Y-60966678D01*
X139721540Y-60962920D01*
X139840981Y-60981821D01*
X139922683Y-61047306D01*
X139972637Y-61172544D01*
X139996834Y-61370704D01*
X140001685Y-61578699D01*
X140488154Y-61578699D01*
X140486463Y-61344765D01*
X140478853Y-61169582D01*
X140462186Y-61048191D01*
X140433201Y-60958847D01*
X140388640Y-60879803D01*
X140378793Y-60865107D01*
X140213280Y-60667011D01*
X140032930Y-60552014D01*
X139813365Y-60506365D01*
X139738805Y-60504135D01*
X139459632Y-60545358D01*
G37*
X139459632Y-60545358D02*
X139231564Y-60665280D01*
X139063248Y-60858278D01*
X139003459Y-60982355D01*
X138956934Y-61168653D01*
X138933118Y-61404045D01*
X138930860Y-61660952D01*
X138949008Y-61911799D01*
X138986411Y-62129009D01*
X139041916Y-62285005D01*
X139058975Y-62311871D01*
X139261030Y-62512415D01*
X139501022Y-62632529D01*
X139761434Y-62667680D01*
X140024753Y-62613337D01*
X140098033Y-62580756D01*
X140240739Y-62480353D01*
X140365986Y-62347225D01*
X140377823Y-62330341D01*
X140425935Y-62248969D01*
X140457738Y-62161984D01*
X140476526Y-62047475D01*
X140485592Y-61883530D01*
X140488229Y-61648240D01*
X140488275Y-61595487D01*
X140488154Y-61578699D01*
X140001685Y-61578699D01*
X139998854Y-61800761D01*
X139987712Y-61948123D01*
X139964291Y-62043308D01*
X139924619Y-62108837D01*
X139904367Y-62130736D01*
X139787940Y-62213953D01*
X139674902Y-62210158D01*
X139560609Y-62137973D01*
X139492441Y-62060911D01*
X139452070Y-61948429D01*
X139429398Y-61771055D01*
X139427843Y-61750367D01*
X139423973Y-61428911D01*
X139464417Y-61190167D01*
X139548626Y-61035600D01*
X139676053Y-60966678D01*
X139721540Y-60962920D01*
X139840981Y-60981821D01*
X139922683Y-61047306D01*
X139972637Y-61172544D01*
X139996834Y-61370704D01*
X140001685Y-61578699D01*
X140488154Y-61578699D01*
X140486463Y-61344765D01*
X140478853Y-61169582D01*
X140462186Y-61048191D01*
X140433201Y-60958847D01*
X140388640Y-60879803D01*
X140378793Y-60865107D01*
X140213280Y-60667011D01*
X140032930Y-60552014D01*
X139813365Y-60506365D01*
X139738805Y-60504135D01*
X139459632Y-60545358D01*
G36*
X133844284Y-60564865D02*
G01*
X133688128Y-60655190D01*
X133579559Y-60744845D01*
X133500155Y-60838776D01*
X133445454Y-60953646D01*
X133410990Y-61106114D01*
X133392299Y-61312844D01*
X133384919Y-61590496D01*
X133384061Y-61790086D01*
X133384061Y-62524766D01*
X133590862Y-62617472D01*
X133797662Y-62710179D01*
X133821992Y-61905492D01*
X133832045Y-61604966D01*
X133842591Y-61386835D01*
X133855657Y-61236186D01*
X133873271Y-61138107D01*
X133897461Y-61077688D01*
X133930254Y-61040016D01*
X133940775Y-61031862D01*
X134100187Y-60968178D01*
X134261321Y-60993378D01*
X134357241Y-61060238D01*
X134396259Y-61107616D01*
X134423267Y-61169787D01*
X134440432Y-61264039D01*
X134449918Y-61407657D01*
X134453893Y-61617931D01*
X134454559Y-61837070D01*
X134454690Y-62111999D01*
X134459397Y-62306602D01*
X134475154Y-62437851D01*
X134508433Y-62522718D01*
X134565707Y-62578177D01*
X134653447Y-62621201D01*
X134770638Y-62665907D01*
X134898632Y-62714571D01*
X134883396Y-61850910D01*
X134877261Y-61539565D01*
X134870082Y-61309483D01*
X134859795Y-61144614D01*
X134844330Y-61028909D01*
X134821621Y-60946316D01*
X134789601Y-60880788D01*
X134750997Y-60822974D01*
X134564747Y-60638283D01*
X134337479Y-60531481D01*
X134090291Y-60505898D01*
X133844284Y-60564865D01*
G37*
X133844284Y-60564865D02*
X133688128Y-60655190D01*
X133579559Y-60744845D01*
X133500155Y-60838776D01*
X133445454Y-60953646D01*
X133410990Y-61106114D01*
X133392299Y-61312844D01*
X133384919Y-61590496D01*
X133384061Y-61790086D01*
X133384061Y-62524766D01*
X133590862Y-62617472D01*
X133797662Y-62710179D01*
X133821992Y-61905492D01*
X133832045Y-61604966D01*
X133842591Y-61386835D01*
X133855657Y-61236186D01*
X133873271Y-61138107D01*
X133897461Y-61077688D01*
X133930254Y-61040016D01*
X133940775Y-61031862D01*
X134100187Y-60968178D01*
X134261321Y-60993378D01*
X134357241Y-61060238D01*
X134396259Y-61107616D01*
X134423267Y-61169787D01*
X134440432Y-61264039D01*
X134449918Y-61407657D01*
X134453893Y-61617931D01*
X134454559Y-61837070D01*
X134454690Y-62111999D01*
X134459397Y-62306602D01*
X134475154Y-62437851D01*
X134508433Y-62522718D01*
X134565707Y-62578177D01*
X134653447Y-62621201D01*
X134770638Y-62665907D01*
X134898632Y-62714571D01*
X134883396Y-61850910D01*
X134877261Y-61539565D01*
X134870082Y-61309483D01*
X134859795Y-61144614D01*
X134844330Y-61028909D01*
X134821621Y-60946316D01*
X134789601Y-60880788D01*
X134750997Y-60822974D01*
X134564747Y-60638283D01*
X134337479Y-60531481D01*
X134090291Y-60505898D01*
X133844284Y-60564865D01*
G36*
X137586834Y-60538506D02*
G01*
X137400916Y-60631204D01*
X137236820Y-60801885D01*
X137191628Y-60865107D01*
X137142396Y-60947834D01*
X137110453Y-61037687D01*
X137092178Y-61157608D01*
X137083952Y-61330537D01*
X137082145Y-61558835D01*
X137090303Y-61871693D01*
X137118659Y-62106598D01*
X137173038Y-62281847D01*
X137259263Y-62415738D01*
X137383159Y-62526569D01*
X137392263Y-62533131D01*
X137514366Y-62600256D01*
X137661400Y-62633467D01*
X137848396Y-62641655D01*
X138152387Y-62641655D01*
X138152515Y-62936762D01*
X138155344Y-63101117D01*
X138172582Y-63197523D01*
X138217630Y-63255343D01*
X138303886Y-63303941D01*
X138324601Y-63313869D01*
X138421538Y-63360398D01*
X138496593Y-63389786D01*
X138552402Y-63392324D01*
X138591603Y-63358302D01*
X138616832Y-63278012D01*
X138630728Y-63141743D01*
X138635927Y-62939787D01*
X138635066Y-62662434D01*
X138630784Y-62299976D01*
X138629447Y-62191560D01*
X138624629Y-61817837D01*
X138620313Y-61573369D01*
X138152643Y-61573369D01*
X138150015Y-61780877D01*
X138138333Y-61916645D01*
X138111903Y-62006192D01*
X138065031Y-62075039D01*
X138033207Y-62108618D01*
X137903108Y-62206869D01*
X137787921Y-62214866D01*
X137669066Y-62133730D01*
X137666053Y-62130736D01*
X137617695Y-62068030D01*
X137588278Y-61982808D01*
X137573440Y-61851564D01*
X137568819Y-61650793D01*
X137568735Y-61606314D01*
X137579902Y-61329639D01*
X137616253Y-61137842D01*
X137682059Y-61020757D01*
X137781593Y-60968215D01*
X137839119Y-60962920D01*
X137975649Y-60987767D01*
X138069298Y-61069581D01*
X138125670Y-61219270D01*
X138150367Y-61447743D01*
X138152643Y-61573369D01*
X138620313Y-61573369D01*
X138619522Y-61528587D01*
X138612922Y-61310970D01*
X138603623Y-61152146D01*
X138590423Y-61039274D01*
X138572115Y-60959513D01*
X138547497Y-60900023D01*
X138515363Y-60847963D01*
X138501585Y-60828373D01*
X138318812Y-60643328D01*
X138087724Y-60538412D01*
X137820410Y-60509163D01*
X137586834Y-60538506D01*
G37*
X137586834Y-60538506D02*
X137400916Y-60631204D01*
X137236820Y-60801885D01*
X137191628Y-60865107D01*
X137142396Y-60947834D01*
X137110453Y-61037687D01*
X137092178Y-61157608D01*
X137083952Y-61330537D01*
X137082145Y-61558835D01*
X137090303Y-61871693D01*
X137118659Y-62106598D01*
X137173038Y-62281847D01*
X137259263Y-62415738D01*
X137383159Y-62526569D01*
X137392263Y-62533131D01*
X137514366Y-62600256D01*
X137661400Y-62633467D01*
X137848396Y-62641655D01*
X138152387Y-62641655D01*
X138152515Y-62936762D01*
X138155344Y-63101117D01*
X138172582Y-63197523D01*
X138217630Y-63255343D01*
X138303886Y-63303941D01*
X138324601Y-63313869D01*
X138421538Y-63360398D01*
X138496593Y-63389786D01*
X138552402Y-63392324D01*
X138591603Y-63358302D01*
X138616832Y-63278012D01*
X138630728Y-63141743D01*
X138635927Y-62939787D01*
X138635066Y-62662434D01*
X138630784Y-62299976D01*
X138629447Y-62191560D01*
X138624629Y-61817837D01*
X138620313Y-61573369D01*
X138152643Y-61573369D01*
X138150015Y-61780877D01*
X138138333Y-61916645D01*
X138111903Y-62006192D01*
X138065031Y-62075039D01*
X138033207Y-62108618D01*
X137903108Y-62206869D01*
X137787921Y-62214866D01*
X137669066Y-62133730D01*
X137666053Y-62130736D01*
X137617695Y-62068030D01*
X137588278Y-61982808D01*
X137573440Y-61851564D01*
X137568819Y-61650793D01*
X137568735Y-61606314D01*
X137579902Y-61329639D01*
X137616253Y-61137842D01*
X137682059Y-61020757D01*
X137781593Y-60968215D01*
X137839119Y-60962920D01*
X137975649Y-60987767D01*
X138069298Y-61069581D01*
X138125670Y-61219270D01*
X138150367Y-61447743D01*
X138152643Y-61573369D01*
X138620313Y-61573369D01*
X138619522Y-61528587D01*
X138612922Y-61310970D01*
X138603623Y-61152146D01*
X138590423Y-61039274D01*
X138572115Y-60959513D01*
X138547497Y-60900023D01*
X138515363Y-60847963D01*
X138501585Y-60828373D01*
X138318812Y-60643328D01*
X138087724Y-60538412D01*
X137820410Y-60509163D01*
X137586834Y-60538506D01*
D11*
%TO.C,C14*%
X200733252Y-126519000D02*
X200210748Y-126519000D01*
X200733252Y-127989000D02*
X200210748Y-127989000D01*
%TO.C,C12*%
X217243252Y-126519000D02*
X216720748Y-126519000D01*
X217243252Y-127989000D02*
X216720748Y-127989000D01*
%TO.C,C10*%
X184223252Y-126519000D02*
X183700748Y-126519000D01*
X184223252Y-127989000D02*
X183700748Y-127989000D01*
%TO.C,C8*%
X151203252Y-126519000D02*
X150680748Y-126519000D01*
X151203252Y-127989000D02*
X150680748Y-127989000D01*
%TO.C,C6*%
X167713252Y-126519000D02*
X167190748Y-126519000D01*
X167713252Y-127989000D02*
X167190748Y-127989000D01*
%TO.C,C4*%
X134439252Y-126519000D02*
X133916748Y-126519000D01*
X134439252Y-127989000D02*
X133916748Y-127989000D01*
%TO.C,C16*%
X239041000Y-38173252D02*
X239041000Y-37650748D01*
X240511000Y-38173252D02*
X240511000Y-37650748D01*
%TO.C,\u002AD3*%
X238128000Y-40014000D02*
X232428000Y-40014000D01*
X238128000Y-44314000D02*
X232428000Y-44314000D01*
X238128000Y-40014000D02*
X238128000Y-44314000D01*
%TO.C,C14*%
D10*
X201114857Y-125931142D02*
X201162476Y-125978761D01*
X201305333Y-126026380D01*
X201400571Y-126026380D01*
X201543428Y-125978761D01*
X201638666Y-125883523D01*
X201686285Y-125788285D01*
X201733904Y-125597809D01*
X201733904Y-125454952D01*
X201686285Y-125264476D01*
X201638666Y-125169238D01*
X201543428Y-125074000D01*
X201400571Y-125026380D01*
X201305333Y-125026380D01*
X201162476Y-125074000D01*
X201114857Y-125121619D01*
X200162476Y-126026380D02*
X200733904Y-126026380D01*
X200448190Y-126026380D02*
X200448190Y-125026380D01*
X200543428Y-125169238D01*
X200638666Y-125264476D01*
X200733904Y-125312095D01*
X199305333Y-125359714D02*
X199305333Y-126026380D01*
X199543428Y-124978761D02*
X199781523Y-125693047D01*
X199162476Y-125693047D01*
%TO.C,C12*%
X217624857Y-125931142D02*
X217672476Y-125978761D01*
X217815333Y-126026380D01*
X217910571Y-126026380D01*
X218053428Y-125978761D01*
X218148666Y-125883523D01*
X218196285Y-125788285D01*
X218243904Y-125597809D01*
X218243904Y-125454952D01*
X218196285Y-125264476D01*
X218148666Y-125169238D01*
X218053428Y-125074000D01*
X217910571Y-125026380D01*
X217815333Y-125026380D01*
X217672476Y-125074000D01*
X217624857Y-125121619D01*
X216672476Y-126026380D02*
X217243904Y-126026380D01*
X216958190Y-126026380D02*
X216958190Y-125026380D01*
X217053428Y-125169238D01*
X217148666Y-125264476D01*
X217243904Y-125312095D01*
X216291523Y-125121619D02*
X216243904Y-125074000D01*
X216148666Y-125026380D01*
X215910571Y-125026380D01*
X215815333Y-125074000D01*
X215767714Y-125121619D01*
X215720095Y-125216857D01*
X215720095Y-125312095D01*
X215767714Y-125454952D01*
X216339142Y-126026380D01*
X215720095Y-126026380D01*
%TO.C,C10*%
X184604857Y-125931142D02*
X184652476Y-125978761D01*
X184795333Y-126026380D01*
X184890571Y-126026380D01*
X185033428Y-125978761D01*
X185128666Y-125883523D01*
X185176285Y-125788285D01*
X185223904Y-125597809D01*
X185223904Y-125454952D01*
X185176285Y-125264476D01*
X185128666Y-125169238D01*
X185033428Y-125074000D01*
X184890571Y-125026380D01*
X184795333Y-125026380D01*
X184652476Y-125074000D01*
X184604857Y-125121619D01*
X183652476Y-126026380D02*
X184223904Y-126026380D01*
X183938190Y-126026380D02*
X183938190Y-125026380D01*
X184033428Y-125169238D01*
X184128666Y-125264476D01*
X184223904Y-125312095D01*
X183033428Y-125026380D02*
X182938190Y-125026380D01*
X182842952Y-125074000D01*
X182795333Y-125121619D01*
X182747714Y-125216857D01*
X182700095Y-125407333D01*
X182700095Y-125645428D01*
X182747714Y-125835904D01*
X182795333Y-125931142D01*
X182842952Y-125978761D01*
X182938190Y-126026380D01*
X183033428Y-126026380D01*
X183128666Y-125978761D01*
X183176285Y-125931142D01*
X183223904Y-125835904D01*
X183271523Y-125645428D01*
X183271523Y-125407333D01*
X183223904Y-125216857D01*
X183176285Y-125121619D01*
X183128666Y-125074000D01*
X183033428Y-125026380D01*
%TO.C,C8*%
X151108666Y-125931142D02*
X151156285Y-125978761D01*
X151299142Y-126026380D01*
X151394380Y-126026380D01*
X151537238Y-125978761D01*
X151632476Y-125883523D01*
X151680095Y-125788285D01*
X151727714Y-125597809D01*
X151727714Y-125454952D01*
X151680095Y-125264476D01*
X151632476Y-125169238D01*
X151537238Y-125074000D01*
X151394380Y-125026380D01*
X151299142Y-125026380D01*
X151156285Y-125074000D01*
X151108666Y-125121619D01*
X150537238Y-125454952D02*
X150632476Y-125407333D01*
X150680095Y-125359714D01*
X150727714Y-125264476D01*
X150727714Y-125216857D01*
X150680095Y-125121619D01*
X150632476Y-125074000D01*
X150537238Y-125026380D01*
X150346761Y-125026380D01*
X150251523Y-125074000D01*
X150203904Y-125121619D01*
X150156285Y-125216857D01*
X150156285Y-125264476D01*
X150203904Y-125359714D01*
X150251523Y-125407333D01*
X150346761Y-125454952D01*
X150537238Y-125454952D01*
X150632476Y-125502571D01*
X150680095Y-125550190D01*
X150727714Y-125645428D01*
X150727714Y-125835904D01*
X150680095Y-125931142D01*
X150632476Y-125978761D01*
X150537238Y-126026380D01*
X150346761Y-126026380D01*
X150251523Y-125978761D01*
X150203904Y-125931142D01*
X150156285Y-125835904D01*
X150156285Y-125645428D01*
X150203904Y-125550190D01*
X150251523Y-125502571D01*
X150346761Y-125454952D01*
%TO.C,C6*%
X167618666Y-125931142D02*
X167666285Y-125978761D01*
X167809142Y-126026380D01*
X167904380Y-126026380D01*
X168047238Y-125978761D01*
X168142476Y-125883523D01*
X168190095Y-125788285D01*
X168237714Y-125597809D01*
X168237714Y-125454952D01*
X168190095Y-125264476D01*
X168142476Y-125169238D01*
X168047238Y-125074000D01*
X167904380Y-125026380D01*
X167809142Y-125026380D01*
X167666285Y-125074000D01*
X167618666Y-125121619D01*
X166761523Y-125026380D02*
X166952000Y-125026380D01*
X167047238Y-125074000D01*
X167094857Y-125121619D01*
X167190095Y-125264476D01*
X167237714Y-125454952D01*
X167237714Y-125835904D01*
X167190095Y-125931142D01*
X167142476Y-125978761D01*
X167047238Y-126026380D01*
X166856761Y-126026380D01*
X166761523Y-125978761D01*
X166713904Y-125931142D01*
X166666285Y-125835904D01*
X166666285Y-125597809D01*
X166713904Y-125502571D01*
X166761523Y-125454952D01*
X166856761Y-125407333D01*
X167047238Y-125407333D01*
X167142476Y-125454952D01*
X167190095Y-125502571D01*
X167237714Y-125597809D01*
%TO.C,C4*%
X134344666Y-125931142D02*
X134392285Y-125978761D01*
X134535142Y-126026380D01*
X134630380Y-126026380D01*
X134773238Y-125978761D01*
X134868476Y-125883523D01*
X134916095Y-125788285D01*
X134963714Y-125597809D01*
X134963714Y-125454952D01*
X134916095Y-125264476D01*
X134868476Y-125169238D01*
X134773238Y-125074000D01*
X134630380Y-125026380D01*
X134535142Y-125026380D01*
X134392285Y-125074000D01*
X134344666Y-125121619D01*
X133487523Y-125359714D02*
X133487523Y-126026380D01*
X133725619Y-124978761D02*
X133963714Y-125693047D01*
X133344666Y-125693047D01*
%TO.C,C16*%
X241813142Y-37269142D02*
X241860761Y-37221523D01*
X241908380Y-37078666D01*
X241908380Y-36983428D01*
X241860761Y-36840571D01*
X241765523Y-36745333D01*
X241670285Y-36697714D01*
X241479809Y-36650095D01*
X241336952Y-36650095D01*
X241146476Y-36697714D01*
X241051238Y-36745333D01*
X240956000Y-36840571D01*
X240908380Y-36983428D01*
X240908380Y-37078666D01*
X240956000Y-37221523D01*
X241003619Y-37269142D01*
X241908380Y-38221523D02*
X241908380Y-37650095D01*
X241908380Y-37935809D02*
X240908380Y-37935809D01*
X241051238Y-37840571D01*
X241146476Y-37745333D01*
X241194095Y-37650095D01*
X240908380Y-39078666D02*
X240908380Y-38888190D01*
X240956000Y-38792952D01*
X241003619Y-38745333D01*
X241146476Y-38650095D01*
X241336952Y-38602476D01*
X241717904Y-38602476D01*
X241813142Y-38650095D01*
X241860761Y-38697714D01*
X241908380Y-38792952D01*
X241908380Y-38983428D01*
X241860761Y-39078666D01*
X241813142Y-39126285D01*
X241717904Y-39173904D01*
X241479809Y-39173904D01*
X241384571Y-39126285D01*
X241336952Y-39078666D01*
X241289333Y-38983428D01*
X241289333Y-38792952D01*
X241336952Y-38697714D01*
X241384571Y-38650095D01*
X241479809Y-38602476D01*
%TO.C,\u002AD3*%
X235554190Y-38616380D02*
X235554190Y-38854476D01*
X235792285Y-38759238D02*
X235554190Y-38854476D01*
X235316095Y-38759238D01*
X235697047Y-39044952D02*
X235554190Y-38854476D01*
X235411333Y-39044952D01*
X234935142Y-39616380D02*
X234935142Y-38616380D01*
X234697047Y-38616380D01*
X234554190Y-38664000D01*
X234458952Y-38759238D01*
X234411333Y-38854476D01*
X234363714Y-39044952D01*
X234363714Y-39187809D01*
X234411333Y-39378285D01*
X234458952Y-39473523D01*
X234554190Y-39568761D01*
X234697047Y-39616380D01*
X234935142Y-39616380D01*
X234030380Y-38616380D02*
X233411333Y-38616380D01*
X233744666Y-38997333D01*
X233601809Y-38997333D01*
X233506571Y-39044952D01*
X233458952Y-39092571D01*
X233411333Y-39187809D01*
X233411333Y-39425904D01*
X233458952Y-39521142D01*
X233506571Y-39568761D01*
X233601809Y-39616380D01*
X233887523Y-39616380D01*
X233982761Y-39568761D01*
X234030380Y-39521142D01*
%TD*%
M02*
