%TF.GenerationSoftware,KiCad,Pcbnew,(5.1.8)-1*%
%TF.CreationDate,2020-12-05T14:01:19+04:00*%
%TF.ProjectId,6dof_controller,36646f66-5f63-46f6-9e74-726f6c6c6572,ver 1.0*%
%TF.SameCoordinates,Original*%
%TF.FileFunction,Legend,Top*%
%TF.FilePolarity,Positive*%
%FSLAX46Y46*%
G04 Gerber Fmt 4.6, Leading zero omitted, Abs format (unit mm)*
G04 Created by KiCad (PCBNEW (5.1.8)-1) date 2020-12-05 14:01:19*
%MOMM*%
%LPD*%
G01*
G04 APERTURE LIST*
%ADD10C,0.150000*%
%ADD11C,0.300000*%
%ADD12C,0.700000*%
%ADD13C,0.120000*%
%ADD14C,0.800000*%
%ADD15C,1.000000*%
G04 APERTURE END LIST*
D10*
X114681047Y-39695428D02*
X115442952Y-39695428D01*
X115062000Y-40076380D02*
X115062000Y-39314476D01*
X111149333Y-40346380D02*
X110673142Y-40346380D01*
X110625523Y-40822571D01*
X110673142Y-40774952D01*
X110768380Y-40727333D01*
X111006476Y-40727333D01*
X111101714Y-40774952D01*
X111149333Y-40822571D01*
X111196952Y-40917809D01*
X111196952Y-41155904D01*
X111149333Y-41251142D01*
X111101714Y-41298761D01*
X111006476Y-41346380D01*
X110768380Y-41346380D01*
X110673142Y-41298761D01*
X110625523Y-41251142D01*
X111482666Y-40346380D02*
X111816000Y-41346380D01*
X112149333Y-40346380D01*
X113101714Y-40679714D02*
X113482666Y-40679714D01*
X113244571Y-41346380D02*
X113244571Y-40489238D01*
X113292190Y-40394000D01*
X113387428Y-40346380D01*
X113482666Y-40346380D01*
X113815999Y-41346380D02*
X113815999Y-40679714D01*
X113815999Y-40870190D02*
X113863619Y-40774952D01*
X113911238Y-40727333D01*
X114006476Y-40679714D01*
X114101714Y-40679714D01*
X114577904Y-41346380D02*
X114482666Y-41298761D01*
X114435047Y-41251142D01*
X114387428Y-41155904D01*
X114387428Y-40870190D01*
X114435047Y-40774952D01*
X114482666Y-40727333D01*
X114577904Y-40679714D01*
X114720761Y-40679714D01*
X114816000Y-40727333D01*
X114863619Y-40774952D01*
X114911238Y-40870190D01*
X114911238Y-41155904D01*
X114863619Y-41251142D01*
X114816000Y-41298761D01*
X114720761Y-41346380D01*
X114577904Y-41346380D01*
X115339809Y-41346380D02*
X115339809Y-40679714D01*
X115339809Y-40774952D02*
X115387428Y-40727333D01*
X115482666Y-40679714D01*
X115625523Y-40679714D01*
X115720761Y-40727333D01*
X115768380Y-40822571D01*
X115768380Y-41346380D01*
X115768380Y-40822571D02*
X115816000Y-40727333D01*
X115911238Y-40679714D01*
X116054095Y-40679714D01*
X116149333Y-40727333D01*
X116196952Y-40822571D01*
X116196952Y-41346380D01*
X117435047Y-40346380D02*
X117435047Y-41155904D01*
X117482666Y-41251142D01*
X117530285Y-41298761D01*
X117625523Y-41346380D01*
X117816000Y-41346380D01*
X117911238Y-41298761D01*
X117958857Y-41251142D01*
X118006476Y-41155904D01*
X118006476Y-40346380D01*
X118435047Y-41298761D02*
X118577904Y-41346380D01*
X118816000Y-41346380D01*
X118911238Y-41298761D01*
X118958857Y-41251142D01*
X119006476Y-41155904D01*
X119006476Y-41060666D01*
X118958857Y-40965428D01*
X118911238Y-40917809D01*
X118816000Y-40870190D01*
X118625523Y-40822571D01*
X118530285Y-40774952D01*
X118482666Y-40727333D01*
X118435047Y-40632095D01*
X118435047Y-40536857D01*
X118482666Y-40441619D01*
X118530285Y-40394000D01*
X118625523Y-40346380D01*
X118863619Y-40346380D01*
X119006476Y-40394000D01*
X119768380Y-40822571D02*
X119911238Y-40870190D01*
X119958857Y-40917809D01*
X120006476Y-41013047D01*
X120006476Y-41155904D01*
X119958857Y-41251142D01*
X119911238Y-41298761D01*
X119816000Y-41346380D01*
X119435047Y-41346380D01*
X119435047Y-40346380D01*
X119768380Y-40346380D01*
X119863619Y-40394000D01*
X119911238Y-40441619D01*
X119958857Y-40536857D01*
X119958857Y-40632095D01*
X119911238Y-40727333D01*
X119863619Y-40774952D01*
X119768380Y-40822571D01*
X119435047Y-40822571D01*
X130859404Y-98677380D02*
X130287976Y-98677380D01*
X130573690Y-98677380D02*
X130573690Y-97677380D01*
X130478452Y-97820238D01*
X130383214Y-97915476D01*
X130287976Y-97963095D01*
X132049880Y-98296428D02*
X132811785Y-98296428D01*
X134621309Y-98582142D02*
X134573690Y-98629761D01*
X134430833Y-98677380D01*
X134335595Y-98677380D01*
X134192738Y-98629761D01*
X134097500Y-98534523D01*
X134049880Y-98439285D01*
X134002261Y-98248809D01*
X134002261Y-98105952D01*
X134049880Y-97915476D01*
X134097500Y-97820238D01*
X134192738Y-97725000D01*
X134335595Y-97677380D01*
X134430833Y-97677380D01*
X134573690Y-97725000D01*
X134621309Y-97772619D01*
X135240357Y-97677380D02*
X135430833Y-97677380D01*
X135526071Y-97725000D01*
X135621309Y-97820238D01*
X135668928Y-98010714D01*
X135668928Y-98344047D01*
X135621309Y-98534523D01*
X135526071Y-98629761D01*
X135430833Y-98677380D01*
X135240357Y-98677380D01*
X135145119Y-98629761D01*
X135049880Y-98534523D01*
X135002261Y-98344047D01*
X135002261Y-98010714D01*
X135049880Y-97820238D01*
X135145119Y-97725000D01*
X135240357Y-97677380D01*
X136097500Y-98677380D02*
X136097500Y-97677380D01*
X136430833Y-98391666D01*
X136764166Y-97677380D01*
X136764166Y-98677380D01*
X130287976Y-99422619D02*
X130335595Y-99375000D01*
X130430833Y-99327380D01*
X130668928Y-99327380D01*
X130764166Y-99375000D01*
X130811785Y-99422619D01*
X130859404Y-99517857D01*
X130859404Y-99613095D01*
X130811785Y-99755952D01*
X130240357Y-100327380D01*
X130859404Y-100327380D01*
X132049880Y-99946428D02*
X132811785Y-99946428D01*
X134049880Y-100327380D02*
X134049880Y-99327380D01*
X134287976Y-99327380D01*
X134430833Y-99375000D01*
X134526071Y-99470238D01*
X134573690Y-99565476D01*
X134621309Y-99755952D01*
X134621309Y-99898809D01*
X134573690Y-100089285D01*
X134526071Y-100184523D01*
X134430833Y-100279761D01*
X134287976Y-100327380D01*
X134049880Y-100327380D01*
X135621309Y-100232142D02*
X135573690Y-100279761D01*
X135430833Y-100327380D01*
X135335595Y-100327380D01*
X135192738Y-100279761D01*
X135097500Y-100184523D01*
X135049880Y-100089285D01*
X135002261Y-99898809D01*
X135002261Y-99755952D01*
X135049880Y-99565476D01*
X135097500Y-99470238D01*
X135192738Y-99375000D01*
X135335595Y-99327380D01*
X135430833Y-99327380D01*
X135573690Y-99375000D01*
X135621309Y-99422619D01*
X136573690Y-100327380D02*
X136002261Y-100327380D01*
X136287976Y-100327380D02*
X136287976Y-99327380D01*
X136192738Y-99470238D01*
X136097500Y-99565476D01*
X136002261Y-99613095D01*
X136954642Y-99422619D02*
X137002261Y-99375000D01*
X137097500Y-99327380D01*
X137335595Y-99327380D01*
X137430833Y-99375000D01*
X137478452Y-99422619D01*
X137526071Y-99517857D01*
X137526071Y-99613095D01*
X137478452Y-99755952D01*
X136907023Y-100327380D01*
X137526071Y-100327380D01*
X130240357Y-100977380D02*
X130859404Y-100977380D01*
X130526071Y-101358333D01*
X130668928Y-101358333D01*
X130764166Y-101405952D01*
X130811785Y-101453571D01*
X130859404Y-101548809D01*
X130859404Y-101786904D01*
X130811785Y-101882142D01*
X130764166Y-101929761D01*
X130668928Y-101977380D01*
X130383214Y-101977380D01*
X130287976Y-101929761D01*
X130240357Y-101882142D01*
X132049880Y-101596428D02*
X132811785Y-101596428D01*
X134002261Y-101929761D02*
X134145119Y-101977380D01*
X134383214Y-101977380D01*
X134478452Y-101929761D01*
X134526071Y-101882142D01*
X134573690Y-101786904D01*
X134573690Y-101691666D01*
X134526071Y-101596428D01*
X134478452Y-101548809D01*
X134383214Y-101501190D01*
X134192738Y-101453571D01*
X134097500Y-101405952D01*
X134049880Y-101358333D01*
X134002261Y-101263095D01*
X134002261Y-101167857D01*
X134049880Y-101072619D01*
X134097500Y-101025000D01*
X134192738Y-100977380D01*
X134430833Y-100977380D01*
X134573690Y-101025000D01*
X135526071Y-101977380D02*
X134954642Y-101977380D01*
X135240357Y-101977380D02*
X135240357Y-100977380D01*
X135145119Y-101120238D01*
X135049880Y-101215476D01*
X134954642Y-101263095D01*
X135954642Y-101977380D02*
X135954642Y-100977380D01*
X136430833Y-101977380D02*
X136430833Y-100977380D01*
X137002261Y-101977380D01*
X137002261Y-100977380D01*
X130764166Y-102960714D02*
X130764166Y-103627380D01*
X130526071Y-102579761D02*
X130287976Y-103294047D01*
X130907023Y-103294047D01*
X132049880Y-103246428D02*
X132811785Y-103246428D01*
X134002261Y-103579761D02*
X134145119Y-103627380D01*
X134383214Y-103627380D01*
X134478452Y-103579761D01*
X134526071Y-103532142D01*
X134573690Y-103436904D01*
X134573690Y-103341666D01*
X134526071Y-103246428D01*
X134478452Y-103198809D01*
X134383214Y-103151190D01*
X134192738Y-103103571D01*
X134097500Y-103055952D01*
X134049880Y-103008333D01*
X134002261Y-102913095D01*
X134002261Y-102817857D01*
X134049880Y-102722619D01*
X134097500Y-102675000D01*
X134192738Y-102627380D01*
X134430833Y-102627380D01*
X134573690Y-102675000D01*
X134954642Y-102722619D02*
X135002261Y-102675000D01*
X135097500Y-102627380D01*
X135335595Y-102627380D01*
X135430833Y-102675000D01*
X135478452Y-102722619D01*
X135526071Y-102817857D01*
X135526071Y-102913095D01*
X135478452Y-103055952D01*
X134907023Y-103627380D01*
X135526071Y-103627380D01*
X135954642Y-103627380D02*
X135954642Y-102627380D01*
X136430833Y-103627380D02*
X136430833Y-102627380D01*
X137002261Y-103627380D01*
X137002261Y-102627380D01*
X130811785Y-104277380D02*
X130335595Y-104277380D01*
X130287976Y-104753571D01*
X130335595Y-104705952D01*
X130430833Y-104658333D01*
X130668928Y-104658333D01*
X130764166Y-104705952D01*
X130811785Y-104753571D01*
X130859404Y-104848809D01*
X130859404Y-105086904D01*
X130811785Y-105182142D01*
X130764166Y-105229761D01*
X130668928Y-105277380D01*
X130430833Y-105277380D01*
X130335595Y-105229761D01*
X130287976Y-105182142D01*
X132049880Y-104896428D02*
X132811785Y-104896428D01*
X134002261Y-105229761D02*
X134145119Y-105277380D01*
X134383214Y-105277380D01*
X134478452Y-105229761D01*
X134526071Y-105182142D01*
X134573690Y-105086904D01*
X134573690Y-104991666D01*
X134526071Y-104896428D01*
X134478452Y-104848809D01*
X134383214Y-104801190D01*
X134192738Y-104753571D01*
X134097500Y-104705952D01*
X134049880Y-104658333D01*
X134002261Y-104563095D01*
X134002261Y-104467857D01*
X134049880Y-104372619D01*
X134097500Y-104325000D01*
X134192738Y-104277380D01*
X134430833Y-104277380D01*
X134573690Y-104325000D01*
X134907023Y-104277380D02*
X135526071Y-104277380D01*
X135192738Y-104658333D01*
X135335595Y-104658333D01*
X135430833Y-104705952D01*
X135478452Y-104753571D01*
X135526071Y-104848809D01*
X135526071Y-105086904D01*
X135478452Y-105182142D01*
X135430833Y-105229761D01*
X135335595Y-105277380D01*
X135049880Y-105277380D01*
X134954642Y-105229761D01*
X134907023Y-105182142D01*
X135954642Y-105277380D02*
X135954642Y-104277380D01*
X136430833Y-105277380D02*
X136430833Y-104277380D01*
X137002261Y-105277380D01*
X137002261Y-104277380D01*
X130764166Y-105927380D02*
X130573690Y-105927380D01*
X130478452Y-105975000D01*
X130430833Y-106022619D01*
X130335595Y-106165476D01*
X130287976Y-106355952D01*
X130287976Y-106736904D01*
X130335595Y-106832142D01*
X130383214Y-106879761D01*
X130478452Y-106927380D01*
X130668928Y-106927380D01*
X130764166Y-106879761D01*
X130811785Y-106832142D01*
X130859404Y-106736904D01*
X130859404Y-106498809D01*
X130811785Y-106403571D01*
X130764166Y-106355952D01*
X130668928Y-106308333D01*
X130478452Y-106308333D01*
X130383214Y-106355952D01*
X130335595Y-106403571D01*
X130287976Y-106498809D01*
X132049880Y-106546428D02*
X132811785Y-106546428D01*
X134002261Y-106879761D02*
X134145119Y-106927380D01*
X134383214Y-106927380D01*
X134478452Y-106879761D01*
X134526071Y-106832142D01*
X134573690Y-106736904D01*
X134573690Y-106641666D01*
X134526071Y-106546428D01*
X134478452Y-106498809D01*
X134383214Y-106451190D01*
X134192738Y-106403571D01*
X134097500Y-106355952D01*
X134049880Y-106308333D01*
X134002261Y-106213095D01*
X134002261Y-106117857D01*
X134049880Y-106022619D01*
X134097500Y-105975000D01*
X134192738Y-105927380D01*
X134430833Y-105927380D01*
X134573690Y-105975000D01*
X135430833Y-106260714D02*
X135430833Y-106927380D01*
X135192738Y-105879761D02*
X134954642Y-106594047D01*
X135573690Y-106594047D01*
X135954642Y-106927380D02*
X135954642Y-105927380D01*
X136430833Y-106927380D02*
X136430833Y-105927380D01*
X137002261Y-106927380D01*
X137002261Y-105927380D01*
X130240357Y-107577380D02*
X130907023Y-107577380D01*
X130478452Y-108577380D01*
X132049880Y-108196428D02*
X132811785Y-108196428D01*
X134002261Y-108529761D02*
X134145119Y-108577380D01*
X134383214Y-108577380D01*
X134478452Y-108529761D01*
X134526071Y-108482142D01*
X134573690Y-108386904D01*
X134573690Y-108291666D01*
X134526071Y-108196428D01*
X134478452Y-108148809D01*
X134383214Y-108101190D01*
X134192738Y-108053571D01*
X134097500Y-108005952D01*
X134049880Y-107958333D01*
X134002261Y-107863095D01*
X134002261Y-107767857D01*
X134049880Y-107672619D01*
X134097500Y-107625000D01*
X134192738Y-107577380D01*
X134430833Y-107577380D01*
X134573690Y-107625000D01*
X135478452Y-107577380D02*
X135002261Y-107577380D01*
X134954642Y-108053571D01*
X135002261Y-108005952D01*
X135097500Y-107958333D01*
X135335595Y-107958333D01*
X135430833Y-108005952D01*
X135478452Y-108053571D01*
X135526071Y-108148809D01*
X135526071Y-108386904D01*
X135478452Y-108482142D01*
X135430833Y-108529761D01*
X135335595Y-108577380D01*
X135097500Y-108577380D01*
X135002261Y-108529761D01*
X134954642Y-108482142D01*
X135954642Y-108577380D02*
X135954642Y-107577380D01*
X136430833Y-108577380D02*
X136430833Y-107577380D01*
X137002261Y-108577380D01*
X137002261Y-107577380D01*
X130478452Y-109655952D02*
X130383214Y-109608333D01*
X130335595Y-109560714D01*
X130287976Y-109465476D01*
X130287976Y-109417857D01*
X130335595Y-109322619D01*
X130383214Y-109275000D01*
X130478452Y-109227380D01*
X130668928Y-109227380D01*
X130764166Y-109275000D01*
X130811785Y-109322619D01*
X130859404Y-109417857D01*
X130859404Y-109465476D01*
X130811785Y-109560714D01*
X130764166Y-109608333D01*
X130668928Y-109655952D01*
X130478452Y-109655952D01*
X130383214Y-109703571D01*
X130335595Y-109751190D01*
X130287976Y-109846428D01*
X130287976Y-110036904D01*
X130335595Y-110132142D01*
X130383214Y-110179761D01*
X130478452Y-110227380D01*
X130668928Y-110227380D01*
X130764166Y-110179761D01*
X130811785Y-110132142D01*
X130859404Y-110036904D01*
X130859404Y-109846428D01*
X130811785Y-109751190D01*
X130764166Y-109703571D01*
X130668928Y-109655952D01*
X132049880Y-109846428D02*
X132811785Y-109846428D01*
X134002261Y-110179761D02*
X134145119Y-110227380D01*
X134383214Y-110227380D01*
X134478452Y-110179761D01*
X134526071Y-110132142D01*
X134573690Y-110036904D01*
X134573690Y-109941666D01*
X134526071Y-109846428D01*
X134478452Y-109798809D01*
X134383214Y-109751190D01*
X134192738Y-109703571D01*
X134097500Y-109655952D01*
X134049880Y-109608333D01*
X134002261Y-109513095D01*
X134002261Y-109417857D01*
X134049880Y-109322619D01*
X134097500Y-109275000D01*
X134192738Y-109227380D01*
X134430833Y-109227380D01*
X134573690Y-109275000D01*
X135430833Y-109227380D02*
X135240357Y-109227380D01*
X135145119Y-109275000D01*
X135097500Y-109322619D01*
X135002261Y-109465476D01*
X134954642Y-109655952D01*
X134954642Y-110036904D01*
X135002261Y-110132142D01*
X135049880Y-110179761D01*
X135145119Y-110227380D01*
X135335595Y-110227380D01*
X135430833Y-110179761D01*
X135478452Y-110132142D01*
X135526071Y-110036904D01*
X135526071Y-109798809D01*
X135478452Y-109703571D01*
X135430833Y-109655952D01*
X135335595Y-109608333D01*
X135145119Y-109608333D01*
X135049880Y-109655952D01*
X135002261Y-109703571D01*
X134954642Y-109798809D01*
X135954642Y-110227380D02*
X135954642Y-109227380D01*
X136430833Y-110227380D02*
X136430833Y-109227380D01*
X137002261Y-110227380D01*
X137002261Y-109227380D01*
X233116380Y-94345047D02*
X233116380Y-94916476D01*
X233116380Y-94630761D02*
X232116380Y-94630761D01*
X232259238Y-94726000D01*
X232354476Y-94821238D01*
X232402095Y-94916476D01*
X232211619Y-93964095D02*
X232164000Y-93916476D01*
X232116380Y-93821238D01*
X232116380Y-93583142D01*
X232164000Y-93487904D01*
X232211619Y-93440285D01*
X232306857Y-93392666D01*
X232402095Y-93392666D01*
X232544952Y-93440285D01*
X233116380Y-94011714D01*
X233116380Y-93392666D01*
X232116380Y-93106952D02*
X233116380Y-92773619D01*
X232116380Y-92440285D01*
X232116380Y-100885333D02*
X232116380Y-100313904D01*
X233116380Y-100599619D02*
X232116380Y-100599619D01*
X233116380Y-99837714D02*
X233068761Y-99932952D01*
X233021142Y-99980571D01*
X232925904Y-100028190D01*
X232640190Y-100028190D01*
X232544952Y-99980571D01*
X232497333Y-99932952D01*
X232449714Y-99837714D01*
X232449714Y-99694857D01*
X232497333Y-99599619D01*
X232544952Y-99552000D01*
X232640190Y-99504380D01*
X232925904Y-99504380D01*
X233021142Y-99552000D01*
X233068761Y-99599619D01*
X233116380Y-99694857D01*
X233116380Y-99837714D01*
X232449714Y-98647238D02*
X233259238Y-98647238D01*
X233354476Y-98694857D01*
X233402095Y-98742476D01*
X233449714Y-98837714D01*
X233449714Y-98980571D01*
X233402095Y-99075809D01*
X233068761Y-98647238D02*
X233116380Y-98742476D01*
X233116380Y-98932952D01*
X233068761Y-99028190D01*
X233021142Y-99075809D01*
X232925904Y-99123428D01*
X232640190Y-99123428D01*
X232544952Y-99075809D01*
X232497333Y-99028190D01*
X232449714Y-98932952D01*
X232449714Y-98742476D01*
X232497333Y-98647238D01*
X232449714Y-97742476D02*
X233259238Y-97742476D01*
X233354476Y-97790095D01*
X233402095Y-97837714D01*
X233449714Y-97932952D01*
X233449714Y-98075809D01*
X233402095Y-98171047D01*
X233068761Y-97742476D02*
X233116380Y-97837714D01*
X233116380Y-98028190D01*
X233068761Y-98123428D01*
X233021142Y-98171047D01*
X232925904Y-98218666D01*
X232640190Y-98218666D01*
X232544952Y-98171047D01*
X232497333Y-98123428D01*
X232449714Y-98028190D01*
X232449714Y-97837714D01*
X232497333Y-97742476D01*
X233116380Y-97123428D02*
X233068761Y-97218666D01*
X232973523Y-97266285D01*
X232116380Y-97266285D01*
X233068761Y-96361523D02*
X233116380Y-96456761D01*
X233116380Y-96647238D01*
X233068761Y-96742476D01*
X232973523Y-96790095D01*
X232592571Y-96790095D01*
X232497333Y-96742476D01*
X232449714Y-96647238D01*
X232449714Y-96456761D01*
X232497333Y-96361523D01*
X232592571Y-96313904D01*
X232687809Y-96313904D01*
X232783047Y-96790095D01*
X232767142Y-104925714D02*
X232814761Y-104973333D01*
X232862380Y-105116190D01*
X232862380Y-105211428D01*
X232814761Y-105354285D01*
X232719523Y-105449523D01*
X232624285Y-105497142D01*
X232433809Y-105544761D01*
X232290952Y-105544761D01*
X232100476Y-105497142D01*
X232005238Y-105449523D01*
X231910000Y-105354285D01*
X231862380Y-105211428D01*
X231862380Y-105116190D01*
X231910000Y-104973333D01*
X231957619Y-104925714D01*
X231862380Y-104306666D02*
X231862380Y-104116190D01*
X231910000Y-104020952D01*
X232005238Y-103925714D01*
X232195714Y-103878095D01*
X232529047Y-103878095D01*
X232719523Y-103925714D01*
X232814761Y-104020952D01*
X232862380Y-104116190D01*
X232862380Y-104306666D01*
X232814761Y-104401904D01*
X232719523Y-104497142D01*
X232529047Y-104544761D01*
X232195714Y-104544761D01*
X232005238Y-104497142D01*
X231910000Y-104401904D01*
X231862380Y-104306666D01*
X232862380Y-103449523D02*
X231862380Y-103449523D01*
X232576666Y-103116190D01*
X231862380Y-102782857D01*
X232862380Y-102782857D01*
D11*
X121238095Y-132142857D02*
X122761904Y-132142857D01*
X122000000Y-132904761D02*
X122000000Y-131380952D01*
X120109285Y-45747714D02*
X120280714Y-45804857D01*
X120566428Y-45804857D01*
X120680714Y-45747714D01*
X120737857Y-45690571D01*
X120795000Y-45576285D01*
X120795000Y-45462000D01*
X120737857Y-45347714D01*
X120680714Y-45290571D01*
X120566428Y-45233428D01*
X120337857Y-45176285D01*
X120223571Y-45119142D01*
X120166428Y-45062000D01*
X120109285Y-44947714D01*
X120109285Y-44833428D01*
X120166428Y-44719142D01*
X120223571Y-44662000D01*
X120337857Y-44604857D01*
X120623571Y-44604857D01*
X120795000Y-44662000D01*
X121823571Y-45747714D02*
X121709285Y-45804857D01*
X121480714Y-45804857D01*
X121366428Y-45747714D01*
X121309285Y-45690571D01*
X121252142Y-45576285D01*
X121252142Y-45233428D01*
X121309285Y-45119142D01*
X121366428Y-45062000D01*
X121480714Y-45004857D01*
X121709285Y-45004857D01*
X121823571Y-45062000D01*
X122337857Y-45804857D02*
X122337857Y-44604857D01*
X122852142Y-45804857D02*
X122852142Y-45176285D01*
X122795000Y-45062000D01*
X122680714Y-45004857D01*
X122509285Y-45004857D01*
X122395000Y-45062000D01*
X122337857Y-45119142D01*
X123880714Y-45747714D02*
X123766428Y-45804857D01*
X123537857Y-45804857D01*
X123423571Y-45747714D01*
X123366428Y-45633428D01*
X123366428Y-45176285D01*
X123423571Y-45062000D01*
X123537857Y-45004857D01*
X123766428Y-45004857D01*
X123880714Y-45062000D01*
X123937857Y-45176285D01*
X123937857Y-45290571D01*
X123366428Y-45404857D01*
X124452142Y-45804857D02*
X124452142Y-45004857D01*
X124452142Y-45119142D02*
X124509285Y-45062000D01*
X124623571Y-45004857D01*
X124795000Y-45004857D01*
X124909285Y-45062000D01*
X124966428Y-45176285D01*
X124966428Y-45804857D01*
X124966428Y-45176285D02*
X125023571Y-45062000D01*
X125137857Y-45004857D01*
X125309285Y-45004857D01*
X125423571Y-45062000D01*
X125480714Y-45176285D01*
X125480714Y-45804857D01*
X126566428Y-45804857D02*
X126566428Y-45176285D01*
X126509285Y-45062000D01*
X126395000Y-45004857D01*
X126166428Y-45004857D01*
X126052142Y-45062000D01*
X126566428Y-45747714D02*
X126452142Y-45804857D01*
X126166428Y-45804857D01*
X126052142Y-45747714D01*
X125995000Y-45633428D01*
X125995000Y-45519142D01*
X126052142Y-45404857D01*
X126166428Y-45347714D01*
X126452142Y-45347714D01*
X126566428Y-45290571D01*
X126966428Y-45004857D02*
X127423571Y-45004857D01*
X127137857Y-44604857D02*
X127137857Y-45633428D01*
X127195000Y-45747714D01*
X127309285Y-45804857D01*
X127423571Y-45804857D01*
X127823571Y-45804857D02*
X127823571Y-45004857D01*
X127823571Y-44604857D02*
X127766428Y-44662000D01*
X127823571Y-44719142D01*
X127880714Y-44662000D01*
X127823571Y-44604857D01*
X127823571Y-44719142D01*
X128909285Y-45747714D02*
X128795000Y-45804857D01*
X128566428Y-45804857D01*
X128452142Y-45747714D01*
X128395000Y-45690571D01*
X128337857Y-45576285D01*
X128337857Y-45233428D01*
X128395000Y-45119142D01*
X128452142Y-45062000D01*
X128566428Y-45004857D01*
X128795000Y-45004857D01*
X128909285Y-45062000D01*
X130852142Y-45804857D02*
X130852142Y-45176285D01*
X130795000Y-45062000D01*
X130680714Y-45004857D01*
X130452142Y-45004857D01*
X130337857Y-45062000D01*
X130852142Y-45747714D02*
X130737857Y-45804857D01*
X130452142Y-45804857D01*
X130337857Y-45747714D01*
X130280714Y-45633428D01*
X130280714Y-45519142D01*
X130337857Y-45404857D01*
X130452142Y-45347714D01*
X130737857Y-45347714D01*
X130852142Y-45290571D01*
X131423571Y-45004857D02*
X131423571Y-45804857D01*
X131423571Y-45119142D02*
X131480714Y-45062000D01*
X131595000Y-45004857D01*
X131766428Y-45004857D01*
X131880714Y-45062000D01*
X131937857Y-45176285D01*
X131937857Y-45804857D01*
X133023571Y-45804857D02*
X133023571Y-44604857D01*
X133023571Y-45747714D02*
X132909285Y-45804857D01*
X132680714Y-45804857D01*
X132566428Y-45747714D01*
X132509285Y-45690571D01*
X132452142Y-45576285D01*
X132452142Y-45233428D01*
X132509285Y-45119142D01*
X132566428Y-45062000D01*
X132680714Y-45004857D01*
X132909285Y-45004857D01*
X133023571Y-45062000D01*
X134509285Y-45804857D02*
X134509285Y-44604857D01*
X134966428Y-44604857D01*
X135080714Y-44662000D01*
X135137857Y-44719142D01*
X135195000Y-44833428D01*
X135195000Y-45004857D01*
X135137857Y-45119142D01*
X135080714Y-45176285D01*
X134966428Y-45233428D01*
X134509285Y-45233428D01*
X136395000Y-45690571D02*
X136337857Y-45747714D01*
X136166428Y-45804857D01*
X136052142Y-45804857D01*
X135880714Y-45747714D01*
X135766428Y-45633428D01*
X135709285Y-45519142D01*
X135652142Y-45290571D01*
X135652142Y-45119142D01*
X135709285Y-44890571D01*
X135766428Y-44776285D01*
X135880714Y-44662000D01*
X136052142Y-44604857D01*
X136166428Y-44604857D01*
X136337857Y-44662000D01*
X136395000Y-44719142D01*
X137309285Y-45176285D02*
X137480714Y-45233428D01*
X137537857Y-45290571D01*
X137595000Y-45404857D01*
X137595000Y-45576285D01*
X137537857Y-45690571D01*
X137480714Y-45747714D01*
X137366428Y-45804857D01*
X136909285Y-45804857D01*
X136909285Y-44604857D01*
X137309285Y-44604857D01*
X137423571Y-44662000D01*
X137480714Y-44719142D01*
X137537857Y-44833428D01*
X137537857Y-44947714D01*
X137480714Y-45062000D01*
X137423571Y-45119142D01*
X137309285Y-45176285D01*
X136909285Y-45176285D01*
X139537857Y-45804857D02*
X139537857Y-44604857D01*
X139537857Y-45747714D02*
X139423571Y-45804857D01*
X139195000Y-45804857D01*
X139080714Y-45747714D01*
X139023571Y-45690571D01*
X138966428Y-45576285D01*
X138966428Y-45233428D01*
X139023571Y-45119142D01*
X139080714Y-45062000D01*
X139195000Y-45004857D01*
X139423571Y-45004857D01*
X139537857Y-45062000D01*
X140566428Y-45747714D02*
X140452142Y-45804857D01*
X140223571Y-45804857D01*
X140109285Y-45747714D01*
X140052142Y-45633428D01*
X140052142Y-45176285D01*
X140109285Y-45062000D01*
X140223571Y-45004857D01*
X140452142Y-45004857D01*
X140566428Y-45062000D01*
X140623571Y-45176285D01*
X140623571Y-45290571D01*
X140052142Y-45404857D01*
X141080714Y-45747714D02*
X141195000Y-45804857D01*
X141423571Y-45804857D01*
X141537857Y-45747714D01*
X141595000Y-45633428D01*
X141595000Y-45576285D01*
X141537857Y-45462000D01*
X141423571Y-45404857D01*
X141252142Y-45404857D01*
X141137857Y-45347714D01*
X141080714Y-45233428D01*
X141080714Y-45176285D01*
X141137857Y-45062000D01*
X141252142Y-45004857D01*
X141423571Y-45004857D01*
X141537857Y-45062000D01*
X142109285Y-45804857D02*
X142109285Y-45004857D01*
X142109285Y-44604857D02*
X142052142Y-44662000D01*
X142109285Y-44719142D01*
X142166428Y-44662000D01*
X142109285Y-44604857D01*
X142109285Y-44719142D01*
X143195000Y-45004857D02*
X143195000Y-45976285D01*
X143137857Y-46090571D01*
X143080714Y-46147714D01*
X142966428Y-46204857D01*
X142795000Y-46204857D01*
X142680714Y-46147714D01*
X143195000Y-45747714D02*
X143080714Y-45804857D01*
X142852142Y-45804857D01*
X142737857Y-45747714D01*
X142680714Y-45690571D01*
X142623571Y-45576285D01*
X142623571Y-45233428D01*
X142680714Y-45119142D01*
X142737857Y-45062000D01*
X142852142Y-45004857D01*
X143080714Y-45004857D01*
X143195000Y-45062000D01*
X143766428Y-45004857D02*
X143766428Y-45804857D01*
X143766428Y-45119142D02*
X143823571Y-45062000D01*
X143937857Y-45004857D01*
X144109285Y-45004857D01*
X144223571Y-45062000D01*
X144280714Y-45176285D01*
X144280714Y-45804857D01*
X145766428Y-45804857D02*
X145766428Y-44604857D01*
X145766428Y-45062000D02*
X145880714Y-45004857D01*
X146109285Y-45004857D01*
X146223571Y-45062000D01*
X146280714Y-45119142D01*
X146337857Y-45233428D01*
X146337857Y-45576285D01*
X146280714Y-45690571D01*
X146223571Y-45747714D01*
X146109285Y-45804857D01*
X145880714Y-45804857D01*
X145766428Y-45747714D01*
X146737857Y-45004857D02*
X147023571Y-45804857D01*
X147309285Y-45004857D02*
X147023571Y-45804857D01*
X146909285Y-46090571D01*
X146852142Y-46147714D01*
X146737857Y-46204857D01*
X124052142Y-47333428D02*
X124052142Y-47904857D01*
X123652142Y-46704857D02*
X124052142Y-47333428D01*
X124452142Y-46704857D01*
X125366428Y-47904857D02*
X125366428Y-47276285D01*
X125309285Y-47162000D01*
X125195000Y-47104857D01*
X124966428Y-47104857D01*
X124852142Y-47162000D01*
X125366428Y-47847714D02*
X125252142Y-47904857D01*
X124966428Y-47904857D01*
X124852142Y-47847714D01*
X124795000Y-47733428D01*
X124795000Y-47619142D01*
X124852142Y-47504857D01*
X124966428Y-47447714D01*
X125252142Y-47447714D01*
X125366428Y-47390571D01*
X125937857Y-47904857D02*
X125937857Y-46704857D01*
X126052142Y-47447714D02*
X126395000Y-47904857D01*
X126395000Y-47104857D02*
X125937857Y-47562000D01*
X127080714Y-47904857D02*
X126966428Y-47847714D01*
X126909285Y-47790571D01*
X126852142Y-47676285D01*
X126852142Y-47333428D01*
X126909285Y-47219142D01*
X126966428Y-47162000D01*
X127080714Y-47104857D01*
X127252142Y-47104857D01*
X127366428Y-47162000D01*
X127423571Y-47219142D01*
X127480714Y-47333428D01*
X127480714Y-47676285D01*
X127423571Y-47790571D01*
X127366428Y-47847714D01*
X127252142Y-47904857D01*
X127080714Y-47904857D01*
X127880714Y-47104857D02*
X128166428Y-47904857D01*
X128452142Y-47104857D01*
X129080714Y-47904857D02*
X128966428Y-47847714D01*
X128909285Y-47733428D01*
X128909285Y-46704857D01*
X129995000Y-47847714D02*
X129880714Y-47904857D01*
X129652142Y-47904857D01*
X129537857Y-47847714D01*
X129480714Y-47733428D01*
X129480714Y-47276285D01*
X129537857Y-47162000D01*
X129652142Y-47104857D01*
X129880714Y-47104857D01*
X129995000Y-47162000D01*
X130052142Y-47276285D01*
X130052142Y-47390571D01*
X129480714Y-47504857D01*
X130452142Y-47104857D02*
X130737857Y-47904857D01*
X131023571Y-47104857D01*
X132623571Y-47333428D02*
X132623571Y-47904857D01*
X132223571Y-46704857D02*
X132623571Y-47333428D01*
X133023571Y-46704857D01*
X133937857Y-47104857D02*
X133937857Y-47904857D01*
X133423571Y-47104857D02*
X133423571Y-47733428D01*
X133480714Y-47847714D01*
X133595000Y-47904857D01*
X133766428Y-47904857D01*
X133880714Y-47847714D01*
X133937857Y-47790571D01*
X134509285Y-47904857D02*
X134509285Y-47104857D01*
X134509285Y-47333428D02*
X134566428Y-47219142D01*
X134623571Y-47162000D01*
X134737857Y-47104857D01*
X134852142Y-47104857D01*
X135252142Y-47904857D02*
X135252142Y-47104857D01*
X135252142Y-46704857D02*
X135195000Y-46762000D01*
X135252142Y-46819142D01*
X135309285Y-46762000D01*
X135252142Y-46704857D01*
X135252142Y-46819142D01*
X137652142Y-47104857D02*
X136737857Y-47447714D01*
X137652142Y-47790571D01*
X138223571Y-47904857D02*
X138223571Y-46704857D01*
X138337857Y-47447714D02*
X138680714Y-47904857D01*
X138680714Y-47104857D02*
X138223571Y-47562000D01*
X139195000Y-47904857D02*
X139195000Y-47104857D01*
X139195000Y-47333428D02*
X139252142Y-47219142D01*
X139309285Y-47162000D01*
X139423571Y-47104857D01*
X139537857Y-47104857D01*
X140109285Y-47904857D02*
X139995000Y-47847714D01*
X139937857Y-47790571D01*
X139880714Y-47676285D01*
X139880714Y-47333428D01*
X139937857Y-47219142D01*
X139995000Y-47162000D01*
X140109285Y-47104857D01*
X140280714Y-47104857D01*
X140395000Y-47162000D01*
X140452142Y-47219142D01*
X140509285Y-47333428D01*
X140509285Y-47676285D01*
X140452142Y-47790571D01*
X140395000Y-47847714D01*
X140280714Y-47904857D01*
X140109285Y-47904857D01*
X140852142Y-47104857D02*
X141309285Y-47104857D01*
X141023571Y-46704857D02*
X141023571Y-47733428D01*
X141080714Y-47847714D01*
X141195000Y-47904857D01*
X141309285Y-47904857D01*
X141880714Y-47904857D02*
X141766428Y-47847714D01*
X141709285Y-47790571D01*
X141652142Y-47676285D01*
X141652142Y-47333428D01*
X141709285Y-47219142D01*
X141766428Y-47162000D01*
X141880714Y-47104857D01*
X142052142Y-47104857D01*
X142166428Y-47162000D01*
X142223571Y-47219142D01*
X142280714Y-47333428D01*
X142280714Y-47676285D01*
X142223571Y-47790571D01*
X142166428Y-47847714D01*
X142052142Y-47904857D01*
X141880714Y-47904857D01*
X142737857Y-47847714D02*
X142852142Y-47904857D01*
X143080714Y-47904857D01*
X143195000Y-47847714D01*
X143252142Y-47733428D01*
X143252142Y-47676285D01*
X143195000Y-47562000D01*
X143080714Y-47504857D01*
X142909285Y-47504857D01*
X142795000Y-47447714D01*
X142737857Y-47333428D01*
X142737857Y-47276285D01*
X142795000Y-47162000D01*
X142909285Y-47104857D01*
X143080714Y-47104857D01*
X143195000Y-47162000D01*
X144395000Y-47904857D02*
X143709285Y-47904857D01*
X144052142Y-47904857D02*
X144052142Y-46704857D01*
X143937857Y-46876285D01*
X143823571Y-46990571D01*
X143709285Y-47047714D01*
X144795000Y-46704857D02*
X145537857Y-46704857D01*
X145137857Y-47162000D01*
X145309285Y-47162000D01*
X145423571Y-47219142D01*
X145480714Y-47276285D01*
X145537857Y-47390571D01*
X145537857Y-47676285D01*
X145480714Y-47790571D01*
X145423571Y-47847714D01*
X145309285Y-47904857D01*
X144966428Y-47904857D01*
X144852142Y-47847714D01*
X144795000Y-47790571D01*
X146109285Y-47904857D02*
X146337857Y-47904857D01*
X146452142Y-47847714D01*
X146509285Y-47790571D01*
X146623571Y-47619142D01*
X146680714Y-47390571D01*
X146680714Y-46933428D01*
X146623571Y-46819142D01*
X146566428Y-46762000D01*
X146452142Y-46704857D01*
X146223571Y-46704857D01*
X146109285Y-46762000D01*
X146052142Y-46819142D01*
X145995000Y-46933428D01*
X145995000Y-47219142D01*
X146052142Y-47333428D01*
X146109285Y-47390571D01*
X146223571Y-47447714D01*
X146452142Y-47447714D01*
X146566428Y-47390571D01*
X146623571Y-47333428D01*
X146680714Y-47219142D01*
X147195000Y-47104857D02*
X148109285Y-47447714D01*
X147195000Y-47790571D01*
X119709285Y-50004857D02*
X119709285Y-48804857D01*
X120223571Y-50004857D02*
X120223571Y-49376285D01*
X120166428Y-49262000D01*
X120052142Y-49204857D01*
X119880714Y-49204857D01*
X119766428Y-49262000D01*
X119709285Y-49319142D01*
X120623571Y-49204857D02*
X121080714Y-49204857D01*
X120794999Y-48804857D02*
X120794999Y-49833428D01*
X120852142Y-49947714D01*
X120966428Y-50004857D01*
X121080714Y-50004857D01*
X121309285Y-49204857D02*
X121766428Y-49204857D01*
X121480714Y-48804857D02*
X121480714Y-49833428D01*
X121537857Y-49947714D01*
X121652142Y-50004857D01*
X121766428Y-50004857D01*
X122166428Y-49204857D02*
X122166428Y-50404857D01*
X122166428Y-49262000D02*
X122280714Y-49204857D01*
X122509285Y-49204857D01*
X122623571Y-49262000D01*
X122680714Y-49319142D01*
X122737857Y-49433428D01*
X122737857Y-49776285D01*
X122680714Y-49890571D01*
X122623571Y-49947714D01*
X122509285Y-50004857D01*
X122280714Y-50004857D01*
X122166428Y-49947714D01*
X123194999Y-49947714D02*
X123309285Y-50004857D01*
X123537857Y-50004857D01*
X123652142Y-49947714D01*
X123709285Y-49833428D01*
X123709285Y-49776285D01*
X123652142Y-49662000D01*
X123537857Y-49604857D01*
X123366428Y-49604857D01*
X123252142Y-49547714D01*
X123194999Y-49433428D01*
X123194999Y-49376285D01*
X123252142Y-49262000D01*
X123366428Y-49204857D01*
X123537857Y-49204857D01*
X123652142Y-49262000D01*
X124223571Y-49890571D02*
X124280714Y-49947714D01*
X124223571Y-50004857D01*
X124166428Y-49947714D01*
X124223571Y-49890571D01*
X124223571Y-50004857D01*
X124223571Y-49262000D02*
X124280714Y-49319142D01*
X124223571Y-49376285D01*
X124166428Y-49319142D01*
X124223571Y-49262000D01*
X124223571Y-49376285D01*
X125652142Y-48747714D02*
X124623571Y-50290571D01*
X126909285Y-48747714D02*
X125880714Y-50290571D01*
X127823571Y-49204857D02*
X127823571Y-50176285D01*
X127766428Y-50290571D01*
X127709285Y-50347714D01*
X127594999Y-50404857D01*
X127423571Y-50404857D01*
X127309285Y-50347714D01*
X127823571Y-49947714D02*
X127709285Y-50004857D01*
X127480714Y-50004857D01*
X127366428Y-49947714D01*
X127309285Y-49890571D01*
X127252142Y-49776285D01*
X127252142Y-49433428D01*
X127309285Y-49319142D01*
X127366428Y-49262000D01*
X127480714Y-49204857D01*
X127709285Y-49204857D01*
X127823571Y-49262000D01*
X128394999Y-50004857D02*
X128394999Y-49204857D01*
X128394999Y-48804857D02*
X128337857Y-48862000D01*
X128394999Y-48919142D01*
X128452142Y-48862000D01*
X128394999Y-48804857D01*
X128394999Y-48919142D01*
X128794999Y-49204857D02*
X129252142Y-49204857D01*
X128966428Y-48804857D02*
X128966428Y-49833428D01*
X129023571Y-49947714D01*
X129137857Y-50004857D01*
X129252142Y-50004857D01*
X129652142Y-50004857D02*
X129652142Y-48804857D01*
X130166428Y-50004857D02*
X130166428Y-49376285D01*
X130109285Y-49262000D01*
X129994999Y-49204857D01*
X129823571Y-49204857D01*
X129709285Y-49262000D01*
X129652142Y-49319142D01*
X131252142Y-49204857D02*
X131252142Y-50004857D01*
X130737857Y-49204857D02*
X130737857Y-49833428D01*
X130794999Y-49947714D01*
X130909285Y-50004857D01*
X131080714Y-50004857D01*
X131194999Y-49947714D01*
X131252142Y-49890571D01*
X131823571Y-50004857D02*
X131823571Y-48804857D01*
X131823571Y-49262000D02*
X131937857Y-49204857D01*
X132166428Y-49204857D01*
X132280714Y-49262000D01*
X132337857Y-49319142D01*
X132394999Y-49433428D01*
X132394999Y-49776285D01*
X132337857Y-49890571D01*
X132280714Y-49947714D01*
X132166428Y-50004857D01*
X131937857Y-50004857D01*
X131823571Y-49947714D01*
X132909285Y-49890571D02*
X132966428Y-49947714D01*
X132909285Y-50004857D01*
X132852142Y-49947714D01*
X132909285Y-49890571D01*
X132909285Y-50004857D01*
X133994999Y-49947714D02*
X133880714Y-50004857D01*
X133652142Y-50004857D01*
X133537857Y-49947714D01*
X133480714Y-49890571D01*
X133423571Y-49776285D01*
X133423571Y-49433428D01*
X133480714Y-49319142D01*
X133537857Y-49262000D01*
X133652142Y-49204857D01*
X133880714Y-49204857D01*
X133994999Y-49262000D01*
X134680714Y-50004857D02*
X134566428Y-49947714D01*
X134509285Y-49890571D01*
X134452142Y-49776285D01*
X134452142Y-49433428D01*
X134509285Y-49319142D01*
X134566428Y-49262000D01*
X134680714Y-49204857D01*
X134852142Y-49204857D01*
X134966428Y-49262000D01*
X135023571Y-49319142D01*
X135080714Y-49433428D01*
X135080714Y-49776285D01*
X135023571Y-49890571D01*
X134966428Y-49947714D01*
X134852142Y-50004857D01*
X134680714Y-50004857D01*
X135595000Y-50004857D02*
X135595000Y-49204857D01*
X135595000Y-49319142D02*
X135652142Y-49262000D01*
X135766428Y-49204857D01*
X135937857Y-49204857D01*
X136052142Y-49262000D01*
X136109285Y-49376285D01*
X136109285Y-50004857D01*
X136109285Y-49376285D02*
X136166428Y-49262000D01*
X136280714Y-49204857D01*
X136452142Y-49204857D01*
X136566428Y-49262000D01*
X136623571Y-49376285D01*
X136623571Y-50004857D01*
X138052142Y-48747714D02*
X137023571Y-50290571D01*
X138452142Y-50004857D02*
X138452142Y-48804857D01*
X138566428Y-49547714D02*
X138909285Y-50004857D01*
X138909285Y-49204857D02*
X138452142Y-49662000D01*
X139423571Y-50004857D02*
X139423571Y-49204857D01*
X139423571Y-49433428D02*
X139480714Y-49319142D01*
X139537857Y-49262000D01*
X139652142Y-49204857D01*
X139766428Y-49204857D01*
X140337857Y-50004857D02*
X140223571Y-49947714D01*
X140166428Y-49890571D01*
X140109285Y-49776285D01*
X140109285Y-49433428D01*
X140166428Y-49319142D01*
X140223571Y-49262000D01*
X140337857Y-49204857D01*
X140509285Y-49204857D01*
X140623571Y-49262000D01*
X140680714Y-49319142D01*
X140737857Y-49433428D01*
X140737857Y-49776285D01*
X140680714Y-49890571D01*
X140623571Y-49947714D01*
X140509285Y-50004857D01*
X140337857Y-50004857D01*
X141080714Y-49204857D02*
X141537857Y-49204857D01*
X141252142Y-48804857D02*
X141252142Y-49833428D01*
X141309285Y-49947714D01*
X141423571Y-50004857D01*
X141537857Y-50004857D01*
X142109285Y-50004857D02*
X141995000Y-49947714D01*
X141937857Y-49890571D01*
X141880714Y-49776285D01*
X141880714Y-49433428D01*
X141937857Y-49319142D01*
X141995000Y-49262000D01*
X142109285Y-49204857D01*
X142280714Y-49204857D01*
X142395000Y-49262000D01*
X142452142Y-49319142D01*
X142509285Y-49433428D01*
X142509285Y-49776285D01*
X142452142Y-49890571D01*
X142395000Y-49947714D01*
X142280714Y-50004857D01*
X142109285Y-50004857D01*
X142966428Y-49947714D02*
X143080714Y-50004857D01*
X143309285Y-50004857D01*
X143423571Y-49947714D01*
X143480714Y-49833428D01*
X143480714Y-49776285D01*
X143423571Y-49662000D01*
X143309285Y-49604857D01*
X143137857Y-49604857D01*
X143023571Y-49547714D01*
X142966428Y-49433428D01*
X142966428Y-49376285D01*
X143023571Y-49262000D01*
X143137857Y-49204857D01*
X143309285Y-49204857D01*
X143423571Y-49262000D01*
X144623571Y-50004857D02*
X143937857Y-50004857D01*
X144280714Y-50004857D02*
X144280714Y-48804857D01*
X144166428Y-48976285D01*
X144052142Y-49090571D01*
X143937857Y-49147714D01*
X145023571Y-48804857D02*
X145766428Y-48804857D01*
X145366428Y-49262000D01*
X145537857Y-49262000D01*
X145652142Y-49319142D01*
X145709285Y-49376285D01*
X145766428Y-49490571D01*
X145766428Y-49776285D01*
X145709285Y-49890571D01*
X145652142Y-49947714D01*
X145537857Y-50004857D01*
X145195000Y-50004857D01*
X145080714Y-49947714D01*
X145023571Y-49890571D01*
X146337857Y-50004857D02*
X146566428Y-50004857D01*
X146680714Y-49947714D01*
X146737857Y-49890571D01*
X146852142Y-49719142D01*
X146909285Y-49490571D01*
X146909285Y-49033428D01*
X146852142Y-48919142D01*
X146795000Y-48862000D01*
X146680714Y-48804857D01*
X146452142Y-48804857D01*
X146337857Y-48862000D01*
X146280714Y-48919142D01*
X146223571Y-49033428D01*
X146223571Y-49319142D01*
X146280714Y-49433428D01*
X146337857Y-49490571D01*
X146452142Y-49547714D01*
X146680714Y-49547714D01*
X146795000Y-49490571D01*
X146852142Y-49433428D01*
X146909285Y-49319142D01*
X148280714Y-48747714D02*
X147252142Y-50290571D01*
X111766428Y-50904857D02*
X111537857Y-50904857D01*
X111423571Y-50962000D01*
X111366428Y-51019142D01*
X111252142Y-51190571D01*
X111195000Y-51419142D01*
X111195000Y-51876285D01*
X111252142Y-51990571D01*
X111309285Y-52047714D01*
X111423571Y-52104857D01*
X111652142Y-52104857D01*
X111766428Y-52047714D01*
X111823571Y-51990571D01*
X111880714Y-51876285D01*
X111880714Y-51590571D01*
X111823571Y-51476285D01*
X111766428Y-51419142D01*
X111652142Y-51362000D01*
X111423571Y-51362000D01*
X111309285Y-51419142D01*
X111252142Y-51476285D01*
X111195000Y-51590571D01*
X112395000Y-52104857D02*
X112395000Y-50904857D01*
X112680714Y-50904857D01*
X112852142Y-50962000D01*
X112966428Y-51076285D01*
X113023571Y-51190571D01*
X113080714Y-51419142D01*
X113080714Y-51590571D01*
X113023571Y-51819142D01*
X112966428Y-51933428D01*
X112852142Y-52047714D01*
X112680714Y-52104857D01*
X112395000Y-52104857D01*
X113823571Y-50904857D02*
X114052142Y-50904857D01*
X114166428Y-50962000D01*
X114280714Y-51076285D01*
X114337857Y-51304857D01*
X114337857Y-51704857D01*
X114280714Y-51933428D01*
X114166428Y-52047714D01*
X114052142Y-52104857D01*
X113823571Y-52104857D01*
X113709285Y-52047714D01*
X113595000Y-51933428D01*
X113537857Y-51704857D01*
X113537857Y-51304857D01*
X113595000Y-51076285D01*
X113709285Y-50962000D01*
X113823571Y-50904857D01*
X115252142Y-51476285D02*
X114852142Y-51476285D01*
X114852142Y-52104857D02*
X114852142Y-50904857D01*
X115423571Y-50904857D01*
X115880714Y-51647714D02*
X116795000Y-51647714D01*
X118052142Y-52104857D02*
X117652142Y-51533428D01*
X117366428Y-52104857D02*
X117366428Y-50904857D01*
X117823571Y-50904857D01*
X117937857Y-50962000D01*
X117995000Y-51019142D01*
X118052142Y-51133428D01*
X118052142Y-51304857D01*
X117995000Y-51419142D01*
X117937857Y-51476285D01*
X117823571Y-51533428D01*
X117366428Y-51533428D01*
X118737857Y-52104857D02*
X118623571Y-52047714D01*
X118566428Y-51990571D01*
X118509285Y-51876285D01*
X118509285Y-51533428D01*
X118566428Y-51419142D01*
X118623571Y-51362000D01*
X118737857Y-51304857D01*
X118909285Y-51304857D01*
X119023571Y-51362000D01*
X119080714Y-51419142D01*
X119137857Y-51533428D01*
X119137857Y-51876285D01*
X119080714Y-51990571D01*
X119023571Y-52047714D01*
X118909285Y-52104857D01*
X118737857Y-52104857D01*
X119480714Y-51304857D02*
X119937857Y-51304857D01*
X119652142Y-50904857D02*
X119652142Y-51933428D01*
X119709285Y-52047714D01*
X119823571Y-52104857D01*
X119937857Y-52104857D01*
X120852142Y-52104857D02*
X120852142Y-51476285D01*
X120795000Y-51362000D01*
X120680714Y-51304857D01*
X120452142Y-51304857D01*
X120337857Y-51362000D01*
X120852142Y-52047714D02*
X120737857Y-52104857D01*
X120452142Y-52104857D01*
X120337857Y-52047714D01*
X120280714Y-51933428D01*
X120280714Y-51819142D01*
X120337857Y-51704857D01*
X120452142Y-51647714D01*
X120737857Y-51647714D01*
X120852142Y-51590571D01*
X121423571Y-52104857D02*
X121423571Y-51304857D01*
X121423571Y-51533428D02*
X121480714Y-51419142D01*
X121537857Y-51362000D01*
X121652142Y-51304857D01*
X121766428Y-51304857D01*
X122052142Y-51304857D02*
X122337857Y-52104857D01*
X122623571Y-51304857D02*
X122337857Y-52104857D01*
X122223571Y-52390571D01*
X122166428Y-52447714D01*
X122052142Y-52504857D01*
X123080714Y-51647714D02*
X123995000Y-51647714D01*
X124509285Y-52047714D02*
X124680714Y-52104857D01*
X124966428Y-52104857D01*
X125080714Y-52047714D01*
X125137857Y-51990571D01*
X125195000Y-51876285D01*
X125195000Y-51762000D01*
X125137857Y-51647714D01*
X125080714Y-51590571D01*
X124966428Y-51533428D01*
X124737857Y-51476285D01*
X124623571Y-51419142D01*
X124566428Y-51362000D01*
X124509285Y-51247714D01*
X124509285Y-51133428D01*
X124566428Y-51019142D01*
X124623571Y-50962000D01*
X124737857Y-50904857D01*
X125023571Y-50904857D01*
X125195000Y-50962000D01*
X125537857Y-51304857D02*
X125995000Y-51304857D01*
X125709285Y-50904857D02*
X125709285Y-51933428D01*
X125766428Y-52047714D01*
X125880714Y-52104857D01*
X125995000Y-52104857D01*
X126852142Y-52047714D02*
X126737857Y-52104857D01*
X126509285Y-52104857D01*
X126395000Y-52047714D01*
X126337857Y-51933428D01*
X126337857Y-51476285D01*
X126395000Y-51362000D01*
X126509285Y-51304857D01*
X126737857Y-51304857D01*
X126852142Y-51362000D01*
X126909285Y-51476285D01*
X126909285Y-51590571D01*
X126337857Y-51704857D01*
X127309285Y-51304857D02*
X127537857Y-52104857D01*
X127766428Y-51533428D01*
X127995000Y-52104857D01*
X128223571Y-51304857D01*
X129195000Y-52104857D02*
X129195000Y-51476285D01*
X129137857Y-51362000D01*
X129023571Y-51304857D01*
X128795000Y-51304857D01*
X128680714Y-51362000D01*
X129195000Y-52047714D02*
X129080714Y-52104857D01*
X128795000Y-52104857D01*
X128680714Y-52047714D01*
X128623571Y-51933428D01*
X128623571Y-51819142D01*
X128680714Y-51704857D01*
X128795000Y-51647714D01*
X129080714Y-51647714D01*
X129195000Y-51590571D01*
X129766428Y-52104857D02*
X129766428Y-51304857D01*
X129766428Y-51533428D02*
X129823571Y-51419142D01*
X129880714Y-51362000D01*
X129995000Y-51304857D01*
X130109285Y-51304857D01*
X130337857Y-51304857D02*
X130795000Y-51304857D01*
X130509285Y-50904857D02*
X130509285Y-51933428D01*
X130566428Y-52047714D01*
X130680714Y-52104857D01*
X130795000Y-52104857D01*
X131195000Y-51647714D02*
X132109285Y-51647714D01*
X132680714Y-52104857D02*
X132680714Y-50904857D01*
X133080714Y-51762000D01*
X133480714Y-50904857D01*
X133480714Y-52104857D01*
X134223571Y-52104857D02*
X134109285Y-52047714D01*
X134052142Y-51990571D01*
X133995000Y-51876285D01*
X133995000Y-51533428D01*
X134052142Y-51419142D01*
X134109285Y-51362000D01*
X134223571Y-51304857D01*
X134395000Y-51304857D01*
X134509285Y-51362000D01*
X134566428Y-51419142D01*
X134623571Y-51533428D01*
X134623571Y-51876285D01*
X134566428Y-51990571D01*
X134509285Y-52047714D01*
X134395000Y-52104857D01*
X134223571Y-52104857D01*
X134966428Y-51304857D02*
X135423571Y-51304857D01*
X135137857Y-50904857D02*
X135137857Y-51933428D01*
X135195000Y-52047714D01*
X135309285Y-52104857D01*
X135423571Y-52104857D01*
X135823571Y-52104857D02*
X135823571Y-51304857D01*
X135823571Y-50904857D02*
X135766428Y-50962000D01*
X135823571Y-51019142D01*
X135880714Y-50962000D01*
X135823571Y-50904857D01*
X135823571Y-51019142D01*
X136566428Y-52104857D02*
X136452142Y-52047714D01*
X136395000Y-51990571D01*
X136337857Y-51876285D01*
X136337857Y-51533428D01*
X136395000Y-51419142D01*
X136452142Y-51362000D01*
X136566428Y-51304857D01*
X136737857Y-51304857D01*
X136852142Y-51362000D01*
X136909285Y-51419142D01*
X136966428Y-51533428D01*
X136966428Y-51876285D01*
X136909285Y-51990571D01*
X136852142Y-52047714D01*
X136737857Y-52104857D01*
X136566428Y-52104857D01*
X137480714Y-51304857D02*
X137480714Y-52104857D01*
X137480714Y-51419142D02*
X137537857Y-51362000D01*
X137652142Y-51304857D01*
X137823571Y-51304857D01*
X137937857Y-51362000D01*
X137995000Y-51476285D01*
X137995000Y-52104857D01*
X138566428Y-51647714D02*
X139480714Y-51647714D01*
X139995000Y-52047714D02*
X140166428Y-52104857D01*
X140452142Y-52104857D01*
X140566428Y-52047714D01*
X140623571Y-51990571D01*
X140680714Y-51876285D01*
X140680714Y-51762000D01*
X140623571Y-51647714D01*
X140566428Y-51590571D01*
X140452142Y-51533428D01*
X140223571Y-51476285D01*
X140109285Y-51419142D01*
X140052142Y-51362000D01*
X139995000Y-51247714D01*
X139995000Y-51133428D01*
X140052142Y-51019142D01*
X140109285Y-50962000D01*
X140223571Y-50904857D01*
X140509285Y-50904857D01*
X140680714Y-50962000D01*
X141195000Y-52104857D02*
X141195000Y-51304857D01*
X141195000Y-50904857D02*
X141137857Y-50962000D01*
X141195000Y-51019142D01*
X141252142Y-50962000D01*
X141195000Y-50904857D01*
X141195000Y-51019142D01*
X141766428Y-52104857D02*
X141766428Y-51304857D01*
X141766428Y-51419142D02*
X141823571Y-51362000D01*
X141937857Y-51304857D01*
X142109285Y-51304857D01*
X142223571Y-51362000D01*
X142280714Y-51476285D01*
X142280714Y-52104857D01*
X142280714Y-51476285D02*
X142337857Y-51362000D01*
X142452142Y-51304857D01*
X142623571Y-51304857D01*
X142737857Y-51362000D01*
X142795000Y-51476285D01*
X142795000Y-52104857D01*
X143880714Y-51304857D02*
X143880714Y-52104857D01*
X143366428Y-51304857D02*
X143366428Y-51933428D01*
X143423571Y-52047714D01*
X143537857Y-52104857D01*
X143709285Y-52104857D01*
X143823571Y-52047714D01*
X143880714Y-51990571D01*
X144623571Y-52104857D02*
X144509285Y-52047714D01*
X144452142Y-51933428D01*
X144452142Y-50904857D01*
X145595000Y-52104857D02*
X145595000Y-51476285D01*
X145537857Y-51362000D01*
X145423571Y-51304857D01*
X145195000Y-51304857D01*
X145080714Y-51362000D01*
X145595000Y-52047714D02*
X145480714Y-52104857D01*
X145195000Y-52104857D01*
X145080714Y-52047714D01*
X145023571Y-51933428D01*
X145023571Y-51819142D01*
X145080714Y-51704857D01*
X145195000Y-51647714D01*
X145480714Y-51647714D01*
X145595000Y-51590571D01*
X145995000Y-51304857D02*
X146452142Y-51304857D01*
X146166428Y-50904857D02*
X146166428Y-51933428D01*
X146223571Y-52047714D01*
X146337857Y-52104857D01*
X146452142Y-52104857D01*
X147023571Y-52104857D02*
X146909285Y-52047714D01*
X146852142Y-51990571D01*
X146795000Y-51876285D01*
X146795000Y-51533428D01*
X146852142Y-51419142D01*
X146909285Y-51362000D01*
X147023571Y-51304857D01*
X147195000Y-51304857D01*
X147309285Y-51362000D01*
X147366428Y-51419142D01*
X147423571Y-51533428D01*
X147423571Y-51876285D01*
X147366428Y-51990571D01*
X147309285Y-52047714D01*
X147195000Y-52104857D01*
X147023571Y-52104857D01*
X147937857Y-52104857D02*
X147937857Y-51304857D01*
X147937857Y-51533428D02*
X147995000Y-51419142D01*
X148052142Y-51362000D01*
X148166428Y-51304857D01*
X148280714Y-51304857D01*
X132909285Y-54204857D02*
X132909285Y-53004857D01*
X133195000Y-53004857D01*
X133366428Y-53062000D01*
X133480714Y-53176285D01*
X133537857Y-53290571D01*
X133595000Y-53519142D01*
X133595000Y-53690571D01*
X133537857Y-53919142D01*
X133480714Y-54033428D01*
X133366428Y-54147714D01*
X133195000Y-54204857D01*
X132909285Y-54204857D01*
X134623571Y-54204857D02*
X134623571Y-53576285D01*
X134566428Y-53462000D01*
X134452142Y-53404857D01*
X134223571Y-53404857D01*
X134109285Y-53462000D01*
X134623571Y-54147714D02*
X134509285Y-54204857D01*
X134223571Y-54204857D01*
X134109285Y-54147714D01*
X134052142Y-54033428D01*
X134052142Y-53919142D01*
X134109285Y-53804857D01*
X134223571Y-53747714D01*
X134509285Y-53747714D01*
X134623571Y-53690571D01*
X135023571Y-53404857D02*
X135480714Y-53404857D01*
X135195000Y-53004857D02*
X135195000Y-54033428D01*
X135252142Y-54147714D01*
X135366428Y-54204857D01*
X135480714Y-54204857D01*
X136337857Y-54147714D02*
X136223571Y-54204857D01*
X135995000Y-54204857D01*
X135880714Y-54147714D01*
X135823571Y-54033428D01*
X135823571Y-53576285D01*
X135880714Y-53462000D01*
X135995000Y-53404857D01*
X136223571Y-53404857D01*
X136337857Y-53462000D01*
X136395000Y-53576285D01*
X136395000Y-53690571D01*
X135823571Y-53804857D01*
X136909285Y-54090571D02*
X136966428Y-54147714D01*
X136909285Y-54204857D01*
X136852142Y-54147714D01*
X136909285Y-54090571D01*
X136909285Y-54204857D01*
X136909285Y-53462000D02*
X136966428Y-53519142D01*
X136909285Y-53576285D01*
X136852142Y-53519142D01*
X136909285Y-53462000D01*
X136909285Y-53576285D01*
X138280714Y-53004857D02*
X139023571Y-53004857D01*
X138623571Y-53462000D01*
X138795000Y-53462000D01*
X138909285Y-53519142D01*
X138966428Y-53576285D01*
X139023571Y-53690571D01*
X139023571Y-53976285D01*
X138966428Y-54090571D01*
X138909285Y-54147714D01*
X138795000Y-54204857D01*
X138452142Y-54204857D01*
X138337857Y-54147714D01*
X138280714Y-54090571D01*
X139766428Y-53004857D02*
X139880714Y-53004857D01*
X139995000Y-53062000D01*
X140052142Y-53119142D01*
X140109285Y-53233428D01*
X140166428Y-53462000D01*
X140166428Y-53747714D01*
X140109285Y-53976285D01*
X140052142Y-54090571D01*
X139995000Y-54147714D01*
X139880714Y-54204857D01*
X139766428Y-54204857D01*
X139652142Y-54147714D01*
X139595000Y-54090571D01*
X139537857Y-53976285D01*
X139480714Y-53747714D01*
X139480714Y-53462000D01*
X139537857Y-53233428D01*
X139595000Y-53119142D01*
X139652142Y-53062000D01*
X139766428Y-53004857D01*
X140680714Y-54090571D02*
X140737857Y-54147714D01*
X140680714Y-54204857D01*
X140623571Y-54147714D01*
X140680714Y-54090571D01*
X140680714Y-54204857D01*
X141880714Y-54204857D02*
X141195000Y-54204857D01*
X141537857Y-54204857D02*
X141537857Y-53004857D01*
X141423571Y-53176285D01*
X141309285Y-53290571D01*
X141195000Y-53347714D01*
X143023571Y-54204857D02*
X142337857Y-54204857D01*
X142680714Y-54204857D02*
X142680714Y-53004857D01*
X142566428Y-53176285D01*
X142452142Y-53290571D01*
X142337857Y-53347714D01*
X143537857Y-54090571D02*
X143595000Y-54147714D01*
X143537857Y-54204857D01*
X143480714Y-54147714D01*
X143537857Y-54090571D01*
X143537857Y-54204857D01*
X144052142Y-53119142D02*
X144109285Y-53062000D01*
X144223571Y-53004857D01*
X144509285Y-53004857D01*
X144623571Y-53062000D01*
X144680714Y-53119142D01*
X144737857Y-53233428D01*
X144737857Y-53347714D01*
X144680714Y-53519142D01*
X143995000Y-54204857D01*
X144737857Y-54204857D01*
X145480714Y-53004857D02*
X145595000Y-53004857D01*
X145709285Y-53062000D01*
X145766428Y-53119142D01*
X145823571Y-53233428D01*
X145880714Y-53462000D01*
X145880714Y-53747714D01*
X145823571Y-53976285D01*
X145766428Y-54090571D01*
X145709285Y-54147714D01*
X145595000Y-54204857D01*
X145480714Y-54204857D01*
X145366428Y-54147714D01*
X145309285Y-54090571D01*
X145252142Y-53976285D01*
X145195000Y-53747714D01*
X145195000Y-53462000D01*
X145252142Y-53233428D01*
X145309285Y-53119142D01*
X145366428Y-53062000D01*
X145480714Y-53004857D01*
X146337857Y-53119142D02*
X146395000Y-53062000D01*
X146509285Y-53004857D01*
X146795000Y-53004857D01*
X146909285Y-53062000D01*
X146966428Y-53119142D01*
X147023571Y-53233428D01*
X147023571Y-53347714D01*
X146966428Y-53519142D01*
X146280714Y-54204857D01*
X147023571Y-54204857D01*
X147766428Y-53004857D02*
X147880714Y-53004857D01*
X147995000Y-53062000D01*
X148052142Y-53119142D01*
X148109285Y-53233428D01*
X148166428Y-53462000D01*
X148166428Y-53747714D01*
X148109285Y-53976285D01*
X148052142Y-54090571D01*
X147995000Y-54147714D01*
X147880714Y-54204857D01*
X147766428Y-54204857D01*
X147652142Y-54147714D01*
X147595000Y-54090571D01*
X147537857Y-53976285D01*
X147480714Y-53747714D01*
X147480714Y-53462000D01*
X147537857Y-53233428D01*
X147595000Y-53119142D01*
X147652142Y-53062000D01*
X147766428Y-53004857D01*
X142109285Y-55504857D02*
X142395000Y-56304857D01*
X142680714Y-55504857D01*
X143595000Y-56247714D02*
X143480714Y-56304857D01*
X143252142Y-56304857D01*
X143137857Y-56247714D01*
X143080714Y-56133428D01*
X143080714Y-55676285D01*
X143137857Y-55562000D01*
X143252142Y-55504857D01*
X143480714Y-55504857D01*
X143595000Y-55562000D01*
X143652142Y-55676285D01*
X143652142Y-55790571D01*
X143080714Y-55904857D01*
X144166428Y-56304857D02*
X144166428Y-55504857D01*
X144166428Y-55733428D02*
X144223571Y-55619142D01*
X144280714Y-55562000D01*
X144395000Y-55504857D01*
X144509285Y-55504857D01*
X146452142Y-56304857D02*
X145766428Y-56304857D01*
X146109285Y-56304857D02*
X146109285Y-55104857D01*
X145995000Y-55276285D01*
X145880714Y-55390571D01*
X145766428Y-55447714D01*
X146966428Y-56190571D02*
X147023571Y-56247714D01*
X146966428Y-56304857D01*
X146909285Y-56247714D01*
X146966428Y-56190571D01*
X146966428Y-56304857D01*
X147766428Y-55104857D02*
X147880714Y-55104857D01*
X147995000Y-55162000D01*
X148052142Y-55219142D01*
X148109285Y-55333428D01*
X148166428Y-55562000D01*
X148166428Y-55847714D01*
X148109285Y-56076285D01*
X148052142Y-56190571D01*
X147995000Y-56247714D01*
X147880714Y-56304857D01*
X147766428Y-56304857D01*
X147652142Y-56247714D01*
X147595000Y-56190571D01*
X147537857Y-56076285D01*
X147480714Y-55847714D01*
X147480714Y-55562000D01*
X147537857Y-55333428D01*
X147595000Y-55219142D01*
X147652142Y-55162000D01*
X147766428Y-55104857D01*
D12*
X121462470Y-20261904D02*
X120700565Y-20261904D01*
X120289851Y-20500000D01*
X120069613Y-20738095D01*
X119599375Y-21452380D01*
X119289851Y-22404761D01*
X119051755Y-24309523D01*
X119182708Y-24785714D01*
X119343422Y-25023809D01*
X119694613Y-25261904D01*
X120456517Y-25261904D01*
X120867232Y-25023809D01*
X121087470Y-24785714D01*
X121337470Y-24309523D01*
X121486279Y-23119047D01*
X121355327Y-22642857D01*
X121194613Y-22404761D01*
X120843422Y-22166666D01*
X120081517Y-22166666D01*
X119670803Y-22404761D01*
X119450565Y-22642857D01*
X119200565Y-23119047D01*
X122932708Y-25261904D02*
X123557708Y-20261904D01*
X124510089Y-20261904D01*
X125051755Y-20500000D01*
X125373184Y-20976190D01*
X125504136Y-21452380D01*
X125575565Y-22404761D01*
X125486279Y-23119047D01*
X125176755Y-24071428D01*
X124926755Y-24547619D01*
X124486279Y-25023809D01*
X123885089Y-25261904D01*
X122932708Y-25261904D01*
X128319613Y-20261904D02*
X129081517Y-20261904D01*
X129432708Y-20500000D01*
X129754136Y-20976190D01*
X129825565Y-21928571D01*
X129617232Y-23595238D01*
X129307708Y-24547619D01*
X128867232Y-25023809D01*
X128456517Y-25261904D01*
X127694613Y-25261904D01*
X127343422Y-25023809D01*
X127021994Y-24547619D01*
X126950565Y-23595238D01*
X127158898Y-21928571D01*
X127468422Y-20976190D01*
X127908898Y-20500000D01*
X128319613Y-20261904D01*
X132783898Y-22642857D02*
X131450565Y-22642857D01*
X131123184Y-25261904D02*
X131748184Y-20261904D01*
X133652946Y-20261904D01*
X139343422Y-25023809D02*
X138932708Y-25261904D01*
X138170803Y-25261904D01*
X137819613Y-25023809D01*
X137658898Y-24785714D01*
X137527946Y-24309523D01*
X137706517Y-22880952D01*
X137956517Y-22404761D01*
X138176755Y-22166666D01*
X138587470Y-21928571D01*
X139349375Y-21928571D01*
X139700565Y-22166666D01*
X141599375Y-25261904D02*
X141248184Y-25023809D01*
X141087470Y-24785714D01*
X140956517Y-24309523D01*
X141135089Y-22880952D01*
X141385089Y-22404761D01*
X141605327Y-22166666D01*
X142016041Y-21928571D01*
X142587470Y-21928571D01*
X142938660Y-22166666D01*
X143099375Y-22404761D01*
X143230327Y-22880952D01*
X143051755Y-24309523D01*
X142801755Y-24785714D01*
X142581517Y-25023809D01*
X142170803Y-25261904D01*
X141599375Y-25261904D01*
X145063660Y-21928571D02*
X144646994Y-25261904D01*
X145004136Y-22404761D02*
X145224375Y-22166666D01*
X145635089Y-21928571D01*
X146206517Y-21928571D01*
X146557708Y-22166666D01*
X146688660Y-22642857D01*
X146361279Y-25261904D01*
X148111279Y-21928571D02*
X149635089Y-21928571D01*
X148891041Y-20261904D02*
X148355327Y-24547619D01*
X148486279Y-25023809D01*
X148837470Y-25261904D01*
X149218422Y-25261904D01*
X150551755Y-25261904D02*
X150968422Y-21928571D01*
X150849375Y-22880952D02*
X151099375Y-22404761D01*
X151319613Y-22166666D01*
X151730327Y-21928571D01*
X152111279Y-21928571D01*
X153599375Y-25261904D02*
X153248184Y-25023809D01*
X153087470Y-24785714D01*
X152956517Y-24309523D01*
X153135089Y-22880952D01*
X153385089Y-22404761D01*
X153605327Y-22166666D01*
X154016041Y-21928571D01*
X154587470Y-21928571D01*
X154938660Y-22166666D01*
X155099375Y-22404761D01*
X155230327Y-22880952D01*
X155051755Y-24309523D01*
X154801755Y-24785714D01*
X154581517Y-25023809D01*
X154170803Y-25261904D01*
X153599375Y-25261904D01*
X157218422Y-25261904D02*
X156867232Y-25023809D01*
X156736279Y-24547619D01*
X157271994Y-20261904D01*
X161789851Y-25261904D02*
X162414851Y-20261904D01*
X162176755Y-22166666D02*
X162587470Y-21928571D01*
X163349375Y-21928571D01*
X163700565Y-22166666D01*
X163861279Y-22404761D01*
X163992232Y-22880952D01*
X163813660Y-24309523D01*
X163563660Y-24785714D01*
X163343422Y-25023809D01*
X162932708Y-25261904D01*
X162170803Y-25261904D01*
X161819613Y-25023809D01*
X165980327Y-25261904D02*
X165629136Y-25023809D01*
X165498184Y-24547619D01*
X166033898Y-20261904D01*
X168075565Y-25261904D02*
X167724375Y-25023809D01*
X167563660Y-24785714D01*
X167432708Y-24309523D01*
X167611279Y-22880952D01*
X167861279Y-22404761D01*
X168081517Y-22166666D01*
X168492232Y-21928571D01*
X169063660Y-21928571D01*
X169414851Y-22166666D01*
X169575565Y-22404761D01*
X169706517Y-22880952D01*
X169527946Y-24309523D01*
X169277946Y-24785714D01*
X169057708Y-25023809D01*
X168646994Y-25261904D01*
X168075565Y-25261904D01*
X172867232Y-25023809D02*
X172456517Y-25261904D01*
X171694613Y-25261904D01*
X171343422Y-25023809D01*
X171182708Y-24785714D01*
X171051755Y-24309523D01*
X171230327Y-22880952D01*
X171480327Y-22404761D01*
X171700565Y-22166666D01*
X172111279Y-21928571D01*
X172873184Y-21928571D01*
X173224375Y-22166666D01*
X174551755Y-25261904D02*
X175176755Y-20261904D01*
X175170803Y-23357142D02*
X176075565Y-25261904D01*
X176492232Y-21928571D02*
X174730327Y-23833333D01*
D11*
X137759961Y-150814990D02*
X135759961Y-150814990D01*
X135759961Y-150338800D01*
X135855200Y-150053085D01*
X136045676Y-149862609D01*
X136236152Y-149767371D01*
X136617104Y-149672133D01*
X136902819Y-149672133D01*
X137283771Y-149767371D01*
X137474247Y-149862609D01*
X137664723Y-150053085D01*
X137759961Y-150338800D01*
X137759961Y-150814990D01*
X137759961Y-147672133D02*
X136807580Y-148338800D01*
X137759961Y-148814990D02*
X135759961Y-148814990D01*
X135759961Y-148053085D01*
X135855200Y-147862609D01*
X135950438Y-147767371D01*
X136140914Y-147672133D01*
X136426628Y-147672133D01*
X136617104Y-147767371D01*
X136712342Y-147862609D01*
X136807580Y-148053085D01*
X136807580Y-148814990D01*
X137759961Y-146814990D02*
X135759961Y-146814990D01*
X135759961Y-146148323D02*
X137759961Y-145481657D01*
X135759961Y-144814990D01*
X136712342Y-144148323D02*
X136712342Y-143481657D01*
X137759961Y-143195942D02*
X137759961Y-144148323D01*
X135759961Y-144148323D01*
X135759961Y-143195942D01*
X135759961Y-139957847D02*
X135759961Y-140338800D01*
X135855200Y-140529276D01*
X135950438Y-140624514D01*
X136236152Y-140814990D01*
X136617104Y-140910228D01*
X137379009Y-140910228D01*
X137569485Y-140814990D01*
X137664723Y-140719752D01*
X137759961Y-140529276D01*
X137759961Y-140148323D01*
X137664723Y-139957847D01*
X137569485Y-139862609D01*
X137379009Y-139767371D01*
X136902819Y-139767371D01*
X136712342Y-139862609D01*
X136617104Y-139957847D01*
X136521866Y-140148323D01*
X136521866Y-140529276D01*
X136617104Y-140719752D01*
X136712342Y-140814990D01*
X136902819Y-140910228D01*
X152745961Y-150916590D02*
X150745961Y-150916590D01*
X150745961Y-150440400D01*
X150841200Y-150154685D01*
X151031676Y-149964209D01*
X151222152Y-149868971D01*
X151603104Y-149773733D01*
X151888819Y-149773733D01*
X152269771Y-149868971D01*
X152460247Y-149964209D01*
X152650723Y-150154685D01*
X152745961Y-150440400D01*
X152745961Y-150916590D01*
X152745961Y-147773733D02*
X151793580Y-148440400D01*
X152745961Y-148916590D02*
X150745961Y-148916590D01*
X150745961Y-148154685D01*
X150841200Y-147964209D01*
X150936438Y-147868971D01*
X151126914Y-147773733D01*
X151412628Y-147773733D01*
X151603104Y-147868971D01*
X151698342Y-147964209D01*
X151793580Y-148154685D01*
X151793580Y-148916590D01*
X152745961Y-146916590D02*
X150745961Y-146916590D01*
X150745961Y-146249923D02*
X152745961Y-145583257D01*
X150745961Y-144916590D01*
X151698342Y-144249923D02*
X151698342Y-143583257D01*
X152745961Y-143297542D02*
X152745961Y-144249923D01*
X150745961Y-144249923D01*
X150745961Y-143297542D01*
X150745961Y-139964209D02*
X150745961Y-140916590D01*
X151698342Y-141011828D01*
X151603104Y-140916590D01*
X151507866Y-140726114D01*
X151507866Y-140249923D01*
X151603104Y-140059447D01*
X151698342Y-139964209D01*
X151888819Y-139868971D01*
X152365009Y-139868971D01*
X152555485Y-139964209D01*
X152650723Y-140059447D01*
X152745961Y-140249923D01*
X152745961Y-140726114D01*
X152650723Y-140916590D01*
X152555485Y-141011828D01*
X169814761Y-150865790D02*
X167814761Y-150865790D01*
X167814761Y-150389600D01*
X167910000Y-150103885D01*
X168100476Y-149913409D01*
X168290952Y-149818171D01*
X168671904Y-149722933D01*
X168957619Y-149722933D01*
X169338571Y-149818171D01*
X169529047Y-149913409D01*
X169719523Y-150103885D01*
X169814761Y-150389600D01*
X169814761Y-150865790D01*
X169814761Y-147722933D02*
X168862380Y-148389600D01*
X169814761Y-148865790D02*
X167814761Y-148865790D01*
X167814761Y-148103885D01*
X167910000Y-147913409D01*
X168005238Y-147818171D01*
X168195714Y-147722933D01*
X168481428Y-147722933D01*
X168671904Y-147818171D01*
X168767142Y-147913409D01*
X168862380Y-148103885D01*
X168862380Y-148865790D01*
X169814761Y-146865790D02*
X167814761Y-146865790D01*
X167814761Y-146199123D02*
X169814761Y-145532457D01*
X167814761Y-144865790D01*
X168767142Y-144199123D02*
X168767142Y-143532457D01*
X169814761Y-143246742D02*
X169814761Y-144199123D01*
X167814761Y-144199123D01*
X167814761Y-143246742D01*
X168481428Y-140008647D02*
X169814761Y-140008647D01*
X167719523Y-140484838D02*
X169148095Y-140961028D01*
X169148095Y-139722933D01*
X185918361Y-150662590D02*
X183918361Y-150662590D01*
X183918361Y-150186400D01*
X184013600Y-149900685D01*
X184204076Y-149710209D01*
X184394552Y-149614971D01*
X184775504Y-149519733D01*
X185061219Y-149519733D01*
X185442171Y-149614971D01*
X185632647Y-149710209D01*
X185823123Y-149900685D01*
X185918361Y-150186400D01*
X185918361Y-150662590D01*
X185918361Y-147519733D02*
X184965980Y-148186400D01*
X185918361Y-148662590D02*
X183918361Y-148662590D01*
X183918361Y-147900685D01*
X184013600Y-147710209D01*
X184108838Y-147614971D01*
X184299314Y-147519733D01*
X184585028Y-147519733D01*
X184775504Y-147614971D01*
X184870742Y-147710209D01*
X184965980Y-147900685D01*
X184965980Y-148662590D01*
X185918361Y-146662590D02*
X183918361Y-146662590D01*
X183918361Y-145995923D02*
X185918361Y-145329257D01*
X183918361Y-144662590D01*
X184870742Y-143995923D02*
X184870742Y-143329257D01*
X185918361Y-143043542D02*
X185918361Y-143995923D01*
X183918361Y-143995923D01*
X183918361Y-143043542D01*
X183918361Y-140853066D02*
X183918361Y-139614971D01*
X184680266Y-140281638D01*
X184680266Y-139995923D01*
X184775504Y-139805447D01*
X184870742Y-139710209D01*
X185061219Y-139614971D01*
X185537409Y-139614971D01*
X185727885Y-139710209D01*
X185823123Y-139805447D01*
X185918361Y-139995923D01*
X185918361Y-140567352D01*
X185823123Y-140757828D01*
X185727885Y-140853066D01*
X202580761Y-150764190D02*
X200580761Y-150764190D01*
X200580761Y-150288000D01*
X200676000Y-150002285D01*
X200866476Y-149811809D01*
X201056952Y-149716571D01*
X201437904Y-149621333D01*
X201723619Y-149621333D01*
X202104571Y-149716571D01*
X202295047Y-149811809D01*
X202485523Y-150002285D01*
X202580761Y-150288000D01*
X202580761Y-150764190D01*
X202580761Y-147621333D02*
X201628380Y-148288000D01*
X202580761Y-148764190D02*
X200580761Y-148764190D01*
X200580761Y-148002285D01*
X200676000Y-147811809D01*
X200771238Y-147716571D01*
X200961714Y-147621333D01*
X201247428Y-147621333D01*
X201437904Y-147716571D01*
X201533142Y-147811809D01*
X201628380Y-148002285D01*
X201628380Y-148764190D01*
X202580761Y-146764190D02*
X200580761Y-146764190D01*
X200580761Y-146097523D02*
X202580761Y-145430857D01*
X200580761Y-144764190D01*
X201533142Y-144097523D02*
X201533142Y-143430857D01*
X202580761Y-143145142D02*
X202580761Y-144097523D01*
X200580761Y-144097523D01*
X200580761Y-143145142D01*
X200771238Y-140859428D02*
X200676000Y-140764190D01*
X200580761Y-140573714D01*
X200580761Y-140097523D01*
X200676000Y-139907047D01*
X200771238Y-139811809D01*
X200961714Y-139716571D01*
X201152190Y-139716571D01*
X201437904Y-139811809D01*
X202580761Y-140954666D01*
X202580761Y-139716571D01*
X219344761Y-150865790D02*
X217344761Y-150865790D01*
X217344761Y-150389600D01*
X217440000Y-150103885D01*
X217630476Y-149913409D01*
X217820952Y-149818171D01*
X218201904Y-149722933D01*
X218487619Y-149722933D01*
X218868571Y-149818171D01*
X219059047Y-149913409D01*
X219249523Y-150103885D01*
X219344761Y-150389600D01*
X219344761Y-150865790D01*
X219344761Y-147722933D02*
X218392380Y-148389600D01*
X219344761Y-148865790D02*
X217344761Y-148865790D01*
X217344761Y-148103885D01*
X217440000Y-147913409D01*
X217535238Y-147818171D01*
X217725714Y-147722933D01*
X218011428Y-147722933D01*
X218201904Y-147818171D01*
X218297142Y-147913409D01*
X218392380Y-148103885D01*
X218392380Y-148865790D01*
X219344761Y-146865790D02*
X217344761Y-146865790D01*
X217344761Y-146199123D02*
X219344761Y-145532457D01*
X217344761Y-144865790D01*
X218297142Y-144199123D02*
X218297142Y-143532457D01*
X219344761Y-143246742D02*
X219344761Y-144199123D01*
X217344761Y-144199123D01*
X217344761Y-143246742D01*
X219344761Y-139818171D02*
X219344761Y-140961028D01*
X219344761Y-140389600D02*
X217344761Y-140389600D01*
X217630476Y-140580076D01*
X217820952Y-140770552D01*
X217916190Y-140961028D01*
X229917523Y-73850095D02*
X230012761Y-73564380D01*
X230012761Y-73088190D01*
X229917523Y-72897714D01*
X229822285Y-72802476D01*
X229631809Y-72707238D01*
X229441333Y-72707238D01*
X229250857Y-72802476D01*
X229155619Y-72897714D01*
X229060380Y-73088190D01*
X228965142Y-73469142D01*
X228869904Y-73659619D01*
X228774666Y-73754857D01*
X228584190Y-73850095D01*
X228393714Y-73850095D01*
X228203238Y-73754857D01*
X228108000Y-73659619D01*
X228012761Y-73469142D01*
X228012761Y-72992952D01*
X228108000Y-72707238D01*
X228012761Y-72135809D02*
X228012761Y-70992952D01*
X230012761Y-71564380D02*
X228012761Y-71564380D01*
X228965142Y-70326285D02*
X228965142Y-69659619D01*
X230012761Y-69373904D02*
X230012761Y-70326285D01*
X228012761Y-70326285D01*
X228012761Y-69373904D01*
X230012761Y-68516761D02*
X228012761Y-68516761D01*
X228012761Y-67754857D01*
X228108000Y-67564380D01*
X228203238Y-67469142D01*
X228393714Y-67373904D01*
X228679428Y-67373904D01*
X228869904Y-67469142D01*
X228965142Y-67564380D01*
X229060380Y-67754857D01*
X229060380Y-68516761D01*
X221630761Y-73628000D02*
X219630761Y-73628000D01*
X219630761Y-73151809D01*
X219726000Y-72866095D01*
X219916476Y-72675619D01*
X220106952Y-72580380D01*
X220487904Y-72485142D01*
X220773619Y-72485142D01*
X221154571Y-72580380D01*
X221345047Y-72675619D01*
X221535523Y-72866095D01*
X221630761Y-73151809D01*
X221630761Y-73628000D01*
X221630761Y-71628000D02*
X219630761Y-71628000D01*
X221630761Y-69532761D02*
X220678380Y-70199428D01*
X221630761Y-70675619D02*
X219630761Y-70675619D01*
X219630761Y-69913714D01*
X219726000Y-69723238D01*
X219821238Y-69628000D01*
X220011714Y-69532761D01*
X220297428Y-69532761D01*
X220487904Y-69628000D01*
X220583142Y-69723238D01*
X220678380Y-69913714D01*
X220678380Y-70675619D01*
X127175523Y-30114761D02*
X127175523Y-28114761D01*
X127937428Y-28114761D01*
X128127904Y-28210000D01*
X128223142Y-28305238D01*
X128318380Y-28495714D01*
X128318380Y-28781428D01*
X128223142Y-28971904D01*
X128127904Y-29067142D01*
X127937428Y-29162380D01*
X127175523Y-29162380D01*
X129556476Y-28114761D02*
X129937428Y-28114761D01*
X130127904Y-28210000D01*
X130318380Y-28400476D01*
X130413619Y-28781428D01*
X130413619Y-29448095D01*
X130318380Y-29829047D01*
X130127904Y-30019523D01*
X129937428Y-30114761D01*
X129556476Y-30114761D01*
X129366000Y-30019523D01*
X129175523Y-29829047D01*
X129080285Y-29448095D01*
X129080285Y-28781428D01*
X129175523Y-28400476D01*
X129366000Y-28210000D01*
X129556476Y-28114761D01*
X131080285Y-28114761D02*
X131556476Y-30114761D01*
X131937428Y-28686190D01*
X132318380Y-30114761D01*
X132794571Y-28114761D01*
X133556476Y-29067142D02*
X134223142Y-29067142D01*
X134508857Y-30114761D02*
X133556476Y-30114761D01*
X133556476Y-28114761D01*
X134508857Y-28114761D01*
X136508857Y-30114761D02*
X135842190Y-29162380D01*
X135366000Y-30114761D02*
X135366000Y-28114761D01*
X136127904Y-28114761D01*
X136318380Y-28210000D01*
X136413619Y-28305238D01*
X136508857Y-28495714D01*
X136508857Y-28781428D01*
X136413619Y-28971904D01*
X136318380Y-29067142D01*
X136127904Y-29162380D01*
X135366000Y-29162380D01*
X139842190Y-28114761D02*
X138889809Y-28114761D01*
X138794571Y-29067142D01*
X138889809Y-28971904D01*
X139080285Y-28876666D01*
X139556476Y-28876666D01*
X139746952Y-28971904D01*
X139842190Y-29067142D01*
X139937428Y-29257619D01*
X139937428Y-29733809D01*
X139842190Y-29924285D01*
X139746952Y-30019523D01*
X139556476Y-30114761D01*
X139080285Y-30114761D01*
X138889809Y-30019523D01*
X138794571Y-29924285D01*
X140508857Y-28114761D02*
X141175523Y-30114761D01*
X141842190Y-28114761D01*
X126397428Y-90471523D02*
X126683142Y-90566761D01*
X127159333Y-90566761D01*
X127349809Y-90471523D01*
X127445047Y-90376285D01*
X127540285Y-90185809D01*
X127540285Y-89995333D01*
X127445047Y-89804857D01*
X127349809Y-89709619D01*
X127159333Y-89614380D01*
X126778380Y-89519142D01*
X126587904Y-89423904D01*
X126492666Y-89328666D01*
X126397428Y-89138190D01*
X126397428Y-88947714D01*
X126492666Y-88757238D01*
X126587904Y-88662000D01*
X126778380Y-88566761D01*
X127254571Y-88566761D01*
X127540285Y-88662000D01*
X128397428Y-90566761D02*
X128397428Y-89233428D01*
X128397428Y-88566761D02*
X128302190Y-88662000D01*
X128397428Y-88757238D01*
X128492666Y-88662000D01*
X128397428Y-88566761D01*
X128397428Y-88757238D01*
X130206952Y-89233428D02*
X130206952Y-90852476D01*
X130111714Y-91042952D01*
X130016476Y-91138190D01*
X129826000Y-91233428D01*
X129540285Y-91233428D01*
X129349809Y-91138190D01*
X130206952Y-90471523D02*
X130016476Y-90566761D01*
X129635523Y-90566761D01*
X129445047Y-90471523D01*
X129349809Y-90376285D01*
X129254571Y-90185809D01*
X129254571Y-89614380D01*
X129349809Y-89423904D01*
X129445047Y-89328666D01*
X129635523Y-89233428D01*
X130016476Y-89233428D01*
X130206952Y-89328666D01*
X131540285Y-88566761D02*
X131921238Y-88566761D01*
X132111714Y-88662000D01*
X132302190Y-88852476D01*
X132397428Y-89233428D01*
X132397428Y-89900095D01*
X132302190Y-90281047D01*
X132111714Y-90471523D01*
X131921238Y-90566761D01*
X131540285Y-90566761D01*
X131349809Y-90471523D01*
X131159333Y-90281047D01*
X131064095Y-89900095D01*
X131064095Y-89233428D01*
X131159333Y-88852476D01*
X131349809Y-88662000D01*
X131540285Y-88566761D01*
X134111714Y-89233428D02*
X134111714Y-90566761D01*
X133254571Y-89233428D02*
X133254571Y-90281047D01*
X133349809Y-90471523D01*
X133540285Y-90566761D01*
X133826000Y-90566761D01*
X134016476Y-90471523D01*
X134111714Y-90376285D01*
X134778380Y-89233428D02*
X135540285Y-89233428D01*
X135064095Y-88566761D02*
X135064095Y-90281047D01*
X135159333Y-90471523D01*
X135349809Y-90566761D01*
X135540285Y-90566761D01*
X136111714Y-88757238D02*
X136206952Y-88662000D01*
X136397428Y-88566761D01*
X136873619Y-88566761D01*
X137064095Y-88662000D01*
X137159333Y-88757238D01*
X137254571Y-88947714D01*
X137254571Y-89138190D01*
X137159333Y-89423904D01*
X136016476Y-90566761D01*
X137254571Y-90566761D01*
X131904761Y-133142857D02*
X129904761Y-133142857D01*
X129904761Y-132380952D01*
X130000000Y-132190476D01*
X130095238Y-132095238D01*
X130285714Y-132000000D01*
X130571428Y-132000000D01*
X130761904Y-132095238D01*
X130857142Y-132190476D01*
X130952380Y-132380952D01*
X130952380Y-133142857D01*
X129904761Y-130761904D02*
X129904761Y-130380952D01*
X130000000Y-130190476D01*
X130190476Y-130000000D01*
X130571428Y-129904761D01*
X131238095Y-129904761D01*
X131619047Y-130000000D01*
X131809523Y-130190476D01*
X131904761Y-130380952D01*
X131904761Y-130761904D01*
X131809523Y-130952380D01*
X131619047Y-131142857D01*
X131238095Y-131238095D01*
X130571428Y-131238095D01*
X130190476Y-131142857D01*
X130000000Y-130952380D01*
X129904761Y-130761904D01*
X129904761Y-129238095D02*
X131904761Y-128761904D01*
X130476190Y-128380952D01*
X131904761Y-128000000D01*
X129904761Y-127523809D01*
X130857142Y-126761904D02*
X130857142Y-126095238D01*
X131904761Y-125809523D02*
X131904761Y-126761904D01*
X129904761Y-126761904D01*
X129904761Y-125809523D01*
X131904761Y-123809523D02*
X130952380Y-124476190D01*
X131904761Y-124952380D02*
X129904761Y-124952380D01*
X129904761Y-124190476D01*
X130000000Y-124000000D01*
X130095238Y-123904761D01*
X130285714Y-123809523D01*
X130571428Y-123809523D01*
X130761904Y-123904761D01*
X130857142Y-124000000D01*
X130952380Y-124190476D01*
X130952380Y-124952380D01*
X131904761Y-120380952D02*
X131904761Y-121523809D01*
X131904761Y-120952380D02*
X129904761Y-120952380D01*
X130190476Y-121142857D01*
X130380952Y-121333333D01*
X130476190Y-121523809D01*
X130095238Y-119619047D02*
X130000000Y-119523809D01*
X129904761Y-119333333D01*
X129904761Y-118857142D01*
X130000000Y-118666666D01*
X130095238Y-118571428D01*
X130285714Y-118476190D01*
X130476190Y-118476190D01*
X130761904Y-118571428D01*
X131904761Y-119714285D01*
X131904761Y-118476190D01*
X129904761Y-117904761D02*
X131904761Y-117238095D01*
X129904761Y-116571428D01*
D13*
%TO.C,JP14*%
X176152000Y-66848000D02*
G75*
G02*
X175452000Y-67548000I-700000J0D01*
G01*
X175452000Y-65548000D02*
G75*
G02*
X176152000Y-66248000I0J-700000D01*
G01*
X173352000Y-66248000D02*
G75*
G02*
X174052000Y-65548000I700000J0D01*
G01*
X174052000Y-67548000D02*
G75*
G02*
X173352000Y-66848000I0J700000D01*
G01*
X176152000Y-66248000D02*
X176152000Y-66848000D01*
X174052000Y-65548000D02*
X175452000Y-65548000D01*
X173352000Y-66848000D02*
X173352000Y-66248000D01*
X175452000Y-67548000D02*
X174052000Y-67548000D01*
%TO.C,JP13*%
X183850000Y-64280000D02*
G75*
G02*
X183150000Y-63580000I0J700000D01*
G01*
X185150000Y-63580000D02*
G75*
G02*
X184450000Y-64280000I-700000J0D01*
G01*
X184450000Y-61480000D02*
G75*
G02*
X185150000Y-62180000I0J-700000D01*
G01*
X183150000Y-62180000D02*
G75*
G02*
X183850000Y-61480000I700000J0D01*
G01*
X184450000Y-64280000D02*
X183850000Y-64280000D01*
X185150000Y-62180000D02*
X185150000Y-63580000D01*
X183850000Y-61480000D02*
X184450000Y-61480000D01*
X183150000Y-63580000D02*
X183150000Y-62180000D01*
%TO.C,JP12*%
X186390000Y-64280000D02*
G75*
G02*
X185690000Y-63580000I0J700000D01*
G01*
X187690000Y-63580000D02*
G75*
G02*
X186990000Y-64280000I-700000J0D01*
G01*
X186990000Y-61480000D02*
G75*
G02*
X187690000Y-62180000I0J-700000D01*
G01*
X185690000Y-62180000D02*
G75*
G02*
X186390000Y-61480000I700000J0D01*
G01*
X186990000Y-64280000D02*
X186390000Y-64280000D01*
X187690000Y-62180000D02*
X187690000Y-63580000D01*
X186390000Y-61480000D02*
X186990000Y-61480000D01*
X185690000Y-63580000D02*
X185690000Y-62180000D01*
%TO.C,JP11*%
X188930000Y-64280000D02*
G75*
G02*
X188230000Y-63580000I0J700000D01*
G01*
X190230000Y-63580000D02*
G75*
G02*
X189530000Y-64280000I-700000J0D01*
G01*
X189530000Y-61480000D02*
G75*
G02*
X190230000Y-62180000I0J-700000D01*
G01*
X188230000Y-62180000D02*
G75*
G02*
X188930000Y-61480000I700000J0D01*
G01*
X189530000Y-64280000D02*
X188930000Y-64280000D01*
X190230000Y-62180000D02*
X190230000Y-63580000D01*
X188930000Y-61480000D02*
X189530000Y-61480000D01*
X188230000Y-63580000D02*
X188230000Y-62180000D01*
%TO.C,JP10*%
X191470000Y-64280000D02*
G75*
G02*
X190770000Y-63580000I0J700000D01*
G01*
X192770000Y-63580000D02*
G75*
G02*
X192070000Y-64280000I-700000J0D01*
G01*
X192070000Y-61480000D02*
G75*
G02*
X192770000Y-62180000I0J-700000D01*
G01*
X190770000Y-62180000D02*
G75*
G02*
X191470000Y-61480000I700000J0D01*
G01*
X192070000Y-64280000D02*
X191470000Y-64280000D01*
X192770000Y-62180000D02*
X192770000Y-63580000D01*
X191470000Y-61480000D02*
X192070000Y-61480000D01*
X190770000Y-63580000D02*
X190770000Y-62180000D01*
%TO.C,JP9*%
X194010000Y-64250000D02*
G75*
G02*
X193310000Y-63550000I0J700000D01*
G01*
X195310000Y-63550000D02*
G75*
G02*
X194610000Y-64250000I-700000J0D01*
G01*
X194610000Y-61450000D02*
G75*
G02*
X195310000Y-62150000I0J-700000D01*
G01*
X193310000Y-62150000D02*
G75*
G02*
X194010000Y-61450000I700000J0D01*
G01*
X194610000Y-64250000D02*
X194010000Y-64250000D01*
X195310000Y-62150000D02*
X195310000Y-63550000D01*
X194010000Y-61450000D02*
X194610000Y-61450000D01*
X193310000Y-63550000D02*
X193310000Y-62150000D01*
%TO.C,JP8*%
X201468000Y-25890000D02*
G75*
G02*
X202168000Y-26590000I0J-700000D01*
G01*
X200168000Y-26590000D02*
G75*
G02*
X200868000Y-25890000I700000J0D01*
G01*
X200868000Y-28690000D02*
G75*
G02*
X200168000Y-27990000I0J700000D01*
G01*
X202168000Y-27990000D02*
G75*
G02*
X201468000Y-28690000I-700000J0D01*
G01*
X200868000Y-25890000D02*
X201468000Y-25890000D01*
X200168000Y-27990000D02*
X200168000Y-26590000D01*
X201468000Y-28690000D02*
X200868000Y-28690000D01*
X202168000Y-26590000D02*
X202168000Y-27990000D01*
%TO.C,JP7*%
X198928000Y-25890000D02*
G75*
G02*
X199628000Y-26590000I0J-700000D01*
G01*
X197628000Y-26590000D02*
G75*
G02*
X198328000Y-25890000I700000J0D01*
G01*
X198328000Y-28690000D02*
G75*
G02*
X197628000Y-27990000I0J700000D01*
G01*
X199628000Y-27990000D02*
G75*
G02*
X198928000Y-28690000I-700000J0D01*
G01*
X198328000Y-25890000D02*
X198928000Y-25890000D01*
X197628000Y-27990000D02*
X197628000Y-26590000D01*
X198928000Y-28690000D02*
X198328000Y-28690000D01*
X199628000Y-26590000D02*
X199628000Y-27990000D01*
%TO.C,JP6*%
X143810000Y-38844000D02*
G75*
G02*
X144510000Y-39544000I0J-700000D01*
G01*
X142510000Y-39544000D02*
G75*
G02*
X143210000Y-38844000I700000J0D01*
G01*
X143210000Y-41644000D02*
G75*
G02*
X142510000Y-40944000I0J700000D01*
G01*
X144510000Y-40944000D02*
G75*
G02*
X143810000Y-41644000I-700000J0D01*
G01*
X143210000Y-38844000D02*
X143810000Y-38844000D01*
X142510000Y-40944000D02*
X142510000Y-39544000D01*
X143810000Y-41644000D02*
X143210000Y-41644000D01*
X144510000Y-39544000D02*
X144510000Y-40944000D01*
%TO.C,JP5*%
X167404000Y-49576000D02*
G75*
G02*
X166704000Y-50276000I-700000J0D01*
G01*
X166704000Y-48276000D02*
G75*
G02*
X167404000Y-48976000I0J-700000D01*
G01*
X164604000Y-48976000D02*
G75*
G02*
X165304000Y-48276000I700000J0D01*
G01*
X165304000Y-50276000D02*
G75*
G02*
X164604000Y-49576000I0J700000D01*
G01*
X167404000Y-48976000D02*
X167404000Y-49576000D01*
X165304000Y-48276000D02*
X166704000Y-48276000D01*
X164604000Y-49576000D02*
X164604000Y-48976000D01*
X166704000Y-50276000D02*
X165304000Y-50276000D01*
%TO.C,JP4*%
X148890000Y-38844000D02*
G75*
G02*
X149590000Y-39544000I0J-700000D01*
G01*
X147590000Y-39544000D02*
G75*
G02*
X148290000Y-38844000I700000J0D01*
G01*
X148290000Y-41644000D02*
G75*
G02*
X147590000Y-40944000I0J700000D01*
G01*
X149590000Y-40944000D02*
G75*
G02*
X148890000Y-41644000I-700000J0D01*
G01*
X148290000Y-38844000D02*
X148890000Y-38844000D01*
X147590000Y-40944000D02*
X147590000Y-39544000D01*
X148890000Y-41644000D02*
X148290000Y-41644000D01*
X149590000Y-39544000D02*
X149590000Y-40944000D01*
%TO.C,JP3*%
X167404000Y-52116000D02*
G75*
G02*
X166704000Y-52816000I-700000J0D01*
G01*
X166704000Y-50816000D02*
G75*
G02*
X167404000Y-51516000I0J-700000D01*
G01*
X164604000Y-51516000D02*
G75*
G02*
X165304000Y-50816000I700000J0D01*
G01*
X165304000Y-52816000D02*
G75*
G02*
X164604000Y-52116000I0J700000D01*
G01*
X167404000Y-51516000D02*
X167404000Y-52116000D01*
X165304000Y-50816000D02*
X166704000Y-50816000D01*
X164604000Y-52116000D02*
X164604000Y-51516000D01*
X166704000Y-52816000D02*
X165304000Y-52816000D01*
%TO.C,JP2*%
X146350000Y-38844000D02*
G75*
G02*
X147050000Y-39544000I0J-700000D01*
G01*
X145050000Y-39544000D02*
G75*
G02*
X145750000Y-38844000I700000J0D01*
G01*
X145750000Y-41644000D02*
G75*
G02*
X145050000Y-40944000I0J700000D01*
G01*
X147050000Y-40944000D02*
G75*
G02*
X146350000Y-41644000I-700000J0D01*
G01*
X145750000Y-38844000D02*
X146350000Y-38844000D01*
X145050000Y-40944000D02*
X145050000Y-39544000D01*
X146350000Y-41644000D02*
X145750000Y-41644000D01*
X147050000Y-39544000D02*
X147050000Y-40944000D01*
%TO.C,JP1*%
X172766000Y-50528000D02*
G75*
G02*
X173466000Y-51228000I0J-700000D01*
G01*
X171466000Y-51228000D02*
G75*
G02*
X172166000Y-50528000I700000J0D01*
G01*
X172166000Y-53328000D02*
G75*
G02*
X171466000Y-52628000I0J700000D01*
G01*
X173466000Y-52628000D02*
G75*
G02*
X172766000Y-53328000I-700000J0D01*
G01*
X172166000Y-50528000D02*
X172766000Y-50528000D01*
X171466000Y-52628000D02*
X171466000Y-51228000D01*
X172766000Y-53328000D02*
X172166000Y-53328000D01*
X173466000Y-51228000D02*
X173466000Y-52628000D01*
%TO.C,J2*%
X117224000Y-116556000D02*
X123284000Y-116556000D01*
X123284000Y-116556000D02*
X123284000Y-119366000D01*
X123284000Y-123966000D02*
X123284000Y-126776000D01*
X123284000Y-126776000D02*
X117224000Y-126776000D01*
X113124000Y-126776000D02*
X110064000Y-126776000D01*
X110064000Y-126776000D02*
X110064000Y-116556000D01*
X110064000Y-116556000D02*
X113124000Y-116556000D01*
X123474000Y-120666000D02*
X123474000Y-122666000D01*
%TO.C,C13*%
X190812748Y-92683000D02*
X191335252Y-92683000D01*
X190812748Y-91213000D02*
X191335252Y-91213000D01*
%TO.C,C11*%
X223954748Y-92683000D02*
X224477252Y-92683000D01*
X223954748Y-91213000D02*
X224477252Y-91213000D01*
%TO.C,C9*%
X157660748Y-92683000D02*
X158183252Y-92683000D01*
X157660748Y-91213000D02*
X158183252Y-91213000D01*
%TO.C,C18*%
X236974748Y-62511000D02*
X237497252Y-62511000D01*
X236974748Y-63981000D02*
X237497252Y-63981000D01*
%TO.C,C17*%
X150695252Y-33247000D02*
X150172748Y-33247000D01*
X150695252Y-31777000D02*
X150172748Y-31777000D01*
%TO.C,C7*%
X207190748Y-91213000D02*
X207713252Y-91213000D01*
X207190748Y-92683000D02*
X207713252Y-92683000D01*
%TO.C,C5*%
X115851000Y-91259252D02*
X115851000Y-90736748D01*
X117321000Y-91259252D02*
X117321000Y-90736748D01*
%TO.C,C3*%
X174170748Y-91213000D02*
X174693252Y-91213000D01*
X174170748Y-92683000D02*
X174693252Y-92683000D01*
%TO.C,C2*%
X141150748Y-91213000D02*
X141673252Y-91213000D01*
X141150748Y-92683000D02*
X141673252Y-92683000D01*
%TO.C,\u002AJ2*%
X116680000Y-36000000D02*
G75*
G03*
X116680000Y-36000000I-1680000J0D01*
G01*
X110900000Y-28440000D02*
X110900000Y-38560000D01*
X112400000Y-28440000D02*
X112400000Y-38560000D01*
X117301000Y-28440000D02*
X117301000Y-38560000D01*
X120261000Y-28440000D02*
X120261000Y-38560000D01*
X110340000Y-28440000D02*
X110340000Y-38560000D01*
X120261000Y-28440000D02*
X110340000Y-28440000D01*
X120261000Y-38560000D02*
X110340000Y-38560000D01*
X116069000Y-37275000D02*
X116023000Y-37228000D01*
X113761000Y-34966000D02*
X113726000Y-34931000D01*
X116275000Y-37070000D02*
X116239000Y-37035000D01*
X113977000Y-34773000D02*
X113931000Y-34726000D01*
X110840000Y-28200000D02*
X110100000Y-28200000D01*
X110100000Y-28200000D02*
X110100000Y-28700000D01*
X113319747Y-31028805D02*
G75*
G02*
X113465000Y-30316000I1680253J28805D01*
G01*
X114316958Y-29464574D02*
G75*
G02*
X115684000Y-29465000I683042J-1535426D01*
G01*
X116535426Y-30316958D02*
G75*
G02*
X116535000Y-31684000I-1535426J-683042D01*
G01*
X115683042Y-32535426D02*
G75*
G02*
X114316000Y-32535000I-683042J1535426D01*
G01*
X113465244Y-31683318D02*
G75*
G02*
X113320000Y-31000000I1534756J683318D01*
G01*
%TO.C,\u002AXA1*%
X175384000Y-30984000D02*
X175384000Y-63754000D01*
X175384000Y-63754000D02*
X177924000Y-66294000D01*
X177924000Y-66294000D02*
X177924000Y-68964000D01*
X177924000Y-68964000D02*
X244224000Y-68964000D01*
X244224000Y-68964000D02*
X244224000Y-65784000D01*
X244224000Y-65784000D02*
X246124000Y-65784000D01*
X246124000Y-65784000D02*
X246124000Y-56644000D01*
X246124000Y-56644000D02*
X244224000Y-56644000D01*
X244224000Y-56644000D02*
X244224000Y-36574000D01*
X244224000Y-36574000D02*
X250574000Y-36574000D01*
X250574000Y-36574000D02*
X250574000Y-24894000D01*
X250574000Y-24894000D02*
X244224000Y-24894000D01*
X244224000Y-24894000D02*
X244224000Y-15364000D01*
X244224000Y-15364000D02*
X179574000Y-15364000D01*
X179574000Y-15364000D02*
X177924000Y-17014000D01*
X177924000Y-17014000D02*
X177924000Y-28444000D01*
X177924000Y-28444000D02*
X175384000Y-30984000D01*
%TO.C,U2*%
X159496000Y-63306000D02*
X161146000Y-63306000D01*
X161146000Y-63306000D02*
X161146000Y-27626000D01*
X161146000Y-27626000D02*
X155846000Y-27626000D01*
X155846000Y-27626000D02*
X155846000Y-63306000D01*
X155846000Y-63306000D02*
X157496000Y-63306000D01*
X157496000Y-63306000D02*
G75*
G02*
X159496000Y-63306000I1000000J0D01*
G01*
%TO.C,\u002AJ3*%
X232168000Y-109344000D02*
X241288000Y-109344000D01*
X241288000Y-109344000D02*
X241288000Y-129924000D01*
X241288000Y-129924000D02*
X232168000Y-129924000D01*
X232168000Y-129924000D02*
X232168000Y-109344000D01*
X232168000Y-117584000D02*
X233478000Y-117584000D01*
X233478000Y-117584000D02*
X233478000Y-110644000D01*
X233478000Y-110644000D02*
X239978000Y-110644000D01*
X239978000Y-110644000D02*
X239978000Y-128624000D01*
X239978000Y-128624000D02*
X233478000Y-128624000D01*
X233478000Y-128624000D02*
X233478000Y-121684000D01*
X233478000Y-121684000D02*
X233478000Y-121684000D01*
X233478000Y-121684000D02*
X232168000Y-121684000D01*
X231778000Y-114554000D02*
X230778000Y-114054000D01*
X230778000Y-114054000D02*
X230778000Y-115054000D01*
X230778000Y-115054000D02*
X231778000Y-114554000D01*
%TO.C,U1*%
X196088000Y-54880000D02*
G75*
G03*
X196088000Y-54880000I-1500000J0D01*
G01*
X196088000Y-31480000D02*
G75*
G03*
X196088000Y-31480000I-1500000J0D01*
G01*
X242088000Y-29180000D02*
X194588000Y-29180000D01*
X194588000Y-57180000D02*
X242088000Y-57180000D01*
X244088000Y-55180000D02*
X244088000Y-31180000D01*
X192588000Y-55180000D02*
X192588000Y-31180000D01*
X243588000Y-54880000D02*
G75*
G03*
X243588000Y-54880000I-1500000J0D01*
G01*
X243588000Y-31480000D02*
G75*
G03*
X243588000Y-31480000I-1500000J0D01*
G01*
X238088000Y-47180000D02*
X244088000Y-47180000D01*
X238088000Y-39180000D02*
X244088000Y-39180000D01*
X238088000Y-47180000D02*
X238088000Y-39180000D01*
X193858000Y-52070000D02*
X193858000Y-34290000D01*
X193858000Y-34290000D02*
X198938000Y-34290000D01*
X198938000Y-34290000D02*
X198938000Y-52070000D01*
X198938000Y-52070000D02*
X193858000Y-52070000D01*
X198176000Y-50800000D02*
X194620000Y-50800000D01*
X194620000Y-50800000D02*
X194620000Y-48260000D01*
X194620000Y-48260000D02*
X196652000Y-48260000D01*
X196652000Y-48260000D02*
X196652000Y-45720000D01*
X196652000Y-45720000D02*
X194620000Y-45720000D01*
X194620000Y-45720000D02*
X194620000Y-43180000D01*
X194620000Y-43180000D02*
X196652000Y-43180000D01*
X196652000Y-43180000D02*
X196652000Y-40640000D01*
X196652000Y-40640000D02*
X194620000Y-40640000D01*
X194620000Y-40640000D02*
X194620000Y-35560000D01*
X194620000Y-35560000D02*
X198176000Y-35560000D01*
X194620000Y-38100000D02*
X198176000Y-38100000D01*
X199588000Y-50680000D02*
X199588000Y-35680000D01*
X199588000Y-35680000D02*
X217588000Y-35680000D01*
X217588000Y-35680000D02*
X217588000Y-50680000D01*
X217588000Y-50680000D02*
X199588000Y-50680000D01*
D14*
X215848000Y-48260000D02*
G75*
G03*
X215848000Y-48260000I-400000J0D01*
G01*
D13*
X239578000Y-36830000D02*
X239578000Y-34290000D01*
X239578000Y-34290000D02*
X243388000Y-34290000D01*
X243388000Y-34290000D02*
X243388000Y-36830000D01*
X243388000Y-36830000D02*
X239578000Y-36830000D01*
X243388000Y-49530000D02*
X243388000Y-52070000D01*
X243388000Y-52070000D02*
X239578000Y-52070000D01*
X239578000Y-52070000D02*
X239578000Y-49530000D01*
X239578000Y-49530000D02*
X243388000Y-49530000D01*
D15*
X241783000Y-50800000D02*
G75*
G03*
X241783000Y-50800000I-300000J0D01*
G01*
X241783000Y-35560000D02*
G75*
G03*
X241783000Y-35560000I-300000J0D01*
G01*
D13*
X242088000Y-29180000D02*
G75*
G02*
X244088000Y-31180000I0J-2000000D01*
G01*
X244088000Y-55180000D02*
G75*
G02*
X242088000Y-57180000I-2000000J0D01*
G01*
X194588000Y-57180000D02*
G75*
G02*
X192588000Y-55180000I0J2000000D01*
G01*
X192588000Y-31180000D02*
G75*
G02*
X194588000Y-29180000I2000000J0D01*
G01*
%TO.C,C15*%
X232598000Y-62262000D02*
X232598000Y-61762000D01*
X232848000Y-62012000D02*
X232348000Y-62012000D01*
X232108000Y-59256437D02*
X231043563Y-58192000D01*
X232108000Y-61647563D02*
X231043563Y-62712000D01*
X232108000Y-61647563D02*
X232108000Y-61512000D01*
X232108000Y-59256437D02*
X232108000Y-59392000D01*
X231043563Y-58192000D02*
X227588000Y-58192000D01*
X231043563Y-62712000D02*
X227588000Y-62712000D01*
X227588000Y-62712000D02*
X227588000Y-61512000D01*
X227588000Y-58192000D02*
X227588000Y-59392000D01*
%TO.C,C1*%
X124210000Y-136678000D02*
X124210000Y-137878000D01*
X124210000Y-141198000D02*
X124210000Y-139998000D01*
X127665563Y-141198000D02*
X124210000Y-141198000D01*
X127665563Y-136678000D02*
X124210000Y-136678000D01*
X128730000Y-137742437D02*
X128730000Y-137878000D01*
X128730000Y-140133563D02*
X128730000Y-139998000D01*
X128730000Y-140133563D02*
X127665563Y-141198000D01*
X128730000Y-137742437D02*
X127665563Y-136678000D01*
X129470000Y-140498000D02*
X128970000Y-140498000D01*
X129220000Y-140748000D02*
X129220000Y-140248000D01*
%TO.C,D3*%
X142665500Y-30170000D02*
X145350500Y-30170000D01*
X142665500Y-28250000D02*
X142665500Y-30170000D01*
X145350500Y-28250000D02*
X142665500Y-28250000D01*
%TO.C,\u002AD1*%
X237427500Y-89098000D02*
X240112500Y-89098000D01*
X240112500Y-89098000D02*
X240112500Y-87178000D01*
X240112500Y-87178000D02*
X237427500Y-87178000D01*
%TO.C,D1*%
X125910000Y-144726000D02*
X125910000Y-141786000D01*
X125910000Y-141786000D02*
X120470000Y-141786000D01*
X120470000Y-141786000D02*
X120470000Y-144726000D01*
X120470000Y-144726000D02*
X125910000Y-144726000D01*
X126930000Y-143256000D02*
X125910000Y-143256000D01*
X119450000Y-143256000D02*
X120470000Y-143256000D01*
X125010000Y-144726000D02*
X125010000Y-141786000D01*
X124890000Y-144726000D02*
X124890000Y-141786000D01*
X125130000Y-144726000D02*
X125130000Y-141786000D01*
%TO.C,\u002AD2*%
X129670000Y-150232000D02*
X123970000Y-150232000D01*
X129670000Y-145932000D02*
X123970000Y-145932000D01*
X129670000Y-150232000D02*
X129670000Y-145932000D01*
%TO.C,D2*%
X128860500Y-129088000D02*
X126175500Y-129088000D01*
X128860500Y-131008000D02*
X128860500Y-129088000D01*
X126175500Y-131008000D02*
X128860500Y-131008000D01*
%TO.C,D4*%
X222306000Y-70275500D02*
X222306000Y-72960500D01*
X224226000Y-70275500D02*
X222306000Y-70275500D01*
X224226000Y-72960500D02*
X224226000Y-70275500D01*
%TO.C,\u002AD4*%
X125558500Y-88702000D02*
X122873500Y-88702000D01*
X125558500Y-90622000D02*
X125558500Y-88702000D01*
X122873500Y-90622000D02*
X125558500Y-90622000D01*
%TO.C,D5*%
X232608000Y-72960500D02*
X232608000Y-70275500D01*
X232608000Y-70275500D02*
X230688000Y-70275500D01*
X230688000Y-70275500D02*
X230688000Y-72960500D01*
%TO.C,J1*%
X240694000Y-99996000D02*
G75*
G03*
X240694000Y-99996000I-1680000J0D01*
G01*
X240694000Y-94996000D02*
G75*
G03*
X240694000Y-94996000I-1680000J0D01*
G01*
X243114000Y-107556000D02*
X243114000Y-92436000D01*
X241614000Y-107556000D02*
X241614000Y-92436000D01*
X236713000Y-107556000D02*
X236713000Y-92436000D01*
X233753000Y-107556000D02*
X233753000Y-92436000D01*
X243674000Y-107556000D02*
X243674000Y-92436000D01*
X233753000Y-107556000D02*
X243674000Y-107556000D01*
X233753000Y-92436000D02*
X243674000Y-92436000D01*
X237945000Y-98721000D02*
X237991000Y-98768000D01*
X240253000Y-101030000D02*
X240288000Y-101065000D01*
X237739000Y-98926000D02*
X237775000Y-98961000D01*
X240037000Y-101223000D02*
X240083000Y-101270000D01*
X237945000Y-93721000D02*
X237991000Y-93768000D01*
X240253000Y-96030000D02*
X240288000Y-96065000D01*
X237739000Y-93926000D02*
X237775000Y-93961000D01*
X240037000Y-96223000D02*
X240083000Y-96270000D01*
X243174000Y-107796000D02*
X243914000Y-107796000D01*
X243914000Y-107796000D02*
X243914000Y-107296000D01*
X240548756Y-104312682D02*
G75*
G02*
X240694000Y-104996000I-1534756J-683318D01*
G01*
X238330958Y-103460574D02*
G75*
G02*
X239698000Y-103461000I683042J-1535426D01*
G01*
X237478574Y-105679042D02*
G75*
G02*
X237479000Y-104312000I1535426J683042D01*
G01*
X239697042Y-106531426D02*
G75*
G02*
X238330000Y-106531000I-683042J1535426D01*
G01*
X240694253Y-104967195D02*
G75*
G02*
X240549000Y-105680000I-1680253J-28805D01*
G01*
%TO.C,\u002AJ1*%
X116488000Y-138096000D02*
G75*
G03*
X116488000Y-138096000I-1680000J0D01*
G01*
X110708000Y-130536000D02*
X110708000Y-140656000D01*
X112208000Y-130536000D02*
X112208000Y-140656000D01*
X117109000Y-130536000D02*
X117109000Y-140656000D01*
X120069000Y-130536000D02*
X120069000Y-140656000D01*
X110148000Y-130536000D02*
X110148000Y-140656000D01*
X120069000Y-130536000D02*
X110148000Y-130536000D01*
X120069000Y-140656000D02*
X110148000Y-140656000D01*
X115877000Y-139371000D02*
X115831000Y-139324000D01*
X113569000Y-137062000D02*
X113534000Y-137027000D01*
X116083000Y-139166000D02*
X116047000Y-139131000D01*
X113785000Y-136869000D02*
X113739000Y-136822000D01*
X110648000Y-130296000D02*
X109908000Y-130296000D01*
X109908000Y-130296000D02*
X109908000Y-130796000D01*
X113273244Y-133779318D02*
G75*
G02*
X113128000Y-133096000I1534756J683318D01*
G01*
X115491042Y-134631426D02*
G75*
G02*
X114124000Y-134631000I-683042J1535426D01*
G01*
X116343426Y-132412958D02*
G75*
G02*
X116343000Y-133780000I-1535426J-683042D01*
G01*
X114124958Y-131560574D02*
G75*
G02*
X115492000Y-131561000I683042J-1535426D01*
G01*
X113127747Y-133124805D02*
G75*
G02*
X113273000Y-132412000I1680253J28805D01*
G01*
%TO.C,J3*%
X128740000Y-112023000D02*
X116810000Y-112023000D01*
X128740000Y-112023000D02*
X128740000Y-96003000D01*
X128740000Y-96003000D02*
X116810000Y-96003000D01*
X109870000Y-112023000D02*
X109870000Y-96003000D01*
X113310000Y-112023000D02*
X109870000Y-112023000D01*
X124460000Y-95635000D02*
X124968000Y-95127000D01*
X124968000Y-95127000D02*
X123952000Y-95127000D01*
X123952000Y-95127000D02*
X124460000Y-95635000D01*
X113310000Y-96003000D02*
X109870000Y-96003000D01*
%TO.C,J4*%
X220668000Y-107434000D02*
X221668000Y-106934000D01*
X220668000Y-106434000D02*
X220668000Y-107434000D01*
X221668000Y-106934000D02*
X220668000Y-106434000D01*
X223368000Y-124224000D02*
X222058000Y-124224000D01*
X223368000Y-124224000D02*
X223368000Y-124224000D01*
X223368000Y-141334000D02*
X223368000Y-124224000D01*
X229768000Y-141334000D02*
X223368000Y-141334000D01*
X229768000Y-103014000D02*
X229768000Y-141334000D01*
X223368000Y-103014000D02*
X229768000Y-103014000D01*
X223368000Y-120124000D02*
X223368000Y-103014000D01*
X222058000Y-120124000D02*
X223368000Y-120124000D01*
X222058000Y-148494000D02*
X222428000Y-148494000D01*
X222058000Y-95854000D02*
X222058000Y-148494000D01*
X222428000Y-95854000D02*
X222058000Y-95854000D01*
X231078000Y-148494000D02*
X230208000Y-148494000D01*
X231078000Y-95854000D02*
X231078000Y-148494000D01*
X230208000Y-95854000D02*
X231078000Y-95854000D01*
%TO.C,J7*%
X213698000Y-95854000D02*
X214568000Y-95854000D01*
X214568000Y-95854000D02*
X214568000Y-148494000D01*
X214568000Y-148494000D02*
X213698000Y-148494000D01*
X205918000Y-95854000D02*
X205548000Y-95854000D01*
X205548000Y-95854000D02*
X205548000Y-148494000D01*
X205548000Y-148494000D02*
X205918000Y-148494000D01*
X205548000Y-120124000D02*
X206858000Y-120124000D01*
X206858000Y-120124000D02*
X206858000Y-103014000D01*
X206858000Y-103014000D02*
X213258000Y-103014000D01*
X213258000Y-103014000D02*
X213258000Y-141334000D01*
X213258000Y-141334000D02*
X206858000Y-141334000D01*
X206858000Y-141334000D02*
X206858000Y-124224000D01*
X206858000Y-124224000D02*
X206858000Y-124224000D01*
X206858000Y-124224000D02*
X205548000Y-124224000D01*
X205158000Y-106934000D02*
X204158000Y-106434000D01*
X204158000Y-106434000D02*
X204158000Y-107434000D01*
X204158000Y-107434000D02*
X205158000Y-106934000D01*
%TO.C,J5*%
X187648000Y-107434000D02*
X188648000Y-106934000D01*
X187648000Y-106434000D02*
X187648000Y-107434000D01*
X188648000Y-106934000D02*
X187648000Y-106434000D01*
X190348000Y-124224000D02*
X189038000Y-124224000D01*
X190348000Y-124224000D02*
X190348000Y-124224000D01*
X190348000Y-141334000D02*
X190348000Y-124224000D01*
X196748000Y-141334000D02*
X190348000Y-141334000D01*
X196748000Y-103014000D02*
X196748000Y-141334000D01*
X190348000Y-103014000D02*
X196748000Y-103014000D01*
X190348000Y-120124000D02*
X190348000Y-103014000D01*
X189038000Y-120124000D02*
X190348000Y-120124000D01*
X189038000Y-148494000D02*
X189408000Y-148494000D01*
X189038000Y-95854000D02*
X189038000Y-148494000D01*
X189408000Y-95854000D02*
X189038000Y-95854000D01*
X198058000Y-148494000D02*
X197188000Y-148494000D01*
X198058000Y-95854000D02*
X198058000Y-148494000D01*
X197188000Y-95854000D02*
X198058000Y-95854000D01*
%TO.C,J8*%
X171138000Y-107434000D02*
X172138000Y-106934000D01*
X171138000Y-106434000D02*
X171138000Y-107434000D01*
X172138000Y-106934000D02*
X171138000Y-106434000D01*
X173838000Y-124224000D02*
X172528000Y-124224000D01*
X173838000Y-124224000D02*
X173838000Y-124224000D01*
X173838000Y-141334000D02*
X173838000Y-124224000D01*
X180238000Y-141334000D02*
X173838000Y-141334000D01*
X180238000Y-103014000D02*
X180238000Y-141334000D01*
X173838000Y-103014000D02*
X180238000Y-103014000D01*
X173838000Y-120124000D02*
X173838000Y-103014000D01*
X172528000Y-120124000D02*
X173838000Y-120124000D01*
X172528000Y-148494000D02*
X172898000Y-148494000D01*
X172528000Y-95854000D02*
X172528000Y-148494000D01*
X172898000Y-95854000D02*
X172528000Y-95854000D01*
X181548000Y-148494000D02*
X180678000Y-148494000D01*
X181548000Y-95854000D02*
X181548000Y-148494000D01*
X180678000Y-95854000D02*
X181548000Y-95854000D01*
%TO.C,J6*%
X164168000Y-95854000D02*
X165038000Y-95854000D01*
X165038000Y-95854000D02*
X165038000Y-148494000D01*
X165038000Y-148494000D02*
X164168000Y-148494000D01*
X156388000Y-95854000D02*
X156018000Y-95854000D01*
X156018000Y-95854000D02*
X156018000Y-148494000D01*
X156018000Y-148494000D02*
X156388000Y-148494000D01*
X156018000Y-120124000D02*
X157328000Y-120124000D01*
X157328000Y-120124000D02*
X157328000Y-103014000D01*
X157328000Y-103014000D02*
X163728000Y-103014000D01*
X163728000Y-103014000D02*
X163728000Y-141334000D01*
X163728000Y-141334000D02*
X157328000Y-141334000D01*
X157328000Y-141334000D02*
X157328000Y-124224000D01*
X157328000Y-124224000D02*
X157328000Y-124224000D01*
X157328000Y-124224000D02*
X156018000Y-124224000D01*
X155628000Y-106934000D02*
X154628000Y-106434000D01*
X154628000Y-106434000D02*
X154628000Y-107434000D01*
X154628000Y-107434000D02*
X155628000Y-106934000D01*
%TO.C,J9*%
X147658000Y-95854000D02*
X148528000Y-95854000D01*
X148528000Y-95854000D02*
X148528000Y-148494000D01*
X148528000Y-148494000D02*
X147658000Y-148494000D01*
X139878000Y-95854000D02*
X139508000Y-95854000D01*
X139508000Y-95854000D02*
X139508000Y-148494000D01*
X139508000Y-148494000D02*
X139878000Y-148494000D01*
X139508000Y-120124000D02*
X140818000Y-120124000D01*
X140818000Y-120124000D02*
X140818000Y-103014000D01*
X140818000Y-103014000D02*
X147218000Y-103014000D01*
X147218000Y-103014000D02*
X147218000Y-141334000D01*
X147218000Y-141334000D02*
X140818000Y-141334000D01*
X140818000Y-141334000D02*
X140818000Y-124224000D01*
X140818000Y-124224000D02*
X140818000Y-124224000D01*
X140818000Y-124224000D02*
X139508000Y-124224000D01*
X139118000Y-106934000D02*
X138118000Y-106434000D01*
X138118000Y-106434000D02*
X138118000Y-107434000D01*
X138118000Y-107434000D02*
X139118000Y-106934000D01*
%TO.C,R3*%
X225071000Y-71758436D02*
X225071000Y-72212564D01*
X226541000Y-71758436D02*
X226541000Y-72212564D01*
%TO.C,R2*%
X148713564Y-28475000D02*
X148259436Y-28475000D01*
X148713564Y-29945000D02*
X148259436Y-29945000D01*
%TO.C,\u002AR1*%
X236804564Y-91159000D02*
X236350436Y-91159000D01*
X236804564Y-89689000D02*
X236350436Y-89689000D01*
%TO.C,R1*%
X127377564Y-132361000D02*
X126923436Y-132361000D01*
X127377564Y-133831000D02*
X126923436Y-133831000D01*
%TO.C,R4*%
X209777000Y-71758436D02*
X209777000Y-72212564D01*
X208307000Y-71758436D02*
X208307000Y-72212564D01*
%TO.C,R5*%
X193013000Y-71758436D02*
X193013000Y-72212564D01*
X191543000Y-71758436D02*
X191543000Y-72212564D01*
%TO.C,R6*%
X176249000Y-71758436D02*
X176249000Y-72212564D01*
X174779000Y-71758436D02*
X174779000Y-72212564D01*
%TO.C,R7*%
X159485000Y-71758436D02*
X159485000Y-72212564D01*
X158015000Y-71758436D02*
X158015000Y-72212564D01*
%TO.C,R8*%
X142721000Y-71758436D02*
X142721000Y-72212564D01*
X141251000Y-71758436D02*
X141251000Y-72212564D01*
%TO.C,\u002AR2*%
X120877000Y-89277564D02*
X120877000Y-88823436D01*
X119407000Y-89277564D02*
X119407000Y-88823436D01*
%TO.C,R9*%
X234923000Y-71758436D02*
X234923000Y-72212564D01*
X233453000Y-71758436D02*
X233453000Y-72212564D01*
%TO.C,R10*%
X216689000Y-71758436D02*
X216689000Y-72212564D01*
X218159000Y-71758436D02*
X218159000Y-72212564D01*
%TO.C,R11*%
X201395000Y-71758436D02*
X201395000Y-72212564D01*
X199925000Y-71758436D02*
X199925000Y-72212564D01*
%TO.C,R12*%
X183161000Y-71758436D02*
X183161000Y-72212564D01*
X184631000Y-71758436D02*
X184631000Y-72212564D01*
%TO.C,R13*%
X167867000Y-71758436D02*
X167867000Y-72212564D01*
X166397000Y-71758436D02*
X166397000Y-72212564D01*
%TO.C,R14*%
X149633000Y-71758436D02*
X149633000Y-72212564D01*
X151103000Y-71758436D02*
X151103000Y-72212564D01*
%TO.C,U3*%
X227136000Y-79518000D02*
X227136000Y-77283000D01*
X227136000Y-77283000D02*
X219396000Y-77283000D01*
X219396000Y-77283000D02*
X219396000Y-83753000D01*
X219396000Y-83753000D02*
X227136000Y-83753000D01*
X227136000Y-83753000D02*
X227136000Y-81518000D01*
X227136000Y-81518000D02*
G75*
G02*
X227136000Y-79518000I0J1000000D01*
G01*
%TO.C,\u002AU1*%
X236160000Y-77222000D02*
X236160000Y-79457000D01*
X243900000Y-77222000D02*
X236160000Y-77222000D01*
X243900000Y-83692000D02*
X243900000Y-77222000D01*
X236160000Y-83692000D02*
X243900000Y-83692000D01*
X236160000Y-81457000D02*
X236160000Y-83692000D01*
X236160000Y-79457000D02*
G75*
G02*
X236160000Y-81457000I0J-1000000D01*
G01*
%TO.C,U4*%
X210372000Y-83753000D02*
X210372000Y-81518000D01*
X202632000Y-83753000D02*
X210372000Y-83753000D01*
X202632000Y-77283000D02*
X202632000Y-83753000D01*
X210372000Y-77283000D02*
X202632000Y-77283000D01*
X210372000Y-79518000D02*
X210372000Y-77283000D01*
X210372000Y-81518000D02*
G75*
G02*
X210372000Y-79518000I0J1000000D01*
G01*
%TO.C,U5*%
X193608000Y-79518000D02*
X193608000Y-77283000D01*
X193608000Y-77283000D02*
X185868000Y-77283000D01*
X185868000Y-77283000D02*
X185868000Y-83753000D01*
X185868000Y-83753000D02*
X193608000Y-83753000D01*
X193608000Y-83753000D02*
X193608000Y-81518000D01*
X193608000Y-81518000D02*
G75*
G02*
X193608000Y-79518000I0J1000000D01*
G01*
%TO.C,U6*%
X176844000Y-83753000D02*
X176844000Y-81518000D01*
X169104000Y-83753000D02*
X176844000Y-83753000D01*
X169104000Y-77283000D02*
X169104000Y-83753000D01*
X176844000Y-77283000D02*
X169104000Y-77283000D01*
X176844000Y-79518000D02*
X176844000Y-77283000D01*
X176844000Y-81518000D02*
G75*
G02*
X176844000Y-79518000I0J1000000D01*
G01*
%TO.C,U7*%
X160080000Y-79518000D02*
X160080000Y-77283000D01*
X160080000Y-77283000D02*
X152340000Y-77283000D01*
X152340000Y-77283000D02*
X152340000Y-83753000D01*
X152340000Y-83753000D02*
X160080000Y-83753000D01*
X160080000Y-83753000D02*
X160080000Y-81518000D01*
X160080000Y-81518000D02*
G75*
G02*
X160080000Y-79518000I0J1000000D01*
G01*
%TO.C,U8*%
X143316000Y-83753000D02*
X143316000Y-81518000D01*
X135576000Y-83753000D02*
X143316000Y-83753000D01*
X135576000Y-77283000D02*
X135576000Y-83753000D01*
X143316000Y-77283000D02*
X135576000Y-77283000D01*
X143316000Y-79518000D02*
X143316000Y-77283000D01*
X143316000Y-81518000D02*
G75*
G02*
X143316000Y-79518000I0J1000000D01*
G01*
%TO.C,\u002AU2*%
X118812000Y-81518000D02*
X118812000Y-83753000D01*
X118812000Y-83753000D02*
X126552000Y-83753000D01*
X126552000Y-83753000D02*
X126552000Y-77283000D01*
X126552000Y-77283000D02*
X118812000Y-77283000D01*
X118812000Y-77283000D02*
X118812000Y-79518000D01*
X118812000Y-79518000D02*
G75*
G02*
X118812000Y-81518000I0J-1000000D01*
G01*
%TO.C,U9*%
X235518000Y-79518000D02*
X235518000Y-77283000D01*
X235518000Y-77283000D02*
X227778000Y-77283000D01*
X227778000Y-77283000D02*
X227778000Y-83753000D01*
X227778000Y-83753000D02*
X235518000Y-83753000D01*
X235518000Y-83753000D02*
X235518000Y-81518000D01*
X235518000Y-81518000D02*
G75*
G02*
X235518000Y-79518000I0J1000000D01*
G01*
%TO.C,U10*%
X218754000Y-83753000D02*
X218754000Y-81518000D01*
X211014000Y-83753000D02*
X218754000Y-83753000D01*
X211014000Y-77283000D02*
X211014000Y-83753000D01*
X218754000Y-77283000D02*
X211014000Y-77283000D01*
X218754000Y-79518000D02*
X218754000Y-77283000D01*
X218754000Y-81518000D02*
G75*
G02*
X218754000Y-79518000I0J1000000D01*
G01*
%TO.C,U11*%
X201990000Y-79518000D02*
X201990000Y-77283000D01*
X201990000Y-77283000D02*
X194250000Y-77283000D01*
X194250000Y-77283000D02*
X194250000Y-83753000D01*
X194250000Y-83753000D02*
X201990000Y-83753000D01*
X201990000Y-83753000D02*
X201990000Y-81518000D01*
X201990000Y-81518000D02*
G75*
G02*
X201990000Y-79518000I0J1000000D01*
G01*
%TO.C,U12*%
X185226000Y-79518000D02*
X185226000Y-77283000D01*
X185226000Y-77283000D02*
X177486000Y-77283000D01*
X177486000Y-77283000D02*
X177486000Y-83753000D01*
X177486000Y-83753000D02*
X185226000Y-83753000D01*
X185226000Y-83753000D02*
X185226000Y-81518000D01*
X185226000Y-81518000D02*
G75*
G02*
X185226000Y-79518000I0J1000000D01*
G01*
%TO.C,U13*%
X168462000Y-83753000D02*
X168462000Y-81518000D01*
X160722000Y-83753000D02*
X168462000Y-83753000D01*
X160722000Y-77283000D02*
X160722000Y-83753000D01*
X168462000Y-77283000D02*
X160722000Y-77283000D01*
X168462000Y-79518000D02*
X168462000Y-77283000D01*
X168462000Y-81518000D02*
G75*
G02*
X168462000Y-79518000I0J1000000D01*
G01*
%TO.C,U14*%
X151698000Y-79518000D02*
X151698000Y-77283000D01*
X151698000Y-77283000D02*
X143958000Y-77283000D01*
X143958000Y-77283000D02*
X143958000Y-83753000D01*
X143958000Y-83753000D02*
X151698000Y-83753000D01*
X151698000Y-83753000D02*
X151698000Y-81518000D01*
X151698000Y-81518000D02*
G75*
G02*
X151698000Y-79518000I0J1000000D01*
G01*
%TO.C,JP14*%
D10*
X169744476Y-66000380D02*
X169744476Y-66714666D01*
X169696857Y-66857523D01*
X169601619Y-66952761D01*
X169458761Y-67000380D01*
X169363523Y-67000380D01*
X170220666Y-67000380D02*
X170220666Y-66000380D01*
X170601619Y-66000380D01*
X170696857Y-66048000D01*
X170744476Y-66095619D01*
X170792095Y-66190857D01*
X170792095Y-66333714D01*
X170744476Y-66428952D01*
X170696857Y-66476571D01*
X170601619Y-66524190D01*
X170220666Y-66524190D01*
X171744476Y-67000380D02*
X171173047Y-67000380D01*
X171458761Y-67000380D02*
X171458761Y-66000380D01*
X171363523Y-66143238D01*
X171268285Y-66238476D01*
X171173047Y-66286095D01*
X172601619Y-66333714D02*
X172601619Y-67000380D01*
X172363523Y-65952761D02*
X172125428Y-66667047D01*
X172744476Y-66667047D01*
%TO.C,JP13*%
X183602380Y-60491523D02*
X184316666Y-60491523D01*
X184459523Y-60539142D01*
X184554761Y-60634380D01*
X184602380Y-60777238D01*
X184602380Y-60872476D01*
X184602380Y-60015333D02*
X183602380Y-60015333D01*
X183602380Y-59634380D01*
X183650000Y-59539142D01*
X183697619Y-59491523D01*
X183792857Y-59443904D01*
X183935714Y-59443904D01*
X184030952Y-59491523D01*
X184078571Y-59539142D01*
X184126190Y-59634380D01*
X184126190Y-60015333D01*
X184602380Y-58491523D02*
X184602380Y-59062952D01*
X184602380Y-58777238D02*
X183602380Y-58777238D01*
X183745238Y-58872476D01*
X183840476Y-58967714D01*
X183888095Y-59062952D01*
X183602380Y-58158190D02*
X183602380Y-57539142D01*
X183983333Y-57872476D01*
X183983333Y-57729619D01*
X184030952Y-57634380D01*
X184078571Y-57586761D01*
X184173809Y-57539142D01*
X184411904Y-57539142D01*
X184507142Y-57586761D01*
X184554761Y-57634380D01*
X184602380Y-57729619D01*
X184602380Y-58015333D01*
X184554761Y-58110571D01*
X184507142Y-58158190D01*
%TO.C,JP12*%
X186142380Y-60491523D02*
X186856666Y-60491523D01*
X186999523Y-60539142D01*
X187094761Y-60634380D01*
X187142380Y-60777238D01*
X187142380Y-60872476D01*
X187142380Y-60015333D02*
X186142380Y-60015333D01*
X186142380Y-59634380D01*
X186190000Y-59539142D01*
X186237619Y-59491523D01*
X186332857Y-59443904D01*
X186475714Y-59443904D01*
X186570952Y-59491523D01*
X186618571Y-59539142D01*
X186666190Y-59634380D01*
X186666190Y-60015333D01*
X187142380Y-58491523D02*
X187142380Y-59062952D01*
X187142380Y-58777238D02*
X186142380Y-58777238D01*
X186285238Y-58872476D01*
X186380476Y-58967714D01*
X186428095Y-59062952D01*
X186237619Y-58110571D02*
X186190000Y-58062952D01*
X186142380Y-57967714D01*
X186142380Y-57729619D01*
X186190000Y-57634380D01*
X186237619Y-57586761D01*
X186332857Y-57539142D01*
X186428095Y-57539142D01*
X186570952Y-57586761D01*
X187142380Y-58158190D01*
X187142380Y-57539142D01*
%TO.C,JP11*%
X188682380Y-60491523D02*
X189396666Y-60491523D01*
X189539523Y-60539142D01*
X189634761Y-60634380D01*
X189682380Y-60777238D01*
X189682380Y-60872476D01*
X189682380Y-60015333D02*
X188682380Y-60015333D01*
X188682380Y-59634380D01*
X188730000Y-59539142D01*
X188777619Y-59491523D01*
X188872857Y-59443904D01*
X189015714Y-59443904D01*
X189110952Y-59491523D01*
X189158571Y-59539142D01*
X189206190Y-59634380D01*
X189206190Y-60015333D01*
X189682380Y-58491523D02*
X189682380Y-59062952D01*
X189682380Y-58777238D02*
X188682380Y-58777238D01*
X188825238Y-58872476D01*
X188920476Y-58967714D01*
X188968095Y-59062952D01*
X189682380Y-57539142D02*
X189682380Y-58110571D01*
X189682380Y-57824857D02*
X188682380Y-57824857D01*
X188825238Y-57920095D01*
X188920476Y-58015333D01*
X188968095Y-58110571D01*
%TO.C,JP10*%
X191222380Y-60491523D02*
X191936666Y-60491523D01*
X192079523Y-60539142D01*
X192174761Y-60634380D01*
X192222380Y-60777238D01*
X192222380Y-60872476D01*
X192222380Y-60015333D02*
X191222380Y-60015333D01*
X191222380Y-59634380D01*
X191270000Y-59539142D01*
X191317619Y-59491523D01*
X191412857Y-59443904D01*
X191555714Y-59443904D01*
X191650952Y-59491523D01*
X191698571Y-59539142D01*
X191746190Y-59634380D01*
X191746190Y-60015333D01*
X192222380Y-58491523D02*
X192222380Y-59062952D01*
X192222380Y-58777238D02*
X191222380Y-58777238D01*
X191365238Y-58872476D01*
X191460476Y-58967714D01*
X191508095Y-59062952D01*
X191222380Y-57872476D02*
X191222380Y-57777238D01*
X191270000Y-57682000D01*
X191317619Y-57634380D01*
X191412857Y-57586761D01*
X191603333Y-57539142D01*
X191841428Y-57539142D01*
X192031904Y-57586761D01*
X192127142Y-57634380D01*
X192174761Y-57682000D01*
X192222380Y-57777238D01*
X192222380Y-57872476D01*
X192174761Y-57967714D01*
X192127142Y-58015333D01*
X192031904Y-58062952D01*
X191841428Y-58110571D01*
X191603333Y-58110571D01*
X191412857Y-58062952D01*
X191317619Y-58015333D01*
X191270000Y-57967714D01*
X191222380Y-57872476D01*
%TO.C,JP9*%
X193762380Y-60523333D02*
X194476666Y-60523333D01*
X194619523Y-60570952D01*
X194714761Y-60666190D01*
X194762380Y-60809047D01*
X194762380Y-60904285D01*
X194762380Y-60047142D02*
X193762380Y-60047142D01*
X193762380Y-59666190D01*
X193810000Y-59570952D01*
X193857619Y-59523333D01*
X193952857Y-59475714D01*
X194095714Y-59475714D01*
X194190952Y-59523333D01*
X194238571Y-59570952D01*
X194286190Y-59666190D01*
X194286190Y-60047142D01*
X194762380Y-58999523D02*
X194762380Y-58809047D01*
X194714761Y-58713809D01*
X194667142Y-58666190D01*
X194524285Y-58570952D01*
X194333809Y-58523333D01*
X193952857Y-58523333D01*
X193857619Y-58570952D01*
X193810000Y-58618571D01*
X193762380Y-58713809D01*
X193762380Y-58904285D01*
X193810000Y-58999523D01*
X193857619Y-59047142D01*
X193952857Y-59094761D01*
X194190952Y-59094761D01*
X194286190Y-59047142D01*
X194333809Y-58999523D01*
X194381428Y-58904285D01*
X194381428Y-58713809D01*
X194333809Y-58618571D01*
X194286190Y-58570952D01*
X194190952Y-58523333D01*
%TO.C,JP8*%
X200620380Y-24963333D02*
X201334666Y-24963333D01*
X201477523Y-25010952D01*
X201572761Y-25106190D01*
X201620380Y-25249047D01*
X201620380Y-25344285D01*
X201620380Y-24487142D02*
X200620380Y-24487142D01*
X200620380Y-24106190D01*
X200668000Y-24010952D01*
X200715619Y-23963333D01*
X200810857Y-23915714D01*
X200953714Y-23915714D01*
X201048952Y-23963333D01*
X201096571Y-24010952D01*
X201144190Y-24106190D01*
X201144190Y-24487142D01*
X201048952Y-23344285D02*
X201001333Y-23439523D01*
X200953714Y-23487142D01*
X200858476Y-23534761D01*
X200810857Y-23534761D01*
X200715619Y-23487142D01*
X200668000Y-23439523D01*
X200620380Y-23344285D01*
X200620380Y-23153809D01*
X200668000Y-23058571D01*
X200715619Y-23010952D01*
X200810857Y-22963333D01*
X200858476Y-22963333D01*
X200953714Y-23010952D01*
X201001333Y-23058571D01*
X201048952Y-23153809D01*
X201048952Y-23344285D01*
X201096571Y-23439523D01*
X201144190Y-23487142D01*
X201239428Y-23534761D01*
X201429904Y-23534761D01*
X201525142Y-23487142D01*
X201572761Y-23439523D01*
X201620380Y-23344285D01*
X201620380Y-23153809D01*
X201572761Y-23058571D01*
X201525142Y-23010952D01*
X201429904Y-22963333D01*
X201239428Y-22963333D01*
X201144190Y-23010952D01*
X201096571Y-23058571D01*
X201048952Y-23153809D01*
%TO.C,JP7*%
X198080380Y-24933333D02*
X198794666Y-24933333D01*
X198937523Y-24980952D01*
X199032761Y-25076190D01*
X199080380Y-25219047D01*
X199080380Y-25314285D01*
X199080380Y-24457142D02*
X198080380Y-24457142D01*
X198080380Y-24076190D01*
X198128000Y-23980952D01*
X198175619Y-23933333D01*
X198270857Y-23885714D01*
X198413714Y-23885714D01*
X198508952Y-23933333D01*
X198556571Y-23980952D01*
X198604190Y-24076190D01*
X198604190Y-24457142D01*
X198080380Y-23552380D02*
X198080380Y-22885714D01*
X199080380Y-23314285D01*
%TO.C,JP6*%
X142962380Y-37917333D02*
X143676666Y-37917333D01*
X143819523Y-37964952D01*
X143914761Y-38060190D01*
X143962380Y-38203047D01*
X143962380Y-38298285D01*
X143962380Y-37441142D02*
X142962380Y-37441142D01*
X142962380Y-37060190D01*
X143010000Y-36964952D01*
X143057619Y-36917333D01*
X143152857Y-36869714D01*
X143295714Y-36869714D01*
X143390952Y-36917333D01*
X143438571Y-36964952D01*
X143486190Y-37060190D01*
X143486190Y-37441142D01*
X142962380Y-36012571D02*
X142962380Y-36203047D01*
X143010000Y-36298285D01*
X143057619Y-36345904D01*
X143200476Y-36441142D01*
X143390952Y-36488761D01*
X143771904Y-36488761D01*
X143867142Y-36441142D01*
X143914761Y-36393523D01*
X143962380Y-36298285D01*
X143962380Y-36107809D01*
X143914761Y-36012571D01*
X143867142Y-35964952D01*
X143771904Y-35917333D01*
X143533809Y-35917333D01*
X143438571Y-35964952D01*
X143390952Y-36012571D01*
X143343333Y-36107809D01*
X143343333Y-36298285D01*
X143390952Y-36393523D01*
X143438571Y-36441142D01*
X143533809Y-36488761D01*
%TO.C,JP5*%
X168330666Y-49490380D02*
X168330666Y-50204666D01*
X168283047Y-50347523D01*
X168187809Y-50442761D01*
X168044952Y-50490380D01*
X167949714Y-50490380D01*
X168806857Y-50490380D02*
X168806857Y-49490380D01*
X169187809Y-49490380D01*
X169283047Y-49538000D01*
X169330666Y-49585619D01*
X169378285Y-49680857D01*
X169378285Y-49823714D01*
X169330666Y-49918952D01*
X169283047Y-49966571D01*
X169187809Y-50014190D01*
X168806857Y-50014190D01*
X170283047Y-49490380D02*
X169806857Y-49490380D01*
X169759238Y-49966571D01*
X169806857Y-49918952D01*
X169902095Y-49871333D01*
X170140190Y-49871333D01*
X170235428Y-49918952D01*
X170283047Y-49966571D01*
X170330666Y-50061809D01*
X170330666Y-50299904D01*
X170283047Y-50395142D01*
X170235428Y-50442761D01*
X170140190Y-50490380D01*
X169902095Y-50490380D01*
X169806857Y-50442761D01*
X169759238Y-50395142D01*
%TO.C,JP4*%
X148042380Y-37917333D02*
X148756666Y-37917333D01*
X148899523Y-37964952D01*
X148994761Y-38060190D01*
X149042380Y-38203047D01*
X149042380Y-38298285D01*
X149042380Y-37441142D02*
X148042380Y-37441142D01*
X148042380Y-37060190D01*
X148090000Y-36964952D01*
X148137619Y-36917333D01*
X148232857Y-36869714D01*
X148375714Y-36869714D01*
X148470952Y-36917333D01*
X148518571Y-36964952D01*
X148566190Y-37060190D01*
X148566190Y-37441142D01*
X148375714Y-36012571D02*
X149042380Y-36012571D01*
X147994761Y-36250666D02*
X148709047Y-36488761D01*
X148709047Y-35869714D01*
%TO.C,JP3*%
X168330666Y-52030380D02*
X168330666Y-52744666D01*
X168283047Y-52887523D01*
X168187809Y-52982761D01*
X168044952Y-53030380D01*
X167949714Y-53030380D01*
X168806857Y-53030380D02*
X168806857Y-52030380D01*
X169187809Y-52030380D01*
X169283047Y-52078000D01*
X169330666Y-52125619D01*
X169378285Y-52220857D01*
X169378285Y-52363714D01*
X169330666Y-52458952D01*
X169283047Y-52506571D01*
X169187809Y-52554190D01*
X168806857Y-52554190D01*
X169711619Y-52030380D02*
X170330666Y-52030380D01*
X169997333Y-52411333D01*
X170140190Y-52411333D01*
X170235428Y-52458952D01*
X170283047Y-52506571D01*
X170330666Y-52601809D01*
X170330666Y-52839904D01*
X170283047Y-52935142D01*
X170235428Y-52982761D01*
X170140190Y-53030380D01*
X169854476Y-53030380D01*
X169759238Y-52982761D01*
X169711619Y-52935142D01*
%TO.C,JP2*%
X145502380Y-37917333D02*
X146216666Y-37917333D01*
X146359523Y-37964952D01*
X146454761Y-38060190D01*
X146502380Y-38203047D01*
X146502380Y-38298285D01*
X146502380Y-37441142D02*
X145502380Y-37441142D01*
X145502380Y-37060190D01*
X145550000Y-36964952D01*
X145597619Y-36917333D01*
X145692857Y-36869714D01*
X145835714Y-36869714D01*
X145930952Y-36917333D01*
X145978571Y-36964952D01*
X146026190Y-37060190D01*
X146026190Y-37441142D01*
X145597619Y-36488761D02*
X145550000Y-36441142D01*
X145502380Y-36345904D01*
X145502380Y-36107809D01*
X145550000Y-36012571D01*
X145597619Y-35964952D01*
X145692857Y-35917333D01*
X145788095Y-35917333D01*
X145930952Y-35964952D01*
X146502380Y-36536380D01*
X146502380Y-35917333D01*
%TO.C,JP1*%
X173718380Y-52761333D02*
X174432666Y-52761333D01*
X174575523Y-52808952D01*
X174670761Y-52904190D01*
X174718380Y-53047047D01*
X174718380Y-53142285D01*
X174718380Y-52285142D02*
X173718380Y-52285142D01*
X173718380Y-51904190D01*
X173766000Y-51808952D01*
X173813619Y-51761333D01*
X173908857Y-51713714D01*
X174051714Y-51713714D01*
X174146952Y-51761333D01*
X174194571Y-51808952D01*
X174242190Y-51904190D01*
X174242190Y-52285142D01*
X174718380Y-50761333D02*
X174718380Y-51332761D01*
X174718380Y-51047047D02*
X173718380Y-51047047D01*
X173861238Y-51142285D01*
X173956476Y-51237523D01*
X174004095Y-51332761D01*
%TO.C,J2*%
X123926380Y-121999333D02*
X124640666Y-121999333D01*
X124783523Y-122046952D01*
X124878761Y-122142190D01*
X124926380Y-122285047D01*
X124926380Y-122380285D01*
X124021619Y-121570761D02*
X123974000Y-121523142D01*
X123926380Y-121427904D01*
X123926380Y-121189809D01*
X123974000Y-121094571D01*
X124021619Y-121046952D01*
X124116857Y-120999333D01*
X124212095Y-120999333D01*
X124354952Y-121046952D01*
X124926380Y-121618380D01*
X124926380Y-120999333D01*
%TO.C,C13*%
X190431142Y-90625142D02*
X190383523Y-90672761D01*
X190240666Y-90720380D01*
X190145428Y-90720380D01*
X190002571Y-90672761D01*
X189907333Y-90577523D01*
X189859714Y-90482285D01*
X189812095Y-90291809D01*
X189812095Y-90148952D01*
X189859714Y-89958476D01*
X189907333Y-89863238D01*
X190002571Y-89768000D01*
X190145428Y-89720380D01*
X190240666Y-89720380D01*
X190383523Y-89768000D01*
X190431142Y-89815619D01*
X191383523Y-90720380D02*
X190812095Y-90720380D01*
X191097809Y-90720380D02*
X191097809Y-89720380D01*
X191002571Y-89863238D01*
X190907333Y-89958476D01*
X190812095Y-90006095D01*
X191716857Y-89720380D02*
X192335904Y-89720380D01*
X192002571Y-90101333D01*
X192145428Y-90101333D01*
X192240666Y-90148952D01*
X192288285Y-90196571D01*
X192335904Y-90291809D01*
X192335904Y-90529904D01*
X192288285Y-90625142D01*
X192240666Y-90672761D01*
X192145428Y-90720380D01*
X191859714Y-90720380D01*
X191764476Y-90672761D01*
X191716857Y-90625142D01*
%TO.C,C11*%
X223573142Y-90625142D02*
X223525523Y-90672761D01*
X223382666Y-90720380D01*
X223287428Y-90720380D01*
X223144571Y-90672761D01*
X223049333Y-90577523D01*
X223001714Y-90482285D01*
X222954095Y-90291809D01*
X222954095Y-90148952D01*
X223001714Y-89958476D01*
X223049333Y-89863238D01*
X223144571Y-89768000D01*
X223287428Y-89720380D01*
X223382666Y-89720380D01*
X223525523Y-89768000D01*
X223573142Y-89815619D01*
X224525523Y-90720380D02*
X223954095Y-90720380D01*
X224239809Y-90720380D02*
X224239809Y-89720380D01*
X224144571Y-89863238D01*
X224049333Y-89958476D01*
X223954095Y-90006095D01*
X225477904Y-90720380D02*
X224906476Y-90720380D01*
X225192190Y-90720380D02*
X225192190Y-89720380D01*
X225096952Y-89863238D01*
X225001714Y-89958476D01*
X224906476Y-90006095D01*
%TO.C,C9*%
X157755333Y-90625142D02*
X157707714Y-90672761D01*
X157564857Y-90720380D01*
X157469619Y-90720380D01*
X157326761Y-90672761D01*
X157231523Y-90577523D01*
X157183904Y-90482285D01*
X157136285Y-90291809D01*
X157136285Y-90148952D01*
X157183904Y-89958476D01*
X157231523Y-89863238D01*
X157326761Y-89768000D01*
X157469619Y-89720380D01*
X157564857Y-89720380D01*
X157707714Y-89768000D01*
X157755333Y-89815619D01*
X158231523Y-90720380D02*
X158422000Y-90720380D01*
X158517238Y-90672761D01*
X158564857Y-90625142D01*
X158660095Y-90482285D01*
X158707714Y-90291809D01*
X158707714Y-89910857D01*
X158660095Y-89815619D01*
X158612476Y-89768000D01*
X158517238Y-89720380D01*
X158326761Y-89720380D01*
X158231523Y-89768000D01*
X158183904Y-89815619D01*
X158136285Y-89910857D01*
X158136285Y-90148952D01*
X158183904Y-90244190D01*
X158231523Y-90291809D01*
X158326761Y-90339428D01*
X158517238Y-90339428D01*
X158612476Y-90291809D01*
X158660095Y-90244190D01*
X158707714Y-90148952D01*
%TO.C,C18*%
X236593142Y-61923142D02*
X236545523Y-61970761D01*
X236402666Y-62018380D01*
X236307428Y-62018380D01*
X236164571Y-61970761D01*
X236069333Y-61875523D01*
X236021714Y-61780285D01*
X235974095Y-61589809D01*
X235974095Y-61446952D01*
X236021714Y-61256476D01*
X236069333Y-61161238D01*
X236164571Y-61066000D01*
X236307428Y-61018380D01*
X236402666Y-61018380D01*
X236545523Y-61066000D01*
X236593142Y-61113619D01*
X237545523Y-62018380D02*
X236974095Y-62018380D01*
X237259809Y-62018380D02*
X237259809Y-61018380D01*
X237164571Y-61161238D01*
X237069333Y-61256476D01*
X236974095Y-61304095D01*
X238116952Y-61446952D02*
X238021714Y-61399333D01*
X237974095Y-61351714D01*
X237926476Y-61256476D01*
X237926476Y-61208857D01*
X237974095Y-61113619D01*
X238021714Y-61066000D01*
X238116952Y-61018380D01*
X238307428Y-61018380D01*
X238402666Y-61066000D01*
X238450285Y-61113619D01*
X238497904Y-61208857D01*
X238497904Y-61256476D01*
X238450285Y-61351714D01*
X238402666Y-61399333D01*
X238307428Y-61446952D01*
X238116952Y-61446952D01*
X238021714Y-61494571D01*
X237974095Y-61542190D01*
X237926476Y-61637428D01*
X237926476Y-61827904D01*
X237974095Y-61923142D01*
X238021714Y-61970761D01*
X238116952Y-62018380D01*
X238307428Y-62018380D01*
X238402666Y-61970761D01*
X238450285Y-61923142D01*
X238497904Y-61827904D01*
X238497904Y-61637428D01*
X238450285Y-61542190D01*
X238402666Y-61494571D01*
X238307428Y-61446952D01*
%TO.C,C17*%
X149791142Y-34549142D02*
X149743523Y-34596761D01*
X149600666Y-34644380D01*
X149505428Y-34644380D01*
X149362571Y-34596761D01*
X149267333Y-34501523D01*
X149219714Y-34406285D01*
X149172095Y-34215809D01*
X149172095Y-34072952D01*
X149219714Y-33882476D01*
X149267333Y-33787238D01*
X149362571Y-33692000D01*
X149505428Y-33644380D01*
X149600666Y-33644380D01*
X149743523Y-33692000D01*
X149791142Y-33739619D01*
X150743523Y-34644380D02*
X150172095Y-34644380D01*
X150457809Y-34644380D02*
X150457809Y-33644380D01*
X150362571Y-33787238D01*
X150267333Y-33882476D01*
X150172095Y-33930095D01*
X151076857Y-33644380D02*
X151743523Y-33644380D01*
X151314952Y-34644380D01*
%TO.C,C7*%
X207285333Y-90625142D02*
X207237714Y-90672761D01*
X207094857Y-90720380D01*
X206999619Y-90720380D01*
X206856761Y-90672761D01*
X206761523Y-90577523D01*
X206713904Y-90482285D01*
X206666285Y-90291809D01*
X206666285Y-90148952D01*
X206713904Y-89958476D01*
X206761523Y-89863238D01*
X206856761Y-89768000D01*
X206999619Y-89720380D01*
X207094857Y-89720380D01*
X207237714Y-89768000D01*
X207285333Y-89815619D01*
X207618666Y-89720380D02*
X208285333Y-89720380D01*
X207856761Y-90720380D01*
%TO.C,C5*%
X115263142Y-91164666D02*
X115310761Y-91212285D01*
X115358380Y-91355142D01*
X115358380Y-91450380D01*
X115310761Y-91593238D01*
X115215523Y-91688476D01*
X115120285Y-91736095D01*
X114929809Y-91783714D01*
X114786952Y-91783714D01*
X114596476Y-91736095D01*
X114501238Y-91688476D01*
X114406000Y-91593238D01*
X114358380Y-91450380D01*
X114358380Y-91355142D01*
X114406000Y-91212285D01*
X114453619Y-91164666D01*
X114358380Y-90259904D02*
X114358380Y-90736095D01*
X114834571Y-90783714D01*
X114786952Y-90736095D01*
X114739333Y-90640857D01*
X114739333Y-90402761D01*
X114786952Y-90307523D01*
X114834571Y-90259904D01*
X114929809Y-90212285D01*
X115167904Y-90212285D01*
X115263142Y-90259904D01*
X115310761Y-90307523D01*
X115358380Y-90402761D01*
X115358380Y-90640857D01*
X115310761Y-90736095D01*
X115263142Y-90783714D01*
%TO.C,C3*%
X174265333Y-90625142D02*
X174217714Y-90672761D01*
X174074857Y-90720380D01*
X173979619Y-90720380D01*
X173836761Y-90672761D01*
X173741523Y-90577523D01*
X173693904Y-90482285D01*
X173646285Y-90291809D01*
X173646285Y-90148952D01*
X173693904Y-89958476D01*
X173741523Y-89863238D01*
X173836761Y-89768000D01*
X173979619Y-89720380D01*
X174074857Y-89720380D01*
X174217714Y-89768000D01*
X174265333Y-89815619D01*
X174598666Y-89720380D02*
X175217714Y-89720380D01*
X174884380Y-90101333D01*
X175027238Y-90101333D01*
X175122476Y-90148952D01*
X175170095Y-90196571D01*
X175217714Y-90291809D01*
X175217714Y-90529904D01*
X175170095Y-90625142D01*
X175122476Y-90672761D01*
X175027238Y-90720380D01*
X174741523Y-90720380D01*
X174646285Y-90672761D01*
X174598666Y-90625142D01*
%TO.C,C2*%
X141245333Y-90625142D02*
X141197714Y-90672761D01*
X141054857Y-90720380D01*
X140959619Y-90720380D01*
X140816761Y-90672761D01*
X140721523Y-90577523D01*
X140673904Y-90482285D01*
X140626285Y-90291809D01*
X140626285Y-90148952D01*
X140673904Y-89958476D01*
X140721523Y-89863238D01*
X140816761Y-89768000D01*
X140959619Y-89720380D01*
X141054857Y-89720380D01*
X141197714Y-89768000D01*
X141245333Y-89815619D01*
X141626285Y-89815619D02*
X141673904Y-89768000D01*
X141769142Y-89720380D01*
X142007238Y-89720380D01*
X142102476Y-89768000D01*
X142150095Y-89815619D01*
X142197714Y-89910857D01*
X142197714Y-90006095D01*
X142150095Y-90148952D01*
X141578666Y-90720380D01*
X142197714Y-90720380D01*
%TO.C,\u002AJ2*%
X120712380Y-34357142D02*
X120950476Y-34357142D01*
X120855238Y-34595238D02*
X120950476Y-34357142D01*
X120855238Y-34119047D01*
X121140952Y-34500000D02*
X120950476Y-34357142D01*
X121140952Y-34214285D01*
X120712380Y-33452380D02*
X121426666Y-33452380D01*
X121569523Y-33500000D01*
X121664761Y-33595238D01*
X121712380Y-33738095D01*
X121712380Y-33833333D01*
X120807619Y-33023809D02*
X120760000Y-32976190D01*
X120712380Y-32880952D01*
X120712380Y-32642857D01*
X120760000Y-32547619D01*
X120807619Y-32500000D01*
X120902857Y-32452380D01*
X120998095Y-32452380D01*
X121140952Y-32500000D01*
X121712380Y-33071428D01*
X121712380Y-32452380D01*
%TO.C,\u002AXA1*%
X174336247Y-26985980D02*
X174336247Y-27224076D01*
X174098152Y-27128838D02*
X174336247Y-27224076D01*
X174574342Y-27128838D01*
X174193390Y-27414552D02*
X174336247Y-27224076D01*
X174479104Y-27414552D01*
X174860057Y-26985980D02*
X175526723Y-27985980D01*
X175526723Y-26985980D02*
X174860057Y-27985980D01*
X175860057Y-27700266D02*
X176336247Y-27700266D01*
X175764819Y-27985980D02*
X176098152Y-26985980D01*
X176431485Y-27985980D01*
X177288628Y-27985980D02*
X176717200Y-27985980D01*
X177002914Y-27985980D02*
X177002914Y-26985980D01*
X176907676Y-27128838D01*
X176812438Y-27224076D01*
X176717200Y-27271695D01*
%TO.C,U2*%
X157734095Y-63758380D02*
X157734095Y-64567904D01*
X157781714Y-64663142D01*
X157829333Y-64710761D01*
X157924571Y-64758380D01*
X158115047Y-64758380D01*
X158210285Y-64710761D01*
X158257904Y-64663142D01*
X158305523Y-64567904D01*
X158305523Y-63758380D01*
X158734095Y-63853619D02*
X158781714Y-63806000D01*
X158876952Y-63758380D01*
X159115047Y-63758380D01*
X159210285Y-63806000D01*
X159257904Y-63853619D01*
X159305523Y-63948857D01*
X159305523Y-64044095D01*
X159257904Y-64186952D01*
X158686476Y-64758380D01*
X159305523Y-64758380D01*
%TO.C,\u002AJ3*%
X235870857Y-107906380D02*
X235870857Y-108144476D01*
X235632761Y-108049238D02*
X235870857Y-108144476D01*
X236108952Y-108049238D01*
X235728000Y-108334952D02*
X235870857Y-108144476D01*
X236013714Y-108334952D01*
X236775619Y-107906380D02*
X236775619Y-108620666D01*
X236728000Y-108763523D01*
X236632761Y-108858761D01*
X236489904Y-108906380D01*
X236394666Y-108906380D01*
X237156571Y-107906380D02*
X237775619Y-107906380D01*
X237442285Y-108287333D01*
X237585142Y-108287333D01*
X237680380Y-108334952D01*
X237728000Y-108382571D01*
X237775619Y-108477809D01*
X237775619Y-108715904D01*
X237728000Y-108811142D01*
X237680380Y-108858761D01*
X237585142Y-108906380D01*
X237299428Y-108906380D01*
X237204190Y-108858761D01*
X237156571Y-108811142D01*
%TO.C,U1*%
X208550380Y-43941904D02*
X209359904Y-43941904D01*
X209455142Y-43894285D01*
X209502761Y-43846666D01*
X209550380Y-43751428D01*
X209550380Y-43560952D01*
X209502761Y-43465714D01*
X209455142Y-43418095D01*
X209359904Y-43370476D01*
X208550380Y-43370476D01*
X209550380Y-42370476D02*
X209550380Y-42941904D01*
X209550380Y-42656190D02*
X208550380Y-42656190D01*
X208693238Y-42751428D01*
X208788476Y-42846666D01*
X208836095Y-42941904D01*
X238236571Y-53061904D02*
X238236571Y-52728571D01*
X238760380Y-52585714D02*
X238760380Y-53061904D01*
X237760380Y-53061904D01*
X237760380Y-52585714D01*
X238093714Y-52157142D02*
X238760380Y-52157142D01*
X238188952Y-52157142D02*
X238141333Y-52109523D01*
X238093714Y-52014285D01*
X238093714Y-51871428D01*
X238141333Y-51776190D01*
X238236571Y-51728571D01*
X238760380Y-51728571D01*
X238760380Y-50823809D02*
X238236571Y-50823809D01*
X238141333Y-50871428D01*
X238093714Y-50966666D01*
X238093714Y-51157142D01*
X238141333Y-51252380D01*
X238712761Y-50823809D02*
X238760380Y-50919047D01*
X238760380Y-51157142D01*
X238712761Y-51252380D01*
X238617523Y-51300000D01*
X238522285Y-51300000D01*
X238427047Y-51252380D01*
X238379428Y-51157142D01*
X238379428Y-50919047D01*
X238331809Y-50823809D01*
X238760380Y-50347619D02*
X237760380Y-50347619D01*
X238141333Y-50347619D02*
X238093714Y-50252380D01*
X238093714Y-50061904D01*
X238141333Y-49966666D01*
X238188952Y-49919047D01*
X238284190Y-49871428D01*
X238569904Y-49871428D01*
X238665142Y-49919047D01*
X238712761Y-49966666D01*
X238760380Y-50061904D01*
X238760380Y-50252380D01*
X238712761Y-50347619D01*
X238760380Y-49300000D02*
X238712761Y-49395238D01*
X238617523Y-49442857D01*
X237760380Y-49442857D01*
X238712761Y-48538095D02*
X238760380Y-48633333D01*
X238760380Y-48823809D01*
X238712761Y-48919047D01*
X238617523Y-48966666D01*
X238236571Y-48966666D01*
X238141333Y-48919047D01*
X238093714Y-48823809D01*
X238093714Y-48633333D01*
X238141333Y-48538095D01*
X238236571Y-48490476D01*
X238331809Y-48490476D01*
X238427047Y-48966666D01*
X238236571Y-36679047D02*
X238284190Y-36536190D01*
X238331809Y-36488571D01*
X238427047Y-36440952D01*
X238569904Y-36440952D01*
X238665142Y-36488571D01*
X238712761Y-36536190D01*
X238760380Y-36631428D01*
X238760380Y-37012380D01*
X237760380Y-37012380D01*
X237760380Y-36679047D01*
X237808000Y-36583809D01*
X237855619Y-36536190D01*
X237950857Y-36488571D01*
X238046095Y-36488571D01*
X238141333Y-36536190D01*
X238188952Y-36583809D01*
X238236571Y-36679047D01*
X238236571Y-37012380D01*
X238760380Y-35869523D02*
X238712761Y-35964761D01*
X238665142Y-36012380D01*
X238569904Y-36060000D01*
X238284190Y-36060000D01*
X238188952Y-36012380D01*
X238141333Y-35964761D01*
X238093714Y-35869523D01*
X238093714Y-35726666D01*
X238141333Y-35631428D01*
X238188952Y-35583809D01*
X238284190Y-35536190D01*
X238569904Y-35536190D01*
X238665142Y-35583809D01*
X238712761Y-35631428D01*
X238760380Y-35726666D01*
X238760380Y-35869523D01*
X238760380Y-34964761D02*
X238712761Y-35060000D01*
X238665142Y-35107619D01*
X238569904Y-35155238D01*
X238284190Y-35155238D01*
X238188952Y-35107619D01*
X238141333Y-35060000D01*
X238093714Y-34964761D01*
X238093714Y-34821904D01*
X238141333Y-34726666D01*
X238188952Y-34679047D01*
X238284190Y-34631428D01*
X238569904Y-34631428D01*
X238665142Y-34679047D01*
X238712761Y-34726666D01*
X238760380Y-34821904D01*
X238760380Y-34964761D01*
X238093714Y-34345714D02*
X238093714Y-33964761D01*
X237760380Y-34202857D02*
X238617523Y-34202857D01*
X238712761Y-34155238D01*
X238760380Y-34060000D01*
X238760380Y-33964761D01*
X241570380Y-44441904D02*
X242379904Y-44441904D01*
X242475142Y-44394285D01*
X242522761Y-44346666D01*
X242570380Y-44251428D01*
X242570380Y-44060952D01*
X242522761Y-43965714D01*
X242475142Y-43918095D01*
X242379904Y-43870476D01*
X241570380Y-43870476D01*
X242522761Y-43441904D02*
X242570380Y-43299047D01*
X242570380Y-43060952D01*
X242522761Y-42965714D01*
X242475142Y-42918095D01*
X242379904Y-42870476D01*
X242284666Y-42870476D01*
X242189428Y-42918095D01*
X242141809Y-42965714D01*
X242094190Y-43060952D01*
X242046571Y-43251428D01*
X241998952Y-43346666D01*
X241951333Y-43394285D01*
X241856095Y-43441904D01*
X241760857Y-43441904D01*
X241665619Y-43394285D01*
X241618000Y-43346666D01*
X241570380Y-43251428D01*
X241570380Y-43013333D01*
X241618000Y-42870476D01*
X242046571Y-42108571D02*
X242094190Y-41965714D01*
X242141809Y-41918095D01*
X242237047Y-41870476D01*
X242379904Y-41870476D01*
X242475142Y-41918095D01*
X242522761Y-41965714D01*
X242570380Y-42060952D01*
X242570380Y-42441904D01*
X241570380Y-42441904D01*
X241570380Y-42108571D01*
X241618000Y-42013333D01*
X241665619Y-41965714D01*
X241760857Y-41918095D01*
X241856095Y-41918095D01*
X241951333Y-41965714D01*
X241998952Y-42013333D01*
X242046571Y-42108571D01*
X242046571Y-42441904D01*
%TO.C,C15*%
X229205142Y-64009142D02*
X229157523Y-64056761D01*
X229014666Y-64104380D01*
X228919428Y-64104380D01*
X228776571Y-64056761D01*
X228681333Y-63961523D01*
X228633714Y-63866285D01*
X228586095Y-63675809D01*
X228586095Y-63532952D01*
X228633714Y-63342476D01*
X228681333Y-63247238D01*
X228776571Y-63152000D01*
X228919428Y-63104380D01*
X229014666Y-63104380D01*
X229157523Y-63152000D01*
X229205142Y-63199619D01*
X230157523Y-64104380D02*
X229586095Y-64104380D01*
X229871809Y-64104380D02*
X229871809Y-63104380D01*
X229776571Y-63247238D01*
X229681333Y-63342476D01*
X229586095Y-63390095D01*
X231062285Y-63104380D02*
X230586095Y-63104380D01*
X230538476Y-63580571D01*
X230586095Y-63532952D01*
X230681333Y-63485333D01*
X230919428Y-63485333D01*
X231014666Y-63532952D01*
X231062285Y-63580571D01*
X231109904Y-63675809D01*
X231109904Y-63913904D01*
X231062285Y-64009142D01*
X231014666Y-64056761D01*
X230919428Y-64104380D01*
X230681333Y-64104380D01*
X230586095Y-64056761D01*
X230538476Y-64009142D01*
%TO.C,C1*%
X126303333Y-142495142D02*
X126255714Y-142542761D01*
X126112857Y-142590380D01*
X126017619Y-142590380D01*
X125874761Y-142542761D01*
X125779523Y-142447523D01*
X125731904Y-142352285D01*
X125684285Y-142161809D01*
X125684285Y-142018952D01*
X125731904Y-141828476D01*
X125779523Y-141733238D01*
X125874761Y-141638000D01*
X126017619Y-141590380D01*
X126112857Y-141590380D01*
X126255714Y-141638000D01*
X126303333Y-141685619D01*
X127255714Y-142590380D02*
X126684285Y-142590380D01*
X126970000Y-142590380D02*
X126970000Y-141590380D01*
X126874761Y-141733238D01*
X126779523Y-141828476D01*
X126684285Y-141876095D01*
%TO.C,D3*%
X143612404Y-28012380D02*
X143612404Y-27012380D01*
X143850500Y-27012380D01*
X143993357Y-27060000D01*
X144088595Y-27155238D01*
X144136214Y-27250476D01*
X144183833Y-27440952D01*
X144183833Y-27583809D01*
X144136214Y-27774285D01*
X144088595Y-27869523D01*
X143993357Y-27964761D01*
X143850500Y-28012380D01*
X143612404Y-28012380D01*
X144517166Y-27012380D02*
X145136214Y-27012380D01*
X144802880Y-27393333D01*
X144945738Y-27393333D01*
X145040976Y-27440952D01*
X145088595Y-27488571D01*
X145136214Y-27583809D01*
X145136214Y-27821904D01*
X145088595Y-27917142D01*
X145040976Y-27964761D01*
X144945738Y-28012380D01*
X144660023Y-28012380D01*
X144564785Y-27964761D01*
X144517166Y-27917142D01*
%TO.C,\u002AD1*%
X237451309Y-89240380D02*
X237451309Y-89478476D01*
X237213214Y-89383238D02*
X237451309Y-89478476D01*
X237689404Y-89383238D01*
X237308452Y-89668952D02*
X237451309Y-89478476D01*
X237594166Y-89668952D01*
X238070357Y-90240380D02*
X238070357Y-89240380D01*
X238308452Y-89240380D01*
X238451309Y-89288000D01*
X238546547Y-89383238D01*
X238594166Y-89478476D01*
X238641785Y-89668952D01*
X238641785Y-89811809D01*
X238594166Y-90002285D01*
X238546547Y-90097523D01*
X238451309Y-90192761D01*
X238308452Y-90240380D01*
X238070357Y-90240380D01*
X239594166Y-90240380D02*
X239022738Y-90240380D01*
X239308452Y-90240380D02*
X239308452Y-89240380D01*
X239213214Y-89383238D01*
X239117976Y-89478476D01*
X239022738Y-89526095D01*
%TO.C,D1*%
X122451904Y-146178380D02*
X122451904Y-145178380D01*
X122690000Y-145178380D01*
X122832857Y-145226000D01*
X122928095Y-145321238D01*
X122975714Y-145416476D01*
X123023333Y-145606952D01*
X123023333Y-145749809D01*
X122975714Y-145940285D01*
X122928095Y-146035523D01*
X122832857Y-146130761D01*
X122690000Y-146178380D01*
X122451904Y-146178380D01*
X123975714Y-146178380D02*
X123404285Y-146178380D01*
X123690000Y-146178380D02*
X123690000Y-145178380D01*
X123594761Y-145321238D01*
X123499523Y-145416476D01*
X123404285Y-145464095D01*
X128008095Y-145808380D02*
X128008095Y-144808380D01*
X128579523Y-145808380D02*
X128150952Y-145236952D01*
X128579523Y-144808380D02*
X128008095Y-145379809D01*
%TO.C,\u002AD2*%
X125143809Y-150534380D02*
X125143809Y-150772476D01*
X124905714Y-150677238D02*
X125143809Y-150772476D01*
X125381904Y-150677238D01*
X125000952Y-150962952D02*
X125143809Y-150772476D01*
X125286666Y-150962952D01*
X125762857Y-151534380D02*
X125762857Y-150534380D01*
X126000952Y-150534380D01*
X126143809Y-150582000D01*
X126239047Y-150677238D01*
X126286666Y-150772476D01*
X126334285Y-150962952D01*
X126334285Y-151105809D01*
X126286666Y-151296285D01*
X126239047Y-151391523D01*
X126143809Y-151486761D01*
X126000952Y-151534380D01*
X125762857Y-151534380D01*
X126715238Y-150629619D02*
X126762857Y-150582000D01*
X126858095Y-150534380D01*
X127096190Y-150534380D01*
X127191428Y-150582000D01*
X127239047Y-150629619D01*
X127286666Y-150724857D01*
X127286666Y-150820095D01*
X127239047Y-150962952D01*
X126667619Y-151534380D01*
X127286666Y-151534380D01*
%TO.C,D2*%
X126437404Y-132150380D02*
X126437404Y-131150380D01*
X126675500Y-131150380D01*
X126818357Y-131198000D01*
X126913595Y-131293238D01*
X126961214Y-131388476D01*
X127008833Y-131578952D01*
X127008833Y-131721809D01*
X126961214Y-131912285D01*
X126913595Y-132007523D01*
X126818357Y-132102761D01*
X126675500Y-132150380D01*
X126437404Y-132150380D01*
X127389785Y-131245619D02*
X127437404Y-131198000D01*
X127532642Y-131150380D01*
X127770738Y-131150380D01*
X127865976Y-131198000D01*
X127913595Y-131245619D01*
X127961214Y-131340857D01*
X127961214Y-131436095D01*
X127913595Y-131578952D01*
X127342166Y-132150380D01*
X127961214Y-132150380D01*
%TO.C,D4*%
X224124780Y-69521295D02*
X223124780Y-69521295D01*
X223124780Y-69283200D01*
X223172400Y-69140342D01*
X223267638Y-69045104D01*
X223362876Y-68997485D01*
X223553352Y-68949866D01*
X223696209Y-68949866D01*
X223886685Y-68997485D01*
X223981923Y-69045104D01*
X224077161Y-69140342D01*
X224124780Y-69283200D01*
X224124780Y-69521295D01*
X223458114Y-68092723D02*
X224124780Y-68092723D01*
X223077161Y-68330819D02*
X223791447Y-68568914D01*
X223791447Y-67949866D01*
%TO.C,\u002AD4*%
X122897309Y-90764380D02*
X122897309Y-91002476D01*
X122659214Y-90907238D02*
X122897309Y-91002476D01*
X123135404Y-90907238D01*
X122754452Y-91192952D02*
X122897309Y-91002476D01*
X123040166Y-91192952D01*
X123516357Y-91764380D02*
X123516357Y-90764380D01*
X123754452Y-90764380D01*
X123897309Y-90812000D01*
X123992547Y-90907238D01*
X124040166Y-91002476D01*
X124087785Y-91192952D01*
X124087785Y-91335809D01*
X124040166Y-91526285D01*
X123992547Y-91621523D01*
X123897309Y-91716761D01*
X123754452Y-91764380D01*
X123516357Y-91764380D01*
X124944928Y-91097714D02*
X124944928Y-91764380D01*
X124706833Y-90716761D02*
X124468738Y-91431047D01*
X125087785Y-91431047D01*
%TO.C,D5*%
X232557580Y-69470495D02*
X231557580Y-69470495D01*
X231557580Y-69232400D01*
X231605200Y-69089542D01*
X231700438Y-68994304D01*
X231795676Y-68946685D01*
X231986152Y-68899066D01*
X232129009Y-68899066D01*
X232319485Y-68946685D01*
X232414723Y-68994304D01*
X232509961Y-69089542D01*
X232557580Y-69232400D01*
X232557580Y-69470495D01*
X231557580Y-67994304D02*
X231557580Y-68470495D01*
X232033771Y-68518114D01*
X231986152Y-68470495D01*
X231938533Y-68375257D01*
X231938533Y-68137161D01*
X231986152Y-68041923D01*
X232033771Y-67994304D01*
X232129009Y-67946685D01*
X232367104Y-67946685D01*
X232462342Y-67994304D01*
X232509961Y-68041923D01*
X232557580Y-68137161D01*
X232557580Y-68375257D01*
X232509961Y-68470495D01*
X232462342Y-68518114D01*
%TO.C,H1*%
X242652380Y-23761904D02*
X241652380Y-23761904D01*
X242128571Y-23761904D02*
X242128571Y-23190476D01*
X242652380Y-23190476D02*
X241652380Y-23190476D01*
X242652380Y-22190476D02*
X242652380Y-22761904D01*
X242652380Y-22476190D02*
X241652380Y-22476190D01*
X241795238Y-22571428D01*
X241890476Y-22666666D01*
X241938095Y-22761904D01*
%TO.C,H2*%
X111252380Y-23761904D02*
X110252380Y-23761904D01*
X110728571Y-23761904D02*
X110728571Y-23190476D01*
X111252380Y-23190476D02*
X110252380Y-23190476D01*
X110347619Y-22761904D02*
X110300000Y-22714285D01*
X110252380Y-22619047D01*
X110252380Y-22380952D01*
X110300000Y-22285714D01*
X110347619Y-22238095D01*
X110442857Y-22190476D01*
X110538095Y-22190476D01*
X110680952Y-22238095D01*
X111252380Y-22809523D01*
X111252380Y-22190476D01*
%TO.C,H3*%
X242652380Y-148761904D02*
X241652380Y-148761904D01*
X242128571Y-148761904D02*
X242128571Y-148190476D01*
X242652380Y-148190476D02*
X241652380Y-148190476D01*
X241652380Y-147809523D02*
X241652380Y-147190476D01*
X242033333Y-147523809D01*
X242033333Y-147380952D01*
X242080952Y-147285714D01*
X242128571Y-147238095D01*
X242223809Y-147190476D01*
X242461904Y-147190476D01*
X242557142Y-147238095D01*
X242604761Y-147285714D01*
X242652380Y-147380952D01*
X242652380Y-147666666D01*
X242604761Y-147761904D01*
X242557142Y-147809523D01*
%TO.C,H4*%
X119652380Y-148761904D02*
X118652380Y-148761904D01*
X119128571Y-148761904D02*
X119128571Y-148190476D01*
X119652380Y-148190476D02*
X118652380Y-148190476D01*
X118985714Y-147285714D02*
X119652380Y-147285714D01*
X118604761Y-147523809D02*
X119319047Y-147761904D01*
X119319047Y-147142857D01*
%TO.C,J1*%
X231608380Y-107208933D02*
X232322666Y-107208933D01*
X232465523Y-107256552D01*
X232560761Y-107351790D01*
X232608380Y-107494647D01*
X232608380Y-107589885D01*
X232608380Y-106208933D02*
X232608380Y-106780361D01*
X232608380Y-106494647D02*
X231608380Y-106494647D01*
X231751238Y-106589885D01*
X231846476Y-106685123D01*
X231894095Y-106780361D01*
%TO.C,\u002AJ1*%
X120520380Y-136453142D02*
X120758476Y-136453142D01*
X120663238Y-136691238D02*
X120758476Y-136453142D01*
X120663238Y-136215047D01*
X120948952Y-136596000D02*
X120758476Y-136453142D01*
X120948952Y-136310285D01*
X120520380Y-135548380D02*
X121234666Y-135548380D01*
X121377523Y-135596000D01*
X121472761Y-135691238D01*
X121520380Y-135834095D01*
X121520380Y-135929333D01*
X121520380Y-134548380D02*
X121520380Y-135119809D01*
X121520380Y-134834095D02*
X120520380Y-134834095D01*
X120663238Y-134929333D01*
X120758476Y-135024571D01*
X120806095Y-135119809D01*
%TO.C,J3*%
X129252380Y-104346333D02*
X129966666Y-104346333D01*
X130109523Y-104393952D01*
X130204761Y-104489190D01*
X130252380Y-104632047D01*
X130252380Y-104727285D01*
X129252380Y-103965380D02*
X129252380Y-103346333D01*
X129633333Y-103679666D01*
X129633333Y-103536809D01*
X129680952Y-103441571D01*
X129728571Y-103393952D01*
X129823809Y-103346333D01*
X130061904Y-103346333D01*
X130157142Y-103393952D01*
X130204761Y-103441571D01*
X130252380Y-103536809D01*
X130252380Y-103822523D01*
X130204761Y-103917761D01*
X130157142Y-103965380D01*
%TO.C,J4*%
X226234666Y-92446380D02*
X226234666Y-93160666D01*
X226187047Y-93303523D01*
X226091809Y-93398761D01*
X225948952Y-93446380D01*
X225853714Y-93446380D01*
X227139428Y-92779714D02*
X227139428Y-93446380D01*
X226901333Y-92398761D02*
X226663238Y-93113047D01*
X227282285Y-93113047D01*
%TO.C,J7*%
X209724666Y-92446380D02*
X209724666Y-93160666D01*
X209677047Y-93303523D01*
X209581809Y-93398761D01*
X209438952Y-93446380D01*
X209343714Y-93446380D01*
X210105619Y-92446380D02*
X210772285Y-92446380D01*
X210343714Y-93446380D01*
%TO.C,J5*%
X193214666Y-92446380D02*
X193214666Y-93160666D01*
X193167047Y-93303523D01*
X193071809Y-93398761D01*
X192928952Y-93446380D01*
X192833714Y-93446380D01*
X194167047Y-92446380D02*
X193690857Y-92446380D01*
X193643238Y-92922571D01*
X193690857Y-92874952D01*
X193786095Y-92827333D01*
X194024190Y-92827333D01*
X194119428Y-92874952D01*
X194167047Y-92922571D01*
X194214666Y-93017809D01*
X194214666Y-93255904D01*
X194167047Y-93351142D01*
X194119428Y-93398761D01*
X194024190Y-93446380D01*
X193786095Y-93446380D01*
X193690857Y-93398761D01*
X193643238Y-93351142D01*
%TO.C,J8*%
X176704666Y-92446380D02*
X176704666Y-93160666D01*
X176657047Y-93303523D01*
X176561809Y-93398761D01*
X176418952Y-93446380D01*
X176323714Y-93446380D01*
X177323714Y-92874952D02*
X177228476Y-92827333D01*
X177180857Y-92779714D01*
X177133238Y-92684476D01*
X177133238Y-92636857D01*
X177180857Y-92541619D01*
X177228476Y-92494000D01*
X177323714Y-92446380D01*
X177514190Y-92446380D01*
X177609428Y-92494000D01*
X177657047Y-92541619D01*
X177704666Y-92636857D01*
X177704666Y-92684476D01*
X177657047Y-92779714D01*
X177609428Y-92827333D01*
X177514190Y-92874952D01*
X177323714Y-92874952D01*
X177228476Y-92922571D01*
X177180857Y-92970190D01*
X177133238Y-93065428D01*
X177133238Y-93255904D01*
X177180857Y-93351142D01*
X177228476Y-93398761D01*
X177323714Y-93446380D01*
X177514190Y-93446380D01*
X177609428Y-93398761D01*
X177657047Y-93351142D01*
X177704666Y-93255904D01*
X177704666Y-93065428D01*
X177657047Y-92970190D01*
X177609428Y-92922571D01*
X177514190Y-92874952D01*
%TO.C,J6*%
X160194666Y-92446380D02*
X160194666Y-93160666D01*
X160147047Y-93303523D01*
X160051809Y-93398761D01*
X159908952Y-93446380D01*
X159813714Y-93446380D01*
X161099428Y-92446380D02*
X160908952Y-92446380D01*
X160813714Y-92494000D01*
X160766095Y-92541619D01*
X160670857Y-92684476D01*
X160623238Y-92874952D01*
X160623238Y-93255904D01*
X160670857Y-93351142D01*
X160718476Y-93398761D01*
X160813714Y-93446380D01*
X161004190Y-93446380D01*
X161099428Y-93398761D01*
X161147047Y-93351142D01*
X161194666Y-93255904D01*
X161194666Y-93017809D01*
X161147047Y-92922571D01*
X161099428Y-92874952D01*
X161004190Y-92827333D01*
X160813714Y-92827333D01*
X160718476Y-92874952D01*
X160670857Y-92922571D01*
X160623238Y-93017809D01*
%TO.C,J9*%
X143684666Y-92446380D02*
X143684666Y-93160666D01*
X143637047Y-93303523D01*
X143541809Y-93398761D01*
X143398952Y-93446380D01*
X143303714Y-93446380D01*
X144208476Y-93446380D02*
X144398952Y-93446380D01*
X144494190Y-93398761D01*
X144541809Y-93351142D01*
X144637047Y-93208285D01*
X144684666Y-93017809D01*
X144684666Y-92636857D01*
X144637047Y-92541619D01*
X144589428Y-92494000D01*
X144494190Y-92446380D01*
X144303714Y-92446380D01*
X144208476Y-92494000D01*
X144160857Y-92541619D01*
X144113238Y-92636857D01*
X144113238Y-92874952D01*
X144160857Y-92970190D01*
X144208476Y-93017809D01*
X144303714Y-93065428D01*
X144494190Y-93065428D01*
X144589428Y-93017809D01*
X144637047Y-92970190D01*
X144684666Y-92874952D01*
%TO.C,R3*%
X226715580Y-69457866D02*
X226239390Y-69791200D01*
X226715580Y-70029295D02*
X225715580Y-70029295D01*
X225715580Y-69648342D01*
X225763200Y-69553104D01*
X225810819Y-69505485D01*
X225906057Y-69457866D01*
X226048914Y-69457866D01*
X226144152Y-69505485D01*
X226191771Y-69553104D01*
X226239390Y-69648342D01*
X226239390Y-70029295D01*
X225715580Y-69124533D02*
X225715580Y-68505485D01*
X226096533Y-68838819D01*
X226096533Y-68695961D01*
X226144152Y-68600723D01*
X226191771Y-68553104D01*
X226287009Y-68505485D01*
X226525104Y-68505485D01*
X226620342Y-68553104D01*
X226667961Y-68600723D01*
X226715580Y-68695961D01*
X226715580Y-68981676D01*
X226667961Y-69076914D01*
X226620342Y-69124533D01*
%TO.C,R2*%
X149185333Y-27884380D02*
X148852000Y-27408190D01*
X148613904Y-27884380D02*
X148613904Y-26884380D01*
X148994857Y-26884380D01*
X149090095Y-26932000D01*
X149137714Y-26979619D01*
X149185333Y-27074857D01*
X149185333Y-27217714D01*
X149137714Y-27312952D01*
X149090095Y-27360571D01*
X148994857Y-27408190D01*
X148613904Y-27408190D01*
X149566285Y-26979619D02*
X149613904Y-26932000D01*
X149709142Y-26884380D01*
X149947238Y-26884380D01*
X150042476Y-26932000D01*
X150090095Y-26979619D01*
X150137714Y-27074857D01*
X150137714Y-27170095D01*
X150090095Y-27312952D01*
X149518666Y-27884380D01*
X150137714Y-27884380D01*
%TO.C,\u002AR1*%
X235601309Y-91526380D02*
X235601309Y-91764476D01*
X235363214Y-91669238D02*
X235601309Y-91764476D01*
X235839404Y-91669238D01*
X235458452Y-91954952D02*
X235601309Y-91764476D01*
X235744166Y-91954952D01*
X236791785Y-92526380D02*
X236458452Y-92050190D01*
X236220357Y-92526380D02*
X236220357Y-91526380D01*
X236601309Y-91526380D01*
X236696547Y-91574000D01*
X236744166Y-91621619D01*
X236791785Y-91716857D01*
X236791785Y-91859714D01*
X236744166Y-91954952D01*
X236696547Y-92002571D01*
X236601309Y-92050190D01*
X236220357Y-92050190D01*
X237744166Y-92526380D02*
X237172738Y-92526380D01*
X237458452Y-92526380D02*
X237458452Y-91526380D01*
X237363214Y-91669238D01*
X237267976Y-91764476D01*
X237172738Y-91812095D01*
%TO.C,R1*%
X126983833Y-135198380D02*
X126650500Y-134722190D01*
X126412404Y-135198380D02*
X126412404Y-134198380D01*
X126793357Y-134198380D01*
X126888595Y-134246000D01*
X126936214Y-134293619D01*
X126983833Y-134388857D01*
X126983833Y-134531714D01*
X126936214Y-134626952D01*
X126888595Y-134674571D01*
X126793357Y-134722190D01*
X126412404Y-134722190D01*
X127936214Y-135198380D02*
X127364785Y-135198380D01*
X127650500Y-135198380D02*
X127650500Y-134198380D01*
X127555261Y-134341238D01*
X127460023Y-134436476D01*
X127364785Y-134484095D01*
%TO.C,R4*%
X211144380Y-72152166D02*
X210668190Y-72485500D01*
X211144380Y-72723595D02*
X210144380Y-72723595D01*
X210144380Y-72342642D01*
X210192000Y-72247404D01*
X210239619Y-72199785D01*
X210334857Y-72152166D01*
X210477714Y-72152166D01*
X210572952Y-72199785D01*
X210620571Y-72247404D01*
X210668190Y-72342642D01*
X210668190Y-72723595D01*
X210477714Y-71295023D02*
X211144380Y-71295023D01*
X210096761Y-71533119D02*
X210811047Y-71771214D01*
X210811047Y-71152166D01*
%TO.C,R5*%
X194380380Y-72152166D02*
X193904190Y-72485500D01*
X194380380Y-72723595D02*
X193380380Y-72723595D01*
X193380380Y-72342642D01*
X193428000Y-72247404D01*
X193475619Y-72199785D01*
X193570857Y-72152166D01*
X193713714Y-72152166D01*
X193808952Y-72199785D01*
X193856571Y-72247404D01*
X193904190Y-72342642D01*
X193904190Y-72723595D01*
X193380380Y-71247404D02*
X193380380Y-71723595D01*
X193856571Y-71771214D01*
X193808952Y-71723595D01*
X193761333Y-71628357D01*
X193761333Y-71390261D01*
X193808952Y-71295023D01*
X193856571Y-71247404D01*
X193951809Y-71199785D01*
X194189904Y-71199785D01*
X194285142Y-71247404D01*
X194332761Y-71295023D01*
X194380380Y-71390261D01*
X194380380Y-71628357D01*
X194332761Y-71723595D01*
X194285142Y-71771214D01*
%TO.C,R6*%
X177616380Y-72152166D02*
X177140190Y-72485500D01*
X177616380Y-72723595D02*
X176616380Y-72723595D01*
X176616380Y-72342642D01*
X176664000Y-72247404D01*
X176711619Y-72199785D01*
X176806857Y-72152166D01*
X176949714Y-72152166D01*
X177044952Y-72199785D01*
X177092571Y-72247404D01*
X177140190Y-72342642D01*
X177140190Y-72723595D01*
X176616380Y-71295023D02*
X176616380Y-71485500D01*
X176664000Y-71580738D01*
X176711619Y-71628357D01*
X176854476Y-71723595D01*
X177044952Y-71771214D01*
X177425904Y-71771214D01*
X177521142Y-71723595D01*
X177568761Y-71675976D01*
X177616380Y-71580738D01*
X177616380Y-71390261D01*
X177568761Y-71295023D01*
X177521142Y-71247404D01*
X177425904Y-71199785D01*
X177187809Y-71199785D01*
X177092571Y-71247404D01*
X177044952Y-71295023D01*
X176997333Y-71390261D01*
X176997333Y-71580738D01*
X177044952Y-71675976D01*
X177092571Y-71723595D01*
X177187809Y-71771214D01*
%TO.C,R7*%
X160852380Y-72152166D02*
X160376190Y-72485500D01*
X160852380Y-72723595D02*
X159852380Y-72723595D01*
X159852380Y-72342642D01*
X159900000Y-72247404D01*
X159947619Y-72199785D01*
X160042857Y-72152166D01*
X160185714Y-72152166D01*
X160280952Y-72199785D01*
X160328571Y-72247404D01*
X160376190Y-72342642D01*
X160376190Y-72723595D01*
X159852380Y-71818833D02*
X159852380Y-71152166D01*
X160852380Y-71580738D01*
%TO.C,R8*%
X144088380Y-72152166D02*
X143612190Y-72485500D01*
X144088380Y-72723595D02*
X143088380Y-72723595D01*
X143088380Y-72342642D01*
X143136000Y-72247404D01*
X143183619Y-72199785D01*
X143278857Y-72152166D01*
X143421714Y-72152166D01*
X143516952Y-72199785D01*
X143564571Y-72247404D01*
X143612190Y-72342642D01*
X143612190Y-72723595D01*
X143516952Y-71580738D02*
X143469333Y-71675976D01*
X143421714Y-71723595D01*
X143326476Y-71771214D01*
X143278857Y-71771214D01*
X143183619Y-71723595D01*
X143136000Y-71675976D01*
X143088380Y-71580738D01*
X143088380Y-71390261D01*
X143136000Y-71295023D01*
X143183619Y-71247404D01*
X143278857Y-71199785D01*
X143326476Y-71199785D01*
X143421714Y-71247404D01*
X143469333Y-71295023D01*
X143516952Y-71390261D01*
X143516952Y-71580738D01*
X143564571Y-71675976D01*
X143612190Y-71723595D01*
X143707428Y-71771214D01*
X143897904Y-71771214D01*
X143993142Y-71723595D01*
X144040761Y-71675976D01*
X144088380Y-71580738D01*
X144088380Y-71390261D01*
X144040761Y-71295023D01*
X143993142Y-71247404D01*
X143897904Y-71199785D01*
X143707428Y-71199785D01*
X143612190Y-71247404D01*
X143564571Y-71295023D01*
X143516952Y-71390261D01*
%TO.C,\u002AR2*%
X117944380Y-90026690D02*
X118182476Y-90026690D01*
X118087238Y-90264785D02*
X118182476Y-90026690D01*
X118087238Y-89788595D01*
X118372952Y-90169547D02*
X118182476Y-90026690D01*
X118372952Y-89883833D01*
X118944380Y-88836214D02*
X118468190Y-89169547D01*
X118944380Y-89407642D02*
X117944380Y-89407642D01*
X117944380Y-89026690D01*
X117992000Y-88931452D01*
X118039619Y-88883833D01*
X118134857Y-88836214D01*
X118277714Y-88836214D01*
X118372952Y-88883833D01*
X118420571Y-88931452D01*
X118468190Y-89026690D01*
X118468190Y-89407642D01*
X118039619Y-88455261D02*
X117992000Y-88407642D01*
X117944380Y-88312404D01*
X117944380Y-88074309D01*
X117992000Y-87979071D01*
X118039619Y-87931452D01*
X118134857Y-87883833D01*
X118230095Y-87883833D01*
X118372952Y-87931452D01*
X118944380Y-88502880D01*
X118944380Y-87883833D01*
%TO.C,R9*%
X234995980Y-69000666D02*
X234519790Y-69334000D01*
X234995980Y-69572095D02*
X233995980Y-69572095D01*
X233995980Y-69191142D01*
X234043600Y-69095904D01*
X234091219Y-69048285D01*
X234186457Y-69000666D01*
X234329314Y-69000666D01*
X234424552Y-69048285D01*
X234472171Y-69095904D01*
X234519790Y-69191142D01*
X234519790Y-69572095D01*
X234995980Y-68524476D02*
X234995980Y-68334000D01*
X234948361Y-68238761D01*
X234900742Y-68191142D01*
X234757885Y-68095904D01*
X234567409Y-68048285D01*
X234186457Y-68048285D01*
X234091219Y-68095904D01*
X234043600Y-68143523D01*
X233995980Y-68238761D01*
X233995980Y-68429238D01*
X234043600Y-68524476D01*
X234091219Y-68572095D01*
X234186457Y-68619714D01*
X234424552Y-68619714D01*
X234519790Y-68572095D01*
X234567409Y-68524476D01*
X234615028Y-68429238D01*
X234615028Y-68238761D01*
X234567409Y-68143523D01*
X234519790Y-68095904D01*
X234424552Y-68048285D01*
%TO.C,R10*%
X216730342Y-70200780D02*
X216397009Y-69724590D01*
X216158914Y-70200780D02*
X216158914Y-69200780D01*
X216539866Y-69200780D01*
X216635104Y-69248400D01*
X216682723Y-69296019D01*
X216730342Y-69391257D01*
X216730342Y-69534114D01*
X216682723Y-69629352D01*
X216635104Y-69676971D01*
X216539866Y-69724590D01*
X216158914Y-69724590D01*
X217682723Y-70200780D02*
X217111295Y-70200780D01*
X217397009Y-70200780D02*
X217397009Y-69200780D01*
X217301771Y-69343638D01*
X217206533Y-69438876D01*
X217111295Y-69486495D01*
X218301771Y-69200780D02*
X218397009Y-69200780D01*
X218492247Y-69248400D01*
X218539866Y-69296019D01*
X218587485Y-69391257D01*
X218635104Y-69581733D01*
X218635104Y-69819828D01*
X218587485Y-70010304D01*
X218539866Y-70105542D01*
X218492247Y-70153161D01*
X218397009Y-70200780D01*
X218301771Y-70200780D01*
X218206533Y-70153161D01*
X218158914Y-70105542D01*
X218111295Y-70010304D01*
X218063676Y-69819828D01*
X218063676Y-69581733D01*
X218111295Y-69391257D01*
X218158914Y-69296019D01*
X218206533Y-69248400D01*
X218301771Y-69200780D01*
%TO.C,R11*%
X202762380Y-72628357D02*
X202286190Y-72961690D01*
X202762380Y-73199785D02*
X201762380Y-73199785D01*
X201762380Y-72818833D01*
X201810000Y-72723595D01*
X201857619Y-72675976D01*
X201952857Y-72628357D01*
X202095714Y-72628357D01*
X202190952Y-72675976D01*
X202238571Y-72723595D01*
X202286190Y-72818833D01*
X202286190Y-73199785D01*
X202762380Y-71675976D02*
X202762380Y-72247404D01*
X202762380Y-71961690D02*
X201762380Y-71961690D01*
X201905238Y-72056928D01*
X202000476Y-72152166D01*
X202048095Y-72247404D01*
X202762380Y-70723595D02*
X202762380Y-71295023D01*
X202762380Y-71009309D02*
X201762380Y-71009309D01*
X201905238Y-71104547D01*
X202000476Y-71199785D01*
X202048095Y-71295023D01*
%TO.C,R12*%
X185998380Y-72628357D02*
X185522190Y-72961690D01*
X185998380Y-73199785D02*
X184998380Y-73199785D01*
X184998380Y-72818833D01*
X185046000Y-72723595D01*
X185093619Y-72675976D01*
X185188857Y-72628357D01*
X185331714Y-72628357D01*
X185426952Y-72675976D01*
X185474571Y-72723595D01*
X185522190Y-72818833D01*
X185522190Y-73199785D01*
X185998380Y-71675976D02*
X185998380Y-72247404D01*
X185998380Y-71961690D02*
X184998380Y-71961690D01*
X185141238Y-72056928D01*
X185236476Y-72152166D01*
X185284095Y-72247404D01*
X185093619Y-71295023D02*
X185046000Y-71247404D01*
X184998380Y-71152166D01*
X184998380Y-70914071D01*
X185046000Y-70818833D01*
X185093619Y-70771214D01*
X185188857Y-70723595D01*
X185284095Y-70723595D01*
X185426952Y-70771214D01*
X185998380Y-71342642D01*
X185998380Y-70723595D01*
%TO.C,R13*%
X169234380Y-72628357D02*
X168758190Y-72961690D01*
X169234380Y-73199785D02*
X168234380Y-73199785D01*
X168234380Y-72818833D01*
X168282000Y-72723595D01*
X168329619Y-72675976D01*
X168424857Y-72628357D01*
X168567714Y-72628357D01*
X168662952Y-72675976D01*
X168710571Y-72723595D01*
X168758190Y-72818833D01*
X168758190Y-73199785D01*
X169234380Y-71675976D02*
X169234380Y-72247404D01*
X169234380Y-71961690D02*
X168234380Y-71961690D01*
X168377238Y-72056928D01*
X168472476Y-72152166D01*
X168520095Y-72247404D01*
X168234380Y-71342642D02*
X168234380Y-70723595D01*
X168615333Y-71056928D01*
X168615333Y-70914071D01*
X168662952Y-70818833D01*
X168710571Y-70771214D01*
X168805809Y-70723595D01*
X169043904Y-70723595D01*
X169139142Y-70771214D01*
X169186761Y-70818833D01*
X169234380Y-70914071D01*
X169234380Y-71199785D01*
X169186761Y-71295023D01*
X169139142Y-71342642D01*
%TO.C,R14*%
X152470380Y-72628357D02*
X151994190Y-72961690D01*
X152470380Y-73199785D02*
X151470380Y-73199785D01*
X151470380Y-72818833D01*
X151518000Y-72723595D01*
X151565619Y-72675976D01*
X151660857Y-72628357D01*
X151803714Y-72628357D01*
X151898952Y-72675976D01*
X151946571Y-72723595D01*
X151994190Y-72818833D01*
X151994190Y-73199785D01*
X152470380Y-71675976D02*
X152470380Y-72247404D01*
X152470380Y-71961690D02*
X151470380Y-71961690D01*
X151613238Y-72056928D01*
X151708476Y-72152166D01*
X151756095Y-72247404D01*
X151803714Y-70818833D02*
X152470380Y-70818833D01*
X151422761Y-71056928D02*
X152137047Y-71295023D01*
X152137047Y-70675976D01*
%TO.C,U3*%
X222859695Y-87082380D02*
X222859695Y-87891904D01*
X222907314Y-87987142D01*
X222954933Y-88034761D01*
X223050171Y-88082380D01*
X223240647Y-88082380D01*
X223335885Y-88034761D01*
X223383504Y-87987142D01*
X223431123Y-87891904D01*
X223431123Y-87082380D01*
X223812076Y-87082380D02*
X224431123Y-87082380D01*
X224097790Y-87463333D01*
X224240647Y-87463333D01*
X224335885Y-87510952D01*
X224383504Y-87558571D01*
X224431123Y-87653809D01*
X224431123Y-87891904D01*
X224383504Y-87987142D01*
X224335885Y-88034761D01*
X224240647Y-88082380D01*
X223954933Y-88082380D01*
X223859695Y-88034761D01*
X223812076Y-87987142D01*
%TO.C,\u002AU1*%
X238623600Y-73213980D02*
X238623600Y-73452076D01*
X238385504Y-73356838D02*
X238623600Y-73452076D01*
X238861695Y-73356838D01*
X238480742Y-73642552D02*
X238623600Y-73452076D01*
X238766457Y-73642552D01*
X239242647Y-73213980D02*
X239242647Y-74023504D01*
X239290266Y-74118742D01*
X239337885Y-74166361D01*
X239433123Y-74213980D01*
X239623600Y-74213980D01*
X239718838Y-74166361D01*
X239766457Y-74118742D01*
X239814076Y-74023504D01*
X239814076Y-73213980D01*
X240814076Y-74213980D02*
X240242647Y-74213980D01*
X240528361Y-74213980D02*
X240528361Y-73213980D01*
X240433123Y-73356838D01*
X240337885Y-73452076D01*
X240242647Y-73499695D01*
%TO.C,U4*%
X205740095Y-87082380D02*
X205740095Y-87891904D01*
X205787714Y-87987142D01*
X205835333Y-88034761D01*
X205930571Y-88082380D01*
X206121047Y-88082380D01*
X206216285Y-88034761D01*
X206263904Y-87987142D01*
X206311523Y-87891904D01*
X206311523Y-87082380D01*
X207216285Y-87415714D02*
X207216285Y-88082380D01*
X206978190Y-87034761D02*
X206740095Y-87749047D01*
X207359142Y-87749047D01*
%TO.C,U5*%
X189230095Y-87082380D02*
X189230095Y-87891904D01*
X189277714Y-87987142D01*
X189325333Y-88034761D01*
X189420571Y-88082380D01*
X189611047Y-88082380D01*
X189706285Y-88034761D01*
X189753904Y-87987142D01*
X189801523Y-87891904D01*
X189801523Y-87082380D01*
X190753904Y-87082380D02*
X190277714Y-87082380D01*
X190230095Y-87558571D01*
X190277714Y-87510952D01*
X190372952Y-87463333D01*
X190611047Y-87463333D01*
X190706285Y-87510952D01*
X190753904Y-87558571D01*
X190801523Y-87653809D01*
X190801523Y-87891904D01*
X190753904Y-87987142D01*
X190706285Y-88034761D01*
X190611047Y-88082380D01*
X190372952Y-88082380D01*
X190277714Y-88034761D01*
X190230095Y-87987142D01*
%TO.C,U6*%
X172212095Y-87082380D02*
X172212095Y-87891904D01*
X172259714Y-87987142D01*
X172307333Y-88034761D01*
X172402571Y-88082380D01*
X172593047Y-88082380D01*
X172688285Y-88034761D01*
X172735904Y-87987142D01*
X172783523Y-87891904D01*
X172783523Y-87082380D01*
X173688285Y-87082380D02*
X173497809Y-87082380D01*
X173402571Y-87130000D01*
X173354952Y-87177619D01*
X173259714Y-87320476D01*
X173212095Y-87510952D01*
X173212095Y-87891904D01*
X173259714Y-87987142D01*
X173307333Y-88034761D01*
X173402571Y-88082380D01*
X173593047Y-88082380D01*
X173688285Y-88034761D01*
X173735904Y-87987142D01*
X173783523Y-87891904D01*
X173783523Y-87653809D01*
X173735904Y-87558571D01*
X173688285Y-87510952D01*
X173593047Y-87463333D01*
X173402571Y-87463333D01*
X173307333Y-87510952D01*
X173259714Y-87558571D01*
X173212095Y-87653809D01*
%TO.C,U7*%
X155448095Y-87082380D02*
X155448095Y-87891904D01*
X155495714Y-87987142D01*
X155543333Y-88034761D01*
X155638571Y-88082380D01*
X155829047Y-88082380D01*
X155924285Y-88034761D01*
X155971904Y-87987142D01*
X156019523Y-87891904D01*
X156019523Y-87082380D01*
X156400476Y-87082380D02*
X157067142Y-87082380D01*
X156638571Y-88082380D01*
%TO.C,U8*%
X138582495Y-87082380D02*
X138582495Y-87891904D01*
X138630114Y-87987142D01*
X138677733Y-88034761D01*
X138772971Y-88082380D01*
X138963447Y-88082380D01*
X139058685Y-88034761D01*
X139106304Y-87987142D01*
X139153923Y-87891904D01*
X139153923Y-87082380D01*
X139772971Y-87510952D02*
X139677733Y-87463333D01*
X139630114Y-87415714D01*
X139582495Y-87320476D01*
X139582495Y-87272857D01*
X139630114Y-87177619D01*
X139677733Y-87130000D01*
X139772971Y-87082380D01*
X139963447Y-87082380D01*
X140058685Y-87130000D01*
X140106304Y-87177619D01*
X140153923Y-87272857D01*
X140153923Y-87320476D01*
X140106304Y-87415714D01*
X140058685Y-87463333D01*
X139963447Y-87510952D01*
X139772971Y-87510952D01*
X139677733Y-87558571D01*
X139630114Y-87606190D01*
X139582495Y-87701428D01*
X139582495Y-87891904D01*
X139630114Y-87987142D01*
X139677733Y-88034761D01*
X139772971Y-88082380D01*
X139963447Y-88082380D01*
X140058685Y-88034761D01*
X140106304Y-87987142D01*
X140153923Y-87891904D01*
X140153923Y-87701428D01*
X140106304Y-87606190D01*
X140058685Y-87558571D01*
X139963447Y-87510952D01*
%TO.C,\u002AU2*%
X121631200Y-72858380D02*
X121631200Y-73096476D01*
X121393104Y-73001238D02*
X121631200Y-73096476D01*
X121869295Y-73001238D01*
X121488342Y-73286952D02*
X121631200Y-73096476D01*
X121774057Y-73286952D01*
X122250247Y-72858380D02*
X122250247Y-73667904D01*
X122297866Y-73763142D01*
X122345485Y-73810761D01*
X122440723Y-73858380D01*
X122631200Y-73858380D01*
X122726438Y-73810761D01*
X122774057Y-73763142D01*
X122821676Y-73667904D01*
X122821676Y-72858380D01*
X123250247Y-72953619D02*
X123297866Y-72906000D01*
X123393104Y-72858380D01*
X123631200Y-72858380D01*
X123726438Y-72906000D01*
X123774057Y-72953619D01*
X123821676Y-73048857D01*
X123821676Y-73144095D01*
X123774057Y-73286952D01*
X123202628Y-73858380D01*
X123821676Y-73858380D01*
%TO.C,U9*%
X230936895Y-87082380D02*
X230936895Y-87891904D01*
X230984514Y-87987142D01*
X231032133Y-88034761D01*
X231127371Y-88082380D01*
X231317847Y-88082380D01*
X231413085Y-88034761D01*
X231460704Y-87987142D01*
X231508323Y-87891904D01*
X231508323Y-87082380D01*
X232032133Y-88082380D02*
X232222609Y-88082380D01*
X232317847Y-88034761D01*
X232365466Y-87987142D01*
X232460704Y-87844285D01*
X232508323Y-87653809D01*
X232508323Y-87272857D01*
X232460704Y-87177619D01*
X232413085Y-87130000D01*
X232317847Y-87082380D01*
X232127371Y-87082380D01*
X232032133Y-87130000D01*
X231984514Y-87177619D01*
X231936895Y-87272857D01*
X231936895Y-87510952D01*
X231984514Y-87606190D01*
X232032133Y-87653809D01*
X232127371Y-87701428D01*
X232317847Y-87701428D01*
X232413085Y-87653809D01*
X232460704Y-87606190D01*
X232508323Y-87510952D01*
%TO.C,U10*%
X213899904Y-87082380D02*
X213899904Y-87891904D01*
X213947523Y-87987142D01*
X213995142Y-88034761D01*
X214090380Y-88082380D01*
X214280857Y-88082380D01*
X214376095Y-88034761D01*
X214423714Y-87987142D01*
X214471333Y-87891904D01*
X214471333Y-87082380D01*
X215471333Y-88082380D02*
X214899904Y-88082380D01*
X215185619Y-88082380D02*
X215185619Y-87082380D01*
X215090380Y-87225238D01*
X214995142Y-87320476D01*
X214899904Y-87368095D01*
X216090380Y-87082380D02*
X216185619Y-87082380D01*
X216280857Y-87130000D01*
X216328476Y-87177619D01*
X216376095Y-87272857D01*
X216423714Y-87463333D01*
X216423714Y-87701428D01*
X216376095Y-87891904D01*
X216328476Y-87987142D01*
X216280857Y-88034761D01*
X216185619Y-88082380D01*
X216090380Y-88082380D01*
X215995142Y-88034761D01*
X215947523Y-87987142D01*
X215899904Y-87891904D01*
X215852285Y-87701428D01*
X215852285Y-87463333D01*
X215899904Y-87272857D01*
X215947523Y-87177619D01*
X215995142Y-87130000D01*
X216090380Y-87082380D01*
%TO.C,U11*%
X196881904Y-87082380D02*
X196881904Y-87891904D01*
X196929523Y-87987142D01*
X196977142Y-88034761D01*
X197072380Y-88082380D01*
X197262857Y-88082380D01*
X197358095Y-88034761D01*
X197405714Y-87987142D01*
X197453333Y-87891904D01*
X197453333Y-87082380D01*
X198453333Y-88082380D02*
X197881904Y-88082380D01*
X198167619Y-88082380D02*
X198167619Y-87082380D01*
X198072380Y-87225238D01*
X197977142Y-87320476D01*
X197881904Y-87368095D01*
X199405714Y-88082380D02*
X198834285Y-88082380D01*
X199120000Y-88082380D02*
X199120000Y-87082380D01*
X199024761Y-87225238D01*
X198929523Y-87320476D01*
X198834285Y-87368095D01*
%TO.C,U12*%
X180117904Y-87082380D02*
X180117904Y-87891904D01*
X180165523Y-87987142D01*
X180213142Y-88034761D01*
X180308380Y-88082380D01*
X180498857Y-88082380D01*
X180594095Y-88034761D01*
X180641714Y-87987142D01*
X180689333Y-87891904D01*
X180689333Y-87082380D01*
X181689333Y-88082380D02*
X181117904Y-88082380D01*
X181403619Y-88082380D02*
X181403619Y-87082380D01*
X181308380Y-87225238D01*
X181213142Y-87320476D01*
X181117904Y-87368095D01*
X182070285Y-87177619D02*
X182117904Y-87130000D01*
X182213142Y-87082380D01*
X182451238Y-87082380D01*
X182546476Y-87130000D01*
X182594095Y-87177619D01*
X182641714Y-87272857D01*
X182641714Y-87368095D01*
X182594095Y-87510952D01*
X182022666Y-88082380D01*
X182641714Y-88082380D01*
%TO.C,U13*%
X163353904Y-87082380D02*
X163353904Y-87891904D01*
X163401523Y-87987142D01*
X163449142Y-88034761D01*
X163544380Y-88082380D01*
X163734857Y-88082380D01*
X163830095Y-88034761D01*
X163877714Y-87987142D01*
X163925333Y-87891904D01*
X163925333Y-87082380D01*
X164925333Y-88082380D02*
X164353904Y-88082380D01*
X164639619Y-88082380D02*
X164639619Y-87082380D01*
X164544380Y-87225238D01*
X164449142Y-87320476D01*
X164353904Y-87368095D01*
X165258666Y-87082380D02*
X165877714Y-87082380D01*
X165544380Y-87463333D01*
X165687238Y-87463333D01*
X165782476Y-87510952D01*
X165830095Y-87558571D01*
X165877714Y-87653809D01*
X165877714Y-87891904D01*
X165830095Y-87987142D01*
X165782476Y-88034761D01*
X165687238Y-88082380D01*
X165401523Y-88082380D01*
X165306285Y-88034761D01*
X165258666Y-87987142D01*
%TO.C,U14*%
X146488304Y-87082380D02*
X146488304Y-87891904D01*
X146535923Y-87987142D01*
X146583542Y-88034761D01*
X146678780Y-88082380D01*
X146869257Y-88082380D01*
X146964495Y-88034761D01*
X147012114Y-87987142D01*
X147059733Y-87891904D01*
X147059733Y-87082380D01*
X148059733Y-88082380D02*
X147488304Y-88082380D01*
X147774019Y-88082380D02*
X147774019Y-87082380D01*
X147678780Y-87225238D01*
X147583542Y-87320476D01*
X147488304Y-87368095D01*
X148916876Y-87415714D02*
X148916876Y-88082380D01*
X148678780Y-87034761D02*
X148440685Y-87749047D01*
X149059733Y-87749047D01*
%TD*%
M02*
