%TF.GenerationSoftware,KiCad,Pcbnew,(5.1.8)-1*%
%TF.CreationDate,2020-12-04T01:07:56+04:00*%
%TF.ProjectId,6dof_controller,36646f66-5f63-46f6-9e74-726f6c6c6572,ver 1.0*%
%TF.SameCoordinates,Original*%
%TF.FileFunction,Soldermask,Bot*%
%TF.FilePolarity,Negative*%
%FSLAX46Y46*%
G04 Gerber Fmt 4.6, Leading zero omitted, Abs format (unit mm)*
G04 Created by KiCad (PCBNEW (5.1.8)-1) date 2020-12-04 01:07:56*
%MOMM*%
%LPD*%
G01*
G04 APERTURE LIST*
%ADD10C,1.600000*%
%ADD11O,3.500000X2.000000*%
%ADD12O,2.000000X3.300000*%
%ADD13R,2.000000X4.000000*%
%ADD14R,1.000000X1.500000*%
%ADD15C,2.600000*%
%ADD16R,2.600000X2.600000*%
%ADD17C,3.200000*%
%ADD18O,1.600000X1.600000*%
%ADD19R,1.600000X1.600000*%
%ADD20C,1.700000*%
%ADD21C,1.524000*%
%ADD22R,1.524000X1.524000*%
%ADD23C,1.440000*%
%ADD24C,0.100000*%
%ADD25C,3.000000*%
%ADD26O,1.800000X2.600000*%
%ADD27R,1.800000X2.600000*%
%ADD28R,0.900000X0.800000*%
%ADD29R,2.200000X2.200000*%
%ADD30O,2.200000X2.200000*%
%ADD31C,6.400000*%
%ADD32C,3.250000*%
%ADD33C,1.500000*%
%ADD34R,1.500000X1.500000*%
%ADD35C,8.000000*%
G04 APERTURE END LIST*
D10*
%TO.C,J2*%
X34180000Y-113792000D03*
D11*
X36180000Y-118292000D03*
X36180000Y-109292000D03*
D12*
X37180000Y-113792000D03*
D13*
X43180000Y-113792000D03*
%TD*%
D14*
%TO.C,JP3*%
X139954000Y-56896000D03*
X138654000Y-56896000D03*
%TD*%
%TO.C,JP2*%
X139984000Y-53086000D03*
X138684000Y-53086000D03*
%TD*%
%TO.C,C14*%
G36*
G01*
X200022000Y-126779000D02*
X200022000Y-127729000D01*
G75*
G02*
X199772000Y-127979000I-250000J0D01*
G01*
X199272000Y-127979000D01*
G75*
G02*
X199022000Y-127729000I0J250000D01*
G01*
X199022000Y-126779000D01*
G75*
G02*
X199272000Y-126529000I250000J0D01*
G01*
X199772000Y-126529000D01*
G75*
G02*
X200022000Y-126779000I0J-250000D01*
G01*
G37*
G36*
G01*
X201922000Y-126779000D02*
X201922000Y-127729000D01*
G75*
G02*
X201672000Y-127979000I-250000J0D01*
G01*
X201172000Y-127979000D01*
G75*
G02*
X200922000Y-127729000I0J250000D01*
G01*
X200922000Y-126779000D01*
G75*
G02*
X201172000Y-126529000I250000J0D01*
G01*
X201672000Y-126529000D01*
G75*
G02*
X201922000Y-126779000I0J-250000D01*
G01*
G37*
%TD*%
%TO.C,C12*%
G36*
G01*
X216532000Y-126779000D02*
X216532000Y-127729000D01*
G75*
G02*
X216282000Y-127979000I-250000J0D01*
G01*
X215782000Y-127979000D01*
G75*
G02*
X215532000Y-127729000I0J250000D01*
G01*
X215532000Y-126779000D01*
G75*
G02*
X215782000Y-126529000I250000J0D01*
G01*
X216282000Y-126529000D01*
G75*
G02*
X216532000Y-126779000I0J-250000D01*
G01*
G37*
G36*
G01*
X218432000Y-126779000D02*
X218432000Y-127729000D01*
G75*
G02*
X218182000Y-127979000I-250000J0D01*
G01*
X217682000Y-127979000D01*
G75*
G02*
X217432000Y-127729000I0J250000D01*
G01*
X217432000Y-126779000D01*
G75*
G02*
X217682000Y-126529000I250000J0D01*
G01*
X218182000Y-126529000D01*
G75*
G02*
X218432000Y-126779000I0J-250000D01*
G01*
G37*
%TD*%
%TO.C,C10*%
G36*
G01*
X183512000Y-126779000D02*
X183512000Y-127729000D01*
G75*
G02*
X183262000Y-127979000I-250000J0D01*
G01*
X182762000Y-127979000D01*
G75*
G02*
X182512000Y-127729000I0J250000D01*
G01*
X182512000Y-126779000D01*
G75*
G02*
X182762000Y-126529000I250000J0D01*
G01*
X183262000Y-126529000D01*
G75*
G02*
X183512000Y-126779000I0J-250000D01*
G01*
G37*
G36*
G01*
X185412000Y-126779000D02*
X185412000Y-127729000D01*
G75*
G02*
X185162000Y-127979000I-250000J0D01*
G01*
X184662000Y-127979000D01*
G75*
G02*
X184412000Y-127729000I0J250000D01*
G01*
X184412000Y-126779000D01*
G75*
G02*
X184662000Y-126529000I250000J0D01*
G01*
X185162000Y-126529000D01*
G75*
G02*
X185412000Y-126779000I0J-250000D01*
G01*
G37*
%TD*%
%TO.C,C8*%
G36*
G01*
X150492000Y-126779000D02*
X150492000Y-127729000D01*
G75*
G02*
X150242000Y-127979000I-250000J0D01*
G01*
X149742000Y-127979000D01*
G75*
G02*
X149492000Y-127729000I0J250000D01*
G01*
X149492000Y-126779000D01*
G75*
G02*
X149742000Y-126529000I250000J0D01*
G01*
X150242000Y-126529000D01*
G75*
G02*
X150492000Y-126779000I0J-250000D01*
G01*
G37*
G36*
G01*
X152392000Y-126779000D02*
X152392000Y-127729000D01*
G75*
G02*
X152142000Y-127979000I-250000J0D01*
G01*
X151642000Y-127979000D01*
G75*
G02*
X151392000Y-127729000I0J250000D01*
G01*
X151392000Y-126779000D01*
G75*
G02*
X151642000Y-126529000I250000J0D01*
G01*
X152142000Y-126529000D01*
G75*
G02*
X152392000Y-126779000I0J-250000D01*
G01*
G37*
%TD*%
%TO.C,C6*%
G36*
G01*
X167002000Y-126779000D02*
X167002000Y-127729000D01*
G75*
G02*
X166752000Y-127979000I-250000J0D01*
G01*
X166252000Y-127979000D01*
G75*
G02*
X166002000Y-127729000I0J250000D01*
G01*
X166002000Y-126779000D01*
G75*
G02*
X166252000Y-126529000I250000J0D01*
G01*
X166752000Y-126529000D01*
G75*
G02*
X167002000Y-126779000I0J-250000D01*
G01*
G37*
G36*
G01*
X168902000Y-126779000D02*
X168902000Y-127729000D01*
G75*
G02*
X168652000Y-127979000I-250000J0D01*
G01*
X168152000Y-127979000D01*
G75*
G02*
X167902000Y-127729000I0J250000D01*
G01*
X167902000Y-126779000D01*
G75*
G02*
X168152000Y-126529000I250000J0D01*
G01*
X168652000Y-126529000D01*
G75*
G02*
X168902000Y-126779000I0J-250000D01*
G01*
G37*
%TD*%
%TO.C,C4*%
G36*
G01*
X133728000Y-126779000D02*
X133728000Y-127729000D01*
G75*
G02*
X133478000Y-127979000I-250000J0D01*
G01*
X132978000Y-127979000D01*
G75*
G02*
X132728000Y-127729000I0J250000D01*
G01*
X132728000Y-126779000D01*
G75*
G02*
X132978000Y-126529000I250000J0D01*
G01*
X133478000Y-126529000D01*
G75*
G02*
X133728000Y-126779000I0J-250000D01*
G01*
G37*
G36*
G01*
X135628000Y-126779000D02*
X135628000Y-127729000D01*
G75*
G02*
X135378000Y-127979000I-250000J0D01*
G01*
X134878000Y-127979000D01*
G75*
G02*
X134628000Y-127729000I0J250000D01*
G01*
X134628000Y-126779000D01*
G75*
G02*
X134878000Y-126529000I250000J0D01*
G01*
X135378000Y-126529000D01*
G75*
G02*
X135628000Y-126779000I0J-250000D01*
G01*
G37*
%TD*%
%TO.C,C16*%
G36*
G01*
X42959000Y-43310000D02*
X43909000Y-43310000D01*
G75*
G02*
X44159000Y-43560000I0J-250000D01*
G01*
X44159000Y-44060000D01*
G75*
G02*
X43909000Y-44310000I-250000J0D01*
G01*
X42959000Y-44310000D01*
G75*
G02*
X42709000Y-44060000I0J250000D01*
G01*
X42709000Y-43560000D01*
G75*
G02*
X42959000Y-43310000I250000J0D01*
G01*
G37*
G36*
G01*
X42959000Y-41410000D02*
X43909000Y-41410000D01*
G75*
G02*
X44159000Y-41660000I0J-250000D01*
G01*
X44159000Y-42160000D01*
G75*
G02*
X43909000Y-42410000I-250000J0D01*
G01*
X42959000Y-42410000D01*
G75*
G02*
X42709000Y-42160000I0J250000D01*
G01*
X42709000Y-41660000D01*
G75*
G02*
X42959000Y-41410000I250000J0D01*
G01*
G37*
%TD*%
D15*
%TO.C,\u002AJ3*%
X35560000Y-37592000D03*
D16*
X35560000Y-32592000D03*
%TD*%
D17*
%TO.C,\u002AXA1*%
X178054000Y-61214000D03*
X178054000Y-33274000D03*
X228854000Y-18034000D03*
X230124000Y-66294000D03*
D18*
X183134000Y-18034000D03*
X180594000Y-18034000D03*
X220214000Y-18034000D03*
X180594000Y-66294000D03*
X217674000Y-18034000D03*
X183134000Y-66294000D03*
X215134000Y-18034000D03*
X185674000Y-66294000D03*
X212594000Y-18034000D03*
X188214000Y-66294000D03*
X210054000Y-18034000D03*
X190754000Y-66294000D03*
X207514000Y-18034000D03*
X193294000Y-66294000D03*
X204974000Y-18034000D03*
X198374000Y-66294000D03*
X202434000Y-18034000D03*
X200914000Y-66294000D03*
X198374000Y-18034000D03*
X203454000Y-66294000D03*
X195834000Y-18034000D03*
X205994000Y-66294000D03*
X193294000Y-18034000D03*
X208534000Y-66294000D03*
X190754000Y-18034000D03*
X211074000Y-66294000D03*
X188214000Y-18034000D03*
X213614000Y-66294000D03*
X185674000Y-18034000D03*
D19*
X216154000Y-66294000D03*
D18*
X222754000Y-18034000D03*
X225294000Y-18034000D03*
%TD*%
%TO.C,U3*%
X154686000Y-61976000D03*
X162306000Y-28956000D03*
X154686000Y-59436000D03*
X162306000Y-31496000D03*
X154686000Y-56896000D03*
X162306000Y-34036000D03*
X154686000Y-54356000D03*
X162306000Y-36576000D03*
X154686000Y-51816000D03*
X162306000Y-39116000D03*
X154686000Y-49276000D03*
X162306000Y-41656000D03*
X154686000Y-46736000D03*
X162306000Y-44196000D03*
X154686000Y-44196000D03*
X162306000Y-46736000D03*
X154686000Y-41656000D03*
X162306000Y-49276000D03*
X154686000Y-39116000D03*
X162306000Y-51816000D03*
X154686000Y-36576000D03*
X162306000Y-54356000D03*
X154686000Y-34036000D03*
X162306000Y-56896000D03*
X154686000Y-31496000D03*
X162306000Y-59436000D03*
X154686000Y-28956000D03*
D19*
X162306000Y-61976000D03*
%TD*%
%TO.C,J7*%
G36*
G01*
X234608000Y-115154000D02*
X234608000Y-113954000D01*
G75*
G02*
X234858000Y-113704000I250000J0D01*
G01*
X236058000Y-113704000D01*
G75*
G02*
X236308000Y-113954000I0J-250000D01*
G01*
X236308000Y-115154000D01*
G75*
G02*
X236058000Y-115404000I-250000J0D01*
G01*
X234858000Y-115404000D01*
G75*
G02*
X234608000Y-115154000I0J250000D01*
G01*
G37*
D20*
X235458000Y-117094000D03*
X235458000Y-119634000D03*
X235458000Y-122174000D03*
X235458000Y-124714000D03*
X237998000Y-114554000D03*
X237998000Y-117094000D03*
X237998000Y-119634000D03*
X237998000Y-122174000D03*
X237998000Y-124714000D03*
%TD*%
D18*
%TO.C,\u002AU3*%
X47244000Y-62992000D03*
X54864000Y-29972000D03*
X47244000Y-60452000D03*
X54864000Y-32512000D03*
X47244000Y-57912000D03*
X54864000Y-35052000D03*
X47244000Y-55372000D03*
X54864000Y-37592000D03*
X47244000Y-52832000D03*
X54864000Y-40132000D03*
X47244000Y-50292000D03*
X54864000Y-42672000D03*
X47244000Y-47752000D03*
X54864000Y-45212000D03*
X47244000Y-45212000D03*
X54864000Y-47752000D03*
X47244000Y-42672000D03*
X54864000Y-50292000D03*
X47244000Y-40132000D03*
X54864000Y-52832000D03*
X47244000Y-37592000D03*
X54864000Y-55372000D03*
X47244000Y-35052000D03*
X54864000Y-57912000D03*
X47244000Y-32512000D03*
X54864000Y-60452000D03*
X47244000Y-29972000D03*
D19*
X54864000Y-62992000D03*
%TD*%
D21*
%TO.C,U1*%
X198628000Y-30480000D03*
X201168000Y-30480000D03*
X203708000Y-30480000D03*
X206248000Y-30480000D03*
X208788000Y-30480000D03*
X211328000Y-30480000D03*
X213868000Y-30480000D03*
X216408000Y-30480000D03*
X218948000Y-30480000D03*
X221488000Y-30480000D03*
X224028000Y-30480000D03*
X226568000Y-30480000D03*
X229108000Y-30480000D03*
X231648000Y-30480000D03*
X234188000Y-30480000D03*
X234188000Y-55880000D03*
X231648000Y-55880000D03*
X229108000Y-55880000D03*
X226568000Y-55880000D03*
X224028000Y-55880000D03*
X221488000Y-55880000D03*
X218948000Y-55880000D03*
X216408000Y-55880000D03*
X213868000Y-55880000D03*
X211328000Y-55880000D03*
X208788000Y-55880000D03*
X206248000Y-55880000D03*
X203708000Y-55880000D03*
X201168000Y-55880000D03*
D22*
X198628000Y-55880000D03*
%TD*%
D23*
%TO.C,RV1*%
X51308000Y-22860000D03*
X53848000Y-20320000D03*
X56388000Y-22860000D03*
%TD*%
D24*
%TO.C,JP1*%
G36*
X65520000Y-89162000D02*
G01*
X65520000Y-89662000D01*
X65519398Y-89662000D01*
X65519398Y-89686534D01*
X65514588Y-89735365D01*
X65505016Y-89783490D01*
X65490772Y-89830445D01*
X65471995Y-89875778D01*
X65448864Y-89919051D01*
X65421604Y-89959850D01*
X65390476Y-89997779D01*
X65355779Y-90032476D01*
X65317850Y-90063604D01*
X65277051Y-90090864D01*
X65233778Y-90113995D01*
X65188445Y-90132772D01*
X65141490Y-90147016D01*
X65093365Y-90156588D01*
X65044534Y-90161398D01*
X65020000Y-90161398D01*
X65020000Y-90162000D01*
X64520000Y-90162000D01*
X64520000Y-90161398D01*
X64495466Y-90161398D01*
X64446635Y-90156588D01*
X64398510Y-90147016D01*
X64351555Y-90132772D01*
X64306222Y-90113995D01*
X64262949Y-90090864D01*
X64222150Y-90063604D01*
X64184221Y-90032476D01*
X64149524Y-89997779D01*
X64118396Y-89959850D01*
X64091136Y-89919051D01*
X64068005Y-89875778D01*
X64049228Y-89830445D01*
X64034984Y-89783490D01*
X64025412Y-89735365D01*
X64020602Y-89686534D01*
X64020602Y-89662000D01*
X64020000Y-89662000D01*
X64020000Y-89162000D01*
X65520000Y-89162000D01*
G37*
G36*
X64020602Y-88362000D02*
G01*
X64020602Y-88337466D01*
X64025412Y-88288635D01*
X64034984Y-88240510D01*
X64049228Y-88193555D01*
X64068005Y-88148222D01*
X64091136Y-88104949D01*
X64118396Y-88064150D01*
X64149524Y-88026221D01*
X64184221Y-87991524D01*
X64222150Y-87960396D01*
X64262949Y-87933136D01*
X64306222Y-87910005D01*
X64351555Y-87891228D01*
X64398510Y-87876984D01*
X64446635Y-87867412D01*
X64495466Y-87862602D01*
X64520000Y-87862602D01*
X64520000Y-87862000D01*
X65020000Y-87862000D01*
X65020000Y-87862602D01*
X65044534Y-87862602D01*
X65093365Y-87867412D01*
X65141490Y-87876984D01*
X65188445Y-87891228D01*
X65233778Y-87910005D01*
X65277051Y-87933136D01*
X65317850Y-87960396D01*
X65355779Y-87991524D01*
X65390476Y-88026221D01*
X65421604Y-88064150D01*
X65448864Y-88104949D01*
X65471995Y-88148222D01*
X65490772Y-88193555D01*
X65505016Y-88240510D01*
X65514588Y-88288635D01*
X65519398Y-88337466D01*
X65519398Y-88362000D01*
X65520000Y-88362000D01*
X65520000Y-88862000D01*
X64020000Y-88862000D01*
X64020000Y-88362000D01*
X64020602Y-88362000D01*
G37*
%TD*%
D25*
%TO.C,DS1*%
X136556000Y-18034000D03*
X136555480Y-49034700D03*
X61556900Y-49034700D03*
X61556900Y-18034000D03*
D26*
X105156000Y-18034000D03*
X102616000Y-18034000D03*
X100076000Y-18034000D03*
X97536000Y-18034000D03*
X94996000Y-18034000D03*
X92456000Y-18034000D03*
X89916000Y-18034000D03*
X87376000Y-18034000D03*
X84836000Y-18034000D03*
X82296000Y-18034000D03*
X79756000Y-18034000D03*
X77216000Y-18034000D03*
X74676000Y-18034000D03*
X72136000Y-18034000D03*
X69596000Y-18034000D03*
D27*
X67056000Y-18034000D03*
%TD*%
D28*
%TO.C,\u002AD5*%
X201962000Y-147386000D03*
X203962000Y-148336000D03*
X203962000Y-146436000D03*
%TD*%
D29*
%TO.C,D2*%
X61722000Y-113792000D03*
D30*
X51562000Y-113792000D03*
%TD*%
D28*
%TO.C,\u002AD6*%
X170910000Y-146116000D03*
X170910000Y-148016000D03*
X168910000Y-147066000D03*
%TD*%
%TO.C,\u002AD7*%
X137890000Y-145928000D03*
X137890000Y-147828000D03*
X135890000Y-146878000D03*
%TD*%
D31*
%TO.C,H1*%
X238000000Y-13000000D03*
%TD*%
%TO.C,H2*%
X36500000Y-13000000D03*
%TD*%
%TO.C,H3*%
X238000000Y-151000000D03*
%TD*%
%TO.C,H4*%
X36500000Y-151000000D03*
%TD*%
D15*
%TO.C,\u002AJ1*%
X239522000Y-97362000D03*
D16*
X239522000Y-102362000D03*
%TD*%
%TO.C,J1*%
X35814000Y-124460000D03*
D15*
X35814000Y-129460000D03*
X35814000Y-134460000D03*
%TD*%
D16*
%TO.C,\u002AJ2*%
X54102000Y-148793200D03*
D15*
X59102000Y-148793200D03*
%TD*%
D32*
%TO.C,J3*%
X39370000Y-102108000D03*
D25*
X36320000Y-104163000D03*
D32*
X39370000Y-90678000D03*
D33*
X45720000Y-94488000D03*
X45720000Y-97028000D03*
X48260000Y-95758000D03*
X45720000Y-99568000D03*
D34*
X45720000Y-91948000D03*
D33*
X48260000Y-93218000D03*
D25*
X36320000Y-88623000D03*
D33*
X48260000Y-100838000D03*
X48260000Y-98298000D03*
%TD*%
D35*
%TO.C,J4*%
X226318000Y-146354000D03*
X226318000Y-97994000D03*
D20*
X227838000Y-137414000D03*
X227838000Y-134874000D03*
X227838000Y-132334000D03*
X227838000Y-129794000D03*
X227838000Y-127254000D03*
X227838000Y-124714000D03*
X227838000Y-122174000D03*
X227838000Y-119634000D03*
X227838000Y-117094000D03*
X227838000Y-114554000D03*
X227838000Y-112014000D03*
X227838000Y-109474000D03*
X227838000Y-106934000D03*
X225298000Y-137414000D03*
X225298000Y-134874000D03*
X225298000Y-132334000D03*
X225298000Y-129794000D03*
X225298000Y-127254000D03*
X225298000Y-124714000D03*
X225298000Y-122174000D03*
X225298000Y-119634000D03*
X225298000Y-117094000D03*
X225298000Y-114554000D03*
X225298000Y-112014000D03*
X225298000Y-109474000D03*
G36*
G01*
X224448000Y-107534000D02*
X224448000Y-106334000D01*
G75*
G02*
X224698000Y-106084000I250000J0D01*
G01*
X225898000Y-106084000D01*
G75*
G02*
X226148000Y-106334000I0J-250000D01*
G01*
X226148000Y-107534000D01*
G75*
G02*
X225898000Y-107784000I-250000J0D01*
G01*
X224698000Y-107784000D01*
G75*
G02*
X224448000Y-107534000I0J250000D01*
G01*
G37*
%TD*%
%TO.C,J8*%
G36*
G01*
X207938000Y-107534000D02*
X207938000Y-106334000D01*
G75*
G02*
X208188000Y-106084000I250000J0D01*
G01*
X209388000Y-106084000D01*
G75*
G02*
X209638000Y-106334000I0J-250000D01*
G01*
X209638000Y-107534000D01*
G75*
G02*
X209388000Y-107784000I-250000J0D01*
G01*
X208188000Y-107784000D01*
G75*
G02*
X207938000Y-107534000I0J250000D01*
G01*
G37*
X208788000Y-109474000D03*
X208788000Y-112014000D03*
X208788000Y-114554000D03*
X208788000Y-117094000D03*
X208788000Y-119634000D03*
X208788000Y-122174000D03*
X208788000Y-124714000D03*
X208788000Y-127254000D03*
X208788000Y-129794000D03*
X208788000Y-132334000D03*
X208788000Y-134874000D03*
X208788000Y-137414000D03*
X211328000Y-106934000D03*
X211328000Y-109474000D03*
X211328000Y-112014000D03*
X211328000Y-114554000D03*
X211328000Y-117094000D03*
X211328000Y-119634000D03*
X211328000Y-122174000D03*
X211328000Y-124714000D03*
X211328000Y-127254000D03*
X211328000Y-129794000D03*
X211328000Y-132334000D03*
X211328000Y-134874000D03*
X211328000Y-137414000D03*
D35*
X209808000Y-97994000D03*
X209808000Y-146354000D03*
%TD*%
%TO.C,J5*%
X193298000Y-146354000D03*
X193298000Y-97994000D03*
D20*
X194818000Y-137414000D03*
X194818000Y-134874000D03*
X194818000Y-132334000D03*
X194818000Y-129794000D03*
X194818000Y-127254000D03*
X194818000Y-124714000D03*
X194818000Y-122174000D03*
X194818000Y-119634000D03*
X194818000Y-117094000D03*
X194818000Y-114554000D03*
X194818000Y-112014000D03*
X194818000Y-109474000D03*
X194818000Y-106934000D03*
X192278000Y-137414000D03*
X192278000Y-134874000D03*
X192278000Y-132334000D03*
X192278000Y-129794000D03*
X192278000Y-127254000D03*
X192278000Y-124714000D03*
X192278000Y-122174000D03*
X192278000Y-119634000D03*
X192278000Y-117094000D03*
X192278000Y-114554000D03*
X192278000Y-112014000D03*
X192278000Y-109474000D03*
G36*
G01*
X191428000Y-107534000D02*
X191428000Y-106334000D01*
G75*
G02*
X191678000Y-106084000I250000J0D01*
G01*
X192878000Y-106084000D01*
G75*
G02*
X193128000Y-106334000I0J-250000D01*
G01*
X193128000Y-107534000D01*
G75*
G02*
X192878000Y-107784000I-250000J0D01*
G01*
X191678000Y-107784000D01*
G75*
G02*
X191428000Y-107534000I0J250000D01*
G01*
G37*
%TD*%
D35*
%TO.C,J9*%
X176788000Y-146354000D03*
X176788000Y-97994000D03*
D20*
X178308000Y-137414000D03*
X178308000Y-134874000D03*
X178308000Y-132334000D03*
X178308000Y-129794000D03*
X178308000Y-127254000D03*
X178308000Y-124714000D03*
X178308000Y-122174000D03*
X178308000Y-119634000D03*
X178308000Y-117094000D03*
X178308000Y-114554000D03*
X178308000Y-112014000D03*
X178308000Y-109474000D03*
X178308000Y-106934000D03*
X175768000Y-137414000D03*
X175768000Y-134874000D03*
X175768000Y-132334000D03*
X175768000Y-129794000D03*
X175768000Y-127254000D03*
X175768000Y-124714000D03*
X175768000Y-122174000D03*
X175768000Y-119634000D03*
X175768000Y-117094000D03*
X175768000Y-114554000D03*
X175768000Y-112014000D03*
X175768000Y-109474000D03*
G36*
G01*
X174918000Y-107534000D02*
X174918000Y-106334000D01*
G75*
G02*
X175168000Y-106084000I250000J0D01*
G01*
X176368000Y-106084000D01*
G75*
G02*
X176618000Y-106334000I0J-250000D01*
G01*
X176618000Y-107534000D01*
G75*
G02*
X176368000Y-107784000I-250000J0D01*
G01*
X175168000Y-107784000D01*
G75*
G02*
X174918000Y-107534000I0J250000D01*
G01*
G37*
%TD*%
%TO.C,J6*%
G36*
G01*
X158408000Y-107534000D02*
X158408000Y-106334000D01*
G75*
G02*
X158658000Y-106084000I250000J0D01*
G01*
X159858000Y-106084000D01*
G75*
G02*
X160108000Y-106334000I0J-250000D01*
G01*
X160108000Y-107534000D01*
G75*
G02*
X159858000Y-107784000I-250000J0D01*
G01*
X158658000Y-107784000D01*
G75*
G02*
X158408000Y-107534000I0J250000D01*
G01*
G37*
X159258000Y-109474000D03*
X159258000Y-112014000D03*
X159258000Y-114554000D03*
X159258000Y-117094000D03*
X159258000Y-119634000D03*
X159258000Y-122174000D03*
X159258000Y-124714000D03*
X159258000Y-127254000D03*
X159258000Y-129794000D03*
X159258000Y-132334000D03*
X159258000Y-134874000D03*
X159258000Y-137414000D03*
X161798000Y-106934000D03*
X161798000Y-109474000D03*
X161798000Y-112014000D03*
X161798000Y-114554000D03*
X161798000Y-117094000D03*
X161798000Y-119634000D03*
X161798000Y-122174000D03*
X161798000Y-124714000D03*
X161798000Y-127254000D03*
X161798000Y-129794000D03*
X161798000Y-132334000D03*
X161798000Y-134874000D03*
X161798000Y-137414000D03*
D35*
X160278000Y-97994000D03*
X160278000Y-146354000D03*
%TD*%
%TO.C,J10*%
G36*
G01*
X141898000Y-107534000D02*
X141898000Y-106334000D01*
G75*
G02*
X142148000Y-106084000I250000J0D01*
G01*
X143348000Y-106084000D01*
G75*
G02*
X143598000Y-106334000I0J-250000D01*
G01*
X143598000Y-107534000D01*
G75*
G02*
X143348000Y-107784000I-250000J0D01*
G01*
X142148000Y-107784000D01*
G75*
G02*
X141898000Y-107534000I0J250000D01*
G01*
G37*
D20*
X142748000Y-109474000D03*
X142748000Y-112014000D03*
X142748000Y-114554000D03*
X142748000Y-117094000D03*
X142748000Y-119634000D03*
X142748000Y-122174000D03*
X142748000Y-124714000D03*
X142748000Y-127254000D03*
X142748000Y-129794000D03*
X142748000Y-132334000D03*
X142748000Y-134874000D03*
X142748000Y-137414000D03*
X145288000Y-106934000D03*
X145288000Y-109474000D03*
X145288000Y-112014000D03*
X145288000Y-114554000D03*
X145288000Y-117094000D03*
X145288000Y-119634000D03*
X145288000Y-122174000D03*
X145288000Y-124714000D03*
X145288000Y-127254000D03*
X145288000Y-129794000D03*
X145288000Y-132334000D03*
X145288000Y-134874000D03*
X145288000Y-137414000D03*
D35*
X143768000Y-97994000D03*
X143768000Y-146354000D03*
%TD*%
%TO.C,\u002AR5*%
G36*
G01*
X220668002Y-131830500D02*
X219767998Y-131830500D01*
G75*
G02*
X219518000Y-131580502I0J249998D01*
G01*
X219518000Y-131055498D01*
G75*
G02*
X219767998Y-130805500I249998J0D01*
G01*
X220668002Y-130805500D01*
G75*
G02*
X220918000Y-131055498I0J-249998D01*
G01*
X220918000Y-131580502D01*
G75*
G02*
X220668002Y-131830500I-249998J0D01*
G01*
G37*
G36*
G01*
X220668002Y-130005500D02*
X219767998Y-130005500D01*
G75*
G02*
X219518000Y-129755502I0J249998D01*
G01*
X219518000Y-129230498D01*
G75*
G02*
X219767998Y-128980500I249998J0D01*
G01*
X220668002Y-128980500D01*
G75*
G02*
X220918000Y-129230498I0J-249998D01*
G01*
X220918000Y-129755502D01*
G75*
G02*
X220668002Y-130005500I-249998J0D01*
G01*
G37*
%TD*%
%TO.C,\u002AR6*%
G36*
G01*
X203904002Y-129902000D02*
X203003998Y-129902000D01*
G75*
G02*
X202754000Y-129652002I0J249998D01*
G01*
X202754000Y-129126998D01*
G75*
G02*
X203003998Y-128877000I249998J0D01*
G01*
X203904002Y-128877000D01*
G75*
G02*
X204154000Y-129126998I0J-249998D01*
G01*
X204154000Y-129652002D01*
G75*
G02*
X203904002Y-129902000I-249998J0D01*
G01*
G37*
G36*
G01*
X203904002Y-131727000D02*
X203003998Y-131727000D01*
G75*
G02*
X202754000Y-131477002I0J249998D01*
G01*
X202754000Y-130951998D01*
G75*
G02*
X203003998Y-130702000I249998J0D01*
G01*
X203904002Y-130702000D01*
G75*
G02*
X204154000Y-130951998I0J-249998D01*
G01*
X204154000Y-131477002D01*
G75*
G02*
X203904002Y-131727000I-249998J0D01*
G01*
G37*
%TD*%
%TO.C,\u002AR7*%
G36*
G01*
X187394002Y-131877500D02*
X186493998Y-131877500D01*
G75*
G02*
X186244000Y-131627502I0J249998D01*
G01*
X186244000Y-131102498D01*
G75*
G02*
X186493998Y-130852500I249998J0D01*
G01*
X187394002Y-130852500D01*
G75*
G02*
X187644000Y-131102498I0J-249998D01*
G01*
X187644000Y-131627502D01*
G75*
G02*
X187394002Y-131877500I-249998J0D01*
G01*
G37*
G36*
G01*
X187394002Y-130052500D02*
X186493998Y-130052500D01*
G75*
G02*
X186244000Y-129802502I0J249998D01*
G01*
X186244000Y-129277498D01*
G75*
G02*
X186493998Y-129027500I249998J0D01*
G01*
X187394002Y-129027500D01*
G75*
G02*
X187644000Y-129277498I0J-249998D01*
G01*
X187644000Y-129802502D01*
G75*
G02*
X187394002Y-130052500I-249998J0D01*
G01*
G37*
%TD*%
%TO.C,\u002AR8*%
G36*
G01*
X170884002Y-129902000D02*
X169983998Y-129902000D01*
G75*
G02*
X169734000Y-129652002I0J249998D01*
G01*
X169734000Y-129126998D01*
G75*
G02*
X169983998Y-128877000I249998J0D01*
G01*
X170884002Y-128877000D01*
G75*
G02*
X171134000Y-129126998I0J-249998D01*
G01*
X171134000Y-129652002D01*
G75*
G02*
X170884002Y-129902000I-249998J0D01*
G01*
G37*
G36*
G01*
X170884002Y-131727000D02*
X169983998Y-131727000D01*
G75*
G02*
X169734000Y-131477002I0J249998D01*
G01*
X169734000Y-130951998D01*
G75*
G02*
X169983998Y-130702000I249998J0D01*
G01*
X170884002Y-130702000D01*
G75*
G02*
X171134000Y-130951998I0J-249998D01*
G01*
X171134000Y-131477002D01*
G75*
G02*
X170884002Y-131727000I-249998J0D01*
G01*
G37*
%TD*%
%TO.C,\u002AR9*%
G36*
G01*
X154374002Y-131727000D02*
X153473998Y-131727000D01*
G75*
G02*
X153224000Y-131477002I0J249998D01*
G01*
X153224000Y-130951998D01*
G75*
G02*
X153473998Y-130702000I249998J0D01*
G01*
X154374002Y-130702000D01*
G75*
G02*
X154624000Y-130951998I0J-249998D01*
G01*
X154624000Y-131477002D01*
G75*
G02*
X154374002Y-131727000I-249998J0D01*
G01*
G37*
G36*
G01*
X154374002Y-129902000D02*
X153473998Y-129902000D01*
G75*
G02*
X153224000Y-129652002I0J249998D01*
G01*
X153224000Y-129126998D01*
G75*
G02*
X153473998Y-128877000I249998J0D01*
G01*
X154374002Y-128877000D01*
G75*
G02*
X154624000Y-129126998I0J-249998D01*
G01*
X154624000Y-129652002D01*
G75*
G02*
X154374002Y-129902000I-249998J0D01*
G01*
G37*
%TD*%
%TO.C,\u002AR10*%
G36*
G01*
X137864002Y-129902000D02*
X136963998Y-129902000D01*
G75*
G02*
X136714000Y-129652002I0J249998D01*
G01*
X136714000Y-129126998D01*
G75*
G02*
X136963998Y-128877000I249998J0D01*
G01*
X137864002Y-128877000D01*
G75*
G02*
X138114000Y-129126998I0J-249998D01*
G01*
X138114000Y-129652002D01*
G75*
G02*
X137864002Y-129902000I-249998J0D01*
G01*
G37*
G36*
G01*
X137864002Y-131727000D02*
X136963998Y-131727000D01*
G75*
G02*
X136714000Y-131477002I0J249998D01*
G01*
X136714000Y-130951998D01*
G75*
G02*
X136963998Y-130702000I249998J0D01*
G01*
X137864002Y-130702000D01*
G75*
G02*
X138114000Y-130951998I0J-249998D01*
G01*
X138114000Y-131477002D01*
G75*
G02*
X137864002Y-131727000I-249998J0D01*
G01*
G37*
%TD*%
M02*
