M48
INCH,TZ
T1C0.0300
T2C0.0315
T3C0.0354
T4C0.0394
T5C0.0433
T6C0.0472
T7C0.0512
T8C0.0630
T9C0.0984
T10C0.1059
T11C0.1260
%
G90
G05
T1
X78200Y-12000
X78200Y-22000
X79200Y-12000
X79200Y-22000
X80200Y-12000
X80200Y-22000
X81200Y-12000
X81200Y-22000
X82200Y-12000
X82200Y-22000
X83200Y-12000
X83200Y-22000
X84200Y-12000
X84200Y-22000
X85200Y-12000
X85200Y-22000
X86200Y-12000
X86200Y-22000
X87200Y-12000
X87200Y-22000
X88200Y-12000
X88200Y-22000
X89200Y-12000
X89200Y-22000
X90200Y-12000
X90200Y-22000
X91200Y-12000
X91200Y-22000
X92200Y-12000
X92200Y-22000
T2
X19800Y-16800
X21300Y-54800
X24800Y-9100
X26800Y-52900
X27100Y-34600
X28400Y-9087
X28400Y-10100
X28400Y-14800
X28948Y-10564
X29000Y-11800
X29100Y-39700
X29100Y-47100
X29400Y-9087
X29500Y-22800
X29700Y-10957
X29700Y-12800
X30400Y-11450
X30400Y-13800
X31400Y-9580
X31500Y-51000
X31800Y-17800
X33700Y-10500
X35100Y-49100
X36100Y-20800
X36400Y-9973
X37000Y-26900
X37400Y-10400
X38400Y-10761
X38400Y-55300
X39400Y-11154
X39400Y-21800
X40000Y-24700
X40400Y-26900
X41700Y-48100
X42700Y-25600
X43300Y-24700
X44000Y-57800
X44997Y-27703
X48300Y-58400
X48500Y-17800
X48900Y-22400
X49800Y-26400
X50500Y-35400
X50500Y-41500
X51100Y-34900
X51100Y-37700
X51500Y-27900
X51700Y-34400
X51700Y-40900
X52300Y-35413
X52300Y-38700
X52900Y-34900
X52900Y-48100
X52900Y-55800
X52900Y-56800
X52900Y-59300
X53500Y-46100
X53500Y-49100
X53500Y-54800
X54200Y-59300
X54500Y-56500
X54541Y-52100
X55200Y-37100
X55900Y-20400
X57200Y-34900
X58000Y-37000
X58100Y-49100
X58108Y-55300
X58500Y-42100
X58500Y-43100
X58508Y-25600
X58600Y-51100
X58600Y-60400
X59000Y-26100
X59200Y-27200
X59400Y-40500
X59400Y-47100
X59400Y-48100
X59400Y-55800
X59500Y-17400
X59500Y-18400
X59500Y-19400
X59504Y-26694
X59800Y-57500
X59900Y-46100
X59900Y-49100
X59900Y-54800
X60500Y-34900
X61000Y-59391
X61041Y-52100
X61600Y-27200
X61609Y-19400
X62100Y-18300
X62200Y-22400
X62500Y-27200
X62800Y-20400
X63800Y-34900
X64400Y-37000
X64600Y-49100
X64608Y-55300
X64800Y-10600
X65000Y-13400
X65000Y-42100
X65000Y-43100
X65008Y-15400
X65100Y-51100
X65100Y-60400
X65500Y-12400
X65500Y-16400
X65900Y-35413
X65900Y-47100
X65900Y-48100
X65900Y-55800
X65992Y-15900
X66000Y-11400
X66000Y-56900
X66198Y-25106
X66500Y-35000
X66500Y-46100
X66500Y-49100
X66500Y-54800
X66600Y-14400
X66600Y-20500
X66671Y-15036
X66700Y-12900
X67200Y-21400
X67200Y-25608
X67300Y-59200
X67500Y-56600
X67541Y-52100
X69100Y-27100
X70400Y-35200
X70900Y-37000
X71100Y-49100
X71108Y-55292
X71500Y-42100
X71500Y-43100
X71600Y-51100
X71600Y-60400
X72300Y-8793
X72400Y-27400
X72500Y-23900
X72500Y-34500
X72500Y-47100
X72500Y-48100
X72500Y-55800
X72900Y-57700
X73000Y-46100
X73000Y-49100
X73000Y-54800
X73061Y-8793
X73100Y-13700
X73800Y-34600
X73826Y-8793
X74200Y-52100
X74200Y-59300
X74400Y-22000
X74600Y-24900
X74707Y-8793
X75200Y-24300
X75208Y-22800
X75500Y-18400
X75621Y-8793
X75700Y-27400
X75834Y-23634
X76500Y-9700
X76621Y-8793
X76700Y-12500
X76700Y-23000
X77000Y-35300
X77400Y-17400
X77400Y-26908
X77600Y-49200
X77608Y-55300
X77800Y-14000
X77800Y-14591
X77800Y-15181
X77800Y-15772
X78000Y-42100
X78000Y-43100
X78100Y-51100
X78100Y-60400
X78200Y-9300
X78800Y-34500
X78800Y-47100
X78800Y-48100
X78800Y-55800
X78800Y-57000
X79000Y-27400
X79200Y-15800
X79400Y-46100
X79400Y-49100
X79400Y-54800
X79400Y-59500
X79500Y-34800
X80700Y-9500
X80700Y-52100
X80700Y-56600
X81700Y-10022
X82200Y-14600
X82300Y-27400
X82700Y-11400
X82700Y-15200
X83200Y-8800
X83700Y-10908
X84000Y-35400
X84100Y-49100
X84100Y-55300
X84200Y-14000
X84600Y-42100
X84600Y-43100
X84600Y-51100
X84600Y-60400
X84700Y-10514
X85400Y-34500
X85400Y-47100
X85400Y-48100
X85400Y-55800
X85800Y-24313
X85900Y-46100
X85900Y-49100
X85900Y-54808
X85900Y-57900
X87100Y-34700
X87200Y-9500
X87200Y-52100
X87300Y-59908
X88200Y-14200
X88900Y-23500
X89200Y-13600
X90200Y-10120
X90200Y-13000
X90200Y-34700
X91200Y-42100
X91200Y-49100
X91200Y-55300
X91692Y-51100
X91700Y-58400
X92887Y-23000
X94500Y-26000
X94500Y-34700
X18600Y-11800
X18600Y-12800
X18600Y-13800
X18600Y-14800
X18600Y-15800
X18600Y-16800
X18600Y-17800
X18600Y-18800
X18600Y-19800
X18600Y-20800
X18600Y-21800
X18600Y-22800
X18600Y-23800
X18600Y-24800
X21600Y-11800
X21600Y-12800
X21600Y-13800
X21600Y-14800
X21600Y-15800
X21600Y-16800
X21600Y-17800
X21600Y-18800
X21600Y-19800
X21600Y-20800
X21600Y-21800
X21600Y-22800
X21600Y-23800
X21600Y-24800
X60900Y-11400
X60900Y-12400
X60900Y-13400
X60900Y-14400
X60900Y-15400
X60900Y-16400
X60900Y-17400
X60900Y-18400
X60900Y-19400
X60900Y-20400
X60900Y-21400
X60900Y-22400
X60900Y-23400
X60900Y-24400
X63900Y-11400
X63900Y-12400
X63900Y-13400
X63900Y-14400
X63900Y-15400
X63900Y-16400
X63900Y-17400
X63900Y-18400
X63900Y-19400
X63900Y-20400
X63900Y-21400
X63900Y-22400
X63900Y-23400
X63900Y-24400
X20200Y-9000
X21200Y-8000
X22200Y-9000
T3
X18000Y-36200
X18000Y-37200
X18000Y-38200
X18000Y-39200
X19000Y-36700
X19000Y-37700
X19000Y-38700
X19000Y-39700
T4
X71100Y-7100
X71100Y-26100
X72100Y-7100
X72100Y-26100
X73100Y-7100
X73100Y-26100
X74100Y-7100
X74100Y-26100
X75100Y-7100
X75100Y-26100
X76100Y-7100
X76100Y-26100
X77100Y-7100
X78100Y-7100
X78100Y-26100
X79100Y-26100
X79698Y-7100
X80100Y-26100
X80698Y-7100
X81100Y-26100
X81698Y-7100
X82100Y-26100
X82698Y-7100
X83100Y-26100
X83698Y-7100
X84100Y-26100
X84698Y-7100
X85100Y-26100
X85698Y-7100
X86698Y-7100
X87698Y-7100
X88698Y-7100
X62700Y-42100
X62700Y-43100
X62700Y-44100
X62700Y-45100
X62700Y-46100
X62700Y-47100
X62700Y-48100
X62700Y-49100
X62700Y-50100
X62700Y-51100
X62700Y-52100
X62700Y-53100
X62700Y-54100
X63700Y-42100
X63700Y-43100
X63700Y-44100
X63700Y-45100
X63700Y-46100
X63700Y-47100
X63700Y-48100
X63700Y-49100
X63700Y-50100
X63700Y-51100
X63700Y-52100
X63700Y-53100
X63700Y-54100
X56200Y-42100
X56200Y-43100
X56200Y-44100
X56200Y-45100
X56200Y-46100
X56200Y-47100
X56200Y-48100
X56200Y-49100
X56200Y-50100
X56200Y-51100
X56200Y-52100
X56200Y-53100
X56200Y-54100
X57200Y-42100
X57200Y-43100
X57200Y-44100
X57200Y-45100
X57200Y-46100
X57200Y-47100
X57200Y-48100
X57200Y-49100
X57200Y-50100
X57200Y-51100
X57200Y-52100
X57200Y-53100
X57200Y-54100
X92700Y-45100
X92700Y-46100
X92700Y-47100
X92700Y-48100
X92700Y-49100
X93700Y-45100
X93700Y-46100
X93700Y-47100
X93700Y-48100
X93700Y-49100
X82200Y-42100
X82200Y-43100
X82200Y-44100
X82200Y-45100
X82200Y-46100
X82200Y-47100
X82200Y-48100
X82200Y-49100
X82200Y-50100
X82200Y-51100
X82200Y-52100
X82200Y-53100
X82200Y-54100
X83200Y-42100
X83200Y-43100
X83200Y-44100
X83200Y-45100
X83200Y-46100
X83200Y-47100
X83200Y-48100
X83200Y-49100
X83200Y-50100
X83200Y-51100
X83200Y-52100
X83200Y-53100
X83200Y-54100
X69200Y-42100
X69200Y-43100
X69200Y-44100
X69200Y-45100
X69200Y-46100
X69200Y-47100
X69200Y-48100
X69200Y-49100
X69200Y-50100
X69200Y-51100
X69200Y-52100
X69200Y-53100
X69200Y-54100
X70200Y-42100
X70200Y-43100
X70200Y-44100
X70200Y-45100
X70200Y-46100
X70200Y-47100
X70200Y-48100
X70200Y-49100
X70200Y-50100
X70200Y-51100
X70200Y-52100
X70200Y-53100
X70200Y-54100
X75700Y-42100
X75700Y-43100
X75700Y-44100
X75700Y-45100
X75700Y-46100
X75700Y-47100
X75700Y-48100
X75700Y-49100
X75700Y-50100
X75700Y-51100
X75700Y-52100
X75700Y-53100
X75700Y-54100
X76700Y-42100
X76700Y-43100
X76700Y-44100
X76700Y-45100
X76700Y-46100
X76700Y-47100
X76700Y-48100
X76700Y-49100
X76700Y-50100
X76700Y-51100
X76700Y-52100
X76700Y-53100
X76700Y-54100
X88700Y-42100
X88700Y-43100
X88700Y-44100
X88700Y-45100
X88700Y-46100
X88700Y-47100
X88700Y-48100
X88700Y-49100
X88700Y-50100
X88700Y-51100
X88700Y-52100
X88700Y-53100
X88700Y-54100
X89700Y-42100
X89700Y-43100
X89700Y-44100
X89700Y-45100
X89700Y-46100
X89700Y-47100
X89700Y-48100
X89700Y-49100
X89700Y-50100
X89700Y-51100
X89700Y-52100
X89700Y-53100
X89700Y-54100
T5
X20300Y-44800
X24300Y-44800
T6
X17500Y-6900
X17500Y-11800
X17500Y-14800
X21100Y-36200
X24300Y-36200
X27400Y-8300
X28500Y-36200
X40400Y-8300
X47300Y-36200
X51500Y-8300
X51500Y-14400
X54300Y-36200
X54300Y-43100
X54300Y-50100
X59600Y-14400
X60800Y-36200
X60800Y-43100
X60800Y-50100
X67300Y-36200
X67300Y-43100
X67300Y-50100
X73800Y-36200
X73800Y-43100
X73800Y-50100
X80300Y-36200
X80300Y-43100
X80300Y-50100
X86800Y-36200
X86800Y-43100
X86800Y-50100
X91987Y-36000
X92100Y-24900
X93200Y-8900
X95200Y-28200
X26400Y-7100
X27400Y-7100
X28400Y-7100
X29400Y-7100
X30400Y-7100
X31400Y-7100
X32400Y-7100
X33400Y-7100
X34400Y-7100
X35400Y-7100
X36400Y-7100
X37400Y-7100
X38400Y-7100
X39400Y-7100
X40400Y-7100
X41400Y-7100
T7
X14000Y-12831
X14000Y-14800
X94300Y-38331
X94300Y-40300
X21300Y-58580
X23269Y-58580
X14100Y-49000
X14100Y-50969
X14100Y-52937
T8
X14299Y-34891
X14299Y-41009
T9
X24235Y-7100
X24235Y-19305
X53762Y-19305
X53762Y-7100
T10
X63102Y-38580
X63102Y-57620
X56602Y-38580
X56602Y-57620
X82602Y-38580
X82602Y-57620
X69602Y-38580
X69602Y-57620
X76102Y-38580
X76102Y-57620
X89102Y-38580
X89102Y-57620
T11
X93701Y-59449
X14370Y-5118
X93701Y-5118
X14370Y-59449
T4
G00X14539Y-43028
M15
G01X13949Y-43028
M16
G05
G00X14539Y-46572
M15
G01X13949Y-46572
M16
G05
G00X14638Y-44544
M15
G01X14638Y-45056
M16
G05
G00X17000Y-44406
M15
G01X17000Y-45194
M16
G05
T0
M30
