M48
INCH,TZ
T1C0.0236
T2C0.0300
T3C0.0315
T4C0.0354
T5C0.0394
T6C0.0433
T7C0.0512
T8C0.0630
T9C0.1059
T10C0.1260
%
G90
G05
T1
X43600Y-33400
X43700Y-6700
X43700Y-29700
X43800Y-60000
X49100Y-37100
X50500Y-35400
X51100Y-34900
X51100Y-40700
X51700Y-34400
X51700Y-43900
X51900Y-59700
X52300Y-35413
X52300Y-41700
X52500Y-10500
X52900Y-34900
X52900Y-42700
X52900Y-47100
X52900Y-48100
X52900Y-55800
X53500Y-46100
X53500Y-49100
X53500Y-54800
X54700Y-10000
X55100Y-53100
X55200Y-7500
X55200Y-37100
X55200Y-44100
X55700Y-9500
X55900Y-20400
X57200Y-34900
X57600Y-28300
X58000Y-37000
X58100Y-49100
X58108Y-55300
X58500Y-17800
X58500Y-42100
X58500Y-43100
X58508Y-25600
X58600Y-51100
X58600Y-59700
X59000Y-18400
X59000Y-26100
X59200Y-27200
X59400Y-40500
X59400Y-47100
X59400Y-48100
X59400Y-55800
X59500Y-19400
X59504Y-26694
X59800Y-58800
X59900Y-46100
X59900Y-49100
X59900Y-54800
X60500Y-34900
X60900Y-28300
X61600Y-8500
X61600Y-27200
X61609Y-19400
X61700Y-44100
X61700Y-53100
X62100Y-18300
X62200Y-22400
X62500Y-27200
X62800Y-20400
X63800Y-34900
X64200Y-28400
X64400Y-37000
X64600Y-49100
X64608Y-55300
X65000Y-13400
X65000Y-42100
X65000Y-43100
X65008Y-15400
X65100Y-51100
X65100Y-59700
X65500Y-12400
X65500Y-16400
X65900Y-35413
X65900Y-47100
X65900Y-48100
X65900Y-55800
X65992Y-15900
X66000Y-11400
X66200Y-58800
X66500Y-35000
X66500Y-46100
X66500Y-49100
X66500Y-54800
X66600Y-14400
X66671Y-15036
X67200Y-10292
X67200Y-21400
X67200Y-25608
X67600Y-28400
X67700Y-9300
X67900Y-19500
X67900Y-25100
X68000Y-53100
X68200Y-44100
X68700Y-18500
X68700Y-24400
X69100Y-27100
X70400Y-35200
X70800Y-28300
X70900Y-37000
X71100Y-49100
X71108Y-55292
X71500Y-42100
X71500Y-43100
X71600Y-51100
X71600Y-59700
X72000Y-13300
X72400Y-27400
X72500Y-22400
X72500Y-23400
X72500Y-34500
X72500Y-47100
X72500Y-48100
X72500Y-55800
X72800Y-58700
X73000Y-19500
X73000Y-46100
X73000Y-49100
X73000Y-54800
X73500Y-17400
X73500Y-23400
X73800Y-34600
X74100Y-8800
X74100Y-28300
X74300Y-10800
X74300Y-11500
X74500Y-22900
X74600Y-53100
X74700Y-44100
X75100Y-8793
X75100Y-19000
X75700Y-18500
X75700Y-27400
X76100Y-8793
X76700Y-12500
X77000Y-35300
X77100Y-8800
X77400Y-28300
X77500Y-23900
X77600Y-49200
X77608Y-55300
X78000Y-42100
X78000Y-43100
X78100Y-51100
X78100Y-59700
X78800Y-34500
X78800Y-47100
X78800Y-48100
X78800Y-55800
X79100Y-58800
X79200Y-18000
X79400Y-46100
X79400Y-49100
X79400Y-54800
X79500Y-34800
X80700Y-28400
X80800Y-9200
X81100Y-53200
X81200Y-44100
X81700Y-10022
X82700Y-11400
X83700Y-10908
X83900Y-15600
X84000Y-20200
X84000Y-28500
X84000Y-35400
X84100Y-49100
X84100Y-55300
X84600Y-42100
X84600Y-43100
X84600Y-51100
X84600Y-59700
X84700Y-10514
X85200Y-23000
X85200Y-23700
X85400Y-34500
X85400Y-47100
X85400Y-48100
X85400Y-55800
X85600Y-58800
X85900Y-46100
X85900Y-49100
X85900Y-54808
X86800Y-28400
X87100Y-34700
X87600Y-53200
X87700Y-44100
X88200Y-14200
X89200Y-13600
X90100Y-28500
X90200Y-10120
X90200Y-13000
X90200Y-34700
X91200Y-42100
X91200Y-49100
X91200Y-55300
X91692Y-51100
X91700Y-58400
X92600Y-39400
X93200Y-26000
X93600Y-28300
X93900Y-26000
X94500Y-26000
X95200Y-28200
X95300Y-34700
X95600Y-6800
X95600Y-60100
T2
X78200Y-12000
X78200Y-22000
X79200Y-12000
X79200Y-22000
X80200Y-12000
X80200Y-22000
X81200Y-12000
X81200Y-22000
X82200Y-12000
X82200Y-22000
X83200Y-12000
X83200Y-22000
X84200Y-12000
X84200Y-22000
X85200Y-12000
X85200Y-22000
X86200Y-12000
X86200Y-22000
X87200Y-12000
X87200Y-22000
X88200Y-12000
X88200Y-22000
X89200Y-12000
X89200Y-22000
X90200Y-12000
X90200Y-22000
X91200Y-12000
X91200Y-22000
X92200Y-12000
X92200Y-22000
T3
X47300Y-36200
X50500Y-53600
X54300Y-36200
X54300Y-43100
X54300Y-50100
X59600Y-14400
X59700Y-6699
X60800Y-36200
X60800Y-43100
X60800Y-50100
X67300Y-36200
X67300Y-43100
X67300Y-50100
X73800Y-36200
X73800Y-43100
X73800Y-50100
X80300Y-36200
X80300Y-43100
X80300Y-50100
X86800Y-36200
X86800Y-43100
X86800Y-50100
X91300Y-8600
X91987Y-36000
X92100Y-24900
X93200Y-15300
X60900Y-11400
X60900Y-12400
X60900Y-13400
X60900Y-14400
X60900Y-15400
X60900Y-16400
X60900Y-17400
X60900Y-18400
X60900Y-19400
X60900Y-20400
X60900Y-21400
X60900Y-22400
X60900Y-23400
X60900Y-24400
X63900Y-11400
X63900Y-12400
X63900Y-13400
X63900Y-14400
X63900Y-15400
X63900Y-16400
X63900Y-17400
X63900Y-18400
X63900Y-19400
X63900Y-20400
X63900Y-21400
X63900Y-22400
X63900Y-23400
X63900Y-24400
T4
X49000Y-39200
X49000Y-40200
X49000Y-41200
X49000Y-42200
X50000Y-39700
X50000Y-40700
X50000Y-41700
X50000Y-42700
T5
X69200Y-42100
X69200Y-43100
X69200Y-44100
X69200Y-45100
X69200Y-46100
X69200Y-47100
X69200Y-48100
X69200Y-49100
X69200Y-50100
X69200Y-51100
X69200Y-52100
X69200Y-53100
X69200Y-54100
X70200Y-42100
X70200Y-43100
X70200Y-44100
X70200Y-45100
X70200Y-46100
X70200Y-47100
X70200Y-48100
X70200Y-49100
X70200Y-50100
X70200Y-51100
X70200Y-52100
X70200Y-53100
X70200Y-54100
X62700Y-42100
X62700Y-43100
X62700Y-44100
X62700Y-45100
X62700Y-46100
X62700Y-47100
X62700Y-48100
X62700Y-49100
X62700Y-50100
X62700Y-51100
X62700Y-52100
X62700Y-53100
X62700Y-54100
X63700Y-42100
X63700Y-43100
X63700Y-44100
X63700Y-45100
X63700Y-46100
X63700Y-47100
X63700Y-48100
X63700Y-49100
X63700Y-50100
X63700Y-51100
X63700Y-52100
X63700Y-53100
X63700Y-54100
X56200Y-42100
X56200Y-43100
X56200Y-44100
X56200Y-45100
X56200Y-46100
X56200Y-47100
X56200Y-48100
X56200Y-49100
X56200Y-50100
X56200Y-51100
X56200Y-52100
X56200Y-53100
X56200Y-54100
X57200Y-42100
X57200Y-43100
X57200Y-44100
X57200Y-45100
X57200Y-46100
X57200Y-47100
X57200Y-48100
X57200Y-49100
X57200Y-50100
X57200Y-51100
X57200Y-52100
X57200Y-53100
X57200Y-54100
X82200Y-42100
X82200Y-43100
X82200Y-44100
X82200Y-45100
X82200Y-46100
X82200Y-47100
X82200Y-48100
X82200Y-49100
X82200Y-50100
X82200Y-51100
X82200Y-52100
X82200Y-53100
X82200Y-54100
X83200Y-42100
X83200Y-43100
X83200Y-44100
X83200Y-45100
X83200Y-46100
X83200Y-47100
X83200Y-48100
X83200Y-49100
X83200Y-50100
X83200Y-51100
X83200Y-52100
X83200Y-53100
X83200Y-54100
X92700Y-45100
X92700Y-46100
X92700Y-47100
X92700Y-48100
X92700Y-49100
X93700Y-45100
X93700Y-46100
X93700Y-47100
X93700Y-48100
X93700Y-49100
X71100Y-7100
X71100Y-26100
X72100Y-7100
X72100Y-26100
X73100Y-7100
X73100Y-26100
X74100Y-7100
X74100Y-26100
X75100Y-7100
X75100Y-26100
X76100Y-7100
X76100Y-26100
X77100Y-7100
X78100Y-7100
X78100Y-26100
X79100Y-26100
X79698Y-7100
X80100Y-26100
X80698Y-7100
X81100Y-26100
X81698Y-7100
X82100Y-26100
X82698Y-7100
X83100Y-26100
X83698Y-7100
X84100Y-26100
X84698Y-7100
X85100Y-26100
X85698Y-7100
X86698Y-7100
X87698Y-7100
X88698Y-7100
X88700Y-42100
X88700Y-43100
X88700Y-44100
X88700Y-45100
X88700Y-46100
X88700Y-47100
X88700Y-48100
X88700Y-49100
X88700Y-50100
X88700Y-51100
X88700Y-52100
X88700Y-53100
X88700Y-54100
X89700Y-42100
X89700Y-43100
X89700Y-44100
X89700Y-45100
X89700Y-46100
X89700Y-47100
X89700Y-48100
X89700Y-49100
X89700Y-50100
X89700Y-51100
X89700Y-52100
X89700Y-53100
X89700Y-54100
X75700Y-42100
X75700Y-43100
X75700Y-44100
X75700Y-45100
X75700Y-46100
X75700Y-47100
X75700Y-48100
X75700Y-49100
X75700Y-50100
X75700Y-51100
X75700Y-52100
X75700Y-53100
X75700Y-54100
X76700Y-42100
X76700Y-43100
X76700Y-44100
X76700Y-45100
X76700Y-46100
X76700Y-47100
X76700Y-48100
X76700Y-49100
X76700Y-50100
X76700Y-51100
X76700Y-52100
X76700Y-53100
X76700Y-54100
T6
X46500Y-56400
X50500Y-56400
T7
X45200Y-52400
X45200Y-54369
X94100Y-37400
X94100Y-39369
X94100Y-41337
X45276Y-12205
X45276Y-14173
T8
X45299Y-37891
X45299Y-44009
T9
X89102Y-38580
X89102Y-57620
X76102Y-38580
X76102Y-57620
X69602Y-38580
X69602Y-57620
X63102Y-38580
X63102Y-57620
X56602Y-38580
X56602Y-57620
X82602Y-38580
X82602Y-57620
T10
X93701Y-9055
X45276Y-9055
X45276Y-58268
X93701Y-58268
T5
G00X45639Y-46128
M15
G01X45049Y-46128
M16
G05
G00X45639Y-49672
M15
G01X45049Y-49672
M16
G05
G00X45738Y-47644
M15
G01X45738Y-48156
M16
G05
G00X48100Y-47506
M15
G01X48100Y-48294
M16
G05
T0
M30
