%TF.GenerationSoftware,KiCad,Pcbnew,(5.1.8)-1*%
%TF.CreationDate,2020-12-04T01:25:42+04:00*%
%TF.ProjectId,6dof_controller,36646f66-5f63-46f6-9e74-726f6c6c6572,ver 1.0*%
%TF.SameCoordinates,Original*%
%TF.FileFunction,Paste,Bot*%
%TF.FilePolarity,Positive*%
%FSLAX46Y46*%
G04 Gerber Fmt 4.6, Leading zero omitted, Abs format (unit mm)*
G04 Created by KiCad (PCBNEW (5.1.8)-1) date 2020-12-04 01:25:42*
%MOMM*%
%LPD*%
G01*
G04 APERTURE LIST*
%ADD10R,0.900000X0.800000*%
G04 APERTURE END LIST*
%TO.C,C14*%
G36*
G01*
X200022000Y-126779000D02*
X200022000Y-127729000D01*
G75*
G02*
X199772000Y-127979000I-250000J0D01*
G01*
X199272000Y-127979000D01*
G75*
G02*
X199022000Y-127729000I0J250000D01*
G01*
X199022000Y-126779000D01*
G75*
G02*
X199272000Y-126529000I250000J0D01*
G01*
X199772000Y-126529000D01*
G75*
G02*
X200022000Y-126779000I0J-250000D01*
G01*
G37*
G36*
G01*
X201922000Y-126779000D02*
X201922000Y-127729000D01*
G75*
G02*
X201672000Y-127979000I-250000J0D01*
G01*
X201172000Y-127979000D01*
G75*
G02*
X200922000Y-127729000I0J250000D01*
G01*
X200922000Y-126779000D01*
G75*
G02*
X201172000Y-126529000I250000J0D01*
G01*
X201672000Y-126529000D01*
G75*
G02*
X201922000Y-126779000I0J-250000D01*
G01*
G37*
%TD*%
%TO.C,C12*%
G36*
G01*
X216532000Y-126779000D02*
X216532000Y-127729000D01*
G75*
G02*
X216282000Y-127979000I-250000J0D01*
G01*
X215782000Y-127979000D01*
G75*
G02*
X215532000Y-127729000I0J250000D01*
G01*
X215532000Y-126779000D01*
G75*
G02*
X215782000Y-126529000I250000J0D01*
G01*
X216282000Y-126529000D01*
G75*
G02*
X216532000Y-126779000I0J-250000D01*
G01*
G37*
G36*
G01*
X218432000Y-126779000D02*
X218432000Y-127729000D01*
G75*
G02*
X218182000Y-127979000I-250000J0D01*
G01*
X217682000Y-127979000D01*
G75*
G02*
X217432000Y-127729000I0J250000D01*
G01*
X217432000Y-126779000D01*
G75*
G02*
X217682000Y-126529000I250000J0D01*
G01*
X218182000Y-126529000D01*
G75*
G02*
X218432000Y-126779000I0J-250000D01*
G01*
G37*
%TD*%
%TO.C,C10*%
G36*
G01*
X183512000Y-126779000D02*
X183512000Y-127729000D01*
G75*
G02*
X183262000Y-127979000I-250000J0D01*
G01*
X182762000Y-127979000D01*
G75*
G02*
X182512000Y-127729000I0J250000D01*
G01*
X182512000Y-126779000D01*
G75*
G02*
X182762000Y-126529000I250000J0D01*
G01*
X183262000Y-126529000D01*
G75*
G02*
X183512000Y-126779000I0J-250000D01*
G01*
G37*
G36*
G01*
X185412000Y-126779000D02*
X185412000Y-127729000D01*
G75*
G02*
X185162000Y-127979000I-250000J0D01*
G01*
X184662000Y-127979000D01*
G75*
G02*
X184412000Y-127729000I0J250000D01*
G01*
X184412000Y-126779000D01*
G75*
G02*
X184662000Y-126529000I250000J0D01*
G01*
X185162000Y-126529000D01*
G75*
G02*
X185412000Y-126779000I0J-250000D01*
G01*
G37*
%TD*%
%TO.C,C8*%
G36*
G01*
X150492000Y-126779000D02*
X150492000Y-127729000D01*
G75*
G02*
X150242000Y-127979000I-250000J0D01*
G01*
X149742000Y-127979000D01*
G75*
G02*
X149492000Y-127729000I0J250000D01*
G01*
X149492000Y-126779000D01*
G75*
G02*
X149742000Y-126529000I250000J0D01*
G01*
X150242000Y-126529000D01*
G75*
G02*
X150492000Y-126779000I0J-250000D01*
G01*
G37*
G36*
G01*
X152392000Y-126779000D02*
X152392000Y-127729000D01*
G75*
G02*
X152142000Y-127979000I-250000J0D01*
G01*
X151642000Y-127979000D01*
G75*
G02*
X151392000Y-127729000I0J250000D01*
G01*
X151392000Y-126779000D01*
G75*
G02*
X151642000Y-126529000I250000J0D01*
G01*
X152142000Y-126529000D01*
G75*
G02*
X152392000Y-126779000I0J-250000D01*
G01*
G37*
%TD*%
%TO.C,C6*%
G36*
G01*
X167002000Y-126779000D02*
X167002000Y-127729000D01*
G75*
G02*
X166752000Y-127979000I-250000J0D01*
G01*
X166252000Y-127979000D01*
G75*
G02*
X166002000Y-127729000I0J250000D01*
G01*
X166002000Y-126779000D01*
G75*
G02*
X166252000Y-126529000I250000J0D01*
G01*
X166752000Y-126529000D01*
G75*
G02*
X167002000Y-126779000I0J-250000D01*
G01*
G37*
G36*
G01*
X168902000Y-126779000D02*
X168902000Y-127729000D01*
G75*
G02*
X168652000Y-127979000I-250000J0D01*
G01*
X168152000Y-127979000D01*
G75*
G02*
X167902000Y-127729000I0J250000D01*
G01*
X167902000Y-126779000D01*
G75*
G02*
X168152000Y-126529000I250000J0D01*
G01*
X168652000Y-126529000D01*
G75*
G02*
X168902000Y-126779000I0J-250000D01*
G01*
G37*
%TD*%
%TO.C,C4*%
G36*
G01*
X133728000Y-126779000D02*
X133728000Y-127729000D01*
G75*
G02*
X133478000Y-127979000I-250000J0D01*
G01*
X132978000Y-127979000D01*
G75*
G02*
X132728000Y-127729000I0J250000D01*
G01*
X132728000Y-126779000D01*
G75*
G02*
X132978000Y-126529000I250000J0D01*
G01*
X133478000Y-126529000D01*
G75*
G02*
X133728000Y-126779000I0J-250000D01*
G01*
G37*
G36*
G01*
X135628000Y-126779000D02*
X135628000Y-127729000D01*
G75*
G02*
X135378000Y-127979000I-250000J0D01*
G01*
X134878000Y-127979000D01*
G75*
G02*
X134628000Y-127729000I0J250000D01*
G01*
X134628000Y-126779000D01*
G75*
G02*
X134878000Y-126529000I250000J0D01*
G01*
X135378000Y-126529000D01*
G75*
G02*
X135628000Y-126779000I0J-250000D01*
G01*
G37*
%TD*%
%TO.C,C16*%
G36*
G01*
X42959000Y-43310000D02*
X43909000Y-43310000D01*
G75*
G02*
X44159000Y-43560000I0J-250000D01*
G01*
X44159000Y-44060000D01*
G75*
G02*
X43909000Y-44310000I-250000J0D01*
G01*
X42959000Y-44310000D01*
G75*
G02*
X42709000Y-44060000I0J250000D01*
G01*
X42709000Y-43560000D01*
G75*
G02*
X42959000Y-43310000I250000J0D01*
G01*
G37*
G36*
G01*
X42959000Y-41410000D02*
X43909000Y-41410000D01*
G75*
G02*
X44159000Y-41660000I0J-250000D01*
G01*
X44159000Y-42160000D01*
G75*
G02*
X43909000Y-42410000I-250000J0D01*
G01*
X42959000Y-42410000D01*
G75*
G02*
X42709000Y-42160000I0J250000D01*
G01*
X42709000Y-41660000D01*
G75*
G02*
X42959000Y-41410000I250000J0D01*
G01*
G37*
%TD*%
D10*
%TO.C,\u002AD5*%
X201962000Y-147386000D03*
X203962000Y-148336000D03*
X203962000Y-146436000D03*
%TD*%
%TO.C,\u002AD6*%
X170910000Y-146116000D03*
X170910000Y-148016000D03*
X168910000Y-147066000D03*
%TD*%
%TO.C,\u002AD7*%
X137890000Y-145928000D03*
X137890000Y-147828000D03*
X135890000Y-146878000D03*
%TD*%
%TO.C,\u002AR5*%
G36*
G01*
X220668002Y-131830500D02*
X219767998Y-131830500D01*
G75*
G02*
X219518000Y-131580502I0J249998D01*
G01*
X219518000Y-131055498D01*
G75*
G02*
X219767998Y-130805500I249998J0D01*
G01*
X220668002Y-130805500D01*
G75*
G02*
X220918000Y-131055498I0J-249998D01*
G01*
X220918000Y-131580502D01*
G75*
G02*
X220668002Y-131830500I-249998J0D01*
G01*
G37*
G36*
G01*
X220668002Y-130005500D02*
X219767998Y-130005500D01*
G75*
G02*
X219518000Y-129755502I0J249998D01*
G01*
X219518000Y-129230498D01*
G75*
G02*
X219767998Y-128980500I249998J0D01*
G01*
X220668002Y-128980500D01*
G75*
G02*
X220918000Y-129230498I0J-249998D01*
G01*
X220918000Y-129755502D01*
G75*
G02*
X220668002Y-130005500I-249998J0D01*
G01*
G37*
%TD*%
%TO.C,\u002AR6*%
G36*
G01*
X203904002Y-129902000D02*
X203003998Y-129902000D01*
G75*
G02*
X202754000Y-129652002I0J249998D01*
G01*
X202754000Y-129126998D01*
G75*
G02*
X203003998Y-128877000I249998J0D01*
G01*
X203904002Y-128877000D01*
G75*
G02*
X204154000Y-129126998I0J-249998D01*
G01*
X204154000Y-129652002D01*
G75*
G02*
X203904002Y-129902000I-249998J0D01*
G01*
G37*
G36*
G01*
X203904002Y-131727000D02*
X203003998Y-131727000D01*
G75*
G02*
X202754000Y-131477002I0J249998D01*
G01*
X202754000Y-130951998D01*
G75*
G02*
X203003998Y-130702000I249998J0D01*
G01*
X203904002Y-130702000D01*
G75*
G02*
X204154000Y-130951998I0J-249998D01*
G01*
X204154000Y-131477002D01*
G75*
G02*
X203904002Y-131727000I-249998J0D01*
G01*
G37*
%TD*%
%TO.C,\u002AR7*%
G36*
G01*
X187394002Y-131877500D02*
X186493998Y-131877500D01*
G75*
G02*
X186244000Y-131627502I0J249998D01*
G01*
X186244000Y-131102498D01*
G75*
G02*
X186493998Y-130852500I249998J0D01*
G01*
X187394002Y-130852500D01*
G75*
G02*
X187644000Y-131102498I0J-249998D01*
G01*
X187644000Y-131627502D01*
G75*
G02*
X187394002Y-131877500I-249998J0D01*
G01*
G37*
G36*
G01*
X187394002Y-130052500D02*
X186493998Y-130052500D01*
G75*
G02*
X186244000Y-129802502I0J249998D01*
G01*
X186244000Y-129277498D01*
G75*
G02*
X186493998Y-129027500I249998J0D01*
G01*
X187394002Y-129027500D01*
G75*
G02*
X187644000Y-129277498I0J-249998D01*
G01*
X187644000Y-129802502D01*
G75*
G02*
X187394002Y-130052500I-249998J0D01*
G01*
G37*
%TD*%
%TO.C,\u002AR8*%
G36*
G01*
X170884002Y-129902000D02*
X169983998Y-129902000D01*
G75*
G02*
X169734000Y-129652002I0J249998D01*
G01*
X169734000Y-129126998D01*
G75*
G02*
X169983998Y-128877000I249998J0D01*
G01*
X170884002Y-128877000D01*
G75*
G02*
X171134000Y-129126998I0J-249998D01*
G01*
X171134000Y-129652002D01*
G75*
G02*
X170884002Y-129902000I-249998J0D01*
G01*
G37*
G36*
G01*
X170884002Y-131727000D02*
X169983998Y-131727000D01*
G75*
G02*
X169734000Y-131477002I0J249998D01*
G01*
X169734000Y-130951998D01*
G75*
G02*
X169983998Y-130702000I249998J0D01*
G01*
X170884002Y-130702000D01*
G75*
G02*
X171134000Y-130951998I0J-249998D01*
G01*
X171134000Y-131477002D01*
G75*
G02*
X170884002Y-131727000I-249998J0D01*
G01*
G37*
%TD*%
%TO.C,\u002AR9*%
G36*
G01*
X154374002Y-131727000D02*
X153473998Y-131727000D01*
G75*
G02*
X153224000Y-131477002I0J249998D01*
G01*
X153224000Y-130951998D01*
G75*
G02*
X153473998Y-130702000I249998J0D01*
G01*
X154374002Y-130702000D01*
G75*
G02*
X154624000Y-130951998I0J-249998D01*
G01*
X154624000Y-131477002D01*
G75*
G02*
X154374002Y-131727000I-249998J0D01*
G01*
G37*
G36*
G01*
X154374002Y-129902000D02*
X153473998Y-129902000D01*
G75*
G02*
X153224000Y-129652002I0J249998D01*
G01*
X153224000Y-129126998D01*
G75*
G02*
X153473998Y-128877000I249998J0D01*
G01*
X154374002Y-128877000D01*
G75*
G02*
X154624000Y-129126998I0J-249998D01*
G01*
X154624000Y-129652002D01*
G75*
G02*
X154374002Y-129902000I-249998J0D01*
G01*
G37*
%TD*%
%TO.C,\u002AR10*%
G36*
G01*
X137864002Y-129902000D02*
X136963998Y-129902000D01*
G75*
G02*
X136714000Y-129652002I0J249998D01*
G01*
X136714000Y-129126998D01*
G75*
G02*
X136963998Y-128877000I249998J0D01*
G01*
X137864002Y-128877000D01*
G75*
G02*
X138114000Y-129126998I0J-249998D01*
G01*
X138114000Y-129652002D01*
G75*
G02*
X137864002Y-129902000I-249998J0D01*
G01*
G37*
G36*
G01*
X137864002Y-131727000D02*
X136963998Y-131727000D01*
G75*
G02*
X136714000Y-131477002I0J249998D01*
G01*
X136714000Y-130951998D01*
G75*
G02*
X136963998Y-130702000I249998J0D01*
G01*
X137864002Y-130702000D01*
G75*
G02*
X138114000Y-130951998I0J-249998D01*
G01*
X138114000Y-131477002D01*
G75*
G02*
X137864002Y-131727000I-249998J0D01*
G01*
G37*
%TD*%
M02*
