%TF.GenerationSoftware,KiCad,Pcbnew,(5.1.8)-1*%
%TF.CreationDate,2020-12-01T03:48:25+04:00*%
%TF.ProjectId,111,3131312e-6b69-4636-9164-5f7063625858,ver 1.0*%
%TF.SameCoordinates,Original*%
%TF.FileFunction,Soldermask,Top*%
%TF.FilePolarity,Negative*%
%FSLAX46Y46*%
G04 Gerber Fmt 4.6, Leading zero omitted, Abs format (unit mm)*
G04 Created by KiCad (PCBNEW (5.1.8)-1) date 2020-12-01 03:48:25*
%MOMM*%
%LPD*%
G01*
G04 APERTURE LIST*
%ADD10R,1.000000X1.500000*%
%ADD11C,0.100000*%
%ADD12C,2.600000*%
%ADD13R,2.600000X2.600000*%
%ADD14C,3.200000*%
%ADD15O,1.600000X1.600000*%
%ADD16R,1.600000X1.600000*%
%ADD17C,1.700000*%
%ADD18C,1.524000*%
%ADD19R,1.524000X1.524000*%
%ADD20C,1.440000*%
%ADD21C,3.000000*%
%ADD22O,1.800000X2.600000*%
%ADD23R,1.800000X2.600000*%
%ADD24R,2.500000X2.300000*%
%ADD25R,2.200000X2.200000*%
%ADD26O,2.200000X2.200000*%
%ADD27C,6.400000*%
%ADD28R,3.500000X3.500000*%
%ADD29C,3.250000*%
%ADD30C,1.500000*%
%ADD31R,1.500000X1.500000*%
%ADD32C,8.000000*%
%ADD33R,1.780000X2.000000*%
G04 APERTURE END LIST*
D10*
%TO.C,JP13*%
X112552000Y-111506000D03*
X111252000Y-111506000D03*
%TD*%
%TO.C,JP12*%
X114778000Y-111506000D03*
X116078000Y-111506000D03*
%TD*%
%TO.C,JP11*%
X112552000Y-106934000D03*
X111252000Y-106934000D03*
%TD*%
%TO.C,JP10*%
X127284000Y-108966000D03*
X125984000Y-108966000D03*
%TD*%
%TO.C,JP9*%
X112522000Y-99568000D03*
X111222000Y-99568000D03*
%TD*%
%TO.C,JP8*%
X103886000Y-96774000D03*
X102586000Y-96774000D03*
%TD*%
D11*
%TO.C,JP7*%
G36*
X108466000Y-110756000D02*
G01*
X108966000Y-110756000D01*
X108966000Y-110756602D01*
X108990534Y-110756602D01*
X109039365Y-110761412D01*
X109087490Y-110770984D01*
X109134445Y-110785228D01*
X109179778Y-110804005D01*
X109223051Y-110827136D01*
X109263850Y-110854396D01*
X109301779Y-110885524D01*
X109336476Y-110920221D01*
X109367604Y-110958150D01*
X109394864Y-110998949D01*
X109417995Y-111042222D01*
X109436772Y-111087555D01*
X109451016Y-111134510D01*
X109460588Y-111182635D01*
X109465398Y-111231466D01*
X109465398Y-111256000D01*
X109466000Y-111256000D01*
X109466000Y-111756000D01*
X109465398Y-111756000D01*
X109465398Y-111780534D01*
X109460588Y-111829365D01*
X109451016Y-111877490D01*
X109436772Y-111924445D01*
X109417995Y-111969778D01*
X109394864Y-112013051D01*
X109367604Y-112053850D01*
X109336476Y-112091779D01*
X109301779Y-112126476D01*
X109263850Y-112157604D01*
X109223051Y-112184864D01*
X109179778Y-112207995D01*
X109134445Y-112226772D01*
X109087490Y-112241016D01*
X109039365Y-112250588D01*
X108990534Y-112255398D01*
X108966000Y-112255398D01*
X108966000Y-112256000D01*
X108466000Y-112256000D01*
X108466000Y-110756000D01*
G37*
G36*
X107666000Y-112255398D02*
G01*
X107641466Y-112255398D01*
X107592635Y-112250588D01*
X107544510Y-112241016D01*
X107497555Y-112226772D01*
X107452222Y-112207995D01*
X107408949Y-112184864D01*
X107368150Y-112157604D01*
X107330221Y-112126476D01*
X107295524Y-112091779D01*
X107264396Y-112053850D01*
X107237136Y-112013051D01*
X107214005Y-111969778D01*
X107195228Y-111924445D01*
X107180984Y-111877490D01*
X107171412Y-111829365D01*
X107166602Y-111780534D01*
X107166602Y-111756000D01*
X107166000Y-111756000D01*
X107166000Y-111256000D01*
X107166602Y-111256000D01*
X107166602Y-111231466D01*
X107171412Y-111182635D01*
X107180984Y-111134510D01*
X107195228Y-111087555D01*
X107214005Y-111042222D01*
X107237136Y-110998949D01*
X107264396Y-110958150D01*
X107295524Y-110920221D01*
X107330221Y-110885524D01*
X107368150Y-110854396D01*
X107408949Y-110827136D01*
X107452222Y-110804005D01*
X107497555Y-110785228D01*
X107544510Y-110770984D01*
X107592635Y-110761412D01*
X107641466Y-110756602D01*
X107666000Y-110756602D01*
X107666000Y-110756000D01*
X108166000Y-110756000D01*
X108166000Y-112256000D01*
X107666000Y-112256000D01*
X107666000Y-112255398D01*
G37*
%TD*%
%TO.C,JP6*%
G36*
X117818000Y-109716000D02*
G01*
X117318000Y-109716000D01*
X117318000Y-109715398D01*
X117293466Y-109715398D01*
X117244635Y-109710588D01*
X117196510Y-109701016D01*
X117149555Y-109686772D01*
X117104222Y-109667995D01*
X117060949Y-109644864D01*
X117020150Y-109617604D01*
X116982221Y-109586476D01*
X116947524Y-109551779D01*
X116916396Y-109513850D01*
X116889136Y-109473051D01*
X116866005Y-109429778D01*
X116847228Y-109384445D01*
X116832984Y-109337490D01*
X116823412Y-109289365D01*
X116818602Y-109240534D01*
X116818602Y-109216000D01*
X116818000Y-109216000D01*
X116818000Y-108716000D01*
X116818602Y-108716000D01*
X116818602Y-108691466D01*
X116823412Y-108642635D01*
X116832984Y-108594510D01*
X116847228Y-108547555D01*
X116866005Y-108502222D01*
X116889136Y-108458949D01*
X116916396Y-108418150D01*
X116947524Y-108380221D01*
X116982221Y-108345524D01*
X117020150Y-108314396D01*
X117060949Y-108287136D01*
X117104222Y-108264005D01*
X117149555Y-108245228D01*
X117196510Y-108230984D01*
X117244635Y-108221412D01*
X117293466Y-108216602D01*
X117318000Y-108216602D01*
X117318000Y-108216000D01*
X117818000Y-108216000D01*
X117818000Y-109716000D01*
G37*
G36*
X118618000Y-108216602D02*
G01*
X118642534Y-108216602D01*
X118691365Y-108221412D01*
X118739490Y-108230984D01*
X118786445Y-108245228D01*
X118831778Y-108264005D01*
X118875051Y-108287136D01*
X118915850Y-108314396D01*
X118953779Y-108345524D01*
X118988476Y-108380221D01*
X119019604Y-108418150D01*
X119046864Y-108458949D01*
X119069995Y-108502222D01*
X119088772Y-108547555D01*
X119103016Y-108594510D01*
X119112588Y-108642635D01*
X119117398Y-108691466D01*
X119117398Y-108716000D01*
X119118000Y-108716000D01*
X119118000Y-109216000D01*
X119117398Y-109216000D01*
X119117398Y-109240534D01*
X119112588Y-109289365D01*
X119103016Y-109337490D01*
X119088772Y-109384445D01*
X119069995Y-109429778D01*
X119046864Y-109473051D01*
X119019604Y-109513850D01*
X118988476Y-109551779D01*
X118953779Y-109586476D01*
X118915850Y-109617604D01*
X118875051Y-109644864D01*
X118831778Y-109667995D01*
X118786445Y-109686772D01*
X118739490Y-109701016D01*
X118691365Y-109710588D01*
X118642534Y-109715398D01*
X118618000Y-109715398D01*
X118618000Y-109716000D01*
X118118000Y-109716000D01*
X118118000Y-108216000D01*
X118618000Y-108216000D01*
X118618000Y-108216602D01*
G37*
%TD*%
%TO.C,JP5*%
G36*
X108466000Y-106184000D02*
G01*
X108966000Y-106184000D01*
X108966000Y-106184602D01*
X108990534Y-106184602D01*
X109039365Y-106189412D01*
X109087490Y-106198984D01*
X109134445Y-106213228D01*
X109179778Y-106232005D01*
X109223051Y-106255136D01*
X109263850Y-106282396D01*
X109301779Y-106313524D01*
X109336476Y-106348221D01*
X109367604Y-106386150D01*
X109394864Y-106426949D01*
X109417995Y-106470222D01*
X109436772Y-106515555D01*
X109451016Y-106562510D01*
X109460588Y-106610635D01*
X109465398Y-106659466D01*
X109465398Y-106684000D01*
X109466000Y-106684000D01*
X109466000Y-107184000D01*
X109465398Y-107184000D01*
X109465398Y-107208534D01*
X109460588Y-107257365D01*
X109451016Y-107305490D01*
X109436772Y-107352445D01*
X109417995Y-107397778D01*
X109394864Y-107441051D01*
X109367604Y-107481850D01*
X109336476Y-107519779D01*
X109301779Y-107554476D01*
X109263850Y-107585604D01*
X109223051Y-107612864D01*
X109179778Y-107635995D01*
X109134445Y-107654772D01*
X109087490Y-107669016D01*
X109039365Y-107678588D01*
X108990534Y-107683398D01*
X108966000Y-107683398D01*
X108966000Y-107684000D01*
X108466000Y-107684000D01*
X108466000Y-106184000D01*
G37*
G36*
X107666000Y-107683398D02*
G01*
X107641466Y-107683398D01*
X107592635Y-107678588D01*
X107544510Y-107669016D01*
X107497555Y-107654772D01*
X107452222Y-107635995D01*
X107408949Y-107612864D01*
X107368150Y-107585604D01*
X107330221Y-107554476D01*
X107295524Y-107519779D01*
X107264396Y-107481850D01*
X107237136Y-107441051D01*
X107214005Y-107397778D01*
X107195228Y-107352445D01*
X107180984Y-107305490D01*
X107171412Y-107257365D01*
X107166602Y-107208534D01*
X107166602Y-107184000D01*
X107166000Y-107184000D01*
X107166000Y-106684000D01*
X107166602Y-106684000D01*
X107166602Y-106659466D01*
X107171412Y-106610635D01*
X107180984Y-106562510D01*
X107195228Y-106515555D01*
X107214005Y-106470222D01*
X107237136Y-106426949D01*
X107264396Y-106386150D01*
X107295524Y-106348221D01*
X107330221Y-106313524D01*
X107368150Y-106282396D01*
X107408949Y-106255136D01*
X107452222Y-106232005D01*
X107497555Y-106213228D01*
X107544510Y-106198984D01*
X107592635Y-106189412D01*
X107641466Y-106184602D01*
X107666000Y-106184602D01*
X107666000Y-106184000D01*
X108166000Y-106184000D01*
X108166000Y-107684000D01*
X107666000Y-107684000D01*
X107666000Y-107683398D01*
G37*
%TD*%
%TO.C,JP4*%
G36*
X122974000Y-108216000D02*
G01*
X123474000Y-108216000D01*
X123474000Y-108216602D01*
X123498534Y-108216602D01*
X123547365Y-108221412D01*
X123595490Y-108230984D01*
X123642445Y-108245228D01*
X123687778Y-108264005D01*
X123731051Y-108287136D01*
X123771850Y-108314396D01*
X123809779Y-108345524D01*
X123844476Y-108380221D01*
X123875604Y-108418150D01*
X123902864Y-108458949D01*
X123925995Y-108502222D01*
X123944772Y-108547555D01*
X123959016Y-108594510D01*
X123968588Y-108642635D01*
X123973398Y-108691466D01*
X123973398Y-108716000D01*
X123974000Y-108716000D01*
X123974000Y-109216000D01*
X123973398Y-109216000D01*
X123973398Y-109240534D01*
X123968588Y-109289365D01*
X123959016Y-109337490D01*
X123944772Y-109384445D01*
X123925995Y-109429778D01*
X123902864Y-109473051D01*
X123875604Y-109513850D01*
X123844476Y-109551779D01*
X123809779Y-109586476D01*
X123771850Y-109617604D01*
X123731051Y-109644864D01*
X123687778Y-109667995D01*
X123642445Y-109686772D01*
X123595490Y-109701016D01*
X123547365Y-109710588D01*
X123498534Y-109715398D01*
X123474000Y-109715398D01*
X123474000Y-109716000D01*
X122974000Y-109716000D01*
X122974000Y-108216000D01*
G37*
G36*
X122174000Y-109715398D02*
G01*
X122149466Y-109715398D01*
X122100635Y-109710588D01*
X122052510Y-109701016D01*
X122005555Y-109686772D01*
X121960222Y-109667995D01*
X121916949Y-109644864D01*
X121876150Y-109617604D01*
X121838221Y-109586476D01*
X121803524Y-109551779D01*
X121772396Y-109513850D01*
X121745136Y-109473051D01*
X121722005Y-109429778D01*
X121703228Y-109384445D01*
X121688984Y-109337490D01*
X121679412Y-109289365D01*
X121674602Y-109240534D01*
X121674602Y-109216000D01*
X121674000Y-109216000D01*
X121674000Y-108716000D01*
X121674602Y-108716000D01*
X121674602Y-108691466D01*
X121679412Y-108642635D01*
X121688984Y-108594510D01*
X121703228Y-108547555D01*
X121722005Y-108502222D01*
X121745136Y-108458949D01*
X121772396Y-108418150D01*
X121803524Y-108380221D01*
X121838221Y-108345524D01*
X121876150Y-108314396D01*
X121916949Y-108287136D01*
X121960222Y-108264005D01*
X122005555Y-108245228D01*
X122052510Y-108230984D01*
X122100635Y-108221412D01*
X122149466Y-108216602D01*
X122174000Y-108216602D01*
X122174000Y-108216000D01*
X122674000Y-108216000D01*
X122674000Y-109716000D01*
X122174000Y-109716000D01*
X122174000Y-109715398D01*
G37*
%TD*%
%TO.C,JP3*%
G36*
X108466000Y-98818000D02*
G01*
X108966000Y-98818000D01*
X108966000Y-98818602D01*
X108990534Y-98818602D01*
X109039365Y-98823412D01*
X109087490Y-98832984D01*
X109134445Y-98847228D01*
X109179778Y-98866005D01*
X109223051Y-98889136D01*
X109263850Y-98916396D01*
X109301779Y-98947524D01*
X109336476Y-98982221D01*
X109367604Y-99020150D01*
X109394864Y-99060949D01*
X109417995Y-99104222D01*
X109436772Y-99149555D01*
X109451016Y-99196510D01*
X109460588Y-99244635D01*
X109465398Y-99293466D01*
X109465398Y-99318000D01*
X109466000Y-99318000D01*
X109466000Y-99818000D01*
X109465398Y-99818000D01*
X109465398Y-99842534D01*
X109460588Y-99891365D01*
X109451016Y-99939490D01*
X109436772Y-99986445D01*
X109417995Y-100031778D01*
X109394864Y-100075051D01*
X109367604Y-100115850D01*
X109336476Y-100153779D01*
X109301779Y-100188476D01*
X109263850Y-100219604D01*
X109223051Y-100246864D01*
X109179778Y-100269995D01*
X109134445Y-100288772D01*
X109087490Y-100303016D01*
X109039365Y-100312588D01*
X108990534Y-100317398D01*
X108966000Y-100317398D01*
X108966000Y-100318000D01*
X108466000Y-100318000D01*
X108466000Y-98818000D01*
G37*
G36*
X107666000Y-100317398D02*
G01*
X107641466Y-100317398D01*
X107592635Y-100312588D01*
X107544510Y-100303016D01*
X107497555Y-100288772D01*
X107452222Y-100269995D01*
X107408949Y-100246864D01*
X107368150Y-100219604D01*
X107330221Y-100188476D01*
X107295524Y-100153779D01*
X107264396Y-100115850D01*
X107237136Y-100075051D01*
X107214005Y-100031778D01*
X107195228Y-99986445D01*
X107180984Y-99939490D01*
X107171412Y-99891365D01*
X107166602Y-99842534D01*
X107166602Y-99818000D01*
X107166000Y-99818000D01*
X107166000Y-99318000D01*
X107166602Y-99318000D01*
X107166602Y-99293466D01*
X107171412Y-99244635D01*
X107180984Y-99196510D01*
X107195228Y-99149555D01*
X107214005Y-99104222D01*
X107237136Y-99060949D01*
X107264396Y-99020150D01*
X107295524Y-98982221D01*
X107330221Y-98947524D01*
X107368150Y-98916396D01*
X107408949Y-98889136D01*
X107452222Y-98866005D01*
X107497555Y-98847228D01*
X107544510Y-98832984D01*
X107592635Y-98823412D01*
X107641466Y-98818602D01*
X107666000Y-98818602D01*
X107666000Y-98818000D01*
X108166000Y-98818000D01*
X108166000Y-100318000D01*
X107666000Y-100318000D01*
X107666000Y-100317398D01*
G37*
%TD*%
%TO.C,JP2*%
G36*
X99860000Y-96024000D02*
G01*
X100360000Y-96024000D01*
X100360000Y-96024602D01*
X100384534Y-96024602D01*
X100433365Y-96029412D01*
X100481490Y-96038984D01*
X100528445Y-96053228D01*
X100573778Y-96072005D01*
X100617051Y-96095136D01*
X100657850Y-96122396D01*
X100695779Y-96153524D01*
X100730476Y-96188221D01*
X100761604Y-96226150D01*
X100788864Y-96266949D01*
X100811995Y-96310222D01*
X100830772Y-96355555D01*
X100845016Y-96402510D01*
X100854588Y-96450635D01*
X100859398Y-96499466D01*
X100859398Y-96524000D01*
X100860000Y-96524000D01*
X100860000Y-97024000D01*
X100859398Y-97024000D01*
X100859398Y-97048534D01*
X100854588Y-97097365D01*
X100845016Y-97145490D01*
X100830772Y-97192445D01*
X100811995Y-97237778D01*
X100788864Y-97281051D01*
X100761604Y-97321850D01*
X100730476Y-97359779D01*
X100695779Y-97394476D01*
X100657850Y-97425604D01*
X100617051Y-97452864D01*
X100573778Y-97475995D01*
X100528445Y-97494772D01*
X100481490Y-97509016D01*
X100433365Y-97518588D01*
X100384534Y-97523398D01*
X100360000Y-97523398D01*
X100360000Y-97524000D01*
X99860000Y-97524000D01*
X99860000Y-96024000D01*
G37*
G36*
X99060000Y-97523398D02*
G01*
X99035466Y-97523398D01*
X98986635Y-97518588D01*
X98938510Y-97509016D01*
X98891555Y-97494772D01*
X98846222Y-97475995D01*
X98802949Y-97452864D01*
X98762150Y-97425604D01*
X98724221Y-97394476D01*
X98689524Y-97359779D01*
X98658396Y-97321850D01*
X98631136Y-97281051D01*
X98608005Y-97237778D01*
X98589228Y-97192445D01*
X98574984Y-97145490D01*
X98565412Y-97097365D01*
X98560602Y-97048534D01*
X98560602Y-97024000D01*
X98560000Y-97024000D01*
X98560000Y-96524000D01*
X98560602Y-96524000D01*
X98560602Y-96499466D01*
X98565412Y-96450635D01*
X98574984Y-96402510D01*
X98589228Y-96355555D01*
X98608005Y-96310222D01*
X98631136Y-96266949D01*
X98658396Y-96226150D01*
X98689524Y-96188221D01*
X98724221Y-96153524D01*
X98762150Y-96122396D01*
X98802949Y-96095136D01*
X98846222Y-96072005D01*
X98891555Y-96053228D01*
X98938510Y-96038984D01*
X98986635Y-96029412D01*
X99035466Y-96024602D01*
X99060000Y-96024602D01*
X99060000Y-96024000D01*
X99560000Y-96024000D01*
X99560000Y-97524000D01*
X99060000Y-97524000D01*
X99060000Y-97523398D01*
G37*
%TD*%
D12*
%TO.C,\u002AJ2*%
X22606000Y-34798000D03*
D13*
X22606000Y-29798000D03*
%TD*%
D14*
%TO.C,\u002AXA1*%
X178054000Y-61214000D03*
X178054000Y-33274000D03*
X228854000Y-18034000D03*
X230124000Y-66294000D03*
D15*
X183134000Y-18034000D03*
X180594000Y-18034000D03*
X220214000Y-18034000D03*
X180594000Y-66294000D03*
X217674000Y-18034000D03*
X183134000Y-66294000D03*
X215134000Y-18034000D03*
X185674000Y-66294000D03*
X212594000Y-18034000D03*
X188214000Y-66294000D03*
X210054000Y-18034000D03*
X190754000Y-66294000D03*
X207514000Y-18034000D03*
X193294000Y-66294000D03*
X204974000Y-18034000D03*
X198374000Y-66294000D03*
X202434000Y-18034000D03*
X200914000Y-66294000D03*
X198374000Y-18034000D03*
X203454000Y-66294000D03*
X195834000Y-18034000D03*
X205994000Y-66294000D03*
X193294000Y-18034000D03*
X208534000Y-66294000D03*
X190754000Y-18034000D03*
X211074000Y-66294000D03*
X188214000Y-18034000D03*
X213614000Y-66294000D03*
X185674000Y-18034000D03*
D16*
X216154000Y-66294000D03*
D15*
X222754000Y-18034000D03*
X225294000Y-18034000D03*
%TD*%
%TO.C,U5*%
X154686000Y-61976000D03*
X162306000Y-28956000D03*
X154686000Y-59436000D03*
X162306000Y-31496000D03*
X154686000Y-56896000D03*
X162306000Y-34036000D03*
X154686000Y-54356000D03*
X162306000Y-36576000D03*
X154686000Y-51816000D03*
X162306000Y-39116000D03*
X154686000Y-49276000D03*
X162306000Y-41656000D03*
X154686000Y-46736000D03*
X162306000Y-44196000D03*
X154686000Y-44196000D03*
X162306000Y-46736000D03*
X154686000Y-41656000D03*
X162306000Y-49276000D03*
X154686000Y-39116000D03*
X162306000Y-51816000D03*
X154686000Y-36576000D03*
X162306000Y-54356000D03*
X154686000Y-34036000D03*
X162306000Y-56896000D03*
X154686000Y-31496000D03*
X162306000Y-59436000D03*
X154686000Y-28956000D03*
D16*
X162306000Y-61976000D03*
%TD*%
%TO.C,J12*%
G36*
G01*
X234608000Y-115154000D02*
X234608000Y-113954000D01*
G75*
G02*
X234858000Y-113704000I250000J0D01*
G01*
X236058000Y-113704000D01*
G75*
G02*
X236308000Y-113954000I0J-250000D01*
G01*
X236308000Y-115154000D01*
G75*
G02*
X236058000Y-115404000I-250000J0D01*
G01*
X234858000Y-115404000D01*
G75*
G02*
X234608000Y-115154000I0J250000D01*
G01*
G37*
D17*
X235458000Y-117094000D03*
X235458000Y-119634000D03*
X235458000Y-122174000D03*
X235458000Y-124714000D03*
X237998000Y-114554000D03*
X237998000Y-117094000D03*
X237998000Y-119634000D03*
X237998000Y-122174000D03*
X237998000Y-124714000D03*
%TD*%
D15*
%TO.C,U3*%
X47244000Y-62992000D03*
X54864000Y-29972000D03*
X47244000Y-60452000D03*
X54864000Y-32512000D03*
X47244000Y-57912000D03*
X54864000Y-35052000D03*
X47244000Y-55372000D03*
X54864000Y-37592000D03*
X47244000Y-52832000D03*
X54864000Y-40132000D03*
X47244000Y-50292000D03*
X54864000Y-42672000D03*
X47244000Y-47752000D03*
X54864000Y-45212000D03*
X47244000Y-45212000D03*
X54864000Y-47752000D03*
X47244000Y-42672000D03*
X54864000Y-50292000D03*
X47244000Y-40132000D03*
X54864000Y-52832000D03*
X47244000Y-37592000D03*
X54864000Y-55372000D03*
X47244000Y-35052000D03*
X54864000Y-57912000D03*
X47244000Y-32512000D03*
X54864000Y-60452000D03*
X47244000Y-29972000D03*
D16*
X54864000Y-62992000D03*
%TD*%
D18*
%TO.C,U2*%
X198628000Y-30480000D03*
X201168000Y-30480000D03*
X203708000Y-30480000D03*
X206248000Y-30480000D03*
X208788000Y-30480000D03*
X211328000Y-30480000D03*
X213868000Y-30480000D03*
X216408000Y-30480000D03*
X218948000Y-30480000D03*
X221488000Y-30480000D03*
X224028000Y-30480000D03*
X226568000Y-30480000D03*
X229108000Y-30480000D03*
X231648000Y-30480000D03*
X234188000Y-30480000D03*
X234188000Y-55880000D03*
X231648000Y-55880000D03*
X229108000Y-55880000D03*
X226568000Y-55880000D03*
X224028000Y-55880000D03*
X221488000Y-55880000D03*
X218948000Y-55880000D03*
X216408000Y-55880000D03*
X213868000Y-55880000D03*
X211328000Y-55880000D03*
X208788000Y-55880000D03*
X206248000Y-55880000D03*
X203708000Y-55880000D03*
X201168000Y-55880000D03*
D19*
X198628000Y-55880000D03*
%TD*%
D20*
%TO.C,RV1*%
X51308000Y-22860000D03*
X53848000Y-20320000D03*
X56388000Y-22860000D03*
%TD*%
D11*
%TO.C,JP1*%
G36*
X69858000Y-88404000D02*
G01*
X70358000Y-88404000D01*
X70358000Y-88404602D01*
X70382534Y-88404602D01*
X70431365Y-88409412D01*
X70479490Y-88418984D01*
X70526445Y-88433228D01*
X70571778Y-88452005D01*
X70615051Y-88475136D01*
X70655850Y-88502396D01*
X70693779Y-88533524D01*
X70728476Y-88568221D01*
X70759604Y-88606150D01*
X70786864Y-88646949D01*
X70809995Y-88690222D01*
X70828772Y-88735555D01*
X70843016Y-88782510D01*
X70852588Y-88830635D01*
X70857398Y-88879466D01*
X70857398Y-88904000D01*
X70858000Y-88904000D01*
X70858000Y-89404000D01*
X70857398Y-89404000D01*
X70857398Y-89428534D01*
X70852588Y-89477365D01*
X70843016Y-89525490D01*
X70828772Y-89572445D01*
X70809995Y-89617778D01*
X70786864Y-89661051D01*
X70759604Y-89701850D01*
X70728476Y-89739779D01*
X70693779Y-89774476D01*
X70655850Y-89805604D01*
X70615051Y-89832864D01*
X70571778Y-89855995D01*
X70526445Y-89874772D01*
X70479490Y-89889016D01*
X70431365Y-89898588D01*
X70382534Y-89903398D01*
X70358000Y-89903398D01*
X70358000Y-89904000D01*
X69858000Y-89904000D01*
X69858000Y-88404000D01*
G37*
G36*
X69058000Y-89903398D02*
G01*
X69033466Y-89903398D01*
X68984635Y-89898588D01*
X68936510Y-89889016D01*
X68889555Y-89874772D01*
X68844222Y-89855995D01*
X68800949Y-89832864D01*
X68760150Y-89805604D01*
X68722221Y-89774476D01*
X68687524Y-89739779D01*
X68656396Y-89701850D01*
X68629136Y-89661051D01*
X68606005Y-89617778D01*
X68587228Y-89572445D01*
X68572984Y-89525490D01*
X68563412Y-89477365D01*
X68558602Y-89428534D01*
X68558602Y-89404000D01*
X68558000Y-89404000D01*
X68558000Y-88904000D01*
X68558602Y-88904000D01*
X68558602Y-88879466D01*
X68563412Y-88830635D01*
X68572984Y-88782510D01*
X68587228Y-88735555D01*
X68606005Y-88690222D01*
X68629136Y-88646949D01*
X68656396Y-88606150D01*
X68687524Y-88568221D01*
X68722221Y-88533524D01*
X68760150Y-88502396D01*
X68800949Y-88475136D01*
X68844222Y-88452005D01*
X68889555Y-88433228D01*
X68936510Y-88418984D01*
X68984635Y-88409412D01*
X69033466Y-88404602D01*
X69058000Y-88404602D01*
X69058000Y-88404000D01*
X69558000Y-88404000D01*
X69558000Y-89904000D01*
X69058000Y-89904000D01*
X69058000Y-89903398D01*
G37*
%TD*%
D21*
%TO.C,DS1*%
X136556000Y-18034000D03*
X136555480Y-49034700D03*
X61556900Y-49034700D03*
X61556900Y-18034000D03*
D22*
X105156000Y-18034000D03*
X102616000Y-18034000D03*
X100076000Y-18034000D03*
X97536000Y-18034000D03*
X94996000Y-18034000D03*
X92456000Y-18034000D03*
X89916000Y-18034000D03*
X87376000Y-18034000D03*
X84836000Y-18034000D03*
X82296000Y-18034000D03*
X79756000Y-18034000D03*
X77216000Y-18034000D03*
X74676000Y-18034000D03*
X72136000Y-18034000D03*
X69596000Y-18034000D03*
D23*
X67056000Y-18034000D03*
%TD*%
%TO.C,C1*%
G36*
G01*
X229348000Y-59902000D02*
X229348000Y-61002000D01*
G75*
G02*
X229098000Y-61252000I-250000J0D01*
G01*
X226998000Y-61252000D01*
G75*
G02*
X226748000Y-61002000I0J250000D01*
G01*
X226748000Y-59902000D01*
G75*
G02*
X226998000Y-59652000I250000J0D01*
G01*
X229098000Y-59652000D01*
G75*
G02*
X229348000Y-59902000I0J-250000D01*
G01*
G37*
G36*
G01*
X232948000Y-59902000D02*
X232948000Y-61002000D01*
G75*
G02*
X232698000Y-61252000I-250000J0D01*
G01*
X230598000Y-61252000D01*
G75*
G02*
X230348000Y-61002000I0J250000D01*
G01*
X230348000Y-59902000D01*
G75*
G02*
X230598000Y-59652000I250000J0D01*
G01*
X232698000Y-59652000D01*
G75*
G02*
X232948000Y-59902000I0J-250000D01*
G01*
G37*
%TD*%
%TO.C,C2*%
G36*
G01*
X50262000Y-132630000D02*
X50262000Y-131530000D01*
G75*
G02*
X50512000Y-131280000I250000J0D01*
G01*
X52612000Y-131280000D01*
G75*
G02*
X52862000Y-131530000I0J-250000D01*
G01*
X52862000Y-132630000D01*
G75*
G02*
X52612000Y-132880000I-250000J0D01*
G01*
X50512000Y-132880000D01*
G75*
G02*
X50262000Y-132630000I0J250000D01*
G01*
G37*
G36*
G01*
X53862000Y-132630000D02*
X53862000Y-131530000D01*
G75*
G02*
X54112000Y-131280000I250000J0D01*
G01*
X56212000Y-131280000D01*
G75*
G02*
X56462000Y-131530000I0J-250000D01*
G01*
X56462000Y-132630000D01*
G75*
G02*
X56212000Y-132880000I-250000J0D01*
G01*
X54112000Y-132880000D01*
G75*
G02*
X53862000Y-132630000I0J250000D01*
G01*
G37*
%TD*%
%TO.C,C3*%
G36*
G01*
X142960000Y-42178000D02*
X144060000Y-42178000D01*
G75*
G02*
X144310000Y-42428000I0J-250000D01*
G01*
X144310000Y-44528000D01*
G75*
G02*
X144060000Y-44778000I-250000J0D01*
G01*
X142960000Y-44778000D01*
G75*
G02*
X142710000Y-44528000I0J250000D01*
G01*
X142710000Y-42428000D01*
G75*
G02*
X142960000Y-42178000I250000J0D01*
G01*
G37*
G36*
G01*
X142960000Y-38578000D02*
X144060000Y-38578000D01*
G75*
G02*
X144310000Y-38828000I0J-250000D01*
G01*
X144310000Y-40928000D01*
G75*
G02*
X144060000Y-41178000I-250000J0D01*
G01*
X142960000Y-41178000D01*
G75*
G02*
X142710000Y-40928000I0J250000D01*
G01*
X142710000Y-38828000D01*
G75*
G02*
X142960000Y-38578000I250000J0D01*
G01*
G37*
%TD*%
%TO.C,C4*%
G36*
G01*
X39836000Y-36292000D02*
X40936000Y-36292000D01*
G75*
G02*
X41186000Y-36542000I0J-250000D01*
G01*
X41186000Y-38642000D01*
G75*
G02*
X40936000Y-38892000I-250000J0D01*
G01*
X39836000Y-38892000D01*
G75*
G02*
X39586000Y-38642000I0J250000D01*
G01*
X39586000Y-36542000D01*
G75*
G02*
X39836000Y-36292000I250000J0D01*
G01*
G37*
G36*
G01*
X39836000Y-39892000D02*
X40936000Y-39892000D01*
G75*
G02*
X41186000Y-40142000I0J-250000D01*
G01*
X41186000Y-42242000D01*
G75*
G02*
X40936000Y-42492000I-250000J0D01*
G01*
X39836000Y-42492000D01*
G75*
G02*
X39586000Y-42242000I0J250000D01*
G01*
X39586000Y-40142000D01*
G75*
G02*
X39836000Y-39892000I250000J0D01*
G01*
G37*
%TD*%
%TO.C,C6*%
G36*
G01*
X171884000Y-89958000D02*
X171884000Y-88858000D01*
G75*
G02*
X172134000Y-88608000I250000J0D01*
G01*
X174234000Y-88608000D01*
G75*
G02*
X174484000Y-88858000I0J-250000D01*
G01*
X174484000Y-89958000D01*
G75*
G02*
X174234000Y-90208000I-250000J0D01*
G01*
X172134000Y-90208000D01*
G75*
G02*
X171884000Y-89958000I0J250000D01*
G01*
G37*
G36*
G01*
X175484000Y-89958000D02*
X175484000Y-88858000D01*
G75*
G02*
X175734000Y-88608000I250000J0D01*
G01*
X177834000Y-88608000D01*
G75*
G02*
X178084000Y-88858000I0J-250000D01*
G01*
X178084000Y-89958000D01*
G75*
G02*
X177834000Y-90208000I-250000J0D01*
G01*
X175734000Y-90208000D01*
G75*
G02*
X175484000Y-89958000I0J250000D01*
G01*
G37*
%TD*%
%TO.C,C7*%
G36*
G01*
X50830000Y-94700000D02*
X50830000Y-95800000D01*
G75*
G02*
X50580000Y-96050000I-250000J0D01*
G01*
X48480000Y-96050000D01*
G75*
G02*
X48230000Y-95800000I0J250000D01*
G01*
X48230000Y-94700000D01*
G75*
G02*
X48480000Y-94450000I250000J0D01*
G01*
X50580000Y-94450000D01*
G75*
G02*
X50830000Y-94700000I0J-250000D01*
G01*
G37*
G36*
G01*
X54430000Y-94700000D02*
X54430000Y-95800000D01*
G75*
G02*
X54180000Y-96050000I-250000J0D01*
G01*
X52080000Y-96050000D01*
G75*
G02*
X51830000Y-95800000I0J250000D01*
G01*
X51830000Y-94700000D01*
G75*
G02*
X52080000Y-94450000I250000J0D01*
G01*
X54180000Y-94450000D01*
G75*
G02*
X54430000Y-94700000I0J-250000D01*
G01*
G37*
%TD*%
%TO.C,C8*%
G36*
G01*
X209266000Y-90466000D02*
X209266000Y-89366000D01*
G75*
G02*
X209516000Y-89116000I250000J0D01*
G01*
X211616000Y-89116000D01*
G75*
G02*
X211866000Y-89366000I0J-250000D01*
G01*
X211866000Y-90466000D01*
G75*
G02*
X211616000Y-90716000I-250000J0D01*
G01*
X209516000Y-90716000D01*
G75*
G02*
X209266000Y-90466000I0J250000D01*
G01*
G37*
G36*
G01*
X205666000Y-90466000D02*
X205666000Y-89366000D01*
G75*
G02*
X205916000Y-89116000I250000J0D01*
G01*
X208016000Y-89116000D01*
G75*
G02*
X208266000Y-89366000I0J-250000D01*
G01*
X208266000Y-90466000D01*
G75*
G02*
X208016000Y-90716000I-250000J0D01*
G01*
X205916000Y-90716000D01*
G75*
G02*
X205666000Y-90466000I0J250000D01*
G01*
G37*
%TD*%
%TO.C,\u002AD2*%
G36*
G01*
X130322500Y-60400250D02*
X130322500Y-59487750D01*
G75*
G02*
X130566250Y-59244000I243750J0D01*
G01*
X131053750Y-59244000D01*
G75*
G02*
X131297500Y-59487750I0J-243750D01*
G01*
X131297500Y-60400250D01*
G75*
G02*
X131053750Y-60644000I-243750J0D01*
G01*
X130566250Y-60644000D01*
G75*
G02*
X130322500Y-60400250I0J243750D01*
G01*
G37*
G36*
G01*
X128447500Y-60400250D02*
X128447500Y-59487750D01*
G75*
G02*
X128691250Y-59244000I243750J0D01*
G01*
X129178750Y-59244000D01*
G75*
G02*
X129422500Y-59487750I0J-243750D01*
G01*
X129422500Y-60400250D01*
G75*
G02*
X129178750Y-60644000I-243750J0D01*
G01*
X128691250Y-60644000D01*
G75*
G02*
X128447500Y-60400250I0J243750D01*
G01*
G37*
%TD*%
D24*
%TO.C,\u002AD3*%
X41402000Y-22098000D03*
X37102000Y-22098000D03*
%TD*%
%TO.C,\u002AD4*%
G36*
G01*
X237977500Y-87681750D02*
X237977500Y-88594250D01*
G75*
G02*
X237733750Y-88838000I-243750J0D01*
G01*
X237246250Y-88838000D01*
G75*
G02*
X237002500Y-88594250I0J243750D01*
G01*
X237002500Y-87681750D01*
G75*
G02*
X237246250Y-87438000I243750J0D01*
G01*
X237733750Y-87438000D01*
G75*
G02*
X237977500Y-87681750I0J-243750D01*
G01*
G37*
G36*
G01*
X236102500Y-87681750D02*
X236102500Y-88594250D01*
G75*
G02*
X235858750Y-88838000I-243750J0D01*
G01*
X235371250Y-88838000D01*
G75*
G02*
X235127500Y-88594250I0J243750D01*
G01*
X235127500Y-87681750D01*
G75*
G02*
X235371250Y-87438000I243750J0D01*
G01*
X235858750Y-87438000D01*
G75*
G02*
X236102500Y-87681750I0J-243750D01*
G01*
G37*
%TD*%
%TO.C,D5*%
G36*
G01*
X78688250Y-94116500D02*
X77775750Y-94116500D01*
G75*
G02*
X77532000Y-93872750I0J243750D01*
G01*
X77532000Y-93385250D01*
G75*
G02*
X77775750Y-93141500I243750J0D01*
G01*
X78688250Y-93141500D01*
G75*
G02*
X78932000Y-93385250I0J-243750D01*
G01*
X78932000Y-93872750D01*
G75*
G02*
X78688250Y-94116500I-243750J0D01*
G01*
G37*
G36*
G01*
X78688250Y-95991500D02*
X77775750Y-95991500D01*
G75*
G02*
X77532000Y-95747750I0J243750D01*
G01*
X77532000Y-95260250D01*
G75*
G02*
X77775750Y-95016500I243750J0D01*
G01*
X78688250Y-95016500D01*
G75*
G02*
X78932000Y-95260250I0J-243750D01*
G01*
X78932000Y-95747750D01*
G75*
G02*
X78688250Y-95991500I-243750J0D01*
G01*
G37*
%TD*%
%TO.C,\u002AD6*%
G36*
G01*
X128447500Y-68782250D02*
X128447500Y-67869750D01*
G75*
G02*
X128691250Y-67626000I243750J0D01*
G01*
X129178750Y-67626000D01*
G75*
G02*
X129422500Y-67869750I0J-243750D01*
G01*
X129422500Y-68782250D01*
G75*
G02*
X129178750Y-69026000I-243750J0D01*
G01*
X128691250Y-69026000D01*
G75*
G02*
X128447500Y-68782250I0J243750D01*
G01*
G37*
G36*
G01*
X130322500Y-68782250D02*
X130322500Y-67869750D01*
G75*
G02*
X130566250Y-67626000I243750J0D01*
G01*
X131053750Y-67626000D01*
G75*
G02*
X131297500Y-67869750I0J-243750D01*
G01*
X131297500Y-68782250D01*
G75*
G02*
X131053750Y-69026000I-243750J0D01*
G01*
X130566250Y-69026000D01*
G75*
G02*
X130322500Y-68782250I0J243750D01*
G01*
G37*
%TD*%
D25*
%TO.C,D7*%
X46736000Y-138176000D03*
D26*
X36576000Y-138176000D03*
%TD*%
D24*
%TO.C,\u002AD9*%
X55862000Y-138176000D03*
X51562000Y-138176000D03*
%TD*%
%TO.C,D11*%
G36*
G01*
X75458500Y-152348250D02*
X75458500Y-151435750D01*
G75*
G02*
X75702250Y-151192000I243750J0D01*
G01*
X76189750Y-151192000D01*
G75*
G02*
X76433500Y-151435750I0J-243750D01*
G01*
X76433500Y-152348250D01*
G75*
G02*
X76189750Y-152592000I-243750J0D01*
G01*
X75702250Y-152592000D01*
G75*
G02*
X75458500Y-152348250I0J243750D01*
G01*
G37*
G36*
G01*
X73583500Y-152348250D02*
X73583500Y-151435750D01*
G75*
G02*
X73827250Y-151192000I243750J0D01*
G01*
X74314750Y-151192000D01*
G75*
G02*
X74558500Y-151435750I0J-243750D01*
G01*
X74558500Y-152348250D01*
G75*
G02*
X74314750Y-152592000I-243750J0D01*
G01*
X73827250Y-152592000D01*
G75*
G02*
X73583500Y-152348250I0J243750D01*
G01*
G37*
%TD*%
%TO.C,D14*%
G36*
G01*
X222809750Y-72410500D02*
X223722250Y-72410500D01*
G75*
G02*
X223966000Y-72654250I0J-243750D01*
G01*
X223966000Y-73141750D01*
G75*
G02*
X223722250Y-73385500I-243750J0D01*
G01*
X222809750Y-73385500D01*
G75*
G02*
X222566000Y-73141750I0J243750D01*
G01*
X222566000Y-72654250D01*
G75*
G02*
X222809750Y-72410500I243750J0D01*
G01*
G37*
G36*
G01*
X222809750Y-70535500D02*
X223722250Y-70535500D01*
G75*
G02*
X223966000Y-70779250I0J-243750D01*
G01*
X223966000Y-71266750D01*
G75*
G02*
X223722250Y-71510500I-243750J0D01*
G01*
X222809750Y-71510500D01*
G75*
G02*
X222566000Y-71266750I0J243750D01*
G01*
X222566000Y-70779250D01*
G75*
G02*
X222809750Y-70535500I243750J0D01*
G01*
G37*
%TD*%
%TO.C,\u002AD20*%
G36*
G01*
X130322500Y-64210250D02*
X130322500Y-63297750D01*
G75*
G02*
X130566250Y-63054000I243750J0D01*
G01*
X131053750Y-63054000D01*
G75*
G02*
X131297500Y-63297750I0J-243750D01*
G01*
X131297500Y-64210250D01*
G75*
G02*
X131053750Y-64454000I-243750J0D01*
G01*
X130566250Y-64454000D01*
G75*
G02*
X130322500Y-64210250I0J243750D01*
G01*
G37*
G36*
G01*
X128447500Y-64210250D02*
X128447500Y-63297750D01*
G75*
G02*
X128691250Y-63054000I243750J0D01*
G01*
X129178750Y-63054000D01*
G75*
G02*
X129422500Y-63297750I0J-243750D01*
G01*
X129422500Y-64210250D01*
G75*
G02*
X129178750Y-64454000I-243750J0D01*
G01*
X128691250Y-64454000D01*
G75*
G02*
X128447500Y-64210250I0J243750D01*
G01*
G37*
%TD*%
%TO.C,\u002AD21*%
G36*
G01*
X106913500Y-55677750D02*
X106913500Y-56590250D01*
G75*
G02*
X106669750Y-56834000I-243750J0D01*
G01*
X106182250Y-56834000D01*
G75*
G02*
X105938500Y-56590250I0J243750D01*
G01*
X105938500Y-55677750D01*
G75*
G02*
X106182250Y-55434000I243750J0D01*
G01*
X106669750Y-55434000D01*
G75*
G02*
X106913500Y-55677750I0J-243750D01*
G01*
G37*
G36*
G01*
X105038500Y-55677750D02*
X105038500Y-56590250D01*
G75*
G02*
X104794750Y-56834000I-243750J0D01*
G01*
X104307250Y-56834000D01*
G75*
G02*
X104063500Y-56590250I0J243750D01*
G01*
X104063500Y-55677750D01*
G75*
G02*
X104307250Y-55434000I243750J0D01*
G01*
X104794750Y-55434000D01*
G75*
G02*
X105038500Y-55677750I0J-243750D01*
G01*
G37*
%TD*%
%TO.C,\u002AD22*%
G36*
G01*
X106913500Y-59487750D02*
X106913500Y-60400250D01*
G75*
G02*
X106669750Y-60644000I-243750J0D01*
G01*
X106182250Y-60644000D01*
G75*
G02*
X105938500Y-60400250I0J243750D01*
G01*
X105938500Y-59487750D01*
G75*
G02*
X106182250Y-59244000I243750J0D01*
G01*
X106669750Y-59244000D01*
G75*
G02*
X106913500Y-59487750I0J-243750D01*
G01*
G37*
G36*
G01*
X105038500Y-59487750D02*
X105038500Y-60400250D01*
G75*
G02*
X104794750Y-60644000I-243750J0D01*
G01*
X104307250Y-60644000D01*
G75*
G02*
X104063500Y-60400250I0J243750D01*
G01*
X104063500Y-59487750D01*
G75*
G02*
X104307250Y-59244000I243750J0D01*
G01*
X104794750Y-59244000D01*
G75*
G02*
X105038500Y-59487750I0J-243750D01*
G01*
G37*
%TD*%
%TO.C,\u002AD23*%
G36*
G01*
X105038500Y-63297750D02*
X105038500Y-64210250D01*
G75*
G02*
X104794750Y-64454000I-243750J0D01*
G01*
X104307250Y-64454000D01*
G75*
G02*
X104063500Y-64210250I0J243750D01*
G01*
X104063500Y-63297750D01*
G75*
G02*
X104307250Y-63054000I243750J0D01*
G01*
X104794750Y-63054000D01*
G75*
G02*
X105038500Y-63297750I0J-243750D01*
G01*
G37*
G36*
G01*
X106913500Y-63297750D02*
X106913500Y-64210250D01*
G75*
G02*
X106669750Y-64454000I-243750J0D01*
G01*
X106182250Y-64454000D01*
G75*
G02*
X105938500Y-64210250I0J243750D01*
G01*
X105938500Y-63297750D01*
G75*
G02*
X106182250Y-63054000I243750J0D01*
G01*
X106669750Y-63054000D01*
G75*
G02*
X106913500Y-63297750I0J-243750D01*
G01*
G37*
%TD*%
%TO.C,\u002AD24*%
G36*
G01*
X105038500Y-67869750D02*
X105038500Y-68782250D01*
G75*
G02*
X104794750Y-69026000I-243750J0D01*
G01*
X104307250Y-69026000D01*
G75*
G02*
X104063500Y-68782250I0J243750D01*
G01*
X104063500Y-67869750D01*
G75*
G02*
X104307250Y-67626000I243750J0D01*
G01*
X104794750Y-67626000D01*
G75*
G02*
X105038500Y-67869750I0J-243750D01*
G01*
G37*
G36*
G01*
X106913500Y-67869750D02*
X106913500Y-68782250D01*
G75*
G02*
X106669750Y-69026000I-243750J0D01*
G01*
X106182250Y-69026000D01*
G75*
G02*
X105938500Y-68782250I0J243750D01*
G01*
X105938500Y-67869750D01*
G75*
G02*
X106182250Y-67626000I243750J0D01*
G01*
X106669750Y-67626000D01*
G75*
G02*
X106913500Y-67869750I0J-243750D01*
G01*
G37*
%TD*%
%TO.C,D25*%
G36*
G01*
X231191750Y-70535500D02*
X232104250Y-70535500D01*
G75*
G02*
X232348000Y-70779250I0J-243750D01*
G01*
X232348000Y-71266750D01*
G75*
G02*
X232104250Y-71510500I-243750J0D01*
G01*
X231191750Y-71510500D01*
G75*
G02*
X230948000Y-71266750I0J243750D01*
G01*
X230948000Y-70779250D01*
G75*
G02*
X231191750Y-70535500I243750J0D01*
G01*
G37*
G36*
G01*
X231191750Y-72410500D02*
X232104250Y-72410500D01*
G75*
G02*
X232348000Y-72654250I0J-243750D01*
G01*
X232348000Y-73141750D01*
G75*
G02*
X232104250Y-73385500I-243750J0D01*
G01*
X231191750Y-73385500D01*
G75*
G02*
X230948000Y-73141750I0J243750D01*
G01*
X230948000Y-72654250D01*
G75*
G02*
X231191750Y-72410500I243750J0D01*
G01*
G37*
%TD*%
D27*
%TO.C,H1*%
X240792000Y-18796000D03*
%TD*%
%TO.C,H2*%
X21336000Y-18796000D03*
%TD*%
%TO.C,H3*%
X240792000Y-150622000D03*
%TD*%
%TO.C,H4*%
X21336000Y-150622000D03*
%TD*%
D12*
%TO.C,\u002AJ1*%
X239522000Y-97362000D03*
D13*
X239522000Y-102362000D03*
%TD*%
%TO.C,J2*%
X22606000Y-117602000D03*
D12*
X22606000Y-122602000D03*
X22606000Y-127602000D03*
%TD*%
D13*
%TO.C,\u002AJ3*%
X36402000Y-149301200D03*
D12*
X41402000Y-149301200D03*
%TD*%
D28*
%TO.C,J4*%
X31702000Y-138176000D03*
G36*
G01*
X24202000Y-139176000D02*
X24202000Y-137176000D01*
G75*
G02*
X24952000Y-136426000I750000J0D01*
G01*
X26452000Y-136426000D01*
G75*
G02*
X27202000Y-137176000I0J-750000D01*
G01*
X27202000Y-139176000D01*
G75*
G02*
X26452000Y-139926000I-750000J0D01*
G01*
X24952000Y-139926000D01*
G75*
G02*
X24202000Y-139176000I0J750000D01*
G01*
G37*
G36*
G01*
X26952000Y-143751000D02*
X26952000Y-142001000D01*
G75*
G02*
X27827000Y-141126000I875000J0D01*
G01*
X29577000Y-141126000D01*
G75*
G02*
X30452000Y-142001000I0J-875000D01*
G01*
X30452000Y-143751000D01*
G75*
G02*
X29577000Y-144626000I-875000J0D01*
G01*
X27827000Y-144626000D01*
G75*
G02*
X26952000Y-143751000I0J875000D01*
G01*
G37*
%TD*%
D29*
%TO.C,J5*%
X26162000Y-108458000D03*
D21*
X23112000Y-110513000D03*
D29*
X26162000Y-97028000D03*
D30*
X32512000Y-100838000D03*
X32512000Y-103378000D03*
X35052000Y-102108000D03*
X32512000Y-105918000D03*
D31*
X32512000Y-98298000D03*
D30*
X35052000Y-99568000D03*
D21*
X23112000Y-94973000D03*
D30*
X35052000Y-107188000D03*
X35052000Y-104648000D03*
%TD*%
D32*
%TO.C,J6*%
X226318000Y-146354000D03*
X226318000Y-97994000D03*
D17*
X227838000Y-137414000D03*
X227838000Y-134874000D03*
X227838000Y-132334000D03*
X227838000Y-129794000D03*
X227838000Y-127254000D03*
X227838000Y-124714000D03*
X227838000Y-122174000D03*
X227838000Y-119634000D03*
X227838000Y-117094000D03*
X227838000Y-114554000D03*
X227838000Y-112014000D03*
X227838000Y-109474000D03*
X227838000Y-106934000D03*
X225298000Y-137414000D03*
X225298000Y-134874000D03*
X225298000Y-132334000D03*
X225298000Y-129794000D03*
X225298000Y-127254000D03*
X225298000Y-124714000D03*
X225298000Y-122174000D03*
X225298000Y-119634000D03*
X225298000Y-117094000D03*
X225298000Y-114554000D03*
X225298000Y-112014000D03*
X225298000Y-109474000D03*
G36*
G01*
X224448000Y-107534000D02*
X224448000Y-106334000D01*
G75*
G02*
X224698000Y-106084000I250000J0D01*
G01*
X225898000Y-106084000D01*
G75*
G02*
X226148000Y-106334000I0J-250000D01*
G01*
X226148000Y-107534000D01*
G75*
G02*
X225898000Y-107784000I-250000J0D01*
G01*
X224698000Y-107784000D01*
G75*
G02*
X224448000Y-107534000I0J250000D01*
G01*
G37*
%TD*%
%TO.C,J7*%
G36*
G01*
X207938000Y-107534000D02*
X207938000Y-106334000D01*
G75*
G02*
X208188000Y-106084000I250000J0D01*
G01*
X209388000Y-106084000D01*
G75*
G02*
X209638000Y-106334000I0J-250000D01*
G01*
X209638000Y-107534000D01*
G75*
G02*
X209388000Y-107784000I-250000J0D01*
G01*
X208188000Y-107784000D01*
G75*
G02*
X207938000Y-107534000I0J250000D01*
G01*
G37*
X208788000Y-109474000D03*
X208788000Y-112014000D03*
X208788000Y-114554000D03*
X208788000Y-117094000D03*
X208788000Y-119634000D03*
X208788000Y-122174000D03*
X208788000Y-124714000D03*
X208788000Y-127254000D03*
X208788000Y-129794000D03*
X208788000Y-132334000D03*
X208788000Y-134874000D03*
X208788000Y-137414000D03*
X211328000Y-106934000D03*
X211328000Y-109474000D03*
X211328000Y-112014000D03*
X211328000Y-114554000D03*
X211328000Y-117094000D03*
X211328000Y-119634000D03*
X211328000Y-122174000D03*
X211328000Y-124714000D03*
X211328000Y-127254000D03*
X211328000Y-129794000D03*
X211328000Y-132334000D03*
X211328000Y-134874000D03*
X211328000Y-137414000D03*
D32*
X209808000Y-97994000D03*
X209808000Y-146354000D03*
%TD*%
%TO.C,J8*%
X193298000Y-146354000D03*
X193298000Y-97994000D03*
D17*
X194818000Y-137414000D03*
X194818000Y-134874000D03*
X194818000Y-132334000D03*
X194818000Y-129794000D03*
X194818000Y-127254000D03*
X194818000Y-124714000D03*
X194818000Y-122174000D03*
X194818000Y-119634000D03*
X194818000Y-117094000D03*
X194818000Y-114554000D03*
X194818000Y-112014000D03*
X194818000Y-109474000D03*
X194818000Y-106934000D03*
X192278000Y-137414000D03*
X192278000Y-134874000D03*
X192278000Y-132334000D03*
X192278000Y-129794000D03*
X192278000Y-127254000D03*
X192278000Y-124714000D03*
X192278000Y-122174000D03*
X192278000Y-119634000D03*
X192278000Y-117094000D03*
X192278000Y-114554000D03*
X192278000Y-112014000D03*
X192278000Y-109474000D03*
G36*
G01*
X191428000Y-107534000D02*
X191428000Y-106334000D01*
G75*
G02*
X191678000Y-106084000I250000J0D01*
G01*
X192878000Y-106084000D01*
G75*
G02*
X193128000Y-106334000I0J-250000D01*
G01*
X193128000Y-107534000D01*
G75*
G02*
X192878000Y-107784000I-250000J0D01*
G01*
X191678000Y-107784000D01*
G75*
G02*
X191428000Y-107534000I0J250000D01*
G01*
G37*
%TD*%
D32*
%TO.C,J9*%
X176788000Y-146354000D03*
X176788000Y-97994000D03*
D17*
X178308000Y-137414000D03*
X178308000Y-134874000D03*
X178308000Y-132334000D03*
X178308000Y-129794000D03*
X178308000Y-127254000D03*
X178308000Y-124714000D03*
X178308000Y-122174000D03*
X178308000Y-119634000D03*
X178308000Y-117094000D03*
X178308000Y-114554000D03*
X178308000Y-112014000D03*
X178308000Y-109474000D03*
X178308000Y-106934000D03*
X175768000Y-137414000D03*
X175768000Y-134874000D03*
X175768000Y-132334000D03*
X175768000Y-129794000D03*
X175768000Y-127254000D03*
X175768000Y-124714000D03*
X175768000Y-122174000D03*
X175768000Y-119634000D03*
X175768000Y-117094000D03*
X175768000Y-114554000D03*
X175768000Y-112014000D03*
X175768000Y-109474000D03*
G36*
G01*
X174918000Y-107534000D02*
X174918000Y-106334000D01*
G75*
G02*
X175168000Y-106084000I250000J0D01*
G01*
X176368000Y-106084000D01*
G75*
G02*
X176618000Y-106334000I0J-250000D01*
G01*
X176618000Y-107534000D01*
G75*
G02*
X176368000Y-107784000I-250000J0D01*
G01*
X175168000Y-107784000D01*
G75*
G02*
X174918000Y-107534000I0J250000D01*
G01*
G37*
%TD*%
%TO.C,J10*%
G36*
G01*
X158408000Y-107534000D02*
X158408000Y-106334000D01*
G75*
G02*
X158658000Y-106084000I250000J0D01*
G01*
X159858000Y-106084000D01*
G75*
G02*
X160108000Y-106334000I0J-250000D01*
G01*
X160108000Y-107534000D01*
G75*
G02*
X159858000Y-107784000I-250000J0D01*
G01*
X158658000Y-107784000D01*
G75*
G02*
X158408000Y-107534000I0J250000D01*
G01*
G37*
X159258000Y-109474000D03*
X159258000Y-112014000D03*
X159258000Y-114554000D03*
X159258000Y-117094000D03*
X159258000Y-119634000D03*
X159258000Y-122174000D03*
X159258000Y-124714000D03*
X159258000Y-127254000D03*
X159258000Y-129794000D03*
X159258000Y-132334000D03*
X159258000Y-134874000D03*
X159258000Y-137414000D03*
X161798000Y-106934000D03*
X161798000Y-109474000D03*
X161798000Y-112014000D03*
X161798000Y-114554000D03*
X161798000Y-117094000D03*
X161798000Y-119634000D03*
X161798000Y-122174000D03*
X161798000Y-124714000D03*
X161798000Y-127254000D03*
X161798000Y-129794000D03*
X161798000Y-132334000D03*
X161798000Y-134874000D03*
X161798000Y-137414000D03*
D32*
X160278000Y-97994000D03*
X160278000Y-146354000D03*
%TD*%
%TO.C,J11*%
G36*
G01*
X141898000Y-107534000D02*
X141898000Y-106334000D01*
G75*
G02*
X142148000Y-106084000I250000J0D01*
G01*
X143348000Y-106084000D01*
G75*
G02*
X143598000Y-106334000I0J-250000D01*
G01*
X143598000Y-107534000D01*
G75*
G02*
X143348000Y-107784000I-250000J0D01*
G01*
X142148000Y-107784000D01*
G75*
G02*
X141898000Y-107534000I0J250000D01*
G01*
G37*
D17*
X142748000Y-109474000D03*
X142748000Y-112014000D03*
X142748000Y-114554000D03*
X142748000Y-117094000D03*
X142748000Y-119634000D03*
X142748000Y-122174000D03*
X142748000Y-124714000D03*
X142748000Y-127254000D03*
X142748000Y-129794000D03*
X142748000Y-132334000D03*
X142748000Y-134874000D03*
X142748000Y-137414000D03*
X145288000Y-106934000D03*
X145288000Y-109474000D03*
X145288000Y-112014000D03*
X145288000Y-114554000D03*
X145288000Y-117094000D03*
X145288000Y-119634000D03*
X145288000Y-122174000D03*
X145288000Y-124714000D03*
X145288000Y-127254000D03*
X145288000Y-129794000D03*
X145288000Y-132334000D03*
X145288000Y-134874000D03*
X145288000Y-137414000D03*
D32*
X143768000Y-97994000D03*
X143768000Y-146354000D03*
%TD*%
%TO.C,R1*%
G36*
G01*
X225355998Y-72385500D02*
X226256002Y-72385500D01*
G75*
G02*
X226506000Y-72635498I0J-249998D01*
G01*
X226506000Y-73160502D01*
G75*
G02*
X226256002Y-73410500I-249998J0D01*
G01*
X225355998Y-73410500D01*
G75*
G02*
X225106000Y-73160502I0J249998D01*
G01*
X225106000Y-72635498D01*
G75*
G02*
X225355998Y-72385500I249998J0D01*
G01*
G37*
G36*
G01*
X225355998Y-70560500D02*
X226256002Y-70560500D01*
G75*
G02*
X226506000Y-70810498I0J-249998D01*
G01*
X226506000Y-71335502D01*
G75*
G02*
X226256002Y-71585500I-249998J0D01*
G01*
X225355998Y-71585500D01*
G75*
G02*
X225106000Y-71335502I0J249998D01*
G01*
X225106000Y-70810498D01*
G75*
G02*
X225355998Y-70560500I249998J0D01*
G01*
G37*
%TD*%
%TO.C,\u002AR2*%
G36*
G01*
X133608500Y-59493998D02*
X133608500Y-60394002D01*
G75*
G02*
X133358502Y-60644000I-249998J0D01*
G01*
X132833498Y-60644000D01*
G75*
G02*
X132583500Y-60394002I0J249998D01*
G01*
X132583500Y-59493998D01*
G75*
G02*
X132833498Y-59244000I249998J0D01*
G01*
X133358502Y-59244000D01*
G75*
G02*
X133608500Y-59493998I0J-249998D01*
G01*
G37*
G36*
G01*
X135433500Y-59493998D02*
X135433500Y-60394002D01*
G75*
G02*
X135183502Y-60644000I-249998J0D01*
G01*
X134658498Y-60644000D01*
G75*
G02*
X134408500Y-60394002I0J249998D01*
G01*
X134408500Y-59493998D01*
G75*
G02*
X134658498Y-59244000I249998J0D01*
G01*
X135183502Y-59244000D01*
G75*
G02*
X135433500Y-59493998I0J-249998D01*
G01*
G37*
%TD*%
%TO.C,\u002AR3*%
G36*
G01*
X238049500Y-90989998D02*
X238049500Y-91890002D01*
G75*
G02*
X237799502Y-92140000I-249998J0D01*
G01*
X237274498Y-92140000D01*
G75*
G02*
X237024500Y-91890002I0J249998D01*
G01*
X237024500Y-90989998D01*
G75*
G02*
X237274498Y-90740000I249998J0D01*
G01*
X237799502Y-90740000D01*
G75*
G02*
X238049500Y-90989998I0J-249998D01*
G01*
G37*
G36*
G01*
X236224500Y-90989998D02*
X236224500Y-91890002D01*
G75*
G02*
X235974502Y-92140000I-249998J0D01*
G01*
X235449498Y-92140000D01*
G75*
G02*
X235199500Y-91890002I0J249998D01*
G01*
X235199500Y-90989998D01*
G75*
G02*
X235449498Y-90740000I249998J0D01*
G01*
X235974502Y-90740000D01*
G75*
G02*
X236224500Y-90989998I0J-249998D01*
G01*
G37*
%TD*%
%TO.C,R4*%
G36*
G01*
X77719500Y-90874002D02*
X77719500Y-89973998D01*
G75*
G02*
X77969498Y-89724000I249998J0D01*
G01*
X78494502Y-89724000D01*
G75*
G02*
X78744500Y-89973998I0J-249998D01*
G01*
X78744500Y-90874002D01*
G75*
G02*
X78494502Y-91124000I-249998J0D01*
G01*
X77969498Y-91124000D01*
G75*
G02*
X77719500Y-90874002I0J249998D01*
G01*
G37*
G36*
G01*
X79544500Y-90874002D02*
X79544500Y-89973998D01*
G75*
G02*
X79794498Y-89724000I249998J0D01*
G01*
X80319502Y-89724000D01*
G75*
G02*
X80569500Y-89973998I0J-249998D01*
G01*
X80569500Y-90874002D01*
G75*
G02*
X80319502Y-91124000I-249998J0D01*
G01*
X79794498Y-91124000D01*
G75*
G02*
X79544500Y-90874002I0J249998D01*
G01*
G37*
%TD*%
%TO.C,\u002AR5*%
G36*
G01*
X135386500Y-67875998D02*
X135386500Y-68776002D01*
G75*
G02*
X135136502Y-69026000I-249998J0D01*
G01*
X134611498Y-69026000D01*
G75*
G02*
X134361500Y-68776002I0J249998D01*
G01*
X134361500Y-67875998D01*
G75*
G02*
X134611498Y-67626000I249998J0D01*
G01*
X135136502Y-67626000D01*
G75*
G02*
X135386500Y-67875998I0J-249998D01*
G01*
G37*
G36*
G01*
X133561500Y-67875998D02*
X133561500Y-68776002D01*
G75*
G02*
X133311502Y-69026000I-249998J0D01*
G01*
X132786498Y-69026000D01*
G75*
G02*
X132536500Y-68776002I0J249998D01*
G01*
X132536500Y-67875998D01*
G75*
G02*
X132786498Y-67626000I249998J0D01*
G01*
X133311502Y-67626000D01*
G75*
G02*
X133561500Y-67875998I0J-249998D01*
G01*
G37*
%TD*%
%TO.C,R8*%
G36*
G01*
X75433500Y-149294002D02*
X75433500Y-148393998D01*
G75*
G02*
X75683498Y-148144000I249998J0D01*
G01*
X76208502Y-148144000D01*
G75*
G02*
X76458500Y-148393998I0J-249998D01*
G01*
X76458500Y-149294002D01*
G75*
G02*
X76208502Y-149544000I-249998J0D01*
G01*
X75683498Y-149544000D01*
G75*
G02*
X75433500Y-149294002I0J249998D01*
G01*
G37*
G36*
G01*
X73608500Y-149294002D02*
X73608500Y-148393998D01*
G75*
G02*
X73858498Y-148144000I249998J0D01*
G01*
X74383502Y-148144000D01*
G75*
G02*
X74633500Y-148393998I0J-249998D01*
G01*
X74633500Y-149294002D01*
G75*
G02*
X74383502Y-149544000I-249998J0D01*
G01*
X73858498Y-149544000D01*
G75*
G02*
X73608500Y-149294002I0J249998D01*
G01*
G37*
%TD*%
%TO.C,\u002AR9*%
G36*
G01*
X75380002Y-73457500D02*
X74479998Y-73457500D01*
G75*
G02*
X74230000Y-73207502I0J249998D01*
G01*
X74230000Y-72682498D01*
G75*
G02*
X74479998Y-72432500I249998J0D01*
G01*
X75380002Y-72432500D01*
G75*
G02*
X75630000Y-72682498I0J-249998D01*
G01*
X75630000Y-73207502D01*
G75*
G02*
X75380002Y-73457500I-249998J0D01*
G01*
G37*
G36*
G01*
X75380002Y-71632500D02*
X74479998Y-71632500D01*
G75*
G02*
X74230000Y-71382502I0J249998D01*
G01*
X74230000Y-70857498D01*
G75*
G02*
X74479998Y-70607500I249998J0D01*
G01*
X75380002Y-70607500D01*
G75*
G02*
X75630000Y-70857498I0J-249998D01*
G01*
X75630000Y-71382502D01*
G75*
G02*
X75380002Y-71632500I-249998J0D01*
G01*
G37*
%TD*%
%TO.C,\u002AR10*%
G36*
G01*
X119691998Y-89450500D02*
X120592002Y-89450500D01*
G75*
G02*
X120842000Y-89700498I0J-249998D01*
G01*
X120842000Y-90225502D01*
G75*
G02*
X120592002Y-90475500I-249998J0D01*
G01*
X119691998Y-90475500D01*
G75*
G02*
X119442000Y-90225502I0J249998D01*
G01*
X119442000Y-89700498D01*
G75*
G02*
X119691998Y-89450500I249998J0D01*
G01*
G37*
G36*
G01*
X119691998Y-87625500D02*
X120592002Y-87625500D01*
G75*
G02*
X120842000Y-87875498I0J-249998D01*
G01*
X120842000Y-88400502D01*
G75*
G02*
X120592002Y-88650500I-249998J0D01*
G01*
X119691998Y-88650500D01*
G75*
G02*
X119442000Y-88400502I0J249998D01*
G01*
X119442000Y-87875498D01*
G75*
G02*
X119691998Y-87625500I249998J0D01*
G01*
G37*
%TD*%
%TO.C,R17*%
G36*
G01*
X208591998Y-70560500D02*
X209492002Y-70560500D01*
G75*
G02*
X209742000Y-70810498I0J-249998D01*
G01*
X209742000Y-71335502D01*
G75*
G02*
X209492002Y-71585500I-249998J0D01*
G01*
X208591998Y-71585500D01*
G75*
G02*
X208342000Y-71335502I0J249998D01*
G01*
X208342000Y-70810498D01*
G75*
G02*
X208591998Y-70560500I249998J0D01*
G01*
G37*
G36*
G01*
X208591998Y-72385500D02*
X209492002Y-72385500D01*
G75*
G02*
X209742000Y-72635498I0J-249998D01*
G01*
X209742000Y-73160502D01*
G75*
G02*
X209492002Y-73410500I-249998J0D01*
G01*
X208591998Y-73410500D01*
G75*
G02*
X208342000Y-73160502I0J249998D01*
G01*
X208342000Y-72635498D01*
G75*
G02*
X208591998Y-72385500I249998J0D01*
G01*
G37*
%TD*%
%TO.C,R18*%
G36*
G01*
X191827998Y-70560500D02*
X192728002Y-70560500D01*
G75*
G02*
X192978000Y-70810498I0J-249998D01*
G01*
X192978000Y-71335502D01*
G75*
G02*
X192728002Y-71585500I-249998J0D01*
G01*
X191827998Y-71585500D01*
G75*
G02*
X191578000Y-71335502I0J249998D01*
G01*
X191578000Y-70810498D01*
G75*
G02*
X191827998Y-70560500I249998J0D01*
G01*
G37*
G36*
G01*
X191827998Y-72385500D02*
X192728002Y-72385500D01*
G75*
G02*
X192978000Y-72635498I0J-249998D01*
G01*
X192978000Y-73160502D01*
G75*
G02*
X192728002Y-73410500I-249998J0D01*
G01*
X191827998Y-73410500D01*
G75*
G02*
X191578000Y-73160502I0J249998D01*
G01*
X191578000Y-72635498D01*
G75*
G02*
X191827998Y-72385500I249998J0D01*
G01*
G37*
%TD*%
%TO.C,R19*%
G36*
G01*
X175063998Y-70560500D02*
X175964002Y-70560500D01*
G75*
G02*
X176214000Y-70810498I0J-249998D01*
G01*
X176214000Y-71335502D01*
G75*
G02*
X175964002Y-71585500I-249998J0D01*
G01*
X175063998Y-71585500D01*
G75*
G02*
X174814000Y-71335502I0J249998D01*
G01*
X174814000Y-70810498D01*
G75*
G02*
X175063998Y-70560500I249998J0D01*
G01*
G37*
G36*
G01*
X175063998Y-72385500D02*
X175964002Y-72385500D01*
G75*
G02*
X176214000Y-72635498I0J-249998D01*
G01*
X176214000Y-73160502D01*
G75*
G02*
X175964002Y-73410500I-249998J0D01*
G01*
X175063998Y-73410500D01*
G75*
G02*
X174814000Y-73160502I0J249998D01*
G01*
X174814000Y-72635498D01*
G75*
G02*
X175063998Y-72385500I249998J0D01*
G01*
G37*
%TD*%
%TO.C,R20*%
G36*
G01*
X158299998Y-70560500D02*
X159200002Y-70560500D01*
G75*
G02*
X159450000Y-70810498I0J-249998D01*
G01*
X159450000Y-71335502D01*
G75*
G02*
X159200002Y-71585500I-249998J0D01*
G01*
X158299998Y-71585500D01*
G75*
G02*
X158050000Y-71335502I0J249998D01*
G01*
X158050000Y-70810498D01*
G75*
G02*
X158299998Y-70560500I249998J0D01*
G01*
G37*
G36*
G01*
X158299998Y-72385500D02*
X159200002Y-72385500D01*
G75*
G02*
X159450000Y-72635498I0J-249998D01*
G01*
X159450000Y-73160502D01*
G75*
G02*
X159200002Y-73410500I-249998J0D01*
G01*
X158299998Y-73410500D01*
G75*
G02*
X158050000Y-73160502I0J249998D01*
G01*
X158050000Y-72635498D01*
G75*
G02*
X158299998Y-72385500I249998J0D01*
G01*
G37*
%TD*%
%TO.C,R21*%
G36*
G01*
X141535998Y-70560500D02*
X142436002Y-70560500D01*
G75*
G02*
X142686000Y-70810498I0J-249998D01*
G01*
X142686000Y-71335502D01*
G75*
G02*
X142436002Y-71585500I-249998J0D01*
G01*
X141535998Y-71585500D01*
G75*
G02*
X141286000Y-71335502I0J249998D01*
G01*
X141286000Y-70810498D01*
G75*
G02*
X141535998Y-70560500I249998J0D01*
G01*
G37*
G36*
G01*
X141535998Y-72385500D02*
X142436002Y-72385500D01*
G75*
G02*
X142686000Y-72635498I0J-249998D01*
G01*
X142686000Y-73160502D01*
G75*
G02*
X142436002Y-73410500I-249998J0D01*
G01*
X141535998Y-73410500D01*
G75*
G02*
X141286000Y-73160502I0J249998D01*
G01*
X141286000Y-72635498D01*
G75*
G02*
X141535998Y-72385500I249998J0D01*
G01*
G37*
%TD*%
%TO.C,R22*%
G36*
G01*
X116389998Y-72385500D02*
X117290002Y-72385500D01*
G75*
G02*
X117540000Y-72635498I0J-249998D01*
G01*
X117540000Y-73160502D01*
G75*
G02*
X117290002Y-73410500I-249998J0D01*
G01*
X116389998Y-73410500D01*
G75*
G02*
X116140000Y-73160502I0J249998D01*
G01*
X116140000Y-72635498D01*
G75*
G02*
X116389998Y-72385500I249998J0D01*
G01*
G37*
G36*
G01*
X116389998Y-70560500D02*
X117290002Y-70560500D01*
G75*
G02*
X117540000Y-70810498I0J-249998D01*
G01*
X117540000Y-71335502D01*
G75*
G02*
X117290002Y-71585500I-249998J0D01*
G01*
X116389998Y-71585500D01*
G75*
G02*
X116140000Y-71335502I0J249998D01*
G01*
X116140000Y-70810498D01*
G75*
G02*
X116389998Y-70560500I249998J0D01*
G01*
G37*
%TD*%
%TO.C,R23*%
G36*
G01*
X108007998Y-72385500D02*
X108908002Y-72385500D01*
G75*
G02*
X109158000Y-72635498I0J-249998D01*
G01*
X109158000Y-73160502D01*
G75*
G02*
X108908002Y-73410500I-249998J0D01*
G01*
X108007998Y-73410500D01*
G75*
G02*
X107758000Y-73160502I0J249998D01*
G01*
X107758000Y-72635498D01*
G75*
G02*
X108007998Y-72385500I249998J0D01*
G01*
G37*
G36*
G01*
X108007998Y-70560500D02*
X108908002Y-70560500D01*
G75*
G02*
X109158000Y-70810498I0J-249998D01*
G01*
X109158000Y-71335502D01*
G75*
G02*
X108908002Y-71585500I-249998J0D01*
G01*
X108007998Y-71585500D01*
G75*
G02*
X107758000Y-71335502I0J249998D01*
G01*
X107758000Y-70810498D01*
G75*
G02*
X108007998Y-70560500I249998J0D01*
G01*
G37*
%TD*%
%TO.C,\u002AR24*%
G36*
G01*
X99625998Y-72385500D02*
X100526002Y-72385500D01*
G75*
G02*
X100776000Y-72635498I0J-249998D01*
G01*
X100776000Y-73160502D01*
G75*
G02*
X100526002Y-73410500I-249998J0D01*
G01*
X99625998Y-73410500D01*
G75*
G02*
X99376000Y-73160502I0J249998D01*
G01*
X99376000Y-72635498D01*
G75*
G02*
X99625998Y-72385500I249998J0D01*
G01*
G37*
G36*
G01*
X99625998Y-70560500D02*
X100526002Y-70560500D01*
G75*
G02*
X100776000Y-70810498I0J-249998D01*
G01*
X100776000Y-71335502D01*
G75*
G02*
X100526002Y-71585500I-249998J0D01*
G01*
X99625998Y-71585500D01*
G75*
G02*
X99376000Y-71335502I0J249998D01*
G01*
X99376000Y-70810498D01*
G75*
G02*
X99625998Y-70560500I249998J0D01*
G01*
G37*
%TD*%
%TO.C,\u002AR25*%
G36*
G01*
X91243998Y-72385500D02*
X92144002Y-72385500D01*
G75*
G02*
X92394000Y-72635498I0J-249998D01*
G01*
X92394000Y-73160502D01*
G75*
G02*
X92144002Y-73410500I-249998J0D01*
G01*
X91243998Y-73410500D01*
G75*
G02*
X90994000Y-73160502I0J249998D01*
G01*
X90994000Y-72635498D01*
G75*
G02*
X91243998Y-72385500I249998J0D01*
G01*
G37*
G36*
G01*
X91243998Y-70560500D02*
X92144002Y-70560500D01*
G75*
G02*
X92394000Y-70810498I0J-249998D01*
G01*
X92394000Y-71335502D01*
G75*
G02*
X92144002Y-71585500I-249998J0D01*
G01*
X91243998Y-71585500D01*
G75*
G02*
X90994000Y-71335502I0J249998D01*
G01*
X90994000Y-70810498D01*
G75*
G02*
X91243998Y-70560500I249998J0D01*
G01*
G37*
%TD*%
%TO.C,\u002AR26*%
G36*
G01*
X135386500Y-63303998D02*
X135386500Y-64204002D01*
G75*
G02*
X135136502Y-64454000I-249998J0D01*
G01*
X134611498Y-64454000D01*
G75*
G02*
X134361500Y-64204002I0J249998D01*
G01*
X134361500Y-63303998D01*
G75*
G02*
X134611498Y-63054000I249998J0D01*
G01*
X135136502Y-63054000D01*
G75*
G02*
X135386500Y-63303998I0J-249998D01*
G01*
G37*
G36*
G01*
X133561500Y-63303998D02*
X133561500Y-64204002D01*
G75*
G02*
X133311502Y-64454000I-249998J0D01*
G01*
X132786498Y-64454000D01*
G75*
G02*
X132536500Y-64204002I0J249998D01*
G01*
X132536500Y-63303998D01*
G75*
G02*
X132786498Y-63054000I249998J0D01*
G01*
X133311502Y-63054000D01*
G75*
G02*
X133561500Y-63303998I0J-249998D01*
G01*
G37*
%TD*%
%TO.C,R27*%
G36*
G01*
X128974002Y-88650500D02*
X128073998Y-88650500D01*
G75*
G02*
X127824000Y-88400502I0J249998D01*
G01*
X127824000Y-87875498D01*
G75*
G02*
X128073998Y-87625500I249998J0D01*
G01*
X128974002Y-87625500D01*
G75*
G02*
X129224000Y-87875498I0J-249998D01*
G01*
X129224000Y-88400502D01*
G75*
G02*
X128974002Y-88650500I-249998J0D01*
G01*
G37*
G36*
G01*
X128974002Y-90475500D02*
X128073998Y-90475500D01*
G75*
G02*
X127824000Y-90225502I0J249998D01*
G01*
X127824000Y-89700498D01*
G75*
G02*
X128073998Y-89450500I249998J0D01*
G01*
X128974002Y-89450500D01*
G75*
G02*
X129224000Y-89700498I0J-249998D01*
G01*
X129224000Y-90225502D01*
G75*
G02*
X128974002Y-90475500I-249998J0D01*
G01*
G37*
%TD*%
%TO.C,R28*%
G36*
G01*
X233737998Y-70560500D02*
X234638002Y-70560500D01*
G75*
G02*
X234888000Y-70810498I0J-249998D01*
G01*
X234888000Y-71335502D01*
G75*
G02*
X234638002Y-71585500I-249998J0D01*
G01*
X233737998Y-71585500D01*
G75*
G02*
X233488000Y-71335502I0J249998D01*
G01*
X233488000Y-70810498D01*
G75*
G02*
X233737998Y-70560500I249998J0D01*
G01*
G37*
G36*
G01*
X233737998Y-72385500D02*
X234638002Y-72385500D01*
G75*
G02*
X234888000Y-72635498I0J-249998D01*
G01*
X234888000Y-73160502D01*
G75*
G02*
X234638002Y-73410500I-249998J0D01*
G01*
X233737998Y-73410500D01*
G75*
G02*
X233488000Y-73160502I0J249998D01*
G01*
X233488000Y-72635498D01*
G75*
G02*
X233737998Y-72385500I249998J0D01*
G01*
G37*
%TD*%
%TO.C,R29*%
G36*
G01*
X216973998Y-72385500D02*
X217874002Y-72385500D01*
G75*
G02*
X218124000Y-72635498I0J-249998D01*
G01*
X218124000Y-73160502D01*
G75*
G02*
X217874002Y-73410500I-249998J0D01*
G01*
X216973998Y-73410500D01*
G75*
G02*
X216724000Y-73160502I0J249998D01*
G01*
X216724000Y-72635498D01*
G75*
G02*
X216973998Y-72385500I249998J0D01*
G01*
G37*
G36*
G01*
X216973998Y-70560500D02*
X217874002Y-70560500D01*
G75*
G02*
X218124000Y-70810498I0J-249998D01*
G01*
X218124000Y-71335502D01*
G75*
G02*
X217874002Y-71585500I-249998J0D01*
G01*
X216973998Y-71585500D01*
G75*
G02*
X216724000Y-71335502I0J249998D01*
G01*
X216724000Y-70810498D01*
G75*
G02*
X216973998Y-70560500I249998J0D01*
G01*
G37*
%TD*%
%TO.C,R30*%
G36*
G01*
X200209998Y-70560500D02*
X201110002Y-70560500D01*
G75*
G02*
X201360000Y-70810498I0J-249998D01*
G01*
X201360000Y-71335502D01*
G75*
G02*
X201110002Y-71585500I-249998J0D01*
G01*
X200209998Y-71585500D01*
G75*
G02*
X199960000Y-71335502I0J249998D01*
G01*
X199960000Y-70810498D01*
G75*
G02*
X200209998Y-70560500I249998J0D01*
G01*
G37*
G36*
G01*
X200209998Y-72385500D02*
X201110002Y-72385500D01*
G75*
G02*
X201360000Y-72635498I0J-249998D01*
G01*
X201360000Y-73160502D01*
G75*
G02*
X201110002Y-73410500I-249998J0D01*
G01*
X200209998Y-73410500D01*
G75*
G02*
X199960000Y-73160502I0J249998D01*
G01*
X199960000Y-72635498D01*
G75*
G02*
X200209998Y-72385500I249998J0D01*
G01*
G37*
%TD*%
%TO.C,R31*%
G36*
G01*
X183445998Y-72385500D02*
X184346002Y-72385500D01*
G75*
G02*
X184596000Y-72635498I0J-249998D01*
G01*
X184596000Y-73160502D01*
G75*
G02*
X184346002Y-73410500I-249998J0D01*
G01*
X183445998Y-73410500D01*
G75*
G02*
X183196000Y-73160502I0J249998D01*
G01*
X183196000Y-72635498D01*
G75*
G02*
X183445998Y-72385500I249998J0D01*
G01*
G37*
G36*
G01*
X183445998Y-70560500D02*
X184346002Y-70560500D01*
G75*
G02*
X184596000Y-70810498I0J-249998D01*
G01*
X184596000Y-71335502D01*
G75*
G02*
X184346002Y-71585500I-249998J0D01*
G01*
X183445998Y-71585500D01*
G75*
G02*
X183196000Y-71335502I0J249998D01*
G01*
X183196000Y-70810498D01*
G75*
G02*
X183445998Y-70560500I249998J0D01*
G01*
G37*
%TD*%
%TO.C,R32*%
G36*
G01*
X166681998Y-70560500D02*
X167582002Y-70560500D01*
G75*
G02*
X167832000Y-70810498I0J-249998D01*
G01*
X167832000Y-71335502D01*
G75*
G02*
X167582002Y-71585500I-249998J0D01*
G01*
X166681998Y-71585500D01*
G75*
G02*
X166432000Y-71335502I0J249998D01*
G01*
X166432000Y-70810498D01*
G75*
G02*
X166681998Y-70560500I249998J0D01*
G01*
G37*
G36*
G01*
X166681998Y-72385500D02*
X167582002Y-72385500D01*
G75*
G02*
X167832000Y-72635498I0J-249998D01*
G01*
X167832000Y-73160502D01*
G75*
G02*
X167582002Y-73410500I-249998J0D01*
G01*
X166681998Y-73410500D01*
G75*
G02*
X166432000Y-73160502I0J249998D01*
G01*
X166432000Y-72635498D01*
G75*
G02*
X166681998Y-72385500I249998J0D01*
G01*
G37*
%TD*%
%TO.C,R33*%
G36*
G01*
X149917998Y-72385500D02*
X150818002Y-72385500D01*
G75*
G02*
X151068000Y-72635498I0J-249998D01*
G01*
X151068000Y-73160502D01*
G75*
G02*
X150818002Y-73410500I-249998J0D01*
G01*
X149917998Y-73410500D01*
G75*
G02*
X149668000Y-73160502I0J249998D01*
G01*
X149668000Y-72635498D01*
G75*
G02*
X149917998Y-72385500I249998J0D01*
G01*
G37*
G36*
G01*
X149917998Y-70560500D02*
X150818002Y-70560500D01*
G75*
G02*
X151068000Y-70810498I0J-249998D01*
G01*
X151068000Y-71335502D01*
G75*
G02*
X150818002Y-71585500I-249998J0D01*
G01*
X149917998Y-71585500D01*
G75*
G02*
X149668000Y-71335502I0J249998D01*
G01*
X149668000Y-70810498D01*
G75*
G02*
X149917998Y-70560500I249998J0D01*
G01*
G37*
%TD*%
%TO.C,\u002AR34*%
G36*
G01*
X19754002Y-90221500D02*
X18853998Y-90221500D01*
G75*
G02*
X18604000Y-89971502I0J249998D01*
G01*
X18604000Y-89446498D01*
G75*
G02*
X18853998Y-89196500I249998J0D01*
G01*
X19754002Y-89196500D01*
G75*
G02*
X20004000Y-89446498I0J-249998D01*
G01*
X20004000Y-89971502D01*
G75*
G02*
X19754002Y-90221500I-249998J0D01*
G01*
G37*
G36*
G01*
X19754002Y-88396500D02*
X18853998Y-88396500D01*
G75*
G02*
X18604000Y-88146502I0J249998D01*
G01*
X18604000Y-87621498D01*
G75*
G02*
X18853998Y-87371500I249998J0D01*
G01*
X19754002Y-87371500D01*
G75*
G02*
X20004000Y-87621498I0J-249998D01*
G01*
X20004000Y-88146502D01*
G75*
G02*
X19754002Y-88396500I-249998J0D01*
G01*
G37*
%TD*%
%TO.C,\u002AR35*%
G36*
G01*
X28136002Y-88396500D02*
X27235998Y-88396500D01*
G75*
G02*
X26986000Y-88146502I0J249998D01*
G01*
X26986000Y-87621498D01*
G75*
G02*
X27235998Y-87371500I249998J0D01*
G01*
X28136002Y-87371500D01*
G75*
G02*
X28386000Y-87621498I0J-249998D01*
G01*
X28386000Y-88146502D01*
G75*
G02*
X28136002Y-88396500I-249998J0D01*
G01*
G37*
G36*
G01*
X28136002Y-90221500D02*
X27235998Y-90221500D01*
G75*
G02*
X26986000Y-89971502I0J249998D01*
G01*
X26986000Y-89446498D01*
G75*
G02*
X27235998Y-89196500I249998J0D01*
G01*
X28136002Y-89196500D01*
G75*
G02*
X28386000Y-89446498I0J-249998D01*
G01*
X28386000Y-89971502D01*
G75*
G02*
X28136002Y-90221500I-249998J0D01*
G01*
G37*
%TD*%
%TO.C,\u002AR36*%
G36*
G01*
X61918002Y-90221500D02*
X61017998Y-90221500D01*
G75*
G02*
X60768000Y-89971502I0J249998D01*
G01*
X60768000Y-89446498D01*
G75*
G02*
X61017998Y-89196500I249998J0D01*
G01*
X61918002Y-89196500D01*
G75*
G02*
X62168000Y-89446498I0J-249998D01*
G01*
X62168000Y-89971502D01*
G75*
G02*
X61918002Y-90221500I-249998J0D01*
G01*
G37*
G36*
G01*
X61918002Y-88396500D02*
X61017998Y-88396500D01*
G75*
G02*
X60768000Y-88146502I0J249998D01*
G01*
X60768000Y-87621498D01*
G75*
G02*
X61017998Y-87371500I249998J0D01*
G01*
X61918002Y-87371500D01*
G75*
G02*
X62168000Y-87621498I0J-249998D01*
G01*
X62168000Y-88146502D01*
G75*
G02*
X61918002Y-88396500I-249998J0D01*
G01*
G37*
%TD*%
%TO.C,\u002AR37*%
G36*
G01*
X36518002Y-90221500D02*
X35617998Y-90221500D01*
G75*
G02*
X35368000Y-89971502I0J249998D01*
G01*
X35368000Y-89446498D01*
G75*
G02*
X35617998Y-89196500I249998J0D01*
G01*
X36518002Y-89196500D01*
G75*
G02*
X36768000Y-89446498I0J-249998D01*
G01*
X36768000Y-89971502D01*
G75*
G02*
X36518002Y-90221500I-249998J0D01*
G01*
G37*
G36*
G01*
X36518002Y-88396500D02*
X35617998Y-88396500D01*
G75*
G02*
X35368000Y-88146502I0J249998D01*
G01*
X35368000Y-87621498D01*
G75*
G02*
X35617998Y-87371500I249998J0D01*
G01*
X36518002Y-87371500D01*
G75*
G02*
X36768000Y-87621498I0J-249998D01*
G01*
X36768000Y-88146502D01*
G75*
G02*
X36518002Y-88396500I-249998J0D01*
G01*
G37*
%TD*%
%TO.C,\u002AR38*%
G36*
G01*
X53536002Y-90221500D02*
X52635998Y-90221500D01*
G75*
G02*
X52386000Y-89971502I0J249998D01*
G01*
X52386000Y-89446498D01*
G75*
G02*
X52635998Y-89196500I249998J0D01*
G01*
X53536002Y-89196500D01*
G75*
G02*
X53786000Y-89446498I0J-249998D01*
G01*
X53786000Y-89971502D01*
G75*
G02*
X53536002Y-90221500I-249998J0D01*
G01*
G37*
G36*
G01*
X53536002Y-88396500D02*
X52635998Y-88396500D01*
G75*
G02*
X52386000Y-88146502I0J249998D01*
G01*
X52386000Y-87621498D01*
G75*
G02*
X52635998Y-87371500I249998J0D01*
G01*
X53536002Y-87371500D01*
G75*
G02*
X53786000Y-87621498I0J-249998D01*
G01*
X53786000Y-88146502D01*
G75*
G02*
X53536002Y-88396500I-249998J0D01*
G01*
G37*
%TD*%
%TO.C,\u002AR39*%
G36*
G01*
X45154002Y-88396500D02*
X44253998Y-88396500D01*
G75*
G02*
X44004000Y-88146502I0J249998D01*
G01*
X44004000Y-87621498D01*
G75*
G02*
X44253998Y-87371500I249998J0D01*
G01*
X45154002Y-87371500D01*
G75*
G02*
X45404000Y-87621498I0J-249998D01*
G01*
X45404000Y-88146502D01*
G75*
G02*
X45154002Y-88396500I-249998J0D01*
G01*
G37*
G36*
G01*
X45154002Y-90221500D02*
X44253998Y-90221500D01*
G75*
G02*
X44004000Y-89971502I0J249998D01*
G01*
X44004000Y-89446498D01*
G75*
G02*
X44253998Y-89196500I249998J0D01*
G01*
X45154002Y-89196500D01*
G75*
G02*
X45404000Y-89446498I0J-249998D01*
G01*
X45404000Y-89971502D01*
G75*
G02*
X45154002Y-90221500I-249998J0D01*
G01*
G37*
%TD*%
D33*
%TO.C,U1*%
X225806000Y-75753000D03*
X220726000Y-85283000D03*
X223266000Y-75753000D03*
X223266000Y-85283000D03*
X220726000Y-75753000D03*
X225806000Y-85283000D03*
%TD*%
%TO.C,\u002AU2*%
X74930000Y-75692000D03*
X69850000Y-85222000D03*
X72390000Y-75692000D03*
X72390000Y-85222000D03*
X69850000Y-75692000D03*
X74930000Y-85222000D03*
%TD*%
%TO.C,\u002AU3*%
X237490000Y-75692000D03*
X242570000Y-85222000D03*
X240030000Y-75692000D03*
X240030000Y-85222000D03*
X242570000Y-75692000D03*
X237490000Y-85222000D03*
%TD*%
%TO.C,U4*%
X78232000Y-75560000D03*
X83312000Y-85090000D03*
X80772000Y-75560000D03*
X80772000Y-85090000D03*
X83312000Y-75560000D03*
X78232000Y-85090000D03*
%TD*%
%TO.C,\u002AU5*%
X120142000Y-75692000D03*
X125222000Y-85222000D03*
X122682000Y-75692000D03*
X122682000Y-85222000D03*
X125222000Y-75692000D03*
X120142000Y-85222000D03*
%TD*%
%TO.C,U7*%
X209042000Y-85283000D03*
X203962000Y-75753000D03*
X206502000Y-85283000D03*
X206502000Y-75753000D03*
X203962000Y-85283000D03*
X209042000Y-75753000D03*
%TD*%
%TO.C,U8*%
X192278000Y-75753000D03*
X187198000Y-85283000D03*
X189738000Y-75753000D03*
X189738000Y-85283000D03*
X187198000Y-75753000D03*
X192278000Y-85283000D03*
%TD*%
%TO.C,U9*%
X175514000Y-85283000D03*
X170434000Y-75753000D03*
X172974000Y-85283000D03*
X172974000Y-75753000D03*
X170434000Y-85283000D03*
X175514000Y-75753000D03*
%TD*%
%TO.C,U10*%
X158750000Y-75753000D03*
X153670000Y-85283000D03*
X156210000Y-75753000D03*
X156210000Y-85283000D03*
X153670000Y-75753000D03*
X158750000Y-85283000D03*
%TD*%
%TO.C,U11*%
X141986000Y-85283000D03*
X136906000Y-75753000D03*
X139446000Y-85283000D03*
X139446000Y-75753000D03*
X136906000Y-85283000D03*
X141986000Y-75753000D03*
%TD*%
%TO.C,U12*%
X128524000Y-85283000D03*
X133604000Y-75753000D03*
X131064000Y-85283000D03*
X131064000Y-75753000D03*
X133604000Y-85283000D03*
X128524000Y-75753000D03*
%TD*%
%TO.C,U13*%
X116840000Y-85222000D03*
X111760000Y-75692000D03*
X114300000Y-85222000D03*
X114300000Y-75692000D03*
X111760000Y-85222000D03*
X116840000Y-75692000D03*
%TD*%
%TO.C,U14*%
X108458000Y-75692000D03*
X103378000Y-85222000D03*
X105918000Y-75692000D03*
X105918000Y-85222000D03*
X103378000Y-75692000D03*
X108458000Y-85222000D03*
%TD*%
%TO.C,\u002AU15*%
X100076000Y-75692000D03*
X94996000Y-85222000D03*
X97536000Y-75692000D03*
X97536000Y-85222000D03*
X94996000Y-75692000D03*
X100076000Y-85222000D03*
%TD*%
%TO.C,\u002AU16*%
X91694000Y-85222000D03*
X86614000Y-75692000D03*
X89154000Y-85222000D03*
X89154000Y-75692000D03*
X86614000Y-85222000D03*
X91694000Y-75692000D03*
%TD*%
%TO.C,U17*%
X234188000Y-75753000D03*
X229108000Y-85283000D03*
X231648000Y-75753000D03*
X231648000Y-85283000D03*
X229108000Y-75753000D03*
X234188000Y-85283000D03*
%TD*%
%TO.C,U18*%
X217424000Y-85283000D03*
X212344000Y-75753000D03*
X214884000Y-85283000D03*
X214884000Y-75753000D03*
X212344000Y-85283000D03*
X217424000Y-75753000D03*
%TD*%
%TO.C,U19*%
X200660000Y-75753000D03*
X195580000Y-85283000D03*
X198120000Y-75753000D03*
X198120000Y-85283000D03*
X195580000Y-75753000D03*
X200660000Y-85283000D03*
%TD*%
%TO.C,U20*%
X183896000Y-75753000D03*
X178816000Y-85283000D03*
X181356000Y-75753000D03*
X181356000Y-85283000D03*
X178816000Y-75753000D03*
X183896000Y-85283000D03*
%TD*%
%TO.C,U21*%
X167132000Y-85283000D03*
X162052000Y-75753000D03*
X164592000Y-85283000D03*
X164592000Y-75753000D03*
X162052000Y-85283000D03*
X167132000Y-75753000D03*
%TD*%
%TO.C,U22*%
X150368000Y-75753000D03*
X145288000Y-85283000D03*
X147828000Y-75753000D03*
X147828000Y-85283000D03*
X145288000Y-75753000D03*
X150368000Y-85283000D03*
%TD*%
%TO.C,\u002AU23*%
X27686000Y-75499000D03*
X32766000Y-85029000D03*
X30226000Y-75499000D03*
X30226000Y-85029000D03*
X32766000Y-75499000D03*
X27686000Y-85029000D03*
%TD*%
%TO.C,\u002AU24*%
X19304000Y-75499000D03*
X24384000Y-85029000D03*
X21844000Y-75499000D03*
X21844000Y-85029000D03*
X24384000Y-75499000D03*
X19304000Y-85029000D03*
%TD*%
%TO.C,\u002AU25*%
X36068000Y-75499000D03*
X41148000Y-85029000D03*
X38608000Y-75499000D03*
X38608000Y-85029000D03*
X41148000Y-75499000D03*
X36068000Y-85029000D03*
%TD*%
%TO.C,\u002AU26*%
X61468000Y-85029000D03*
X66548000Y-75499000D03*
X64008000Y-85029000D03*
X64008000Y-75499000D03*
X66548000Y-85029000D03*
X61468000Y-75499000D03*
%TD*%
%TO.C,\u002AU27*%
X44704000Y-85029000D03*
X49784000Y-75499000D03*
X47244000Y-85029000D03*
X47244000Y-75499000D03*
X49784000Y-85029000D03*
X44704000Y-75499000D03*
%TD*%
%TO.C,\u002AU28*%
X53086000Y-85029000D03*
X58166000Y-75499000D03*
X55626000Y-85029000D03*
X55626000Y-75499000D03*
X58166000Y-85029000D03*
X53086000Y-75499000D03*
%TD*%
M02*
