%TF.GenerationSoftware,KiCad,Pcbnew,(5.1.8)-1*%
%TF.CreationDate,2020-12-01T03:48:25+04:00*%
%TF.ProjectId,111,3131312e-6b69-4636-9164-5f7063625858,ver 1.0*%
%TF.SameCoordinates,Original*%
%TF.FileFunction,Soldermask,Bot*%
%TF.FilePolarity,Negative*%
%FSLAX46Y46*%
G04 Gerber Fmt 4.6, Leading zero omitted, Abs format (unit mm)*
G04 Created by KiCad (PCBNEW (5.1.8)-1) date 2020-12-01 03:48:25*
%MOMM*%
%LPD*%
G01*
G04 APERTURE LIST*
%ADD10C,2.600000*%
%ADD11R,2.600000X2.600000*%
%ADD12C,3.200000*%
%ADD13O,1.600000X1.600000*%
%ADD14R,1.600000X1.600000*%
%ADD15C,1.700000*%
%ADD16C,1.524000*%
%ADD17R,1.524000X1.524000*%
%ADD18C,1.440000*%
%ADD19C,3.000000*%
%ADD20O,1.800000X2.600000*%
%ADD21R,1.800000X2.600000*%
%ADD22R,0.900000X0.800000*%
%ADD23R,2.200000X2.200000*%
%ADD24O,2.200000X2.200000*%
%ADD25C,6.400000*%
%ADD26R,3.500000X3.500000*%
%ADD27C,3.250000*%
%ADD28C,1.500000*%
%ADD29R,1.500000X1.500000*%
%ADD30C,8.000000*%
G04 APERTURE END LIST*
D10*
%TO.C,\u002AJ2*%
X22606000Y-34798000D03*
D11*
X22606000Y-29798000D03*
%TD*%
D12*
%TO.C,\u002AXA1*%
X178054000Y-61214000D03*
X178054000Y-33274000D03*
X228854000Y-18034000D03*
X230124000Y-66294000D03*
D13*
X183134000Y-18034000D03*
X180594000Y-18034000D03*
X220214000Y-18034000D03*
X180594000Y-66294000D03*
X217674000Y-18034000D03*
X183134000Y-66294000D03*
X215134000Y-18034000D03*
X185674000Y-66294000D03*
X212594000Y-18034000D03*
X188214000Y-66294000D03*
X210054000Y-18034000D03*
X190754000Y-66294000D03*
X207514000Y-18034000D03*
X193294000Y-66294000D03*
X204974000Y-18034000D03*
X198374000Y-66294000D03*
X202434000Y-18034000D03*
X200914000Y-66294000D03*
X198374000Y-18034000D03*
X203454000Y-66294000D03*
X195834000Y-18034000D03*
X205994000Y-66294000D03*
X193294000Y-18034000D03*
X208534000Y-66294000D03*
X190754000Y-18034000D03*
X211074000Y-66294000D03*
X188214000Y-18034000D03*
X213614000Y-66294000D03*
X185674000Y-18034000D03*
D14*
X216154000Y-66294000D03*
D13*
X222754000Y-18034000D03*
X225294000Y-18034000D03*
%TD*%
%TO.C,U5*%
X154686000Y-61976000D03*
X162306000Y-28956000D03*
X154686000Y-59436000D03*
X162306000Y-31496000D03*
X154686000Y-56896000D03*
X162306000Y-34036000D03*
X154686000Y-54356000D03*
X162306000Y-36576000D03*
X154686000Y-51816000D03*
X162306000Y-39116000D03*
X154686000Y-49276000D03*
X162306000Y-41656000D03*
X154686000Y-46736000D03*
X162306000Y-44196000D03*
X154686000Y-44196000D03*
X162306000Y-46736000D03*
X154686000Y-41656000D03*
X162306000Y-49276000D03*
X154686000Y-39116000D03*
X162306000Y-51816000D03*
X154686000Y-36576000D03*
X162306000Y-54356000D03*
X154686000Y-34036000D03*
X162306000Y-56896000D03*
X154686000Y-31496000D03*
X162306000Y-59436000D03*
X154686000Y-28956000D03*
D14*
X162306000Y-61976000D03*
%TD*%
%TO.C,J12*%
G36*
G01*
X234608000Y-115154000D02*
X234608000Y-113954000D01*
G75*
G02*
X234858000Y-113704000I250000J0D01*
G01*
X236058000Y-113704000D01*
G75*
G02*
X236308000Y-113954000I0J-250000D01*
G01*
X236308000Y-115154000D01*
G75*
G02*
X236058000Y-115404000I-250000J0D01*
G01*
X234858000Y-115404000D01*
G75*
G02*
X234608000Y-115154000I0J250000D01*
G01*
G37*
D15*
X235458000Y-117094000D03*
X235458000Y-119634000D03*
X235458000Y-122174000D03*
X235458000Y-124714000D03*
X237998000Y-114554000D03*
X237998000Y-117094000D03*
X237998000Y-119634000D03*
X237998000Y-122174000D03*
X237998000Y-124714000D03*
%TD*%
D13*
%TO.C,U3*%
X47244000Y-62992000D03*
X54864000Y-29972000D03*
X47244000Y-60452000D03*
X54864000Y-32512000D03*
X47244000Y-57912000D03*
X54864000Y-35052000D03*
X47244000Y-55372000D03*
X54864000Y-37592000D03*
X47244000Y-52832000D03*
X54864000Y-40132000D03*
X47244000Y-50292000D03*
X54864000Y-42672000D03*
X47244000Y-47752000D03*
X54864000Y-45212000D03*
X47244000Y-45212000D03*
X54864000Y-47752000D03*
X47244000Y-42672000D03*
X54864000Y-50292000D03*
X47244000Y-40132000D03*
X54864000Y-52832000D03*
X47244000Y-37592000D03*
X54864000Y-55372000D03*
X47244000Y-35052000D03*
X54864000Y-57912000D03*
X47244000Y-32512000D03*
X54864000Y-60452000D03*
X47244000Y-29972000D03*
D14*
X54864000Y-62992000D03*
%TD*%
D16*
%TO.C,U2*%
X198628000Y-30480000D03*
X201168000Y-30480000D03*
X203708000Y-30480000D03*
X206248000Y-30480000D03*
X208788000Y-30480000D03*
X211328000Y-30480000D03*
X213868000Y-30480000D03*
X216408000Y-30480000D03*
X218948000Y-30480000D03*
X221488000Y-30480000D03*
X224028000Y-30480000D03*
X226568000Y-30480000D03*
X229108000Y-30480000D03*
X231648000Y-30480000D03*
X234188000Y-30480000D03*
X234188000Y-55880000D03*
X231648000Y-55880000D03*
X229108000Y-55880000D03*
X226568000Y-55880000D03*
X224028000Y-55880000D03*
X221488000Y-55880000D03*
X218948000Y-55880000D03*
X216408000Y-55880000D03*
X213868000Y-55880000D03*
X211328000Y-55880000D03*
X208788000Y-55880000D03*
X206248000Y-55880000D03*
X203708000Y-55880000D03*
X201168000Y-55880000D03*
D17*
X198628000Y-55880000D03*
%TD*%
D18*
%TO.C,RV1*%
X51308000Y-22860000D03*
X53848000Y-20320000D03*
X56388000Y-22860000D03*
%TD*%
D19*
%TO.C,DS1*%
X136556000Y-18034000D03*
X136555480Y-49034700D03*
X61556900Y-49034700D03*
X61556900Y-18034000D03*
D20*
X105156000Y-18034000D03*
X102616000Y-18034000D03*
X100076000Y-18034000D03*
X97536000Y-18034000D03*
X94996000Y-18034000D03*
X92456000Y-18034000D03*
X89916000Y-18034000D03*
X87376000Y-18034000D03*
X84836000Y-18034000D03*
X82296000Y-18034000D03*
X79756000Y-18034000D03*
X77216000Y-18034000D03*
X74676000Y-18034000D03*
X72136000Y-18034000D03*
X69596000Y-18034000D03*
D21*
X67056000Y-18034000D03*
%TD*%
D22*
%TO.C,\u002AD1*%
X201962000Y-147386000D03*
X203962000Y-148336000D03*
X203962000Y-146436000D03*
%TD*%
D23*
%TO.C,D7*%
X46736000Y-138176000D03*
D24*
X36576000Y-138176000D03*
%TD*%
D22*
%TO.C,\u002AD12*%
X170910000Y-146116000D03*
X170910000Y-148016000D03*
X168910000Y-147066000D03*
%TD*%
%TO.C,\u002AD13*%
X137890000Y-145928000D03*
X137890000Y-147828000D03*
X135890000Y-146878000D03*
%TD*%
D25*
%TO.C,H1*%
X240792000Y-18796000D03*
%TD*%
%TO.C,H2*%
X21336000Y-18796000D03*
%TD*%
%TO.C,H3*%
X240792000Y-150622000D03*
%TD*%
%TO.C,H4*%
X21336000Y-150622000D03*
%TD*%
D10*
%TO.C,\u002AJ1*%
X239522000Y-97362000D03*
D11*
X239522000Y-102362000D03*
%TD*%
%TO.C,J2*%
X22606000Y-117602000D03*
D10*
X22606000Y-122602000D03*
X22606000Y-127602000D03*
%TD*%
D11*
%TO.C,\u002AJ3*%
X36402000Y-149301200D03*
D10*
X41402000Y-149301200D03*
%TD*%
D26*
%TO.C,J4*%
X31702000Y-138176000D03*
G36*
G01*
X24202000Y-139176000D02*
X24202000Y-137176000D01*
G75*
G02*
X24952000Y-136426000I750000J0D01*
G01*
X26452000Y-136426000D01*
G75*
G02*
X27202000Y-137176000I0J-750000D01*
G01*
X27202000Y-139176000D01*
G75*
G02*
X26452000Y-139926000I-750000J0D01*
G01*
X24952000Y-139926000D01*
G75*
G02*
X24202000Y-139176000I0J750000D01*
G01*
G37*
G36*
G01*
X26952000Y-143751000D02*
X26952000Y-142001000D01*
G75*
G02*
X27827000Y-141126000I875000J0D01*
G01*
X29577000Y-141126000D01*
G75*
G02*
X30452000Y-142001000I0J-875000D01*
G01*
X30452000Y-143751000D01*
G75*
G02*
X29577000Y-144626000I-875000J0D01*
G01*
X27827000Y-144626000D01*
G75*
G02*
X26952000Y-143751000I0J875000D01*
G01*
G37*
%TD*%
D27*
%TO.C,J5*%
X26162000Y-108458000D03*
D19*
X23112000Y-110513000D03*
D27*
X26162000Y-97028000D03*
D28*
X32512000Y-100838000D03*
X32512000Y-103378000D03*
X35052000Y-102108000D03*
X32512000Y-105918000D03*
D29*
X32512000Y-98298000D03*
D28*
X35052000Y-99568000D03*
D19*
X23112000Y-94973000D03*
D28*
X35052000Y-107188000D03*
X35052000Y-104648000D03*
%TD*%
D30*
%TO.C,J6*%
X226318000Y-146354000D03*
X226318000Y-97994000D03*
D15*
X227838000Y-137414000D03*
X227838000Y-134874000D03*
X227838000Y-132334000D03*
X227838000Y-129794000D03*
X227838000Y-127254000D03*
X227838000Y-124714000D03*
X227838000Y-122174000D03*
X227838000Y-119634000D03*
X227838000Y-117094000D03*
X227838000Y-114554000D03*
X227838000Y-112014000D03*
X227838000Y-109474000D03*
X227838000Y-106934000D03*
X225298000Y-137414000D03*
X225298000Y-134874000D03*
X225298000Y-132334000D03*
X225298000Y-129794000D03*
X225298000Y-127254000D03*
X225298000Y-124714000D03*
X225298000Y-122174000D03*
X225298000Y-119634000D03*
X225298000Y-117094000D03*
X225298000Y-114554000D03*
X225298000Y-112014000D03*
X225298000Y-109474000D03*
G36*
G01*
X224448000Y-107534000D02*
X224448000Y-106334000D01*
G75*
G02*
X224698000Y-106084000I250000J0D01*
G01*
X225898000Y-106084000D01*
G75*
G02*
X226148000Y-106334000I0J-250000D01*
G01*
X226148000Y-107534000D01*
G75*
G02*
X225898000Y-107784000I-250000J0D01*
G01*
X224698000Y-107784000D01*
G75*
G02*
X224448000Y-107534000I0J250000D01*
G01*
G37*
%TD*%
%TO.C,J7*%
G36*
G01*
X207938000Y-107534000D02*
X207938000Y-106334000D01*
G75*
G02*
X208188000Y-106084000I250000J0D01*
G01*
X209388000Y-106084000D01*
G75*
G02*
X209638000Y-106334000I0J-250000D01*
G01*
X209638000Y-107534000D01*
G75*
G02*
X209388000Y-107784000I-250000J0D01*
G01*
X208188000Y-107784000D01*
G75*
G02*
X207938000Y-107534000I0J250000D01*
G01*
G37*
X208788000Y-109474000D03*
X208788000Y-112014000D03*
X208788000Y-114554000D03*
X208788000Y-117094000D03*
X208788000Y-119634000D03*
X208788000Y-122174000D03*
X208788000Y-124714000D03*
X208788000Y-127254000D03*
X208788000Y-129794000D03*
X208788000Y-132334000D03*
X208788000Y-134874000D03*
X208788000Y-137414000D03*
X211328000Y-106934000D03*
X211328000Y-109474000D03*
X211328000Y-112014000D03*
X211328000Y-114554000D03*
X211328000Y-117094000D03*
X211328000Y-119634000D03*
X211328000Y-122174000D03*
X211328000Y-124714000D03*
X211328000Y-127254000D03*
X211328000Y-129794000D03*
X211328000Y-132334000D03*
X211328000Y-134874000D03*
X211328000Y-137414000D03*
D30*
X209808000Y-97994000D03*
X209808000Y-146354000D03*
%TD*%
%TO.C,J8*%
X193298000Y-146354000D03*
X193298000Y-97994000D03*
D15*
X194818000Y-137414000D03*
X194818000Y-134874000D03*
X194818000Y-132334000D03*
X194818000Y-129794000D03*
X194818000Y-127254000D03*
X194818000Y-124714000D03*
X194818000Y-122174000D03*
X194818000Y-119634000D03*
X194818000Y-117094000D03*
X194818000Y-114554000D03*
X194818000Y-112014000D03*
X194818000Y-109474000D03*
X194818000Y-106934000D03*
X192278000Y-137414000D03*
X192278000Y-134874000D03*
X192278000Y-132334000D03*
X192278000Y-129794000D03*
X192278000Y-127254000D03*
X192278000Y-124714000D03*
X192278000Y-122174000D03*
X192278000Y-119634000D03*
X192278000Y-117094000D03*
X192278000Y-114554000D03*
X192278000Y-112014000D03*
X192278000Y-109474000D03*
G36*
G01*
X191428000Y-107534000D02*
X191428000Y-106334000D01*
G75*
G02*
X191678000Y-106084000I250000J0D01*
G01*
X192878000Y-106084000D01*
G75*
G02*
X193128000Y-106334000I0J-250000D01*
G01*
X193128000Y-107534000D01*
G75*
G02*
X192878000Y-107784000I-250000J0D01*
G01*
X191678000Y-107784000D01*
G75*
G02*
X191428000Y-107534000I0J250000D01*
G01*
G37*
%TD*%
D30*
%TO.C,J9*%
X176788000Y-146354000D03*
X176788000Y-97994000D03*
D15*
X178308000Y-137414000D03*
X178308000Y-134874000D03*
X178308000Y-132334000D03*
X178308000Y-129794000D03*
X178308000Y-127254000D03*
X178308000Y-124714000D03*
X178308000Y-122174000D03*
X178308000Y-119634000D03*
X178308000Y-117094000D03*
X178308000Y-114554000D03*
X178308000Y-112014000D03*
X178308000Y-109474000D03*
X178308000Y-106934000D03*
X175768000Y-137414000D03*
X175768000Y-134874000D03*
X175768000Y-132334000D03*
X175768000Y-129794000D03*
X175768000Y-127254000D03*
X175768000Y-124714000D03*
X175768000Y-122174000D03*
X175768000Y-119634000D03*
X175768000Y-117094000D03*
X175768000Y-114554000D03*
X175768000Y-112014000D03*
X175768000Y-109474000D03*
G36*
G01*
X174918000Y-107534000D02*
X174918000Y-106334000D01*
G75*
G02*
X175168000Y-106084000I250000J0D01*
G01*
X176368000Y-106084000D01*
G75*
G02*
X176618000Y-106334000I0J-250000D01*
G01*
X176618000Y-107534000D01*
G75*
G02*
X176368000Y-107784000I-250000J0D01*
G01*
X175168000Y-107784000D01*
G75*
G02*
X174918000Y-107534000I0J250000D01*
G01*
G37*
%TD*%
%TO.C,J10*%
G36*
G01*
X158408000Y-107534000D02*
X158408000Y-106334000D01*
G75*
G02*
X158658000Y-106084000I250000J0D01*
G01*
X159858000Y-106084000D01*
G75*
G02*
X160108000Y-106334000I0J-250000D01*
G01*
X160108000Y-107534000D01*
G75*
G02*
X159858000Y-107784000I-250000J0D01*
G01*
X158658000Y-107784000D01*
G75*
G02*
X158408000Y-107534000I0J250000D01*
G01*
G37*
X159258000Y-109474000D03*
X159258000Y-112014000D03*
X159258000Y-114554000D03*
X159258000Y-117094000D03*
X159258000Y-119634000D03*
X159258000Y-122174000D03*
X159258000Y-124714000D03*
X159258000Y-127254000D03*
X159258000Y-129794000D03*
X159258000Y-132334000D03*
X159258000Y-134874000D03*
X159258000Y-137414000D03*
X161798000Y-106934000D03*
X161798000Y-109474000D03*
X161798000Y-112014000D03*
X161798000Y-114554000D03*
X161798000Y-117094000D03*
X161798000Y-119634000D03*
X161798000Y-122174000D03*
X161798000Y-124714000D03*
X161798000Y-127254000D03*
X161798000Y-129794000D03*
X161798000Y-132334000D03*
X161798000Y-134874000D03*
X161798000Y-137414000D03*
D30*
X160278000Y-97994000D03*
X160278000Y-146354000D03*
%TD*%
%TO.C,J11*%
G36*
G01*
X141898000Y-107534000D02*
X141898000Y-106334000D01*
G75*
G02*
X142148000Y-106084000I250000J0D01*
G01*
X143348000Y-106084000D01*
G75*
G02*
X143598000Y-106334000I0J-250000D01*
G01*
X143598000Y-107534000D01*
G75*
G02*
X143348000Y-107784000I-250000J0D01*
G01*
X142148000Y-107784000D01*
G75*
G02*
X141898000Y-107534000I0J250000D01*
G01*
G37*
D15*
X142748000Y-109474000D03*
X142748000Y-112014000D03*
X142748000Y-114554000D03*
X142748000Y-117094000D03*
X142748000Y-119634000D03*
X142748000Y-122174000D03*
X142748000Y-124714000D03*
X142748000Y-127254000D03*
X142748000Y-129794000D03*
X142748000Y-132334000D03*
X142748000Y-134874000D03*
X142748000Y-137414000D03*
X145288000Y-106934000D03*
X145288000Y-109474000D03*
X145288000Y-112014000D03*
X145288000Y-114554000D03*
X145288000Y-117094000D03*
X145288000Y-119634000D03*
X145288000Y-122174000D03*
X145288000Y-124714000D03*
X145288000Y-127254000D03*
X145288000Y-129794000D03*
X145288000Y-132334000D03*
X145288000Y-134874000D03*
X145288000Y-137414000D03*
D30*
X143768000Y-97994000D03*
X143768000Y-146354000D03*
%TD*%
%TO.C,\u002AR11*%
G36*
G01*
X220668002Y-131830500D02*
X219767998Y-131830500D01*
G75*
G02*
X219518000Y-131580502I0J249998D01*
G01*
X219518000Y-131055498D01*
G75*
G02*
X219767998Y-130805500I249998J0D01*
G01*
X220668002Y-130805500D01*
G75*
G02*
X220918000Y-131055498I0J-249998D01*
G01*
X220918000Y-131580502D01*
G75*
G02*
X220668002Y-131830500I-249998J0D01*
G01*
G37*
G36*
G01*
X220668002Y-130005500D02*
X219767998Y-130005500D01*
G75*
G02*
X219518000Y-129755502I0J249998D01*
G01*
X219518000Y-129230498D01*
G75*
G02*
X219767998Y-128980500I249998J0D01*
G01*
X220668002Y-128980500D01*
G75*
G02*
X220918000Y-129230498I0J-249998D01*
G01*
X220918000Y-129755502D01*
G75*
G02*
X220668002Y-130005500I-249998J0D01*
G01*
G37*
%TD*%
%TO.C,\u002AR12*%
G36*
G01*
X203904002Y-129902000D02*
X203003998Y-129902000D01*
G75*
G02*
X202754000Y-129652002I0J249998D01*
G01*
X202754000Y-129126998D01*
G75*
G02*
X203003998Y-128877000I249998J0D01*
G01*
X203904002Y-128877000D01*
G75*
G02*
X204154000Y-129126998I0J-249998D01*
G01*
X204154000Y-129652002D01*
G75*
G02*
X203904002Y-129902000I-249998J0D01*
G01*
G37*
G36*
G01*
X203904002Y-131727000D02*
X203003998Y-131727000D01*
G75*
G02*
X202754000Y-131477002I0J249998D01*
G01*
X202754000Y-130951998D01*
G75*
G02*
X203003998Y-130702000I249998J0D01*
G01*
X203904002Y-130702000D01*
G75*
G02*
X204154000Y-130951998I0J-249998D01*
G01*
X204154000Y-131477002D01*
G75*
G02*
X203904002Y-131727000I-249998J0D01*
G01*
G37*
%TD*%
%TO.C,\u002AR13*%
G36*
G01*
X187394002Y-131877500D02*
X186493998Y-131877500D01*
G75*
G02*
X186244000Y-131627502I0J249998D01*
G01*
X186244000Y-131102498D01*
G75*
G02*
X186493998Y-130852500I249998J0D01*
G01*
X187394002Y-130852500D01*
G75*
G02*
X187644000Y-131102498I0J-249998D01*
G01*
X187644000Y-131627502D01*
G75*
G02*
X187394002Y-131877500I-249998J0D01*
G01*
G37*
G36*
G01*
X187394002Y-130052500D02*
X186493998Y-130052500D01*
G75*
G02*
X186244000Y-129802502I0J249998D01*
G01*
X186244000Y-129277498D01*
G75*
G02*
X186493998Y-129027500I249998J0D01*
G01*
X187394002Y-129027500D01*
G75*
G02*
X187644000Y-129277498I0J-249998D01*
G01*
X187644000Y-129802502D01*
G75*
G02*
X187394002Y-130052500I-249998J0D01*
G01*
G37*
%TD*%
%TO.C,\u002AR14*%
G36*
G01*
X170884002Y-129902000D02*
X169983998Y-129902000D01*
G75*
G02*
X169734000Y-129652002I0J249998D01*
G01*
X169734000Y-129126998D01*
G75*
G02*
X169983998Y-128877000I249998J0D01*
G01*
X170884002Y-128877000D01*
G75*
G02*
X171134000Y-129126998I0J-249998D01*
G01*
X171134000Y-129652002D01*
G75*
G02*
X170884002Y-129902000I-249998J0D01*
G01*
G37*
G36*
G01*
X170884002Y-131727000D02*
X169983998Y-131727000D01*
G75*
G02*
X169734000Y-131477002I0J249998D01*
G01*
X169734000Y-130951998D01*
G75*
G02*
X169983998Y-130702000I249998J0D01*
G01*
X170884002Y-130702000D01*
G75*
G02*
X171134000Y-130951998I0J-249998D01*
G01*
X171134000Y-131477002D01*
G75*
G02*
X170884002Y-131727000I-249998J0D01*
G01*
G37*
%TD*%
%TO.C,\u002AR15*%
G36*
G01*
X154374002Y-131727000D02*
X153473998Y-131727000D01*
G75*
G02*
X153224000Y-131477002I0J249998D01*
G01*
X153224000Y-130951998D01*
G75*
G02*
X153473998Y-130702000I249998J0D01*
G01*
X154374002Y-130702000D01*
G75*
G02*
X154624000Y-130951998I0J-249998D01*
G01*
X154624000Y-131477002D01*
G75*
G02*
X154374002Y-131727000I-249998J0D01*
G01*
G37*
G36*
G01*
X154374002Y-129902000D02*
X153473998Y-129902000D01*
G75*
G02*
X153224000Y-129652002I0J249998D01*
G01*
X153224000Y-129126998D01*
G75*
G02*
X153473998Y-128877000I249998J0D01*
G01*
X154374002Y-128877000D01*
G75*
G02*
X154624000Y-129126998I0J-249998D01*
G01*
X154624000Y-129652002D01*
G75*
G02*
X154374002Y-129902000I-249998J0D01*
G01*
G37*
%TD*%
%TO.C,\u002AR16*%
G36*
G01*
X137864002Y-129902000D02*
X136963998Y-129902000D01*
G75*
G02*
X136714000Y-129652002I0J249998D01*
G01*
X136714000Y-129126998D01*
G75*
G02*
X136963998Y-128877000I249998J0D01*
G01*
X137864002Y-128877000D01*
G75*
G02*
X138114000Y-129126998I0J-249998D01*
G01*
X138114000Y-129652002D01*
G75*
G02*
X137864002Y-129902000I-249998J0D01*
G01*
G37*
G36*
G01*
X137864002Y-131727000D02*
X136963998Y-131727000D01*
G75*
G02*
X136714000Y-131477002I0J249998D01*
G01*
X136714000Y-130951998D01*
G75*
G02*
X136963998Y-130702000I249998J0D01*
G01*
X137864002Y-130702000D01*
G75*
G02*
X138114000Y-130951998I0J-249998D01*
G01*
X138114000Y-131477002D01*
G75*
G02*
X137864002Y-131727000I-249998J0D01*
G01*
G37*
%TD*%
M02*
