M48
; DRILL file {KiCad (5.1.8)-1} date 12/01/20 03:48:22
; FORMAT={-:-/ absolute / inch / decimal}
; #@! TF.CreationDate,2020-12-01T03:48:22+04:00
; #@! TF.GenerationSoftware,Kicad,Pcbnew,(5.1.8)-1
; #@! TF.FileFunction,Plated,1,2,PTH
FMAT,2
INCH
T1C0.0300
T2C0.0315
T3C0.0354
T4C0.0394
T5C0.0433
T6C0.0472
T7C0.0512
T8C0.0630
T9C0.0984
T10C0.1059
T11C0.1260
%
G90
G05
T1
X7.82Y-1.2
X7.82Y-2.2
X7.92Y-1.2
X7.92Y-2.2
X8.02Y-1.2
X8.02Y-2.2
X8.12Y-1.2
X8.12Y-2.2
X8.22Y-1.2
X8.22Y-2.2
X8.32Y-1.2
X8.32Y-2.2
X8.42Y-1.2
X8.42Y-2.2
X8.52Y-1.2
X8.52Y-2.2
X8.62Y-1.2
X8.62Y-2.2
X8.72Y-1.2
X8.72Y-2.2
X8.82Y-1.2
X8.82Y-2.2
X8.92Y-1.2
X8.92Y-2.2
X9.02Y-1.2
X9.02Y-2.2
X9.12Y-1.2
X9.12Y-2.2
X9.22Y-1.2
X9.22Y-2.2
T2
X0.86Y-1.98
X1.18Y-3.97
X1.19Y-2.08
X1.19Y-3.54
X1.46Y-2.18
X1.46Y-2.83
X1.52Y-2.28
X1.61Y-3.5413
X1.61Y-4.02
X1.66Y-4.12
X1.77Y-2.88
X1.86Y-4.22
X2.0Y-4.92
X2.19Y-2.88
X2.19Y-4.29
X2.5Y-4.34
X2.52Y-2.83
X2.84Y-0.9087
X2.84Y-1.01
X2.84Y-1.48
X2.8948Y-1.0564
X2.9Y-1.18
X2.94Y-0.9087
X2.95Y-2.28
X2.97Y-1.0957
X2.97Y-1.28
X3.04Y-1.145
X3.04Y-1.38
X3.12Y-4.82
X3.14Y-0.958
X3.18Y-1.78
X3.51Y-4.91
X3.61Y-2.08
X3.64Y-0.9973
X3.7Y-2.69
X3.74Y-1.04
X3.84Y-1.0761
X3.84Y-5.53
X3.9Y-4.47
X3.94Y-1.1154
X3.94Y-2.18
X3.99Y-2.28
X4.0Y-2.47
X4.0Y-3.45
X4.04Y-2.69
X4.09Y-3.7
X4.17Y-4.81
X4.24Y-4.02
X4.24Y-4.12
X4.24Y-4.3
X4.27Y-2.56
X4.29Y-3.5
X4.33Y-2.47
X4.33Y-4.06
X4.34Y-4.65
X4.36Y-3.8
X4.43Y-3.7
X4.5Y-3.7
X4.6Y-2.38
X4.62Y-4.12
X4.67Y-2.3
X4.67Y-4.37
X4.73Y-5.78
X4.81Y-4.42
X4.83Y-2.79
X4.96Y-3.54
X4.98Y-2.64
X4.98Y-2.87
X5.01Y-3.7
X5.15Y-2.79
X5.16Y-2.87
X5.16Y-6.04
X5.29Y-4.81
X5.29Y-5.58
X5.29Y-5.68
X5.35Y-4.61
X5.35Y-4.91
X5.35Y-5.48
X5.45Y-5.65
X5.4541Y-5.21
X5.52Y-3.71
X5.59Y-2.04
X5.81Y-4.91
X5.8108Y-5.53
X5.85Y-4.21
X5.85Y-4.31
X5.8508Y-2.56
X5.86Y-5.11
X5.86Y-6.04
X5.9Y-2.61
X5.92Y-2.72
X5.94Y-4.12
X5.94Y-4.71
X5.94Y-4.81
X5.94Y-5.58
X5.95Y-1.74
X5.95Y-1.84
X5.95Y-1.94
X5.9504Y-2.6694
X5.99Y-4.61
X5.99Y-4.91
X5.99Y-5.48
X6.1Y-5.9391
X6.1041Y-5.21
X6.16Y-2.72
X6.1609Y-1.94
X6.25Y-2.72
X6.28Y-2.04
X6.44Y-3.7
X6.46Y-4.91
X6.4608Y-5.53
X6.5Y-1.34
X6.5Y-4.21
X6.5Y-4.31
X6.5008Y-1.54
X6.51Y-5.11
X6.51Y-6.04
X6.55Y-1.24
X6.55Y-1.64
X6.59Y-4.04
X6.59Y-4.71
X6.59Y-4.81
X6.59Y-5.58
X6.5992Y-1.59
X6.6Y-1.14
X6.6198Y-2.5106
X6.65Y-4.61
X6.65Y-4.91
X6.65Y-5.48
X6.66Y-1.44
X6.66Y-2.05
X6.6671Y-1.5036
X6.72Y-2.14
X6.72Y-2.5608
X6.75Y-5.66
X6.7541Y-5.21
X6.91Y-2.71
X7.09Y-3.7
X7.11Y-4.91
X7.1108Y-5.5292
X7.15Y-4.21
X7.15Y-4.31
X7.16Y-5.11
X7.16Y-6.04
X7.23Y-0.8793
X7.24Y-2.74
X7.25Y-3.5386
X7.25Y-4.71
X7.25Y-4.81
X7.25Y-5.58
X7.3Y-4.61
X7.3Y-4.91
X7.3Y-5.48
X7.3061Y-0.8793
X7.3826Y-0.8793
X7.42Y-5.21
X7.42Y-5.93
X7.44Y-2.2
X7.46Y-2.49
X7.4707Y-0.8793
X7.52Y-2.43
X7.5208Y-2.28
X7.55Y-1.84
X7.5621Y-0.8793
X7.57Y-2.74
X7.5834Y-2.3634
X7.64Y-3.54
X7.65Y-0.97
X7.6621Y-0.8793
X7.74Y-1.74
X7.74Y-2.6908
X7.76Y-4.92
X7.7608Y-5.53
X7.78Y-1.4
X7.78Y-1.4591
X7.78Y-1.5181
X7.78Y-1.5772
X7.8Y-4.21
X7.8Y-4.31
X7.81Y-5.11
X7.81Y-6.04
X7.82Y-0.93
X7.88Y-3.5
X7.88Y-4.71
X7.88Y-4.81
X7.88Y-5.58
X7.9Y-2.74
X7.92Y-1.58
X7.94Y-4.61
X7.94Y-4.91
X7.94Y-5.48
X8.07Y-0.95
X8.07Y-5.21
X8.07Y-5.66
X8.17Y-1.0022
X8.22Y-1.46
X8.23Y-2.74
X8.27Y-1.14
X8.27Y-1.52
X8.32Y-0.88
X8.37Y-1.0908
X8.4Y-3.52
X8.41Y-4.91
X8.41Y-5.53
X8.42Y-1.4
X8.46Y-4.21
X8.46Y-4.31
X8.46Y-5.11
X8.46Y-6.04
X8.47Y-1.0514
X8.54Y-3.45
X8.54Y-4.71
X8.54Y-4.81
X8.54Y-5.58
X8.58Y-2.4313
X8.59Y-4.61
X8.59Y-4.91
X8.59Y-5.4808
X8.69Y-3.45
X8.72Y-0.95
X8.72Y-5.21
X8.73Y-5.9908
X8.82Y-1.42
X8.89Y-2.35
X8.92Y-1.36
X9.02Y-1.012
X9.02Y-1.3
X9.12Y-4.21
X9.12Y-4.91
X9.12Y-5.53
X9.1692Y-5.11
X9.17Y-6.04
X9.2887Y-2.3
X9.39Y-2.2
X6.09Y-1.14
X6.09Y-1.24
X6.09Y-1.34
X6.09Y-1.44
X6.09Y-1.54
X6.09Y-1.64
X6.09Y-1.74
X6.09Y-1.84
X6.09Y-1.94
X6.09Y-2.04
X6.09Y-2.14
X6.09Y-2.24
X6.09Y-2.34
X6.09Y-2.44
X6.39Y-1.14
X6.39Y-1.24
X6.39Y-1.34
X6.39Y-1.44
X6.39Y-1.54
X6.39Y-1.64
X6.39Y-1.74
X6.39Y-1.84
X6.39Y-1.94
X6.39Y-2.04
X6.39Y-2.14
X6.39Y-2.24
X6.39Y-2.34
X6.39Y-2.44
X1.86Y-1.18
X1.86Y-1.28
X1.86Y-1.38
X1.86Y-1.48
X1.86Y-1.58
X1.86Y-1.68
X1.86Y-1.78
X1.86Y-1.88
X1.86Y-1.98
X1.86Y-2.08
X1.86Y-2.18
X1.86Y-2.28
X1.86Y-2.38
X1.86Y-2.48
X2.16Y-1.18
X2.16Y-1.28
X2.16Y-1.38
X2.16Y-1.48
X2.16Y-1.58
X2.16Y-1.68
X2.16Y-1.78
X2.16Y-1.88
X2.16Y-1.98
X2.16Y-2.08
X2.16Y-2.18
X2.16Y-2.28
X2.16Y-2.38
X2.16Y-2.48
X2.02Y-0.9
X2.12Y-0.8
X2.22Y-0.9
T3
X1.28Y-3.87
X1.28Y-3.97
X1.28Y-4.07
X1.28Y-4.17
X1.38Y-3.92
X1.38Y-4.02
X1.38Y-4.12
X1.38Y-4.22
T4
X8.22Y-4.21
X8.22Y-4.31
X8.22Y-4.41
X8.22Y-4.51
X8.22Y-4.61
X8.22Y-4.71
X8.22Y-4.81
X8.22Y-4.91
X8.22Y-5.01
X8.22Y-5.11
X8.22Y-5.21
X8.22Y-5.31
X8.22Y-5.41
X8.32Y-4.21
X8.32Y-4.31
X8.32Y-4.41
X8.32Y-4.51
X8.32Y-4.61
X8.32Y-4.71
X8.32Y-4.81
X8.32Y-4.91
X8.32Y-5.01
X8.32Y-5.11
X8.32Y-5.21
X8.32Y-5.31
X8.32Y-5.41
X8.87Y-4.21
X8.87Y-4.31
X8.87Y-4.41
X8.87Y-4.51
X8.87Y-4.61
X8.87Y-4.71
X8.87Y-4.81
X8.87Y-4.91
X8.87Y-5.01
X8.87Y-5.11
X8.87Y-5.21
X8.87Y-5.31
X8.87Y-5.41
X8.97Y-4.21
X8.97Y-4.31
X8.97Y-4.41
X8.97Y-4.51
X8.97Y-4.61
X8.97Y-4.71
X8.97Y-4.81
X8.97Y-4.91
X8.97Y-5.01
X8.97Y-5.11
X8.97Y-5.21
X8.97Y-5.31
X8.97Y-5.41
X5.62Y-4.21
X5.62Y-4.31
X5.62Y-4.41
X5.62Y-4.51
X5.62Y-4.61
X5.62Y-4.71
X5.62Y-4.81
X5.62Y-4.91
X5.62Y-5.01
X5.62Y-5.11
X5.62Y-5.21
X5.62Y-5.31
X5.62Y-5.41
X5.72Y-4.21
X5.72Y-4.31
X5.72Y-4.41
X5.72Y-4.51
X5.72Y-4.61
X5.72Y-4.71
X5.72Y-4.81
X5.72Y-4.91
X5.72Y-5.01
X5.72Y-5.11
X5.72Y-5.21
X5.72Y-5.31
X5.72Y-5.41
X6.92Y-4.21
X6.92Y-4.31
X6.92Y-4.41
X6.92Y-4.51
X6.92Y-4.61
X6.92Y-4.71
X6.92Y-4.81
X6.92Y-4.91
X6.92Y-5.01
X6.92Y-5.11
X6.92Y-5.21
X6.92Y-5.31
X6.92Y-5.41
X7.02Y-4.21
X7.02Y-4.31
X7.02Y-4.41
X7.02Y-4.51
X7.02Y-4.61
X7.02Y-4.71
X7.02Y-4.81
X7.02Y-4.91
X7.02Y-5.01
X7.02Y-5.11
X7.02Y-5.21
X7.02Y-5.31
X7.02Y-5.41
X7.11Y-0.71
X7.11Y-2.61
X7.21Y-0.71
X7.21Y-2.61
X7.31Y-0.71
X7.31Y-2.61
X7.41Y-0.71
X7.41Y-2.61
X7.51Y-0.71
X7.51Y-2.61
X7.61Y-0.71
X7.61Y-2.61
X7.71Y-0.71
X7.81Y-0.71
X7.81Y-2.61
X7.91Y-2.61
X7.9698Y-0.71
X8.01Y-2.61
X8.0698Y-0.71
X8.11Y-2.61
X8.1698Y-0.71
X8.21Y-2.61
X8.2698Y-0.71
X8.31Y-2.61
X8.3698Y-0.71
X8.41Y-2.61
X8.4698Y-0.71
X8.51Y-2.61
X8.5698Y-0.71
X8.6698Y-0.71
X8.7698Y-0.71
X8.8698Y-0.71
X6.27Y-4.21
X6.27Y-4.31
X6.27Y-4.41
X6.27Y-4.51
X6.27Y-4.61
X6.27Y-4.71
X6.27Y-4.81
X6.27Y-4.91
X6.27Y-5.01
X6.27Y-5.11
X6.27Y-5.21
X6.27Y-5.31
X6.27Y-5.41
X6.37Y-4.21
X6.37Y-4.31
X6.37Y-4.41
X6.37Y-4.51
X6.37Y-4.61
X6.37Y-4.71
X6.37Y-4.81
X6.37Y-4.91
X6.37Y-5.01
X6.37Y-5.11
X6.37Y-5.21
X6.37Y-5.31
X6.37Y-5.41
X9.27Y-4.51
X9.27Y-4.61
X9.27Y-4.71
X9.27Y-4.81
X9.27Y-4.91
X9.37Y-4.51
X9.37Y-4.61
X9.37Y-4.71
X9.37Y-4.81
X9.37Y-4.91
X7.57Y-4.21
X7.57Y-4.31
X7.57Y-4.41
X7.57Y-4.51
X7.57Y-4.61
X7.57Y-4.71
X7.57Y-4.81
X7.57Y-4.91
X7.57Y-5.01
X7.57Y-5.11
X7.57Y-5.21
X7.57Y-5.31
X7.57Y-5.41
X7.67Y-4.21
X7.67Y-4.31
X7.67Y-4.41
X7.67Y-4.51
X7.67Y-4.61
X7.67Y-4.71
X7.67Y-4.81
X7.67Y-4.91
X7.67Y-5.01
X7.67Y-5.11
X7.67Y-5.21
X7.67Y-5.31
X7.67Y-5.41
T5
X1.44Y-5.44
X1.84Y-5.44
T6
X0.76Y-3.62
X1.09Y-3.62
X1.42Y-3.62
X1.53Y-3.92
X1.75Y-0.69
X1.75Y-1.18
X1.75Y-1.48
X1.76Y-3.62
X1.84Y-5.2
X2.09Y-3.62
X2.42Y-3.62
X2.74Y-0.83
X2.85Y-3.62
X4.04Y-0.83
X5.06Y-3.62
X5.15Y-0.83
X5.15Y-1.44
X5.43Y-3.62
X5.43Y-4.31
X5.43Y-5.01
X5.65Y-1.44
X6.08Y-3.62
X6.08Y-4.31
X6.08Y-5.01
X6.73Y-3.62
X6.73Y-4.31
X6.73Y-5.01
X7.38Y-3.62
X7.38Y-4.31
X7.38Y-5.01
X8.03Y-3.62
X8.03Y-4.31
X8.03Y-5.01
X8.68Y-3.62
X8.68Y-4.31
X8.68Y-5.01
X8.95Y-3.5
X9.1987Y-3.6
X9.21Y-2.49
X9.32Y-0.89
X9.49Y-3.54
X9.52Y-2.82
X2.64Y-0.71
X2.74Y-0.71
X2.84Y-0.71
X2.94Y-0.71
X3.04Y-0.71
X3.14Y-0.71
X3.24Y-0.71
X3.34Y-0.71
X3.44Y-0.71
X3.54Y-0.71
X3.64Y-0.71
X3.74Y-0.71
X3.84Y-0.71
X3.94Y-0.71
X4.04Y-0.71
X4.14Y-0.71
T7
X0.89Y-4.63
X0.89Y-4.8269
X0.89Y-5.0237
X9.43Y-3.8331
X9.43Y-4.03
X0.89Y-1.1731
X0.89Y-1.37
X1.4331Y-5.878
X1.63Y-5.878
T8
X0.9099Y-3.7391
X0.9099Y-4.3509
T9
X2.4235Y-0.71
X2.4235Y-1.9305
X5.3762Y-1.9305
X5.3762Y-0.71
T10
X8.2602Y-3.858
X8.2602Y-5.762
X8.9102Y-3.858
X8.9102Y-5.762
X5.6602Y-3.858
X5.6602Y-5.762
X6.9602Y-3.858
X6.9602Y-5.762
X6.3102Y-3.858
X6.3102Y-5.762
X7.6102Y-3.858
X7.6102Y-5.762
T11
X9.48Y-5.93
X0.84Y-0.74
X9.48Y-0.74
X0.84Y-5.93
T4
G00X1.0119Y-5.4006
M15
G01X1.0119Y-5.4794
M16
G05
G00X1.0906Y-5.625
M15
G01X1.1694Y-5.625
M16
G05
G00X1.2481Y-5.4006
M15
G01X1.2481Y-5.4794
M16
G05
T0
M30
